<svg id="Grupo_1075246" data-name="Grupo 1075246" xmlns="http://www.w3.org/2000/svg" xmlns:xlink="http://www.w3.org/1999/xlink" width="1328" height="586" viewBox="0 0 1328 586">
  <defs>
    <clipPath id="clip-path">
      <rect id="Rect치ngulo_377901" data-name="Rect치ngulo 377901" width="1328" height="586" fill="#fee7bd"/>
    </clipPath>
    <linearGradient id="linear-gradient" x1="1.019" y1="0.67" x2="0.211" y2="0.839" gradientUnits="objectBoundingBox">
      <stop offset="0" stop-color="#fee6bd"/>
      <stop offset="0.46" stop-color="#f7f1e7"/>
      <stop offset="1" stop-color="#eddbbb"/>
    </linearGradient>
    <clipPath id="clip-path-2">
      <path id="Trazado_611069" data-name="Trazado 611069" d="M18.071,567.906,1060.129,598,1042.058,30.094,0,0Z" fill="none"/>
    </clipPath>
  </defs>
  <g id="Grupo_154360" data-name="Grupo 154360" transform="translate(0 0)" clip-path="url(#clip-path)">
    <path id="Trazado_610761" data-name="Trazado 610761" d="M0,1417.792H779.226V0H0Z" transform="translate(-57.652 705.285) rotate(-90)" fill="url(#linear-gradient)"/>
    <rect id="Rect치ngulo_378306" data-name="Rect치ngulo 378306" width="1398.301" height="619.457" transform="translate(1360.14 619.457) rotate(180)" fill="none"/>
    <g id="Grupo_1073803" data-name="Grupo 1073803" transform="translate(183.834 907.619) rotate(-106)">
      <g id="Enmascarar_grupo_1073803" data-name="Enmascarar grupo 1073803" transform="translate(0)" clip-path="url(#clip-path-2)">
        <path id="Trazado_611020" data-name="Trazado 611020" d="M1097.546,42.4,484.886,24.7,408.3,22.492l-38.291-1.106-4.787-.138-.6-.017c-.193-.006-.452-.014-.432-.01q-.137,0-.273,0c-.091,0-.182,0-.273-.009s-.179,0-.269,0c-.717,0-1.414.012-2.09.067a28.538,28.538,0,0,0-3.9.555,25.38,25.38,0,0,0-3.651,1.11q-.886.345-1.74.757c-.566.278-1.118.58-1.654.9a21.145,21.145,0,0,0-2.99,2.164,17.5,17.5,0,0,0-2.407,2.556,15.506,15.506,0,0,0-1.734,2.8,14.2,14.2,0,0,0-1.379,6.253c.008.145.008.289,0,.434q.022.218.023.434c.027.286.037.572.079.85.066.559.157,1.1.275,1.638a15.7,15.7,0,0,0,1.065,3.1,16.621,16.621,0,0,0,.779,1.494q.44.737.963,1.455a21.364,21.364,0,0,0,2.415,2.765,24.177,24.177,0,0,0,3.015,2.44,25.39,25.39,0,0,0,3.429,1.989,28.165,28.165,0,0,0,3.684,1.452c.16.043.314.1.473.145s.319.086.476.137.322.078.48.125.324.072.483.116c.647.15,1.3.279,1.969.388s1.346.2,2.046.262c.351.023.7.06,1.063.074.09,0,.178.019.27.018s.182,0,.273.007.182.009.273.015l1.09.033,153.165,4.423L672.794,66.6l19.146.553,4.786.138,2.438.071q2.12.074,4.241.163,8.49.4,17.016,1.391c5.674.663,11.341,1.517,16.969,2.583s11.217,2.328,16.739,3.783a234.092,234.092,0,0,1,32.138,10.983,211.069,211.069,0,0,1,55.271,34.069,179.561,179.561,0,0,1,21.545,22.014,157.374,157.374,0,0,1,16.563,24.541,143.5,143.5,0,0,1,6.233,12.977,135.267,135.267,0,0,1,4.761,13.3,126.109,126.109,0,0,1,5.027,27.011,124.122,124.122,0,0,1,.265,13.47,118.385,118.385,0,0,1-1.244,13.434,120.138,120.138,0,0,1-7.023,26.237,128.6,128.6,0,0,1-12.886,24.527,141.979,141.979,0,0,1-18.26,21.977,161.277,161.277,0,0,1-23.013,18.8,183.3,183.3,0,0,1-27.125,15.083,213.655,213.655,0,0,1-63.249,17.179,240.112,240.112,0,0,1-33.841,1.478l-19.374-.556-76.583-2.212L.674,351.9,0,330.7,612.661,348.4l76.583,2.212,19.3.554a207.06,207.06,0,0,0,29.154-1.272,183.853,183.853,0,0,0,54.429-14.784,157.955,157.955,0,0,0,23.361-12.99,138.942,138.942,0,0,0,19.825-16.2A122.238,122.238,0,0,0,851.038,287a110.761,110.761,0,0,0,11.089-21.107,103.366,103.366,0,0,0,6.043-22.578,101.84,101.84,0,0,0,1.072-11.571,107.166,107.166,0,0,0-.23-11.615,108.523,108.523,0,0,0-4.328-23.261,116.594,116.594,0,0,0-4.1-11.443,123.614,123.614,0,0,0-5.364-11.165,135.513,135.513,0,0,0-14.256-21.124,154.744,154.744,0,0,0-18.558-18.961,181.774,181.774,0,0,0-47.6-29.343,201.342,201.342,0,0,0-27.655-9.45q-7.127-1.878-14.4-3.255c-4.843-.918-9.722-1.652-14.608-2.223s-9.782-.968-14.663-1.2l-3.658-.141-2.423-.07-4.786-.138L673.469,87.8,520.3,83.375,367.139,78.951l-1.124-.034-.565-.025-.565-.02c-.189,0-.375-.023-.562-.033-.751-.036-1.495-.1-2.239-.16-1.485-.131-2.954-.326-4.408-.56s-2.894-.522-4.318-.855l-1.065-.259q-.527-.144-1.058-.277-.523-.155-1.05-.3c-.349-.1-.694-.216-1.043-.318a60.43,60.43,0,0,1-8.058-3.176,55.251,55.251,0,0,1-7.368-4.267,51.113,51.113,0,0,1-6.416-5.2,45.188,45.188,0,0,1-5.2-5.943q-1.133-1.558-2.094-3.175a36.99,36.99,0,0,1-1.721-3.285,34.412,34.412,0,0,1-2.339-6.816,33.99,33.99,0,0,1-.6-3.516,30.717,30.717,0,0,1-.217-3.577,30.974,30.974,0,0,1,3.026-13.572,33.842,33.842,0,0,1,3.774-6.119,38.032,38.032,0,0,1,5.157-5.474,44.447,44.447,0,0,1,6.369-4.613q1.721-1.031,3.555-1.932T340.784,3.8A54.712,54.712,0,0,1,348.8,1.369,60.409,60.409,0,0,1,357.341.15C358.8.041,360.281,0,361.777,0c.187,0,.373-.006.561,0l.565.013.565.008c.049,0,.289.006.484.012l.6.017,4.787.138L407.628,1.3l76.583,2.212L1096.872,21.2Z" transform="translate(-16.63 169.749)" fill="#e36849"/>
        <path id="Trazado_611021" data-name="Trazado 611021" d="M1097.546,42.415,484.886,24.721,408.3,22.51,370.012,21.4l-4.787-.138-.6-.017c-.2-.006-.43-.013-.5-.013l-.662-.01-.662-.015c-.22,0-.439,0-.659,0-1.756,0-3.5.046-5.218.174a70.931,70.931,0,0,0-10.085,1.441,64.444,64.444,0,0,0-9.475,2.871q-2.276.888-4.442,1.942t-4.189,2.275a52.149,52.149,0,0,0-7.5,5.429,44.858,44.858,0,0,0-6.075,6.446,39.957,39.957,0,0,0-4.454,7.224,37.667,37.667,0,0,0-2.7,7.8,37.239,37.239,0,0,0-.879,8.215,36.432,36.432,0,0,0,.254,4.2,39.816,39.816,0,0,0,.7,4.141,40.627,40.627,0,0,0,2.764,8.054A43.723,43.723,0,0,0,312.89,85.3q1.132,1.909,2.47,3.749a53.123,53.123,0,0,0,6.124,7,60.073,60.073,0,0,0,7.55,6.122,65.191,65.191,0,0,0,8.681,5.027,71.169,71.169,0,0,0,9.516,3.75,72.165,72.165,0,0,0,10.085,2.374c1.717.277,3.448.505,5.2.66.875.07,1.75.146,2.631.189.22.011.439.033.66.038l.662.024.662.028,1.135.034,153.165,4.423,153.165,4.423,19.146.553,4.786.138,2.419.07,3.463.134q6.931.329,13.879,1.135c4.624.54,9.24,1.234,13.821,2.1s9.13,1.9,13.624,3.08a190.4,190.4,0,0,1,26.161,8.94,172.014,172.014,0,0,1,45.043,27.767A146.487,146.487,0,0,1,834.5,185a128.238,128.238,0,0,1,13.487,19.986,117.068,117.068,0,0,1,5.074,10.561,110.22,110.22,0,0,1,3.874,10.824,102.673,102.673,0,0,1,4.1,22.011,98.036,98.036,0,0,1-6.513,43.305,104.819,104.819,0,0,1-10.49,19.967,115.709,115.709,0,0,1-14.88,17.907,131.522,131.522,0,0,1-18.762,15.327,149.531,149.531,0,0,1-22.106,12.292,173.914,173.914,0,0,1-51.489,13.986,196.027,196.027,0,0,1-27.591,1.2l-19.278-.554-76.583-2.212L.674,351.918,0,330.722l612.661,17.693,76.583,2.212,19.206.551a162.936,162.936,0,0,0,22.9-1,144.108,144.108,0,0,0,42.669-11.592,124.167,124.167,0,0,0,18.342-10.2,109.128,109.128,0,0,0,15.572-12.723,95.9,95.9,0,0,0,12.345-14.855,86.957,86.957,0,0,0,8.694-16.547,81.305,81.305,0,0,0,5.4-35.929,85.052,85.052,0,0,0-3.4-18.261,91.369,91.369,0,0,0-3.208-8.968q-1.862-4.435-4.2-8.75a106.382,106.382,0,0,0-11.181-16.569,121.691,121.691,0,0,0-14.575-14.89,142.737,142.737,0,0,0-37.372-23.04,157.641,157.641,0,0,0-21.677-7.407q-5.585-1.471-11.288-2.553c-3.8-.721-7.624-1.294-11.46-1.743s-7.684-.76-11.525-.943l-2.88-.112-2.405-.07-4.786-.138-19.146-.553L522.1,139.915l-153.165-4.423-1.169-.035-.954-.038-.954-.036c-.318-.01-.635-.036-.953-.053-1.271-.065-2.539-.169-3.806-.275-2.533-.226-5.054-.554-7.558-.958a105.8,105.8,0,0,1-14.739-3.471,103.317,103.317,0,0,1-13.891-5.474,94.987,94.987,0,0,1-12.62-7.3,86.943,86.943,0,0,1-10.952-8.884,76.968,76.968,0,0,1-8.905-10.18q-1.947-2.678-3.6-5.469t-2.975-5.672a59.327,59.327,0,0,1-4.038-11.769A56.151,56.151,0,0,1,280.434,63.8a53.884,53.884,0,0,1,1.281-11.933,54.673,54.673,0,0,1,3.94-11.4,58.348,58.348,0,0,1,6.494-10.539,65.37,65.37,0,0,1,8.826-9.363,75.421,75.421,0,0,1,10.875-7.878q2.944-1.763,6.09-3.3t6.469-2.831a93.763,93.763,0,0,1,13.843-4.192A102.809,102.809,0,0,1,352.975.255C355.478.073,358,0,360.54,0c.317,0,.633,0,.951,0l.953.019.953.017.554.014.6.017,4.787.138,38.291,1.106,76.583,2.212,612.661,17.693Z" transform="translate(-17.529 141.47)" fill="#f79621"/>
        <path id="Trazado_611022" data-name="Trazado 611022" d="M1097.546,42.432,484.886,24.739,408.3,22.527l-38.291-1.106-4.787-.138-.6-.017-.572-.014L363,21.232l-1.05-.02c-.35-.006-.7,0-1.049,0-2.8,0-5.584.08-8.348.28a113.428,113.428,0,0,0-16.269,2.328,103.61,103.61,0,0,0-15.3,4.632q-3.666,1.432-7.145,3.127t-6.723,3.647a83.16,83.16,0,0,0-12,8.694,72.2,72.2,0,0,0-9.743,10.336A64.45,64.45,0,0,0,278.2,65.9a60.368,60.368,0,0,0-4.355,12.6,59.447,59.447,0,0,0-1.415,13.172,61.912,61.912,0,0,0,1.533,13.319A65.557,65.557,0,0,0,278.429,118q1.472,3.181,3.289,6.269t3.977,6.043a84.916,84.916,0,0,0,9.832,11.239,95.969,95.969,0,0,0,12.086,9.8,104.958,104.958,0,0,0,13.933,8.064,114.055,114.055,0,0,0,15.349,6.048,117.061,117.061,0,0,0,16.29,3.837c2.766.447,5.55.808,8.346,1.058,1.4.118,2.8.232,4.2.3.35.019.7.047,1.05.058l1.051.04,1.051.041,1.18.036,153.165,4.423,153.165,4.423,19.146.553,4.786.138,2.4.07,2.685.1q5.372.257,10.741.879c3.574.418,7.138.952,10.673,1.623s7.043,1.463,10.51,2.376a146.673,146.673,0,0,1,20.183,6.9,132.96,132.96,0,0,1,34.815,21.465A113.416,113.416,0,0,1,805.91,227.66a99.093,99.093,0,0,1,10.412,15.431q2.179,4.012,3.915,8.146a85.137,85.137,0,0,1,2.986,8.35,79.2,79.2,0,0,1,3.164,17.011,75.738,75.738,0,0,1-5.025,33.47,81.047,81.047,0,0,1-8.095,15.408,89.3,89.3,0,0,1-11.5,13.837,101.709,101.709,0,0,1-14.51,11.855,115.7,115.7,0,0,1-17.088,9.5q-4.55,2.057-9.345,3.777t-9.795,3.068a140.324,140.324,0,0,1-20.589,3.949,151.912,151.912,0,0,1-21.342.93l-19.182-.551-76.583-2.212L.674,351.936,0,330.739l612.661,17.693,76.583,2.212,19.109.549a118.854,118.854,0,0,0,16.654-.725A109.154,109.154,0,0,0,741.02,347.4q3.884-1.054,7.62-2.386t7.276-2.942a90.37,90.37,0,0,0,13.324-7.407,79.359,79.359,0,0,0,11.321-9.251,69.608,69.608,0,0,0,8.965-10.785,63.19,63.19,0,0,0,6.3-11.988,58.531,58.531,0,0,0,3.429-12.82,57.421,57.421,0,0,0,.613-6.6,62.376,62.376,0,0,0-.134-6.669,61.609,61.609,0,0,0-2.465-13.262,66.325,66.325,0,0,0-2.321-6.494q-1.349-3.21-3.047-6.335a77.257,77.257,0,0,0-8.1-12.014A88.635,88.635,0,0,0,773.2,227.624a103.679,103.679,0,0,0-27.144-16.739,113.885,113.885,0,0,0-15.7-5.364q-4.043-1.065-8.174-1.849c-2.75-.523-5.526-.937-8.312-1.263s-5.585-.553-8.387-.688l-2.1-.082L701,201.57l-4.786-.138-19.146-.553L523.9,196.456l-153.165-4.423L369.522,192l-1.343-.052-1.343-.053c-.448-.016-.9-.049-1.343-.073-1.791-.094-3.582-.237-5.373-.39-3.581-.321-7.155-.782-10.708-1.356a150.655,150.655,0,0,1-20.943-4.934,146.228,146.228,0,0,1-19.724-7.772,134.843,134.843,0,0,1-17.872-10.342,122.884,122.884,0,0,1-15.488-12.566,108.715,108.715,0,0,1-12.614-14.417A89.036,89.036,0,0,1,247.7,107.5a79.107,79.107,0,0,1-1.965-17.054,76.085,76.085,0,0,1,1.816-16.89,77.405,77.405,0,0,1,5.6-16.2A82.835,82.835,0,0,1,262.363,42.4a92.693,92.693,0,0,1,12.493-13.254A106.47,106.47,0,0,1,290.237,18,125.829,125.829,0,0,1,327.7,3.354,145.337,145.337,0,0,1,348.609.36C352.156.106,355.728,0,359.3,0c.447,0,.894,0,1.341,0l1.342.025,1.342.026,1.223.033,4.787.138,38.291,1.106,76.583,2.212,612.661,17.693Z" transform="translate(-18.428 113.191)" fill="#ffbe30"/>
        <path id="Trazado_611023" data-name="Trazado 611023" d="M1097.546,42.45,484.886,24.757,408.3,22.545l-38.291-1.106-4.787-.138-1.24-.034-1.439-.028-1.439-.026c-.479-.007-.959,0-1.438,0-3.836,0-7.669.114-11.477.386a155.954,155.954,0,0,0-22.454,3.215,135.1,135.1,0,0,0-40.229,15.725A114.2,114.2,0,0,0,269,52.5,99.544,99.544,0,0,0,255.59,66.723,88.967,88.967,0,0,0,245.7,82.786a83.1,83.1,0,0,0-6.016,17.4,81.648,81.648,0,0,0-1.95,18.129,84.849,84.849,0,0,0,2.109,18.3,95.634,95.634,0,0,0,16.19,34.952,116.7,116.7,0,0,0,13.541,15.476,131.868,131.868,0,0,0,16.622,13.486,144.791,144.791,0,0,0,19.185,11.1,157.071,157.071,0,0,0,21.182,8.346,161.922,161.922,0,0,0,22.494,5.3c3.816.617,7.653,1.111,11.5,1.456,1.921.165,3.843.317,5.765.418.48.026.961.061,1.441.078l1.44.057,1.44.055,1.225.037L525.025,231.8l153.165,4.423,19.146.553,4.786.138,2.382.07,1.907.075q3.814.183,7.6.623c2.523.3,5.036.669,7.525,1.143s4.957,1.031,7.4,1.673a102.971,102.971,0,0,1,14.205,4.854,93.913,93.913,0,0,1,24.587,15.163,80.378,80.378,0,0,1,9.6,9.8,69.986,69.986,0,0,1,7.336,10.875q1.534,2.823,2.757,5.731a59.963,59.963,0,0,1,2.1,5.876,55.722,55.722,0,0,1,2.232,12.011,56.86,56.86,0,0,1,.122,6.05,51.861,51.861,0,0,1-.556,5.983,52.932,52.932,0,0,1-3.1,11.6,57.237,57.237,0,0,1-5.7,10.848,62.989,62.989,0,0,1-8.12,9.767,71.934,71.934,0,0,1-10.258,8.383,81.952,81.952,0,0,1-12.07,6.71q-3.21,1.451-6.587,2.663t-6.9,2.159a98.843,98.843,0,0,1-14.487,2.779,107.822,107.822,0,0,1-15.092.656l-19.085-.548-76.583-2.212L.674,351.953,0,330.757,612.661,348.45l76.583,2.212,19.013.546a74.729,74.729,0,0,0,10.4-.451,67.647,67.647,0,0,0,9.911-1.9q2.4-.652,4.721-1.476t4.517-1.829a56.573,56.573,0,0,0,8.306-4.617,49.57,49.57,0,0,0,7.069-5.779,43.241,43.241,0,0,0,5.585-6.715,39.386,39.386,0,0,0,3.9-7.428c.117-.324.251-.643.366-.967s.223-.651.339-.975q.147-.493.306-.984c.1-.329.18-.661.278-.991a37.229,37.229,0,0,0,.834-4.026,35.274,35.274,0,0,0,.384-4.12,40.136,40.136,0,0,0-.086-4.2,38.161,38.161,0,0,0-1.534-8.262,41.32,41.32,0,0,0-1.433-4.02q-.837-1.985-1.888-3.919a48.142,48.142,0,0,0-5.03-7.458,55.543,55.543,0,0,0-6.609-6.746,64.61,64.61,0,0,0-16.916-10.436,70.173,70.173,0,0,0-9.722-3.321q-2.5-.659-5.059-1.146c-1.7-.326-3.428-.58-5.164-.783s-3.487-.345-5.25-.431q-.662-.022-1.325-.053l-2.368-.069-4.786-.138-19.146-.553L525.7,253l-153.165-4.423-1.259-.038-1.731-.065-1.731-.07c-.577-.022-1.156-.062-1.734-.093-2.311-.123-4.626-.3-6.94-.5q-6.943-.625-13.858-1.754a195.585,195.585,0,0,1-27.148-6.4,189.232,189.232,0,0,1-25.556-10.07,174.614,174.614,0,0,1-23.124-13.38,158.794,158.794,0,0,1-20.024-16.248A140.516,140.516,0,0,1,233.107,181.3a115.429,115.429,0,0,1-19.536-42.177,102.071,102.071,0,0,1-2.542-22.035,98.281,98.281,0,0,1,2.351-21.847,100.114,100.114,0,0,1,7.261-21,107.311,107.311,0,0,1,11.934-19.378,120.039,120.039,0,0,1,16.162-17.144A137.462,137.462,0,0,1,268.625,23.31,162.945,162.945,0,0,1,317.15,4.346,187.764,187.764,0,0,1,344.243.466C348.834.139,353.451,0,358.066,0c.577,0,1.155,0,1.731,0l1.73.03,1.73.035,1.293.035,4.787.138,38.291,1.106,76.583,2.212,612.661,17.693Z" transform="translate(-19.328 84.912)" fill="#8ad0ce"/>
        <path id="Trazado_611024" data-name="Trazado 611024" d="M1097.546,42.469,484.886,24.776,408.3,22.564l-38.291-1.106-4.787-.138-1.31-.036-1.828-.037-1.827-.031c-.609-.008-1.219,0-1.829-.006-4.875-.005-9.753.147-14.606.493a198.393,198.393,0,0,0-28.639,4.1A172.223,172.223,0,0,0,263.9,45.849a145.194,145.194,0,0,0-21.014,15.225A126.891,126.891,0,0,0,225.8,79.19,113.437,113.437,0,0,0,213.19,99.673a105.8,105.8,0,0,0-7.676,22.2,103.844,103.844,0,0,0-2.485,23.087,107.811,107.811,0,0,0,2.686,23.28,122.027,122.027,0,0,0,20.651,44.585,148.482,148.482,0,0,0,17.249,19.713,167.773,167.773,0,0,0,21.158,17.169,184.6,184.6,0,0,0,24.437,14.139,199.992,199.992,0,0,0,27.015,10.644,206.727,206.727,0,0,0,28.7,6.762q7.3,1.181,14.645,1.854c2.445.213,4.89.4,7.332.533.61.033,1.222.075,1.831.1l1.829.074,1.829.068,1.27.038,153.165,4.423,153.165,4.423,19.146.553,4.786.138,2.363.069q.565.029,1.13.045,2.255.111,4.465.367c1.473.173,2.935.386,4.377.663s2.87.6,4.28.971a59.214,59.214,0,0,1,8.228,2.81,54.852,54.852,0,0,1,14.359,8.861,47.229,47.229,0,0,1,5.614,5.728A40.82,40.82,0,0,1,753,319.29q.889,1.635,1.6,3.315a34.9,34.9,0,0,1,1.211,3.4,32.284,32.284,0,0,1,1.3,7.012,34.349,34.349,0,0,1,.074,3.577,29.689,29.689,0,0,1-.326,3.5,31.718,31.718,0,0,1-.706,3.409l-.234.838q-.136.414-.258.832-.15.411-.287.825c-.1.274-.212.544-.31.818a33.415,33.415,0,0,1-3.3,6.288,36.653,36.653,0,0,1-4.74,5.7,42.153,42.153,0,0,1-6.006,4.911,48.145,48.145,0,0,1-7.052,3.919q-1.869.845-3.828,1.551t-4,1.248a57.243,57.243,0,0,1-8.386,1.61,63.723,63.723,0,0,1-8.842.382l-18.989-.545-76.583-2.212L.674,351.972,0,330.776l612.661,17.693,76.583,2.212,18.917.543a30.738,30.738,0,0,0,4.155-.176,26.226,26.226,0,0,0,3.81-.733c.616-.166,1.224-.354,1.822-.566s1.183-.455,1.758-.716a22.875,22.875,0,0,0,3.288-1.825,19.861,19.861,0,0,0,2.817-2.307,16.909,16.909,0,0,0,2.2-2.645,15.576,15.576,0,0,0,1.507-2.868c.04-.125.1-.246.142-.371a3.812,3.812,0,0,1,.132-.374,3.677,3.677,0,0,1,.116-.378c.038-.126.063-.256.106-.381a15.091,15.091,0,0,0,.321-1.561,13.218,13.218,0,0,0,.154-1.636c.016-.56,0-1.151-.038-1.722a14.718,14.718,0,0,0-.6-3.262,16.147,16.147,0,0,0-.546-1.545q-.325-.761-.729-1.5a19.035,19.035,0,0,0-1.955-2.9A22.458,22.458,0,0,0,724,321.078a25.553,25.553,0,0,0-6.688-4.134,26.508,26.508,0,0,0-3.744-1.278q-.959-.253-1.944-.443c-.658-.128-1.33-.222-2.016-.3s-1.388-.137-2.112-.175c-.183,0-.364-.01-.547-.023l-2.349-.068-4.786-.138-19.146-.553L527.5,309.539l-153.165-4.423-1.3-.039-2.12-.078-2.12-.086c-.706-.028-1.416-.075-2.124-.113-2.832-.152-5.67-.371-8.507-.62q-8.514-.767-17.007-2.152a240.465,240.465,0,0,1-33.352-7.859A232.145,232.145,0,0,1,276.409,281.8a214.408,214.408,0,0,1-28.376-16.418,194.652,194.652,0,0,1-24.559-19.93,172.322,172.322,0,0,1-20.031-22.892,141.822,141.822,0,0,1-24-51.81,127.236,127.236,0,0,1-2.307-13.528,121.138,121.138,0,0,1,2.075-40.293,122.861,122.861,0,0,1,8.921-25.8,131.808,131.808,0,0,1,14.654-23.8A147.4,147.4,0,0,1,222.619,46.3a168.4,168.4,0,0,1,24.393-17.674A200.04,200.04,0,0,1,306.6,5.34,230.144,230.144,0,0,1,339.877.573c5.636-.4,11.3-.579,16.953-.573.707,0,1.415,0,2.121.007l2.119.035,2.119.044,1.363.038,4.787.138,38.291,1.106,76.583,2.212,612.661,17.693Z" transform="translate(-20.227 56.631)" fill="#137c78"/>
      </g>
    </g>
  </g>
</svg>
