<svg xmlns="http://www.w3.org/2000/svg" xmlns:xlink="http://www.w3.org/1999/xlink" width="1030" height="600" viewBox="0 0 1030 600">
  <defs>
    <clipPath id="clip-path">
      <path id="Trazado_611005" data-name="Trazado 611005" d="M0,0H1030V599H0Z" fill="#e2f8f4"/>
    </clipPath>
    <clipPath id="clip-path-2">
      <path id="Trazado_873653" data-name="Trazado 873653" d="M340.207.46,339.35,115.5a.429.429,0,0,0,.431.43l223.375-.952a12.284,12.284,0,0,0,8.636-3.6L615.13,68.04a12.288,12.288,0,0,0,0-17.378L568.383,3.915a12.283,12.283,0,0,0-8.673-3.6L340.636.035a.429.429,0,0,0-.429.425" transform="translate(-339.35 -0.035)" fill="#ffc278"/>
    </clipPath>
    <clipPath id="clip-path-3">
      <path id="Trazado_873654" data-name="Trazado 873654" d="M426.073,298.969l237.033-.975a13.254,13.254,0,0,0,9.147-3.678l45.9-44.292a12.252,12.252,0,0,0,0-17.763l-49.508-47.775a13.258,13.258,0,0,0-9.186-3.678l-232.471-.287Z" transform="translate(-426.073 -180.52)" fill="#b0dfde"/>
    </clipPath>
    <clipPath id="clip-path-4">
      <path id="Trazado_873655" data-name="Trazado 873655" d="M350.18,481.474l231.807-.989a12.841,12.841,0,0,0,9.027-3.76L635.8,431.94a12.843,12.843,0,0,0,0-18.163l-48.315-48.315a12.842,12.842,0,0,0-9.064-3.762l-227.344-.291Z" transform="translate(-350.18 -361.409)" fill="#ffc278"/>
    </clipPath>
    <clipPath id="clip-path-5">
      <rect id="Rectángulo_401230" data-name="Rectángulo 401230" width="820" height="549.535" fill="none"/>
    </clipPath>
    <clipPath id="clip-path-6">
      <path id="Trazado_873660" data-name="Trazado 873660" d="M369.4,249.741a54.667,54.667,0,1,0,54.667-54.666A54.455,54.455,0,0,0,369.4,249.741" transform="translate(-369.4 -195.075)" fill="#d2edec"/>
    </clipPath>
    <clipPath id="clip-path-7">
      <rect id="Rectángulo_401232" data-name="Rectángulo 401232" width="820" height="549.535" fill="#ffac47"/>
    </clipPath>
    <clipPath id="clip-path-8">
      <path id="Trazado_873665" data-name="Trazado 873665" d="M294.333,69.411a54.624,54.624,0,0,0,13.77,36.332,54.829,54.829,0,0,0,80.722-74.192,54.831,54.831,0,0,0-94.492,37.86" transform="translate(-294.333 -14.58)" fill="#fee7bd"/>
    </clipPath>
    <clipPath id="clip-path-10">
      <path id="Trazado_873670" data-name="Trazado 873670" d="M295.606,430.978a55.013,55.013,0,1,0,55.014-55.014,54.795,54.795,0,0,0-55.014,55.014" transform="translate(-295.606 -375.964)" fill="#fef0d7"/>
    </clipPath>
    <clipPath id="clip-path-12">
      <rect id="Rectángulo_401241" data-name="Rectángulo 401241" width="257" height="257" fill="none"/>
    </clipPath>
    <clipPath id="clip-path-15">
      <rect id="Rectángulo_401238" data-name="Rectángulo 401238" width="236.123" height="236.122" fill="none"/>
    </clipPath>
    <clipPath id="clip-path-16">
      <rect id="Rectángulo_401239" data-name="Rectángulo 401239" width="93.935" height="93.936" fill="none"/>
    </clipPath>
    <clipPath id="clip-path-17">
      <rect id="Rectángulo_401242" data-name="Rectángulo 401242" width="66.296" height="66.492" fill="#3c5756"/>
    </clipPath>
    <clipPath id="clip-path-18">
      <rect id="Rectángulo_401243" data-name="Rectángulo 401243" width="64.091" height="64" fill="#3c5756"/>
    </clipPath>
    <clipPath id="clip-path-19">
      <rect id="Rectángulo_401244" data-name="Rectángulo 401244" width="55.229" height="76.163" fill="#3c5756"/>
    </clipPath>
  </defs>
  <g id="Grupo_1099472" data-name="Grupo 1099472" transform="translate(-285 -5498.768)">
    <g id="Grupo_1099388" data-name="Grupo 1099388" transform="translate(0 5052.268)">
      <path id="Trazado_608309" data-name="Trazado 608309" d="M0,0H1030V599H0Z" transform="translate(285 446.5)" fill="#fef0d7"/>
    </g>
    <g id="Grupo_1099412" data-name="Grupo 1099412" transform="translate(0 15.1)">
      <g id="Grupo_1099387" data-name="Grupo 1099387" transform="translate(390 5508.9)">
        <g id="Grupo_1099368" data-name="Grupo 1099368" transform="translate(410 12.1)">
          <g id="Grupo_1099367" data-name="Grupo 1099367" clip-path="url(#clip-path-2)">
            <rect id="Rectángulo_401227" data-name="Rectángulo 401227" width="280.58" height="115.896" transform="translate(-0.001 0)" fill="#ffc278"/>
          </g>
        </g>
        <g id="Grupo_1099370" data-name="Grupo 1099370" transform="translate(483.027 204.651)">
          <g id="Grupo_1099369" data-name="Grupo 1099369" transform="translate(0.001 10)" clip-path="url(#clip-path-3)">
            <rect id="Rectángulo_401228" data-name="Rectángulo 401228" width="297.162" height="118.449" transform="translate(0 0)" fill="#b0dfde"/>
          </g>
        </g>
        <g id="Grupo_1099372" data-name="Grupo 1099372" transform="translate(400 419.716)">
          <g id="Grupo_1099371" data-name="Grupo 1099371" clip-path="url(#clip-path-4)">
            <rect id="Rectángulo_401229" data-name="Rectángulo 401229" width="290.634" height="120.065" transform="translate(0)" fill="#ffc278"/>
          </g>
        </g>
        <g id="Grupo_1099374" data-name="Grupo 1099374">
          <g id="Grupo_1099373" data-name="Grupo 1099373" clip-path="url(#clip-path-5)">
            <path id="Trazado_873656" data-name="Trazado 873656" d="M183.028,88.412A175.342,175.342,0,1,1,59.044,139.769,174.2,174.2,0,0,1,183.028,88.412m0-7.687A183.029,183.029,0,1,0,366.056,263.753,183.028,183.028,0,0,0,183.028,80.725" transform="translate(0 10.791)" fill="#ffc278"/>
            <path id="Trazado_873657" data-name="Trazado 873657" d="M339.631,263.851a12.482,12.482,0,0,0-9.261-9.15,181.8,181.8,0,0,0-45.422-111.715,12.488,12.488,0,0,0,.168-13.171l43.7-43.7-4.238-4.238-43.7,43.7a12.477,12.477,0,1,0-.95,21.882,175.109,175.109,0,0,1,43.72,107.523,12.473,12.473,0,0,0-.427,23.571A175.149,175.149,0,0,1,280.4,379.2a12.483,12.483,0,1,0,.677,21.754l43.7,43.7,4.238-4.238-43.7-43.7a12.485,12.485,0,0,0-.014-12.91,181.839,181.839,0,0,0,44.627-104.709,12.487,12.487,0,0,0,9.7-9.252h61.8v-5.991Z" transform="translate(35.016 10.945)" fill="#ffc278"/>
            <path id="Trazado_873658" data-name="Trazado 873658" d="M494.813,249.429a70.909,70.909,0,1,0-70.911,70.91,70.64,70.64,0,0,0,70.911-70.91" transform="translate(47.427 24.127)" fill="#8ad0ce"/>
            <path id="Trazado_873659" data-name="Trazado 873659" d="M476.474,247.893a54.147,54.147,0,1,1-54.145-54.148,54.145,54.145,0,0,1,54.145,54.148" transform="translate(49.216 25.898)" fill="#fff"/>
          </g>
        </g>
        <g id="Grupo_1099376" data-name="Grupo 1099376" transform="translate(418.064 220.127)">
          <g id="Grupo_1099375" data-name="Grupo 1099375" clip-path="url(#clip-path-6)">
            <rect id="Rectángulo_401231" data-name="Rectángulo 401231" width="107.936" height="107.81" transform="translate(0 0)" fill="#d2edec"/>
          </g>
        </g>
        <g id="Grupo_1099378" data-name="Grupo 1099378">
          <g id="Grupo_1099377" data-name="Grupo 1099377" clip-path="url(#clip-path-7)">
            <path id="Trazado_873661" data-name="Trazado 873661" d="M476.311,247.715a54.145,54.145,0,1,0-54.145,54.146A53.93,53.93,0,0,0,476.311,247.715Z" transform="translate(49.379 26.076)" fill="none" stroke="#fff" stroke-miterlimit="10" stroke-width="0.171"/>
            <path id="Trazado_873663" data-name="Trazado 873663" d="M419.748,68.934a70.633,70.633,0,0,0-17.81-46.987A70.908,70.908,0,0,0,297.545,117.9a70.911,70.911,0,0,0,122.2-48.963" transform="translate(37.393)" fill="#ffac47"/>
            <path id="Trazado_873664" data-name="Trazado 873664" d="M401.409,67.4a54.148,54.148,0,1,1-54.148-54.148A54.147,54.147,0,0,1,401.409,67.4" transform="translate(39.181 1.771)" fill="#fff"/>
          </g>
        </g>
        <g id="Grupo_1099380" data-name="Grupo 1099380" transform="translate(332.611 15.464)">
          <g id="Grupo_1099379" data-name="Grupo 1099379" clip-path="url(#clip-path-8)">
            <rect id="Rectángulo_401233" data-name="Rectángulo 401233" width="108.262" height="108.132" transform="translate(0 0)" fill="#fee7bd"/>
          </g>
        </g>
        <g id="Grupo_1099382" data-name="Grupo 1099382">
          <g id="Grupo_1099381" data-name="Grupo 1099381" clip-path="url(#clip-path-5)">
            <path id="Trazado_873666" data-name="Trazado 873666" d="M401.246,67.219a53.936,53.936,0,0,0-13.6-35.88,54.145,54.145,0,0,0-79.715,73.268,54.148,54.148,0,0,0,93.314-37.389Z" transform="translate(39.344 1.949)" fill="none" stroke="#fff" stroke-miterlimit="10" stroke-width="0.171"/>
            <path id="Trazado_873668" data-name="Trazado 873668" d="M421.02,430.318a70.909,70.909,0,1,0-70.911,70.91,70.637,70.637,0,0,0,70.911-70.91" transform="translate(37.563 48.307)" fill="#ffac47"/>
            <path id="Trazado_873669" data-name="Trazado 873669" d="M402.68,428.782a54.147,54.147,0,1,1-54.145-54.148,54.145,54.145,0,0,1,54.145,54.148" transform="translate(39.351 50.078)" fill="#fff"/>
          </g>
        </g>
        <g id="Grupo_1099384" data-name="Grupo 1099384" transform="translate(334 425.099)">
          <g id="Grupo_1099383" data-name="Grupo 1099383" clip-path="url(#clip-path-10)">
            <rect id="Rectángulo_401235" data-name="Rectángulo 401235" width="108.62" height="108.493" transform="translate(0 0)" fill="#fef0d7"/>
          </g>
        </g>
        <g id="Grupo_1099386" data-name="Grupo 1099386">
          <g id="Grupo_1099385" data-name="Grupo 1099385" clip-path="url(#clip-path-5)">
            <path id="Trazado_873671" data-name="Trazado 873671" d="M402.517,428.6a54.146,54.146,0,1,0-54.145,54.146A53.934,53.934,0,0,0,402.517,428.6Z" transform="translate(39.514 50.256)" fill="none" stroke="#fff" stroke-miterlimit="10" stroke-width="0.171"/>
          </g>
        </g>
      </g>
      <g id="Grupo_1099400" data-name="Grupo 1099400" transform="translate(446 5656)">
        <g id="Grupo_1099399" data-name="Grupo 1099399" clip-path="url(#clip-path-12)">
          <g id="Grupo_1099390" data-name="Grupo 1099390">
            <g id="Grupo_1099389" data-name="Grupo 1099389" clip-path="url(#clip-path-12)">
              <path id="Trazado_873673" data-name="Trazado 873673" d="M257,128.5A128.5,128.5,0,1,1,128.5,0,128.5,128.5,0,0,1,257,128.5" fill="#5ab1c7"/>
              <path id="Trazado_873674" data-name="Trazado 873674" d="M208.779,56.6c1.309.709,2.548,1.546,3.915,2.149,1.473.649,1.255.03,1.138-.3.1.138.2.276.3.414a.541.541,0,0,1,.469-.549l-.028-.073c-.145-.851-.145-.851.453-1.55-.095.546.089,1.1-.042,1.645a1.713,1.713,0,0,0-.246.072l-.024-.009c.189.793.169.871.1,1.132a.375.375,0,0,1-.226-.042l-.023-.02c.4.525,1.069.663,1.553,1.067A3.28,3.28,0,0,1,213.9,63.2c2.286,1.921,3.966,5.182,6.29,9.694A1.5,1.5,0,0,1,220,72.4c.02.026,2.144,3.03,2.129,4.657l-.084.076c-.7-.4-.6-1.294-1.12-1.81-.026.038-.061.087-.087.123a6.843,6.843,0,0,1,.266.778c-.2-.185-.2-.185-.354-.18.02.445.356.847.187,1.317-.231-.054-.782-.506-.5-.872a.938.938,0,0,0-.227-.141c-.12.16-.207.275.131,1.093a1.748,1.748,0,0,0-.679-.065h-.118a1.462,1.462,0,0,1-.7-.126,4.794,4.794,0,0,1,.015,1.806v.009c-.226,1.021-.775.245-.955-.009-.183-.271-.284-.44-.528-.848.053.283.105.564.16.848.011.062.026.145.037.208q.132.728.252,1.461c-.46-.341-.67-.4-.8-.218a1.5,1.5,0,0,0-.078.628,2.772,2.772,0,0,1-.077.921A4.428,4.428,0,0,0,214.6,80.5c.72-.041,1.02-.476,1.422-1.436.356-.863.5-1.175.939-1.487-1-1.225-4.081-.035-4.525,1.131a1.976,1.976,0,0,1,.667.356,9.33,9.33,0,0,1,2.577,4.6c.249,1.276-.31,1.081-.461.964-1.159-.889-1.7-2.263-2.631-3.336-.054-.064-.054-.064-.093-.065-.03.055-.041.074-.062.385a2.176,2.176,0,0,0-.664-.96,1.33,1.33,0,0,1-.41-1.588c.306-.974,1.991-5.738,5.1-3.948-1.8-3.483-1.013-3.5-.546-3.506.932-.019.945-4.315-2.505-7.577a10.314,10.314,0,0,1,1.33.858,12.14,12.14,0,0,0-.947-1.243c0,.011.008.022-.009.12-.1.1-.18.18-.657,0-.041-.016-3.7-1.864-1.6-3a1.579,1.579,0,0,1-.693-.528c-.638-1.019-1.009-2.174-1.639-3.2l-.4-.44M77.217,14.31a6.879,6.879,0,0,0,1.735-.744c1.178-.6,1.338-.659,1.553-.607.049.1,0,.346-.885.831.187.1.45.087,1.175-.065a6.479,6.479,0,0,1,.908-.154c.1-.357.127-.444-.02-.645-.208-.283-.564-.326-.832-.513a22.857,22.857,0,0,0,3.176-.352c1.351-.229.922-.959.913-.966a1.52,1.52,0,0,0-.734-.1,9.244,9.244,0,0,0-3,.684l-.012.047a3.548,3.548,0,0,0-.575.068c-.085.026-.088.151-.189.158a1.032,1.032,0,0,0,.391.074c-.087.034-.173.069-.258.11-.357-.173-.694-.05-1.162.426-.024-.207-.335-.369-.156-.6A1.439,1.439,0,0,1,78.2,12.1a.273.273,0,0,0-.181.018c-.207.126-.264.4-.5.5.039-.119.039-.119.011-.185-.172,0-.418.391-.352.491.1.157.187,0,.3-.223.523.156,1.079-.087,1.595.137-2.391.918-2.391.918-2.494,1.088.077.227.628.38.633.38M46.609,25.75c.764-.476,4.243-2.858,4.274-2.881-.035.038-.083.085-.118.122.384-.054.476-.068,1.639-.726h0c1.129-.718,2.73-.636,3.459-2.037a4.714,4.714,0,0,0-.891.239c.574-.333,1.138-.68,1.723-.991-.222.231-.476.426-.711.64a5.739,5.739,0,0,0,1.7-.924,2.852,2.852,0,0,0-.352.177c.348-.21.707-.4,1.042-.63-.107.06-.249.135-.357.189A13.018,13.018,0,0,1,59.558,17.5a.589.589,0,0,0,.768-.338c.015.049.034.114.047.164.549.172.828-.346,1.253-.492-.239.016-.239.016-.62.212a3.717,3.717,0,0,1,1.8-.775c.99-.325,1.622-1.2,2.531-1.65l-.166.035c.005-.058.014-.135.019-.193.6-.364,1.395-.231,1.951-.729l-.164-.011a2.526,2.526,0,0,0,.617-.329c-.139,0-.139,0-.67.156,2.121-1.116,4.46-1.673,6.655-2.6.147-.064.344-.151.492-.215-.826-.22-.826-.22-3.556.76.826-1.258,2.993-.166,3.493-2a1.243,1.243,0,0,0-.407-.078,8.78,8.78,0,0,0-1.748.444c-.043.02-.085.042-.129.064l.066-.027-.026.011-.1.043-.031.016.028-.016.005-.005.014-.005.157-.081a5.3,5.3,0,0,0-1.941.766,2.648,2.648,0,0,1,.53-.365c-.256.1-.49.239-.74.345l.157-.091c-.123.055-.288.133-.413.192l.421-.223c-.3.145-.668.334-1.036.525A128.393,128.393,0,0,0,51.979,21.468q-4.49,3.293-8.674,6.963c1.259-1.081,3.639-3.084,4.354-3.534-.326.314-.7.567-1.05.854M208.881,55.205a12.825,12.825,0,0,0-2.4-2.456c-1.526-1.376-1.818-1.684-1.95-2.068.015-.032.036-.074.051-.107.226-.047.352-.073,1.178.193a3.572,3.572,0,0,0-1.407-1.844c-1.474-1.2-3.341-1.721-4.861-2.838-1.564-1.151-2.743-2.726-4.292-3.894a3.411,3.411,0,0,0-1.886-.81,1.2,1.2,0,0,0-.365.083c.472.557,1.224.772,1.671,1.362l.005.008c2.362,1.51,7.556,6.971,10.053,9.6a32.239,32.239,0,0,0,3.195,3.179,6.688,6.688,0,0,1-.906-1.5c.174.045.174.045.745.44s1.044.724,1.174.656M93.026,19.531c.032.084.062.156.395.258a1.233,1.233,0,0,0,.188-.215.871.871,0,0,0-.12-.151.638.638,0,0,1,.129-.179c.833,1.285,1.806,1.524,2.972.733-.3-.6-.8-1.081-1.06-1.706a2.706,2.706,0,0,0,1.834-1.622c.449.211.985-.1,2.275-.866,1.385-.814,3.012-.617,4.484-1.075.181-.057.413-.16.588-.227a16.777,16.777,0,0,0-3-.222,4.879,4.879,0,0,0-1.3.193c-.3.088-.5.349-.794.449-1.035.353-2.128.5-3.149.9.176.246.093.335-.625.688-.032.015-3.242,2.055-3.188,2.494.254.15.576.116.817.3-.321.1-.379.12-.448.246M208.356,76.838c.015.022.034.043.05.064a.415.415,0,0,0-.053-.068l0,0M37.942,42.95c-.955.634-.955.634-2.731,2.631-.005.007-.166.555.31.559a2.054,2.054,0,0,0,.906-.358c-.189.151-.289.226-.427.323,2.007-1.009,2.412-.545,2.54-.028.256-.864,1.15-1.113,1.662-1.731.661-.8.06-.739-.264-.707a.637.637,0,0,1-.268,0c.38-.445.952-1.116.828-1.4.487.18,1.262-3.281,1.242-3.327a.566.566,0,0,0-.107-.122c1.127-.477,2.973-2.084,3.041-2.646-.15-.17-.385-.065-1.378.375a13.762,13.762,0,0,0,2.051-1.646l-.427.4a7.337,7.337,0,0,1-2.647,1.389,3.062,3.062,0,0,0,.207-.375l-.061-.009a5.464,5.464,0,0,0,1.193-1.132c-.23,0-.376.131-.858.553-.713.6-.713.6-.721.644a4.814,4.814,0,0,0-.8.832c.275-.261.526-.545.791-.814l-.009.064.046.041a.441.441,0,0,0,.174-.068,4.784,4.784,0,0,0-.772.925c.138.05.191-.049.295-.245l.018.06c.089.009.145,0,.467-.218-.015.012-1.907,1.616-2.017,1.726a15.468,15.468,0,0,0,1.491-.933,9.518,9.518,0,0,1-1.1.968l.2-.187a4.494,4.494,0,0,0-1.238,1.039,6.781,6.781,0,0,0,.579-.441,2.768,2.768,0,0,0-.579.776c.07,0,.218,0,1.167-.91-.757.836-.894,1.009-.92,1.323.108.111.11.112.583.127a3.731,3.731,0,0,0-1.082,1.251c.015.014.032.032.046.047a.866.866,0,0,0,.119-.037,7.3,7.3,0,0,1-1.56,1.285M215.416,54.035a2.252,2.252,0,0,0-.254-.675l-.023-.046-.008.045a.958.958,0,0,0,.019.448c-.031-.015-.07-.035-.1-.051.1.115.357.419.365.28M51.867,24.772c-.289.087-.594-.058-.881.062a3.64,3.64,0,0,0-1.106.767c.258-.264.352-.375.36-.473-.154-.084-.8.283-1.692.956a11.374,11.374,0,0,0,1.7-1.643l-.046.008a11.339,11.339,0,0,0-.913.756.437.437,0,0,0,.1-.176c-.057-.014-.112-.024-.813.618a.328.328,0,0,0,.031-.066c-.05-.007-.084-.012-.545.327a.176.176,0,0,1,.07,0c.016.068-.015.134-.007.2.011.008.027.016.038.023l-.211.145a.2.2,0,0,0-.038.115l.031.024c-.011,0-1.059.41-1.042.7.049.018.055.02.15-.014-1.6,1.17-.9,1.349-.9,1.35a5.549,5.549,0,0,0,2.554-.97c.225-.138.518-.333.73-.49a7.537,7.537,0,0,1,1.111-.874l-.061-.035c.043-.112.123-.321,1.376-1.311m156.593,52.2v0c-.019-.022-.035-.043-.053-.065.018.024.038.045.054.068M42.666,28.982,42.649,29l-.087.077c.245-.218.5-.429.743-.644-.276.235-.5.429-.638.551m74.107-16.965-.014-.026a7.662,7.662,0,0,1,1.71-.246c-.594.068-.722.22-.84.427a19.776,19.776,0,0,0,2.6,1.035,1.85,1.85,0,0,0,1.466-.289,1.906,1.906,0,0,0,.363-.341l.011-.012c-.042-.037-.042-.037-.289-.12-.317-.119-.279-.208-.012-.4a3.2,3.2,0,0,1-1.877-.449,3.847,3.847,0,0,0-2.109-.446c-.38.008-.609.023-.974.055.053.257.068.525-.437.437a5.938,5.938,0,0,0,.944.143c-.4,0-.647-.011-1-.039.072.083.261.3.453.276m32.467,3.478a.19.19,0,0,1-.131.02c.315.045.636.016.952.055,1.1.138,2.148.5,3.25.6a2.3,2.3,0,0,0,1.326-.122c-.111-.256-1.955-.544-1.973-.545h-.012l0,.005h-.007c-.461-.034-.9-.174-1.362-.233-.833.043-1.491-.61-2.318-.588-.239.02-.264.091-.289.165.137.256.444.364.561.637M122.967,13.51H123a6.4,6.4,0,0,0,2.578-.5c.047-.022.112-.054.16-.077a4.225,4.225,0,0,0-2.345-.814c-.914.053-1.043,1.04-.748,1.274a.514.514,0,0,0,.327.114m35.769,2.45c.011-.022.019-.054.028-.077a4.544,4.544,0,0,0-2.723-.8,3.435,3.435,0,0,0-1.152.26,2.925,2.925,0,0,1,.966.261c1.039.36,2.608.9,2.881.356m54.585,33.72c.011-.016,0-.062-.042-.129a1.816,1.816,0,0,0-.56-.606v.008a2.2,2.2,0,0,0,.335.521c.068.081.227.264.266.206m1.078,2.072a.036.036,0,0,0,0-.038c-.019-.05-.119-.1-.207-.126v.024c.022.187.173.179.2.139m.927,3.36c-.007-.015-.018-.037-.024-.053a.224.224,0,0,0-.124-.016c-.112.038-.151.177-.115.414a.529.529,0,0,0-.035-.087c-.005.034-.009.06.335.77.15-.1.312-.317-.037-1.028m-.594-2.723c.035.011.055-.014.058-.074V52.3c-.081-.087-.184-.185-.229-.179-.045.024.091.235.17.264M97.407,11.644c.053.032.659.158.664.158a1.436,1.436,0,0,0,.448-.032c.012-.078.008-.1-.065-.154.051-.014.116-.028.168-.041.576.233.576.233,1.742-.266.135.4.135.4,2.2-.3l-.085.146c-.141.131-.146.146-.166.193a1.055,1.055,0,0,0,.376-.064l.065-.13.016-.035c.047-.164.042-.18.023-.238-.248-.11-.314-.12-.928-.061.084-.074.2-.173.283-.246-.407-.007-.774.2-1.174.222,0,.019.032.185.414.164-.235.084-.483.127-.721.2h-.011a7.469,7.469,0,0,0-1.242.238c.009.03.023.07.034.1A2.246,2.246,0,0,0,99,11.467c.272-.087.431-.145.655-.238a3.91,3.91,0,0,0-.971-.141,3.77,3.77,0,0,0,.718-.179c.262.065.875.222.941-.035a.137.137,0,0,0-.068-.062,3.654,3.654,0,0,1-.526-.089c-.442-.2-.5-.189-.552-.18-.022.046-.022.046.047.227a7.266,7.266,0,0,1-1.742.323l-.119.062c.03.076.028.083.018.13-.038.023-.065.041-.243-.034a.38.38,0,0,0,.024.158l-.043.005a2.306,2.306,0,0,0-.794-.05,1.057,1.057,0,0,0,.014.3,6.067,6.067,0,0,1,1.048-.023M213.7,50.372a.673.673,0,0,0-.116-.147h-.018c-.051.005,0,.133.158.423a.264.264,0,0,0-.024-.276M93.11,11.461a5.757,5.757,0,0,1,1.312-.064c-.344.06-.344.06-.379.084a.07.07,0,0,0,.022.043,2.563,2.563,0,0,1-.571.078c.119.271.477.292,1.369.08l-.208.08a.494.494,0,0,0,.254.018c-.077.095-.223.268.154.229a4.568,4.568,0,0,0,.671-.157l.068-.019a1.269,1.269,0,0,0-.841-.064,1.054,1.054,0,0,0,.334-.143l-.112-.023c.279-.072.556-.149.836-.216-.016-.183-.042-.488-1-.471a7.272,7.272,0,0,0-2.191.506.92.92,0,0,0,.285.034l-.007.005M203.14,227.71c-.427.234-.844.487-1.273.717,1.281-.885,1.281-.885,1.33-1.028-.1.024-.241.06-.345.087-2.3,1.27-4.388,2.9-6.806,3.966a38.928,38.928,0,0,0-4.324,2.018c-1.845,1.042-2.03,1.294-2.061,1.462.841.33,10.292-5.028,12.813-6.758.2-.138.467-.325.667-.464m-1.211.933c.609-.042,5.939-3.626,7.738-5.122l.087-.074c-.406.133-.656.506-1.04.67A18.412,18.412,0,0,1,211.07,222c-.344.265-.693.522-1.027.8.16-.145.314-.295.472-.441-2.189,1.865-8.515,6.238-8.587,6.286m11.965-9.482c-1.06.881-2.021,1.871-3.05,2.784.135-.077.246-.189.375-.275a1.44,1.44,0,0,1-.135.154c1.021-.958,2.034-1.928,3.085-2.853-.082.057-.192.131-.275.189M197.4,26.494l-.027-.016.026.015h0m-.053-.031.026.015-.024-.015ZM33.4,45.8c.319-.134,2.055-.962,4.754-4.261.277-.338,1.121-1.372.544-1.353-.037,0-.084.011-.122.016-1.06.344-1.776,1.255-2.781,1.689a1.6,1.6,0,0,1-.748.933c.2.227-.166.655-1.113,1.589-.5.5-2.028,2-.534,1.385M193.885,220.712l.016-.014-.07.061c.015-.015.037-.032.054-.047M220.3,204.7c.068-.081.134-.162.2-.245l-.005.007c-.065.078-.129.158-.192.238m-9.215,17.13c-.189.179-.377.356-.568.533a6.466,6.466,0,0,0,.568-.533m-19.406,6.045c-.307-.007-.613-.054-.92-.05a3.85,3.85,0,0,0-2.071.753c-1.277.818-2.328,1.918-3.526,2.836,1.446-.253,1.62-.371,3.291-1.487,1.585-1.062,2.839-1.9,3.138-2.025.026-.009.062-.02.088-.028M82.556,92.8c.379.061.473.023.5,0,.042-.055-.114-.133-.262-.129a.259.259,0,0,0-.234.133M51.61,72.331a.017.017,0,0,0,.011-.011h0ZM33.128,64.778l0,.047a8.566,8.566,0,0,1-.331,1.077c-.421,1.242-1.127,3.319-.526,2.935a10.514,10.514,0,0,0,2.019-3.1c.6-1.294.243-1.278.127-1.273a2.792,2.792,0,0,0-.847.377c-.422.239-.423.216-.438-.068M18.872,68.8a.256.256,0,0,0,.035-.05h0a.325.325,0,0,0-.037.051m15.455-4.74a15.168,15.168,0,0,0,1.357-2.3c.207-.429.354-.787.41-.921l-.127.06a5.423,5.423,0,0,0-1.524,2.076h0c-.262.568-.289.822-.116,1.089m176.071,66.6a2.986,2.986,0,0,0-.465-1.853c-.023.046-.055.108-.08.154-.229.519-.594,1.418-.465,1.61.076-.03.12-.047.368-.381-1.079,1.822-2.259,3.687-2.37,3.844l-.149.222a8.5,8.5,0,0,0-.824,1.706c1.572-.825,3.832-3.126,3.985-5.3m7.256,21.013a2.3,2.3,0,0,0,.009-.8l-.7.151c-1.854.373-3.754.483-5.6.929a1.836,1.836,0,0,0-1.124.7,3.388,3.388,0,0,0-.3.572c-.406.92-.574,1.913-.889,2.858-.6,1.8-2.006,3.2-2.546,5.03s-.105,3.754-.41,5.611a2.309,2.309,0,0,1,1.6-.023c.008-.05,1.021-5.1,1.865-5.929.38.541.438.624.23,2.3-.292,2.35.97,1.906,1.225,1.792a3.787,3.787,0,0,0-.318,1.873c.042.026.1.058.142.083.741-.353,1.377-2.256,1.353-2.969a1.734,1.734,0,0,0-.717.425c.307-1.926-.53-3.735-.583-5.624,1.192,1.512,1.864-2.063,3.29-2.424h0c-1.55-.287-3.129.618-4.671-.11-.611-.289-.349-.774.9-1.672,1.362-.979,2.213-.872,3.9-.66,1.478.187,1.589.077,2.206-.525-.069.1-.169.225-.242.321,1.254-1.482,1.254-1.482,1.369-1.9m2.755,9.255c-.687.038-1.683.423-.864,1.139a2.591,2.591,0,0,0,.335.238c-.047.035-.05.041-.065.068l.018.011a.139.139,0,0,0,.068-.066c1.19.655,2.406.711,2.769.131a.647.647,0,0,0-.161-.821,1.427,1.427,0,0,0,.218.441,2.689,2.689,0,0,0-2.317-1.14m-6.69-33.326h0c-.005-.008,0-.023-.019-.026.005.009,0,.024.018.026m.572,28.654h0a.134.134,0,0,0-.092-.037.57.57,0,0,1,.091.035m-.78-25.374c.292.643,1.478-.425,1.489-.434a.952.952,0,0,0,.345-.583c.028-.283-.085-.413-.423-.8a8.971,8.971,0,0,1-1.05-1.323c-.047.022-.077-.005-.151-.143v.039c-.007.134-.022.25-.093.725a6.991,6.991,0,0,0-.118,2.516m-3.817,41.369.607.173c-.012.031-.032.07-.045.1-.2.055-.467.11-.67.147.119.13.119.13.552.3l.055-.046c.429-.119.824-.329,1.247-.457l-.091.206a1.489,1.489,0,0,0,.519-.15c.161-.116.176-.335.325-.459a.45.45,0,0,1,.1-.053l-.092-.035h-.016c-.188-.028-.369.081-.557.024a3.276,3.276,0,0,0-.848.158c-.473-.537-1.156-.03-1.163-.022a10.616,10.616,0,0,0-4.109-.023c-.647.12-1.2.533-1.852.629a6,6,0,0,1-1.407-.161.686.686,0,0,0,.395.321c-.407.3-.579.069-.891-.344a2.7,2.7,0,0,0-1.24.193c-.231-.724-.6-.9-.77-.887-.67.214-.222.791.457,1.662l.045-.023c1.1.3,2.194-.2,3.294-.016-.327-.821,3.829-.36,3.874-.349-.02.03-.047.073-.068.1a25.344,25.344,0,0,1,2.347-.993M189.105,171.1h.041a24.415,24.415,0,0,1-5.93-1.969c1.158-.354,2.011-1.265,3.12-1.71,1.861-.273,3,1.65,4.792,1.585,1.545-.055,3-.77,4.577-.6.108.011.254.024.36.046,1.055.211,1.185.725,1.3,1.178a2.142,2.142,0,0,1-2.141.394c.45.722.532.854,1.932,1.069,2.139.329,1.906,1.158,1.784,1.405a.731.731,0,0,1-.1.141c-.269.3-1.669.859-1.665-.526-.257.971-2.23.473-8.09-1.008Zm6.057-1.124v0m-5.906,1.124a1.678,1.678,0,0,0,.273-.018l0,0v0a1.457,1.457,0,0,0-.406-.03c.008.008.016.015.128.053m25.837,1.055c.11-.237-.12-.212-.387-.183a9.773,9.773,0,0,0-5.908,4.61,11.989,11.989,0,0,0,2.13-1.013h0c1.346-.745,3.858-2.74,4.166-3.415m-13.35-9.539c.015-.007,1.25-.395.237.843a6.517,6.517,0,0,0,.864-1.23c.583-1.152.436-2.5.989-3.666.674-1.418,1.96-2.427,2.593-3.874a3.64,3.64,0,0,0,.348-2.186c.812,1.019,1.158.43,1.27.13.277-.745.191-2.235-1.791-5.1a2,2,0,0,0,.446.25c.015-.064.015-.064-.624-1.108.272.023,1.131.027.894-.9l.074.108.114-.049a3.983,3.983,0,0,0-.187-.87c.678.613,1.108-.174,1.065-.675a1.616,1.616,0,0,0-.156-.475h0l.027-.026c.216-.245,2.1-2.386,1.044-2.41a4.287,4.287,0,0,0-1.376.453c.266-.179.266-.179.353-.333-.212-.1-.212-.1-.831-.034.657-1.474-.461-2.186-.739-2.164a.638.638,0,0,0-.386.291l-.005-.131c-.019,0-1.99.11-2.767,5.03a1.029,1.029,0,0,0-.375-.826,7.4,7.4,0,0,0-.713,1.961c-.655-.153-.417-1.074-1.062-1.236-.748,2.075-4.132,4.914-4.6,4.186a.776.776,0,0,1-.045-.119,7.45,7.45,0,0,0-.672,2.931c-.664-.523-2.164-.269-2.072-1.462-1.169,1.155-1.653,1.631-1.473,4.009.005.078,1.058,7.8,2.371,7.878.4.026.772-.618.951-.928.229,1.307,3.056,1.443,3.882,1.01-.438,1.818,1.5,1.109,2.35.721m-4.5-58.68c-.034.047-.062.1-.1.145a.588.588,0,0,0,.1-.145v0l0,0m10.239-4.47c.544-.978.725-1.355.628-1.756-.012-.027-.032-.064-.045-.092a1.936,1.936,0,0,1,.269.978,10.342,10.342,0,0,1-.3,2.387,5.986,5.986,0,0,0-.2,3.023,3.09,3.09,0,0,0-.825-.82l.064.037c-.13-.112-.13-.112-.16-.157a.9.9,0,0,1,.15.083c-.82-1.014-.515-2,.423-3.683m-.147,3.958-.219-.212,0,.024.162.137Zm.012-.076-.076-.061h-.009Zm.894,1.182.018.012c-.142-.179-.277-.364-.429-.536l.009.02a1.081,1.081,0,0,0,.4.5m-24.756,64.318.007-.008c-.081-.1-.134-.147-.161-.15-.007,0-.019,0-.019.023,0,.041.084.216.173.135m-14.516-26.577h0Zm15.39,9.379h0m-15.233-34.218c-.078-.124-.184-.289-.261-.413-2.224,1.438-2.224,1.438-2.853.613a8.389,8.389,0,0,1-1.244-3.783c-.5-3.647-3.494-5.792-5.229-8.695-.2-.341-.453-.81-.66-1.15s-.523-.747-.749-1.065c-.31.032-.725.065-1.036.081-.195,1.511-.195,1.511-.8,2.2a7.1,7.1,0,0,1-.519-.881,2.448,2.448,0,0,1-.643.682,3.076,3.076,0,0,0-.986-.116l-.333.425-.329-.335c-.118.074-.275.177-.392.252a1.637,1.637,0,0,1-.383-.868c-2.337,5.39-8.539,7.5-10.908,12.869-2.285,5.177-.757,11.136-3.334,16.252a5.806,5.806,0,0,1-1.606,2.328c-2.965,1.783-16.436-22.524-12.226-30.6l-.448-.318a4.186,4.186,0,0,0-.212-.927l-.464-.127a3.712,3.712,0,0,1,.271.582c.377,1.491-1.6,3.019-2.773,2.845-2.156-.323-1.767-2.874-3.286-3.752,1.5-.17,1.688-.625,1.868-1.065a5.736,5.736,0,0,1-4.17-1.482c-2.692-2.274-3.061-3.67-3.183-4.128-4.864-2.6-10.4,1.691-15.208-1.478-.473-.312-1.089-.751-1.577-1.04-2.263-1.342-4.906.127-7.2-.978-2.893-1.392-2.612-5.573-5.851-6.659a3.2,3.2,0,0,0-.665-.065,9.678,9.678,0,0,1-1.846,1.6H79.9c1.138.279,1.3.538,1.787,2.777l3.453,7.4c1.887,2.1,8.812,1.918,9.137-3.74,1.315,1.4.243,3.444,1.323,4.907s3.314,1.113,4.3,2.726a3.077,3.077,0,0,1,.243,1.946c-.376,1.882-3.023,6.969-10.344,12.759-.143.114-14.366,11.3-17.517,8.275L60.5,94.382c-.134-.353-.317-.821-.437-1.179a9.621,9.621,0,0,1-.375-5.122c-1.454,1.944-1.428,2.615-1.374,3.951a8.6,8.6,0,0,1-2.053-4.947c-1.461,2.525-1.6,4.415,1.315,9.582,2.2,3.894,2.2,3.894,5.5,15.743,1.4,5.043,2.895,7.738,5.319,9.615,1.142.885,3.268,2.531,3.731,3.639.6,1.442-.042,1.957-1.213,2.892,6,2.263,6,2.263,7.5,1.814,7.822-2.339,7.822-2.339,7.9-1.923.062.341,1.37,8.528-11.048,24.113-12.294,15.428-3.179,24.021-3.076,24.093l-.068.625c.208,3.014,2.174,5.548,2.336,8.576.2,3.791-4.1,4.473-5.121,7.416-1.322,3.8,3.365,6.052,2.492,9.732a4.913,4.913,0,0,1-2.075,2.67c1.813,1.718,3.525,3.341,1.254,9.353-2.2,5.828-7.292,4.366-7.341,4.345-.993-.444-12.813-13.015-13.317-13.549-3.7-3.938-11.43-15.635-11.469-15.712-2.09-4.024-1.535-8.735-3.346-12.831l-.187-.371c-.046-.077-4.646-7.779-3.7-9.679-3-1.478-9.033-8.823-6.712-12.941-2.593-2.809.122-7.339-3.21-9.911l-.427.414c-.169-.06-.395-.137-.565-.195a1.692,1.692,0,0,1-.943.534c-4.637-4.649-4.637-4.649-5.948-3.675-6.219,4.617-6.982,2.834-8.247-.118a84.733,84.733,0,0,1-3.762-20.409c-.318-4.836,1.629-9.436,1.481-14.253-.027.179-.062.415-.089.592C3.934,97.088,14.863,79.22,14.973,79.06c1.677-2.44,2.44-3.375,2.914-3.576.67-.283,1.121.307,1.692.421.519.106.729.026,2.789-1.391A10.54,10.54,0,0,1,26.1,72.557c.476-.12.476-.12,5.328-.475,1.085-.03,1.8-.05.783,2.228-.71,1.587-1.949,2.934-2.153,4.75.475,3.321,8.4,9.574,9.88,4.8.683-2.206,1.515-2.676,2.094-2.681a4.665,4.665,0,0,1,.825.014c2.4.45,3.84,2.678,6.152,3.286,2.252.591,4.212-1.266,6.452-.772a5.676,5.676,0,0,0,.665,1.06c3.306-.4,4.741-3.345,5.892-5.711,2.2-4.744,1.439-5.716,1.154-5.9,0,0-5.408.151-6.567.226a10.26,10.26,0,0,1-4.067-.438c.074-.139.176-.325.252-.464a4.686,4.686,0,0,0-1.162-.164,9.328,9.328,0,0,1,.483-2.669c-1.436-1.539.609-2.934.414-4.446a2.429,2.429,0,0,0-3.083-.15,2.627,2.627,0,0,0,.207,1.182,5.631,5.631,0,0,0-1.075.142c-.028.165-.064.384-.091.549a6.561,6.561,0,0,0-.624-1.161c-.388,1.669.863,3.127.611,4.777-.1-.139-.227-.326-.323-.467a1.545,1.545,0,0,1-.375.932,1.514,1.514,0,0,0-.974-.279c.11.145.256.338.364.483-.25.229-.6.518-.87.725-.028.391-.074.913-.116,1.3-.146.092-.337.216-.483.31-2.137-1.427-.841-3.08-.417-3.624A1.211,1.211,0,0,1,44,68.834a9.971,9.971,0,0,1,.164-3.131c.436-1.982-.958-3.544-1.234-5.362-.072-.475-.4-1.056-.45-1.534a2.4,2.4,0,0,1,.369-1.384L42.6,56.9l-.5.18-.5-.258c-1.583,1.14-2.174,1.566-1.941,3.852.238,2.341,2.565,3.645,2.937,5.919-.749.287-1.438-.208-2.17-.162l-.027.026a9.205,9.205,0,0,1-1.564,4.516c-1.119-.135-1.852.974-2.949.914-.891-1.56,2.032-1.549,2.784-2.6,2.344-3.28-1.117-9.2-1.152-9.259-1.185-1.879-3.141.009-4.709-.032l-.4.022a36.657,36.657,0,0,0-7.771,8.7c-1.776,3.081-3.632,4.865-5.674,5.451-.74-.536-.649-1.493-1.1-2.175l-.534.143c1.051-2.378,1.051-2.379,1.576-3.387h0c-.035.043-.08.1-.114.143,4.1-8.681,4.1-8.681,7.572-8.541,1.821.074,6.372-5.492,4.618-8.576A6.711,6.711,0,0,1,33.673,50.7c1.036-2.611,12.084-8.73,12.185-8.764.116.108.269.254.384.364,1.215-1.307,1.915-2.985,3.121-4.3.2-.2.48-.453.694-.636l.057-.027a3.051,3.051,0,0,1,1.856-.908c-.924.991-1.569,2.237-2.743,3l.6-.049c-.59.91-.59.91-1.327.975.073-.174.172-.406.245-.579-.606.982-.565,1.058-.246,1.645,0,0,.97-.115,2.3-.216-.133.091-.311.212-.445.3.084.151.2.353.281.5.05,0,5.071-.459,6.136-1.152a16.541,16.541,0,0,1,4.017-4.588,2.479,2.479,0,0,1,.774.749c1.8-.208,1.378-2.167,2.352-3.029.621-.549.621-.549,5.616-.851-.054-.2-.129-.467-.183-.665-.172-.089-.4-.208-.571-.3-.022-.111-.051-.261-.073-.373-4.468.794-4.468.794-5.294.507,1.35-2.055,1.35-2.055,6.489-6.015-2.08-1.48-2.659.292-2.85.875-6.966,2.7-6.616,4.807-6.448,5.822-7.454,6.493-7.454,6.493-9.279,6.609.065-.191.154-.446.219-.636a14.841,14.841,0,0,1-1.941,1.88l-.494-.223c.943-.35.943-.35,1.092-1.476,2.078.4,3.4-3.751,3.97-5.524a10.442,10.442,0,0,1-3.438,2.072l-.44-.3a11.451,11.451,0,0,0,.491-1.642c1.276-1.184,2.007-2.916,3.7-3.679,1.121-.528,1.266-.594,2.224-1.059,2.751-1.351,5.209-3.191,7.86-4.713l.058-.016a13.989,13.989,0,0,0,1.742-1.19v0c.077-.072.153-.149.252-.25a7.042,7.042,0,0,1-1.255.2c.981-.591,2.087-.908,3.1-1.431-.1.123-.243.287-.349.408,1.289-.1,2.245-1.031,3.436-1.378-.009.158-.019.367-.028.523,1.309-.342,1.309-.342,1.528-.541l.594.1c.483-.648.569-.766,1.739-1.174l.491.284c-.315.195-.724.475-1.023.694a9.582,9.582,0,0,1,2.665-.77l-.434.314.634-.193c.161.095.377.219.538.315-.372.124-.867.295-1.239.425,1.749.115,1.749.115,1.96.145l.1.514c2.935.634,4.034.872,4.343,1.608.417.991-1.358,2.2-2.185,2.367-1.577.314-2.753-.913-4.2-1.1.925,3.721.925,3.721,1.955,3.464a4.154,4.154,0,0,0-.422-1.046c2.134-.066,3.729-1.887,5.906-1.818.1.13.238.3.338.43a12.075,12.075,0,0,0,.979-2.454l-.281-.457c1.419-.737,2.157-.442,2.2.877-1.242.049-1.481.088-1.658,1.044,2.912.241,4.959-2.489,7.859-2.287-.288.21-.661.5-.933.732,4.349-.21,4.989-.545,5.8-.97a14.642,14.642,0,0,0-1.65-1.278c7.17,2.145,7.17,2.145,7.45,2.055a3.038,3.038,0,0,1-1.105-2.6c.253-1.246,1.869-1.347,2.156-2.566a4.694,4.694,0,0,1,1.105.243h.005l.095,0,.518.176c.744,1.6.444,3.471,1.273,5.052-.448,1.174-.494,1.3-2.063,1.96,3.681-.249,3.279-1.681,3.064-2.451,1.566-.808,2.381.813,3.6,1.115h.011c-1.695-1.457-4.036-2.114-5.214-4.211.8-.533.8-.533,1.029-1.378l.445.321a9.164,9.164,0,0,0,.17,1.37c.34.168.34.168,2.336.3-.193-.283-.193-.283-1.634-1,.154.037.361.088.517.126.123-.1.287-.234.41-.333l-.445-.288a28.661,28.661,0,0,0,4.036.618,2.907,2.907,0,0,0-2.409-1.458h0s0,0,.238-.106c1.392-.35,2.876.053,4.242-.517l-.51-.215c-.3-1.436.449-1.424,3.586-1.373a2.076,2.076,0,0,1,.958-.518,10.577,10.577,0,0,0,3.066.151l-.446-.345h.484c.552-.718.552-.718,1.294-.879,6.3-.134,11.386,4.573,17.686,4.466.088-.126.2-.295.289-.422-.045-.156-.107-.365-.153-.521,3.1.772,5.776,3.154,9.268,2.447-.053-.179-.122-.415-.173-.594,1.572-.509,3.024.289,4.537.419,0,0,.005,0-.352-.081l-.381-.331a7.324,7.324,0,0,1,1.577.083c-.368-.157-.859-.367-1.227-.526-.054-.149-.128-.346-.184-.5,5.822-.488,6.228-.162,7.736,1.048,2.636,2.117,5.7.661,8.547,1.02,2.506.315,5.037.348,7.544.657a2.576,2.576,0,0,1,.966.395l-.488-.153a14.815,14.815,0,0,0,3.382.974c-2.245-.94-2.245-.94-2.512-1.484,4.932-.271,16.957,3.033,18.922,5.2h-.546a14.7,14.7,0,0,1,2.51,1.505c-2.874,1.507-4.469-1.465-6.779-1.934,1.167.778,1.167.778,1.574,1.078-.084.127-.2.3-.281.423a50.968,50.968,0,0,1,6.018,3.131,4.638,4.638,0,0,0-1.734-.379c.115.21.269.487.384.7l-.356.438a5.637,5.637,0,0,1,1.447,1.872l-.242.45c-2.467-.544-3.069-.392-3.6-.258.206,1.308,3.624,3.256,3.659,3.273a29.408,29.408,0,0,1,5.939,4.683c-.019.193-.046.452-.066.644a19.019,19.019,0,0,0,1.9,1.983h0l-.234.092a14.54,14.54,0,0,0,1.794,3.145,4.834,4.834,0,0,1,.335,1.281c-.123-.131-.285-.307-.409-.437l-.018-.02c-.077-.174.038-.448.084-.633-3.94-4.263-9.18-6.889-13.483-10.7h.023c.107-.162.25-.379.358-.541-1.661-4.516-4.765-5.942-5.649-5.927a19.978,19.978,0,0,0,2.017,1.353l-.515.027a7.59,7.59,0,0,0,.472,1.255c-2.662-1.8-2.949-1.873-4.155-2.164l-.337.373c.12.925.12.925,3.579,3.768a1.7,1.7,0,0,1-2.792.2l.41-.312h0s0,0-.07-.038a8.886,8.886,0,0,0-1-.083h-.165l-.356,0a11.22,11.22,0,0,1-1.2-.114c.019.015.043.035.061.051-1.607.425-3.349-1.365-4.882.3-1.223,1.326-1.326,7.747,4.4,7.86-1.665-1.5-1.665-1.5-1.86-2.022.022.015,2.221,1.384,2.62,2.524a5.083,5.083,0,0,1,.879-.4,2.418,2.418,0,0,1-.615-.889,6.128,6.128,0,0,1,4.669,2.079l-.5-.073c8.75,5.2,10.962,15.052,9.6,17.993l-.586.207a3.169,3.169,0,0,1-1.359-1.093l-.335.373-.265-.425a3.045,3.045,0,0,1,.238,1.273l-.536-.084c2.235,1.914.165,4.841,1.633,6.934,1.294,1.844,3.844,2.276,4.9,4.381.421.833.421.833,1.05,3.741a4.558,4.558,0,0,0-.954.257c0,.145-.007.338-.009.483-2.891,1.109-4.05-4.378-3.956-4.9l.4.319c-.135-.845-.226-1.094-1.543-1.769l.06-.045-.13-.011.059.045c-.955-.33-1.982-.406-2.914-.816a1.645,1.645,0,0,1,.106-1.059c-1.17-.555-1.668-2.126-3.211-2.118-1.422.008-.7,2.175-2.125,2.147a2.266,2.266,0,0,1-.5-.149c-.152-1.189-.3-1.235-.9-1.422.1-.173.3-.38.327-.578.06-.422-.651-2.3-1.963-1.767-.046.018-3.789,2.6-1.992,4.591,2.212,2.454,5.5.79,8.01,2.09-.249,1.312-1.715,2.1-1.533,3.6.072.578.126,1.032,2.41,3.555a39.626,39.626,0,0,0,5.067,4.7l-.387.268c-.785-.356-1.273-1.175-2.156-1.376a4.163,4.163,0,0,1,2.306,3.447l-.31.342c2.182.468,2.182.468,2.6,2.068a1.6,1.6,0,0,1-.288.386c.555,1.189.537,1.311.434,2.1l-.5.069c-.239.729-.553,4.166.077,5.592h0s0,0,.156-.16c-.3,1.921-.349,2.216-1.8,3.647-1.592,1.564-3.843,2.1-5.511,3.544a1.67,1.67,0,0,0-.91-1.2c.534,1.089.63,1.286-.664,2.95-.03-.031-3.046-2.4-3.7,2.977,1.1.908,1.558,1.752,1.048,3.841a3.075,3.075,0,0,1-2.908,1.973c.179-.318.4-.747.567-1.071.192-4.243.192-4.243.871-4.667,0-.61,0-2.038-.916-2.455-.5-.227-6.077.268-5.7,3.415.7,5.873,7.034,8.706,7.851,14.518.291,2.071-.551,9.187-3.641,6.9-.095,1.534-1.519,5.567-3.589,4.476.207-.33.483-.77.688-1.1-1.135-4.56-6.227-6.04-7.914-10.17-3.62,2.427-2.471,8.293-2.328,8.954.583,2.7,3,4.107,4.418,6.221,2.429,3.624,1.673,8.144,3.376,11.972.08.18.346.3.494.431-3.594.663-4.9-2.279-6.332-8.7-1.2-5.4-1.795-7.153-3.77-5.582-.482-1.815-.678-2.569-.261-5.8a24.416,24.416,0,0,0-3.879-16.545c.053,1.945-.363,2.128-.991,2.406m-88.5-58.192c.356.16.356.16.8-.018-1.2,1.838-.944,2.688,1.347,4.548,1.438,1.167,1.776,1.583,1.9,2.336-1.612-.246-2.381,2.667-2.262,3.652.192,1.58,1.6,2.34,2.731,2.951.331.177.344.23.375.357h.041l-.016.043c1.595.96,2.927-.665,4.447-.452l.031.005C89.949,67,89.9,63.583,87.478,61.206c-1.7-1.671-1.764-2.057-1.86-2.7a1.791,1.791,0,0,1,.99-.487c-.4-.9-.4-.9,2.32-1.453-.423-.331-.5-.423-.288-1.357.146-.656.368-1.648-1.676-1.744-2.233-.106-3.029,2.368-4.976,2.773a.75.75,0,0,1-.617-.326c-.018,1.161-1,2.1-.748,3.326m-14.955-4.12c-.483.837.487,1,3.085,1.447.225-.591.6-1.581,1.3-1.316-.014-.322-.016-.372-.367-.551-.323-.164-.342-.218-.329-.563a2.51,2.51,0,0,0,1.838-.534c.07-.05.16-.119.227-.17-1.28-.671-3.639.157-5.309,1.322.1-.089.1-.089.126-.134a4.445,4.445,0,0,0-.515.427L65.9,54.9l-.179.161-.022.011-.05.041Zm2.9,9.832a3.95,3.95,0,0,0,3.59-1.593c1.12-1.556-1.039-4.219-3.774-5.9-1.95-1.2-3.905,1-5.856-.008-.106-.421-.106-.421,1.638-1.938-1.439-.783-2.408-1.212-3.733-.559l-.176-.2.1.172.05.041c-1.246.668-2.065,2.1-3.015,3.764a8.4,8.4,0,0,1-2.521,3.093,2.165,2.165,0,0,1,.86,1.025c.269.533.674,1.339,1.112,1.438,2.433.556,4.121-2.078,6.553-1.53,1.856.421,3.211,2.019,5.172,2.194m74.573,70.261c-.069.016-.15.085-.312.268.158.356.206.39.216.356a.523.523,0,0,0-.016-.165l.06-.026.037-.038a.485.485,0,0,0,.1-.245c0-.047,0-.156-.084-.15m41.235,16.432-.012,0,.005,0h.007m58.445,12.493-.03.016c.594-2.055.441-4.057-.1-3.993-.13.043-.219.126-.38.353a2.634,2.634,0,0,1,.047.476.122.122,0,0,0-.069-.042.369.369,0,0,0-.153.249c.066,0,.066,0,.2-.112a23.44,23.44,0,0,1-.083,2.609c-.046.118-.207.211-.275.318a17.651,17.651,0,0,1-.983,1.681c-.243.306-.377.268-.479.191-.4-.311-.607-.467-1.231.147-.1.1-.1.1-.345,1.4.073.041,1.857.944,3.287-3.222-.022.63-.008.833.064.941l.05-.012-.007.035a1.533,1.533,0,0,0,.4-.657l.091-.235.016-.095-.043.035c.011-.026.024-.06.032-.087M142.85,135.7a18.39,18.39,0,0,1-.257,5.241c-.707,2.555-2.31.211-2.327.185-.69-1.2-.38-2.628-.022-4.276.377-1.735.564-2.857-.026-3.8a.41.41,0,0,1-.365-.373l.143.091c-.022-.027-.05-.062-.072-.091a.627.627,0,0,1,.371-.139c.173,0,1.093.038,2.193,1.4.285.353.7,1.024.308,1.549-.019.024-.034.045.053.214M141,133.232c-.25-.308-.391-.143-.392-.142s-.065.173.154.18a.911.911,0,0,0,.222-.034l.016,0m91.875,25.044c-2.359.039-2.584,3.057-4.733,3.39-.872.135-.372-2.573-.367-2.6-.015.038-.037.087-.051.123.28-2.509.407-3.655-1.271-3.487a4,4,0,0,0-2.2,1.539c.134-.785-.131-.963-.245-1.039-.145.054-.2.077-.384.375,1,1.716,1.867,3.2,3.48,2.743-.6.772-1.627.7-2.356,1.216l.011-.005c1.054.9-.271,2.029.284,2.978.208.019.358.032,1.152-1.542a2.027,2.027,0,0,0,.245,1.633c.418.6,1.189.663,1.689,1.132.785.737.787.833.97,5.818-.111-.258-.442-1.044-2.06,2.084.831-.371,1.769-.341,2.6-.709-.848,2.413.914,2.309,1.062,2.23.172-.088,1.669-1.259,1.422-1.831L232,172.3h0c.8-.395.8-.395.971-.56l-.009-.147.045.115a2.653,2.653,0,0,0,.513-.975c.2.745,1,1.117,1.184,1.873.295,1.205-.352,2.454.172,3.647.637,1.458,1.381.749,1.388.741a2.575,2.575,0,0,0,.364-1.248c.223-1.423-.43-2.8-.235-4.22.2-1.469,1.188-2.677,1.38-4.15a5.127,5.127,0,0,0-.068-1.408c-.014-.078-2.09-7.738-4.83-7.692m-49.918,8.739a3.631,3.631,0,0,1-.173-.5l-.009-.012h.02c.456-.225,1-.045,1.445-.33a3.255,3.255,0,0,0,1.236-1.4,8,8,0,0,0-.291-5.143c1.3,2.213,1.607,2.738,2.87,2.04a.574.574,0,0,1,.045-.956c.08.05.2.124.272.072l-.222-.223.074-.012c-.034-.028-.077-.066-.112-.095H188.1l-.009-.014c-2.435-2.344-2.435-2.344-3.345-1.723a33.121,33.121,0,0,1-2.355-4.131c-.33-.863-.139-1.836-.563-2.68-.3-.606-.618-.713-1.244-.925a.842.842,0,0,0-.169.687,3.289,3.289,0,0,0-.9-.858c.257.1.257.1.453.061.25-.9-1.029-1.945-1.042-1.956-1.024-.829-2.3-1.269-3.311-2.11-1.293-1.071-2.136-2.589-3.53-3.559a4.742,4.742,0,0,0-2.758-1c-.116.007-.233.014-.348.024,1.968.394,5.026,6.72,9.011,16.1,2.74,6.447,3.992,9.27,4.968,8.646m41.733-6.441.055-.038h0a.323.323,0,0,0-.054.038m5.177,16.7c-3.012,3.881-4.2,8.9-7.752,12.442-2.051,2.051-2.561-2.09-2.563-2.134-.076-1.239-.076-1.239,3.607-8.07-.231.238-.231.238-.92.9.011-.449.287-.829.327-1.27-.442.977-.442.977-3.816-1.128-1.3,2.5-1.3,2.5-1.963,2.674-1.418.375-3.376,1.99-4.231,5.312-.652-.344-.739-.365-1.68,0,.126-1.2-1.22-1.528-1.484-2.5-.181.218-3.658,3.768-5.383,4.465H204a4.347,4.347,0,0,1-.5,1.761c-.027-.08-.065-.188-.093-.266-.273.264-.273.264-.538.881a7.153,7.153,0,0,1,.288-2.057,11.95,11.95,0,0,0-3.294,3.016c-1.725,2.015-2.3,2.446-3.2,2.95-1.533.858-3.314,1.009-4.9,1.721-1.992.9-3.417,2.859-5.77,3.076a1.486,1.486,0,0,1,.169-.759c-3.4,1.748-4.418,5.615-4.851,7.266-.223.852-.223.852-.5,1.136a1.623,1.623,0,0,0-.054-.571c-2.167,2.524-1.388,6.149-3.279,8.777-1.159,1.61-3.058,2.525-4.029,4.311a1.375,1.375,0,0,0-.049.463c1,.82,3.81-.294,5.864-1.106.133-.053,13.607-5,16.08-3.164.043.459.043.459-2.375,4.6,1.825-1.254,3.808-2.272,5.516-3.7-1.109,2.16-3.5,2.681-5.212,4.063.718-.1.967-.276,2.907-1.672-.072.095-.072.095-2.276,2l.034-.027.272.1c-.553,1.689-2.757,2.2-2.964,4.134.268.222.268.222,3.647-.852a2.043,2.043,0,0,1-.854.6l.314.012c-.134.376-.134.376-.666.987a74.183,74.183,0,0,0,25.969-20.134c-.157.181-.365.429-.518.614q.452-.55.9-1.1c-.06.073-.138.166-.2.238l.1-.123.057-.068c.081-.1.187-.231.268-.331l-.183.226a17.033,17.033,0,0,0,2.241-4c.64-1.695,1.436-3.329,2.011-5.049.507-1.51.134-3.185.872-4.652,2.939-5.85,2.939-5.85,3.02-7.909.145-3.645.836-4.721,1.711-6.08l.008-.011c-.005-.007-.011-.012-.031-.011a.1.1,0,0,0-.05.022m-12.85-14.5a.982.982,0,0,0,1.282-.482.714.714,0,0,0,.039-.249h-.008a1.071,1.071,0,0,0-1.151-.812.58.58,0,0,0-.494.551c-.022.207-.08.755.331.991m-7.381-50.4-.007-.026a.075.075,0,0,0-.008-.024l0,.024Zm4.533,26.532.005-.008a2.657,2.657,0,0,1-.212.237,1.492,1.492,0,0,0,.207-.229m5.4.207c.069,1.29.112,1.327.349,1.534a9.592,9.592,0,0,0,.261-1.185c.007-.047.644-4.848-1.036-6.874l.023-.042c.179-.095.179-.095.108-1.533-.111.288-.235.571-.333.863.022.119.051.276.077.395-.564-.373-.564-.373-.7-3.011,1.167.488.812-1.305.472-2.1-.449-1.056-.582-1.039-1.626-.908-.786-2.712-.786-2.712-1.125-2.758-.184.141-.184.141-.268.494a1.361,1.361,0,0,0-1.922-1,.858.858,0,0,0-.187.5,7.553,7.553,0,0,1-.133-1.426l.019.012a2.512,2.512,0,0,0,.037-.59c0-.069-.028-.158-.031-.226-.1-2.22.6-4.475-.283-6.662-.656-1.625-2.891-.555-3.591-2.1l-.045-.077a.6.6,0,0,0,.072.177c.261,1.922-.552,3.91.364,5.791a.8.8,0,0,0-.475.124,4.706,4.706,0,0,0,1.32,4.071c.379-.212.43-.468.183-.908.537.352.537.352.294,2.218-.111.018-.258.038-.368.051-.285.734.11,1.181,1.581,2.843.866-1.056-.161-2.218-.851-2.818a2.887,2.887,0,0,1,1.449-.065.52.52,0,0,0,.292.741c.16-.07.325-.143.131-.637.916.312,1.251,1.269,1.983,1.784a1.474,1.474,0,0,0-.6-1.031c.02-.281.083-1.14.967-.207a8.293,8.293,0,0,1,1.129,1.7l-.129.014c-.122.752-.122.752,1.086,2.477-.256.215-.427.271-.636-.009.047-.012.107-.028.151-.042a.666.666,0,0,0-.139-.568c-.122.118-.177.17-.068.517l-.081-.169a2.9,2.9,0,0,0,.037,2.041l-.083-.026a6.07,6.07,0,0,0,.425.787l1.219,2.171c-.264.876-.264.876-2.193,3.015.026-.069.058-.162.084-.233-.275-.471-1.861-.38-2.167.688a11.274,11.274,0,0,1-.434,1.983,4.876,4.876,0,0,0,.845-1.358c.6.808,2.182-.633,2.19.418.005.775-.506,1.492-.257,2.294.242.779,1.088,1.02,1.482,1.662-.009-1.09.89-1.813,1.131-2.8m-4.822-5.425c.289.019.9-.977,1.158-1.515,0,0,.147-.843.179-1.248.1-1.323-.5-1.2-.506-1.2-.624.484-1.345,3.929-.831,3.965m.785-6.228a4.385,4.385,0,0,0,.528-1.545c0-.019-.007-.046-.009-.066a2.514,2.514,0,0,1,.824,1.9,1.418,1.418,0,0,1-.095.413c-.368-.829-.779-.937-1.373-.363v-.015l-.011.039a1.249,1.249,0,0,0,.024-.189c.009-.238.031-.26.049-.28.019.012.026.016.064.107m.095-.038.037.012.011-.091Zm-6-15.1v-.015h0c-.008,0,0,.011,0,.016m11.872,39.7c-.1.141-.195.281-.3.417.084-.624.011-1.257.105-1.879.078-.51.078-.51.292-.724l-.133.077c-.415.33-.867.935-1.075,2.916-.028-.084-.028-.084-.061-.118a17.19,17.19,0,0,0,.118,2.861c.176.978.41,1.021.571.967-.584-2.459,1.021-2.409,1.037-2.406a4.477,4.477,0,0,1,.33-2.958c-.315-.092-.931.632-.887.847m-78.455-15.984c.012.02.027.046.038.066-.078-.211-.161-.418-.243-.626.005.065.015.151.022.216.057.118.119.231.184.344M89.408,185.629l-.1-.2.031.106c-.143-.338-.154-.344-.322-.429a9.931,9.931,0,0,0-.1,2.333,2.815,2.815,0,0,1-.384-.863c-.564,1.4-.582,2.08-.154,5.63.533,4.411-.294,13.018-2.823,13.2-.883.064-2.624-1.205-3.235-3.263-.576-1.94-1.322-12-1.317-12.067.078-1.365,1.418-1.746,2.072-2.662.2-.277.268-.624.471-.9a4.686,4.686,0,0,1,.387-.417c1-1.029,1.129-2.5,1.848-3.672A9.031,9.031,0,0,1,87,180.29c.775-.218,1.381,1.591,1.754,3.146a10.74,10.74,0,0,0,.651,2.193m-.222-.5a1.482,1.482,0,0,0-.11-.257.483.483,0,0,0,.045.116c.018.043.046.1.065.141m120.46-72.711-.028-.1c.008.032.018.064.027.095v0" transform="translate(0.633 3.324)" fill="#2f6e24"/>
            </g>
          </g>
          <g id="Grupo_1099398" data-name="Grupo 1099398">
            <g id="Grupo_1099397" data-name="Grupo 1099397" clip-path="url(#clip-path-12)">
              <g id="Grupo_1099393" data-name="Grupo 1099393" transform="translate(20.877 20.877)" style="mix-blend-mode: multiply;isolation: isolate">
                <g id="Grupo_1099392" data-name="Grupo 1099392">
                  <g id="Grupo_1099391" data-name="Grupo 1099391" clip-path="url(#clip-path-15)">
                    <path id="Trazado_873675" data-name="Trazado 873675" d="M193.279,15.434A128.508,128.508,0,0,1,15.435,193.278,128.5,128.5,0,1,0,193.279,15.434" transform="translate(-15.434 -15.434)" fill="#dbdbdb"/>
                  </g>
                </g>
              </g>
              <g id="Grupo_1099396" data-name="Grupo 1099396" transform="translate(3.816 3.814)" style="mix-blend-mode: screen;isolation: isolate">
                <g id="Grupo_1099395" data-name="Grupo 1099395">
                  <g id="Grupo_1099394" data-name="Grupo 1099394" clip-path="url(#clip-path-16)">
                    <path id="Trazado_873676" data-name="Trazado 873676" d="M2.821,96.333c2.795.276,5.627.422,8.495.422a85.44,85.44,0,0,0,85.44-85.44c0-2.868-.146-5.7-.422-8.495A128.7,128.7,0,0,0,2.821,96.333" transform="translate(-2.821 -2.82)" fill="#262626"/>
                  </g>
                </g>
              </g>
            </g>
          </g>
        </g>
      </g>
      <path id="Trazado_874379" data-name="Trazado 874379" d="M-55.718-4.526h-1.67V0h-3.085V-12.8h5.036a5.621,5.621,0,0,1,3.56,1.01,3.421,3.421,0,0,1,1.283,2.853,4.155,4.155,0,0,1-.541,2.213A3.837,3.837,0,0,1-52.827-5.3l2.672,5.167V0h-3.3ZM-57.388-6.9h1.951a1.751,1.751,0,0,0,1.323-.463,1.788,1.788,0,0,0,.444-1.291,1.809,1.809,0,0,0-.448-1.3,1.735,1.735,0,0,0-1.318-.471h-1.951ZM-44.266.176a4.889,4.889,0,0,1-3.542-1.305,4.507,4.507,0,0,1-1.354-3.4v-.246a5.84,5.84,0,0,1,.541-2.575,3.955,3.955,0,0,1,1.578-1.727,4.763,4.763,0,0,1,2.461-.611,4.117,4.117,0,0,1,3.164,1.244,4.887,4.887,0,0,1,1.16,3.467v1.151h-5.889a2.135,2.135,0,0,0,.694,1.257,2.066,2.066,0,0,0,1.389.457,2.662,2.662,0,0,0,2.2-.984l1.354,1.6A3.784,3.784,0,0,1-42.082-.277,5.3,5.3,0,0,1-44.266.176ZM-44.6-7.4q-1.3,0-1.547,1.723h2.988v-.229a1.467,1.467,0,0,0-.36-1.1A1.434,1.434,0,0,0-44.6-7.4Zm14.361,2.716a5.735,5.735,0,0,1-1,3.538A3.2,3.2,0,0,1-33.93.176a2.742,2.742,0,0,1-2.153-.958V3.656h-2.962V-9.51h2.769l.088.879a2.742,2.742,0,0,1,2.241-1.055,3.224,3.224,0,0,1,2.733,1.3,5.805,5.805,0,0,1,.976,3.564ZM-33.2-4.869q0-2.531-1.477-2.531a1.394,1.394,0,0,0-1.406.756V-2.9a1.439,1.439,0,0,0,1.424.791q1.415,0,1.459-2.443Zm10.02-1.96-.976-.07a1.752,1.752,0,0,0-1.793.879V0h-2.962V-9.51h2.777l.1,1.222a2.294,2.294,0,0,1,2.083-1.4,2.888,2.888,0,0,1,.826.105Zm5.5,7a4.889,4.889,0,0,1-3.542-1.305,4.507,4.507,0,0,1-1.354-3.4v-.246a5.84,5.84,0,0,1,.541-2.575,3.955,3.955,0,0,1,1.578-1.727A4.763,4.763,0,0,1-18-9.686a4.117,4.117,0,0,1,3.164,1.244,4.887,4.887,0,0,1,1.16,3.467v1.151H-19.56a2.135,2.135,0,0,0,.694,1.257,2.066,2.066,0,0,0,1.389.457,2.662,2.662,0,0,0,2.2-.984l1.354,1.6A3.784,3.784,0,0,1-15.5-.277,5.3,5.3,0,0,1-17.679.176ZM-18.013-7.4q-1.3,0-1.547,1.723h2.988v-.229a1.467,1.467,0,0,0-.36-1.1A1.434,1.434,0,0,0-18.013-7.4ZM-7.5-2.672a.684.684,0,0,0-.4-.606,6.016,6.016,0,0,0-1.5-.475A6.853,6.853,0,0,1-11.228-4.4a3.062,3.062,0,0,1-1.1-.971A2.319,2.319,0,0,1-12.7-6.68a2.628,2.628,0,0,1,1.081-2.158,4.453,4.453,0,0,1,2.83-.848,4.934,4.934,0,0,1,3.023.853A2.666,2.666,0,0,1-4.627-6.592H-7.6q0-1.143-1.2-1.143a1.194,1.194,0,0,0-.782.259.8.8,0,0,0-.316.646.737.737,0,0,0,.387.642,3.654,3.654,0,0,0,1.235.4,10.671,10.671,0,0,1,1.49.378A2.706,2.706,0,0,1-4.645-2.76,2.491,2.491,0,0,1-5.8-.642,5.068,5.068,0,0,1-8.793.176a5.172,5.172,0,0,1-2.18-.439,3.645,3.645,0,0,1-1.494-1.2A2.707,2.707,0,0,1-13-3.05h2.769a1.145,1.145,0,0,0,.439.962,1.808,1.808,0,0,0,1.081.3A1.422,1.422,0,0,0-7.8-2.03.787.787,0,0,0-7.5-2.672ZM1.34.176A4.889,4.889,0,0,1-2.2-1.129a4.507,4.507,0,0,1-1.354-3.4v-.246a5.84,5.84,0,0,1,.541-2.575A3.955,3.955,0,0,1-1.437-9.075a4.763,4.763,0,0,1,2.461-.611A4.117,4.117,0,0,1,4.188-8.442a4.887,4.887,0,0,1,1.16,3.467v1.151H-.541A2.135,2.135,0,0,0,.154-2.566a2.066,2.066,0,0,0,1.389.457,2.662,2.662,0,0,0,2.2-.984l1.354,1.6A3.784,3.784,0,0,1,3.524-.277,5.3,5.3,0,0,1,1.34.176ZM1.006-7.4q-1.3,0-1.547,1.723H2.448v-.229a1.467,1.467,0,0,0-.36-1.1A1.434,1.434,0,0,0,1.006-7.4ZM9.259-9.51l.1,1.116a3.225,3.225,0,0,1,2.716-1.292,2.713,2.713,0,0,1,2.219.888,4.226,4.226,0,0,1,.76,2.672V0H12.081V-6a1.6,1.6,0,0,0-.29-1.059A1.342,1.342,0,0,0,10.736-7.4a1.413,1.413,0,0,0-1.292.686V0H6.482V-9.51ZM20.14-11.874V-9.51H21.7v2.057H20.14V-3.1a1.111,1.111,0,0,0,.193.747,1.037,1.037,0,0,0,.765.211,4.345,4.345,0,0,0,.738-.053V-.079a5.466,5.466,0,0,1-1.67.255,3.1,3.1,0,0,1-2.259-.721,2.954,2.954,0,0,1-.729-2.188v-4.72H15.965V-9.51h1.213v-2.364ZM28.226,0a3.344,3.344,0,0,1-.281-.853A2.754,2.754,0,0,1,25.66.176a3.374,3.374,0,0,1-2.285-.813,2.588,2.588,0,0,1-.94-2.043,2.66,2.66,0,0,1,1.143-2.338A5.821,5.821,0,0,1,26.9-5.81h.914v-.5q0-1.316-1.134-1.316a.927.927,0,0,0-1.055,1.042H22.663a2.655,2.655,0,0,1,1.173-2.239,4.931,4.931,0,0,1,2.993-.86A4.323,4.323,0,0,1,29.7-8.8a3.086,3.086,0,0,1,1.081,2.435v4.21a4.311,4.311,0,0,0,.4,2V0ZM26.372-1.934a1.652,1.652,0,0,0,.918-.237,1.487,1.487,0,0,0,.523-.536V-4.228h-.861q-1.547,0-1.547,1.389a.848.848,0,0,0,.272.655A.986.986,0,0,0,26.372-1.934Zm9.5-9.94V-9.51h1.564v2.057H35.873V-3.1a1.111,1.111,0,0,0,.193.747,1.037,1.037,0,0,0,.765.211,4.345,4.345,0,0,0,.738-.053V-.079A5.466,5.466,0,0,1,35.9.176,3.1,3.1,0,0,1,33.64-.545a2.954,2.954,0,0,1-.729-2.188v-4.72H31.7V-9.51h1.213v-2.364ZM41.726,0H38.755V-9.51h2.971ZM38.58-11.962A1.322,1.322,0,0,1,39.037-13a1.724,1.724,0,0,1,1.187-.4,1.724,1.724,0,0,1,1.187.4,1.322,1.322,0,0,1,.457,1.037,1.322,1.322,0,0,1-.457,1.037,1.724,1.724,0,0,1-1.187.4,1.724,1.724,0,0,1-1.187-.4A1.322,1.322,0,0,1,38.58-11.962Zm8.763,8.438,1.5-5.985h3.12L48.863,0H45.839l-3.1-9.51h3.129ZM58.074,0a3.344,3.344,0,0,1-.281-.853A2.754,2.754,0,0,1,55.507.176a3.374,3.374,0,0,1-2.285-.813,2.588,2.588,0,0,1-.94-2.043,2.66,2.66,0,0,1,1.143-2.338,5.821,5.821,0,0,1,3.322-.791h.914v-.5q0-1.316-1.134-1.316a.927.927,0,0,0-1.055,1.042H52.51a2.655,2.655,0,0,1,1.173-2.239,4.931,4.931,0,0,1,2.993-.86A4.323,4.323,0,0,1,59.55-8.8a3.086,3.086,0,0,1,1.081,2.435v4.21a4.311,4.311,0,0,0,.4,2V0ZM56.219-1.934a1.652,1.652,0,0,0,.918-.237,1.487,1.487,0,0,0,.523-.536V-4.228H56.8q-1.547,0-1.547,1.389a.848.848,0,0,0,.272.655A.986.986,0,0,0,56.219-1.934Z" transform="translate(947 5585)" fill="#12263f"/>
      <path id="Trazado_874380" data-name="Trazado 874380" d="M-27.655-4.333a4.673,4.673,0,0,1-.721,2.36,4.35,4.35,0,0,1-1.85,1.586,6.3,6.3,0,0,1-2.72.563,5.025,5.025,0,0,1-3.973-1.644,6.786,6.786,0,0,1-1.45-4.641v-.633a7.746,7.746,0,0,1,.655-3.292,4.961,4.961,0,0,1,1.885-2.18,5.26,5.26,0,0,1,2.848-.769,5.516,5.516,0,0,1,3.744,1.226,4.844,4.844,0,0,1,1.608,3.379H-30.7a2.292,2.292,0,0,0-.589-1.679,2.422,2.422,0,0,0-1.687-.51,1.843,1.843,0,0,0-1.687.861,5.536,5.536,0,0,0-.562,2.751v.905a6.126,6.126,0,0,0,.514,2.927,1.882,1.882,0,0,0,1.771.879,2.369,2.369,0,0,0,1.626-.5,2.126,2.126,0,0,0,.6-1.591Zm.949-.51a5.613,5.613,0,0,1,.554-2.536,3.96,3.96,0,0,1,1.591-1.709,4.791,4.791,0,0,1,2.435-.6A4.373,4.373,0,0,1-18.76-8.363a5.076,5.076,0,0,1,1.23,3.6v.105a4.925,4.925,0,0,1-1.235,3.529A4.384,4.384,0,0,1-22.109.176,4.434,4.434,0,0,1-25.37-1.042a4.761,4.761,0,0,1-1.327-3.3Zm2.962.185a3.538,3.538,0,0,0,.413,1.934,1.376,1.376,0,0,0,1.222.615q1.582,0,1.617-2.435v-.3q0-2.558-1.635-2.558-1.485,0-1.608,2.206ZM-13.5-9.51l.1,1.116a3.225,3.225,0,0,1,2.716-1.292A2.713,2.713,0,0,1-8.473-8.8a4.226,4.226,0,0,1,.76,2.672V0h-2.971V-6a1.6,1.6,0,0,0-.29-1.059A1.342,1.342,0,0,0-12.028-7.4a1.413,1.413,0,0,0-1.292.686V0h-2.962V-9.51ZM-5.383,0V-7.453h-1.38V-9.51h1.38v-.316a3.631,3.631,0,0,1,1.248-2.909,4.987,4.987,0,0,1,3.243-.949,11.509,11.509,0,0,1,3.094.51l-.4,2.338-.492-.132a7.832,7.832,0,0,0-2.021-.255q-1.7,0-1.7,1.547v.167H-.549v2.057H-2.413V0ZM3.564,0H.584V-9.51H3.564Zm7.163,0a3.344,3.344,0,0,1-.281-.853A2.754,2.754,0,0,1,8.161.176,3.374,3.374,0,0,1,5.875-.637a2.588,2.588,0,0,1-.94-2.043A2.66,2.66,0,0,1,6.078-5.019,5.821,5.821,0,0,1,9.4-5.81h.914v-.5q0-1.316-1.134-1.316A.927.927,0,0,0,8.125-6.587H5.164A2.655,2.655,0,0,1,6.337-8.825a4.931,4.931,0,0,1,2.993-.86A4.323,4.323,0,0,1,12.2-8.8a3.086,3.086,0,0,1,1.081,2.435v4.21a4.311,4.311,0,0,0,.4,2V0ZM8.873-1.934a1.652,1.652,0,0,0,.918-.237,1.487,1.487,0,0,0,.523-.536V-4.228H9.453q-1.547,0-1.547,1.389a.848.848,0,0,0,.272.655A.986.986,0,0,0,8.873-1.934Zm14.88-2.742a5.8,5.8,0,0,1-.967,3.595A3.238,3.238,0,0,1,20.061.176,2.81,2.81,0,0,1,17.723-.976L17.6,0H14.946V-13.5h2.962v4.755a2.711,2.711,0,0,1,2.136-.94,3.239,3.239,0,0,1,2.742,1.274,5.826,5.826,0,0,1,.967,3.586Zm-2.971-.189a3.866,3.866,0,0,0-.365-1.952A1.229,1.229,0,0,0,19.3-7.4a1.418,1.418,0,0,0-1.389.763v3.773a1.426,1.426,0,0,0,1.406.755,1.258,1.258,0,0,0,1.327-1.018A7.309,7.309,0,0,0,20.782-4.865ZM28.182,0H25.211V-13.5h2.971Zm6.425.176a4.889,4.889,0,0,1-3.542-1.305,4.507,4.507,0,0,1-1.354-3.4v-.246a5.84,5.84,0,0,1,.541-2.575A3.955,3.955,0,0,1,31.83-9.075a4.763,4.763,0,0,1,2.461-.611,4.117,4.117,0,0,1,3.164,1.244,4.887,4.887,0,0,1,1.16,3.467v1.151H32.726a2.135,2.135,0,0,0,.694,1.257,2.066,2.066,0,0,0,1.389.457,2.662,2.662,0,0,0,2.2-.984l1.354,1.6A3.784,3.784,0,0,1,36.791-.277,5.3,5.3,0,0,1,34.607.176ZM34.273-7.4q-1.3,0-1.547,1.723h2.988v-.229a1.467,1.467,0,0,0-.36-1.1A1.434,1.434,0,0,0,34.273-7.4Z" transform="translate(1030 5790)" fill="#12263f"/>
      <path id="Trazado_874381" data-name="Trazado 874381" d="M-73.16-5.432h-4.852v3.059h5.73V0H-81.1V-12.8h8.833v2.382h-5.748v2.7h4.852ZM-68.036,0h-2.971V-13.5h2.971Zm6.425.176a4.889,4.889,0,0,1-3.542-1.305,4.507,4.507,0,0,1-1.354-3.4v-.246a5.84,5.84,0,0,1,.541-2.575,3.955,3.955,0,0,1,1.578-1.727,4.763,4.763,0,0,1,2.461-.611,4.117,4.117,0,0,1,3.164,1.244A4.887,4.887,0,0,1-57.6-4.975v1.151h-5.889A2.135,2.135,0,0,0-62.8-2.566a2.066,2.066,0,0,0,1.389.457,2.662,2.662,0,0,0,2.2-.984l1.354,1.6A3.784,3.784,0,0,1-59.427-.277,5.3,5.3,0,0,1-61.611.176ZM-61.945-7.4q-1.3,0-1.547,1.723H-60.5v-.229a1.467,1.467,0,0,0-.36-1.1A1.434,1.434,0,0,0-61.945-7.4Zm9.554,5.291a1.317,1.317,0,0,0,.967-.338,1.241,1.241,0,0,0,.334-.945h2.777A3.288,3.288,0,0,1-49.434-.826a4.168,4.168,0,0,1-2.887,1,4.22,4.22,0,0,1-3.27-1.3,5.125,5.125,0,0,1-1.2-3.6v-.123A5.792,5.792,0,0,1-56.254-7.4a3.872,3.872,0,0,1,1.534-1.7,4.573,4.573,0,0,1,2.373-.593A4.116,4.116,0,0,1-49.4-8.657a3.647,3.647,0,0,1,1.09,2.786h-2.777A1.626,1.626,0,0,0-51.451-7a1.244,1.244,0,0,0-.967-.4q-1.151,0-1.345,1.468a10.357,10.357,0,0,0-.062,1.283,4.068,4.068,0,0,0,.343,1.986A1.187,1.187,0,0,0-52.392-2.109Zm9.352,0a1.317,1.317,0,0,0,.967-.338,1.241,1.241,0,0,0,.334-.945h2.777A3.288,3.288,0,0,1-40.083-.826a4.168,4.168,0,0,1-2.887,1,4.22,4.22,0,0,1-3.27-1.3,5.125,5.125,0,0,1-1.2-3.6v-.123A5.792,5.792,0,0,1-46.9-7.4a3.872,3.872,0,0,1,1.534-1.7A4.573,4.573,0,0,1-43-9.686a4.116,4.116,0,0,1,2.944,1.028,3.647,3.647,0,0,1,1.09,2.786h-2.777A1.626,1.626,0,0,0-42.1-7a1.244,1.244,0,0,0-.967-.4q-1.151,0-1.345,1.468a10.357,10.357,0,0,0-.062,1.283,4.068,4.068,0,0,0,.343,1.986A1.187,1.187,0,0,0-43.04-2.109ZM-34.585,0h-2.971V-9.51h2.971Zm-3.146-11.962A1.322,1.322,0,0,1-37.274-13a1.724,1.724,0,0,1,1.187-.4A1.724,1.724,0,0,1-34.9-13a1.322,1.322,0,0,1,.457,1.037,1.322,1.322,0,0,1-.457,1.037,1.724,1.724,0,0,1-1.187.4,1.724,1.724,0,0,1-1.187-.4A1.322,1.322,0,0,1-37.731-11.962Zm4.6,7.119a5.613,5.613,0,0,1,.554-2.536A3.96,3.96,0,0,1-30.99-9.088a4.791,4.791,0,0,1,2.435-.6,4.373,4.373,0,0,1,3.366,1.323,5.076,5.076,0,0,1,1.23,3.6v.105a4.925,4.925,0,0,1-1.235,3.529A4.384,4.384,0,0,1-28.538.176,4.434,4.434,0,0,1-31.8-1.042a4.761,4.761,0,0,1-1.327-3.3Zm2.962.185a3.538,3.538,0,0,0,.413,1.934,1.376,1.376,0,0,0,1.222.615q1.582,0,1.617-2.435v-.3q0-2.558-1.635-2.558-1.485,0-1.608,2.206Zm2.021-8.842h3.129l-2.443,2.76-2.417,0Zm8.218,3.99.1,1.116a3.225,3.225,0,0,1,2.716-1.292A2.713,2.713,0,0,1-14.9-8.8a4.226,4.226,0,0,1,.76,2.672V0h-2.971V-6a1.6,1.6,0,0,0-.29-1.059A1.342,1.342,0,0,0-18.457-7.4a1.413,1.413,0,0,0-1.292.686V0h-2.962V-9.51Zm11.54,4.685a5.809,5.809,0,0,1,.976-3.56,3.211,3.211,0,0,1,2.725-1.3,2.731,2.731,0,0,1,2.145,1V-13.5H.422V0H-2.241l-.149-1.02a2.8,2.8,0,0,1-2.32,1.2A3.205,3.205,0,0,1-7.4-1.125,5.993,5.993,0,0,1-8.394-4.825Zm2.962.185q0,2.531,1.477,2.531a1.458,1.458,0,0,0,1.406-.826V-6.557A1.419,1.419,0,0,0-3.937-7.4q-1.371,0-1.485,2.215ZM6.706.176A4.889,4.889,0,0,1,3.164-1.129a4.507,4.507,0,0,1-1.354-3.4v-.246a5.84,5.84,0,0,1,.541-2.575A3.955,3.955,0,0,1,3.929-9.075,4.763,4.763,0,0,1,6.39-9.686,4.117,4.117,0,0,1,9.554-8.442a4.887,4.887,0,0,1,1.16,3.467v1.151H4.825A2.135,2.135,0,0,0,5.52-2.566a2.066,2.066,0,0,0,1.389.457,2.662,2.662,0,0,0,2.2-.984l1.354,1.6A3.784,3.784,0,0,1,8.89-.277,5.3,5.3,0,0,1,6.706.176ZM6.372-7.4q-1.3,0-1.547,1.723H7.813v-.229a1.467,1.467,0,0,0-.36-1.1A1.434,1.434,0,0,0,6.372-7.4ZM15.029,0H12.059V-13.5h2.971Zm9.105-9.51.1,1.116a3.27,3.27,0,0,1,2.716-1.292,2.407,2.407,0,0,1,2.435,1.433,3.165,3.165,0,0,1,2.795-1.433q2.892,0,2.971,3.5V0H32.177V-6a1.813,1.813,0,0,0-.246-1.063,1.048,1.048,0,0,0-.9-.334,1.4,1.4,0,0,0-1.31.782l.009.123V0H26.763V-5.985a1.906,1.906,0,0,0-.237-1.081A1.045,1.045,0,0,0,25.62-7.4a1.42,1.42,0,0,0-1.3.782V0H21.357V-9.51ZM41.44.176A4.889,4.889,0,0,1,37.9-1.129a4.507,4.507,0,0,1-1.354-3.4v-.246a5.84,5.84,0,0,1,.541-2.575,3.955,3.955,0,0,1,1.578-1.727,4.763,4.763,0,0,1,2.461-.611,4.117,4.117,0,0,1,3.164,1.244,4.887,4.887,0,0,1,1.16,3.467v1.151H39.56a2.135,2.135,0,0,0,.694,1.257,2.066,2.066,0,0,0,1.389.457,2.662,2.662,0,0,0,2.2-.984l1.354,1.6A3.784,3.784,0,0,1,43.625-.277,5.3,5.3,0,0,1,41.44.176ZM41.106-7.4q-1.3,0-1.547,1.723h2.988v-.229a1.467,1.467,0,0,0-.36-1.1A1.434,1.434,0,0,0,41.106-7.4Zm-.035-6.108H44.2l-2.443,2.76-2.417,0Zm9.018,1.635V-9.51h1.564v2.057H50.089V-3.1a1.111,1.111,0,0,0,.193.747,1.037,1.037,0,0,0,.765.211,4.345,4.345,0,0,0,.738-.053V-.079a5.466,5.466,0,0,1-1.67.255,3.1,3.1,0,0,1-2.259-.721,2.954,2.954,0,0,1-.729-2.188v-4.72H45.914V-9.51h1.213v-2.364Zm2.092,7.031a5.613,5.613,0,0,1,.554-2.536,3.96,3.96,0,0,1,1.591-1.709,4.791,4.791,0,0,1,2.435-.6,4.373,4.373,0,0,1,3.366,1.323,5.076,5.076,0,0,1,1.23,3.6v.105a4.925,4.925,0,0,1-1.235,3.529A4.384,4.384,0,0,1,56.777.176a4.434,4.434,0,0,1-3.261-1.217,4.761,4.761,0,0,1-1.327-3.3Zm2.962.185a3.538,3.538,0,0,0,.413,1.934,1.376,1.376,0,0,0,1.222.615q1.582,0,1.617-2.435v-.3q0-2.558-1.635-2.558-1.485,0-1.608,2.206Zm7.146-.167a5.809,5.809,0,0,1,.976-3.56,3.211,3.211,0,0,1,2.725-1.3,2.731,2.731,0,0,1,2.145,1V-13.5H71.1V0H68.44l-.149-1.02a2.8,2.8,0,0,1-2.32,1.2,3.205,3.205,0,0,1-2.689-1.3A5.993,5.993,0,0,1,62.288-4.825Zm2.962.185q0,2.531,1.477,2.531a1.458,1.458,0,0,0,1.406-.826V-6.557A1.419,1.419,0,0,0,66.744-7.4q-1.371,0-1.485,2.215Zm7.163-.2a5.613,5.613,0,0,1,.554-2.536,3.96,3.96,0,0,1,1.591-1.709,4.791,4.791,0,0,1,2.435-.6,4.373,4.373,0,0,1,3.366,1.323,5.076,5.076,0,0,1,1.23,3.6v.105a4.925,4.925,0,0,1-1.235,3.529A4.384,4.384,0,0,1,77.01.176a4.434,4.434,0,0,1-3.261-1.217,4.761,4.761,0,0,1-1.327-3.3Zm2.962.185a3.538,3.538,0,0,0,.413,1.934,1.376,1.376,0,0,0,1.222.615q1.582,0,1.617-2.435v-.3q0-2.558-1.635-2.558-1.485,0-1.608,2.206Z" transform="translate(948 5996)" fill="#12263f"/>
      <g id="Grupo_1099405" data-name="Grupo 1099405" transform="translate(744.704 5542.508)">
        <g id="Grupo_1099404" data-name="Grupo 1099404" clip-path="url(#clip-path-17)">
          <path id="Trazado_873677" data-name="Trazado 873677" d="M116.094,98.635a17.972,17.972,0,0,1-2.248,8.673,2.752,2.752,0,0,0,1.118,4.02c.267.153.467.034.7,0a2.77,2.77,0,0,1,2.495.837c3.282,3.284,6.586,6.546,9.84,9.856a4.6,4.6,0,0,1-6.443,6.557c-3.346-3.268-6.628-6.6-9.936-9.91a2.362,2.362,0,0,1-.811-2.187c.282-1.291-.757-1.7-1.443-2.3a1.822,1.822,0,0,0-2.258,0,18.476,18.476,0,0,1-10.1,2.415,18.075,18.075,0,1,1,18.86-20.9,21.625,21.625,0,0,1,.227,2.939M81.849,98.54a16.184,16.184,0,0,0,23.88,14.276c2.537-1.365,3.76-1.234,5.808.835.71.717.974.173,1.38-.218.425-.41.9-.693.191-1.39-2.055-2.032-2.169-3.254-.808-5.815a15.784,15.784,0,0,0,1.43-11.639,16.183,16.183,0,0,0-31.881,3.95m45.628,26.625a2.271,2.271,0,0,0-.679-1.719q-4.933-4.97-9.891-9.916a.943.943,0,0,0-1.539.063c-.683.706-1.392,1.388-2.085,2.086-.89.9-.888,1.139.033,2.061q4.578,4.583,9.163,9.159a5.589,5.589,0,0,0,.618.57,2.674,2.674,0,0,0,2.887.263,2.572,2.572,0,0,0,1.491-2.568" transform="translate(-63.091 -63.474)" fill="#3c5756"/>
          <path id="Trazado_873678" data-name="Trazado 873678" d="M23.58,56.473c-2.285,0-4.569,0-6.854,0-1.431,0-1.747-.416-1.484-1.787a8.266,8.266,0,0,1,4.471-6.034c.572-.3.654-.46.241-1.03a4.514,4.514,0,1,1,7.3-.02c-.511.7-.175.816.338,1.1a8.237,8.237,0,0,1,4.382,6.1c.224,1.309-.115,1.67-1.429,1.675-2.32.008-4.64,0-6.96,0m6.372-1.9a6.464,6.464,0,0,0-6.043-5.053,6.752,6.752,0,0,0-6.6,4.444c-.194.651.141.612.561.611,4,0,7.993,0,12.081,0m-3.675-9.614a2.637,2.637,0,0,0-2.693-2.635,2.577,2.577,0,0,0-2.636,2.664,2.619,2.619,0,0,0,2.667,2.652,2.679,2.679,0,0,0,2.662-2.681" transform="translate(-11.958 -31.897)" fill="#3c5756"/>
          <path id="Trazado_873679" data-name="Trazado 873679" d="M71.162,247.087c-1.809-2.558-1.7-5.007.27-6.72a4.53,4.53,0,0,1,5.977.055c1.911,1.717,2,4.2.18,6.668a10.305,10.305,0,0,1,2.993,2.1,8.72,8.72,0,0,1,2.2,4.355c.261,1.276-.093,1.7-1.38,1.7q-7.007.013-14.015,0c-1.3,0-1.647-.419-1.394-1.688a8.562,8.562,0,0,1,4.25-5.981c.3-.174.609-.328.92-.495m3.2,6.35c1.894,0,3.789-.02,5.682.011.63.01.808-.146.6-.774a6.688,6.688,0,0,0-12.469-.063c-.243.68-.076.85.613.838,1.859-.033,3.718-.011,5.577-.011m.079-12.282a2.681,2.681,0,0,0-2.756,2.593,2.706,2.706,0,0,0,5.411.1,2.681,2.681,0,0,0-2.654-2.694" transform="translate(-52.002 -188.763)" fill="#3c5756"/>
          <path id="Trazado_873680" data-name="Trazado 873680" d="M11.63,153.555a8.6,8.6,0,0,1,5.163,6.263c.328,1.539,0,1.906-1.548,1.906q-6.849,0-13.7,0c-1.45,0-1.734-.384-1.448-1.795a8.247,8.247,0,0,1,4.5-6c.663-.338.544-.537.191-1.039a4.327,4.327,0,0,1-.207-4.952,4.219,4.219,0,0,1,4.143-2.2,4.291,4.291,0,0,1,4.007,3.073,4.6,4.6,0,0,1-1.105,4.744m-3.159,6.295c1.823,0,3.647-.028,5.47.014.769.018,1-.128.68-.925a6.839,6.839,0,0,0-6.184-4.148,6.754,6.754,0,0,0-6.185,4.286c-.251.672-.08.786.54.78,1.893-.018,3.787-.007,5.68-.006m2.674-9.62a2.686,2.686,0,0,0-2.715-2.637,2.665,2.665,0,1,0,.058,5.33,2.692,2.692,0,0,0,2.656-2.693" transform="translate(0 -114.966)" fill="#3c5756"/>
          <path id="Trazado_873681" data-name="Trazado 873681" d="M130.46,19.448c-.495-.589-.88-1.1-.321-1.67.614-.624,1.146-.175,1.663.212.7.526,1.422,1.032,2.11,1.576.713.564.714,1.15,0,1.719-.658.526-1.352,1.007-2.024,1.515-.51.385-1.034.877-1.678.341s-.316-1.109.232-1.718l-1.933-.119a7.249,7.249,0,0,1-5.341-2.794c-1.251-1.518-2.522-3.021-3.72-4.58a6.147,6.147,0,0,0-5.552-2.615,8.617,8.617,0,0,1-1.369-.019.851.851,0,0,1-.831-.916.843.843,0,0,1,.846-.9c3.071-.231,5.9.231,7.968,2.833,1.226,1.539,2.525,3.02,3.713,4.585a6.387,6.387,0,0,0,6.237,2.551" transform="translate(-88.119 -7.436)" fill="#3c5756"/>
          <path id="Trazado_873682" data-name="Trazado 873682" d="M171.421,2.025c-.577-.648-1-1.19-.355-1.771.581-.526,1.1-.13,1.591.237.729.546,1.475,1.071,2.187,1.639a.935.935,0,0,1-.016,1.658c-.687.543-1.4,1.049-2.107,1.569-.51.377-1.03.864-1.667.274s-.189-1.127.3-1.677a6.036,6.036,0,0,0-5.9,2.139c-.431.536-.942.987-1.583.462s-.3-1.12.136-1.65a7.5,7.5,0,0,1,5.834-2.876c.454-.011.908,0,1.581,0" transform="translate(-129 0)" fill="#3c5756"/>
          <path id="Trazado_873683" data-name="Trazado 873683" d="M114.252,48.093c-.641,0-1.027.013-1.412,0-.623-.026-1.139-.232-1.107-.968.029-.661.5-.866,1.093-.869q.736,0,1.472,0a5.889,5.889,0,0,0,4.866-2.257c.065-.082.133-.163.2-.241.407-.449.867-.61,1.37-.174s.394.915.028,1.39a7.523,7.523,0,0,1-6.513,3.125" transform="translate(-88.147 -34.178)" fill="#3c5756"/>
          <path id="Trazado_873684" data-name="Trazado 873684" d="M103.865,117.5a13.029,13.029,0,1,1,26.058.046,13.029,13.029,0,1,1-26.058-.046m1.856,0a11.183,11.183,0,1,0,11.18-11.145,11.2,11.2,0,0,0-11.18,11.145" transform="translate(-81.941 -82.434)" fill="#3c5756"/>
          <path id="Trazado_873685" data-name="Trazado 873685" d="M137.192,140.9c-2,0-4.006,0-6.009,0-1.346,0-1.735-.453-1.458-1.737a7.465,7.465,0,0,1,3.669-5.154c.609-.346.78-.536.353-1.21a3.984,3.984,0,0,1,.866-5.307,4.087,4.087,0,0,1,5.24.037,4,4,0,0,1,.8,5.321c-.435.662-.208.808.327,1.118a7.3,7.3,0,0,1,3.718,5.34c.207,1.274-.108,1.586-1.394,1.591-2.038.007-4.076,0-6.114,0m.008-1.9c1.578,0,3.156-.019,4.733.01.6.011.842-.093.576-.752a5.766,5.766,0,0,0-10.616.081c-.2.532-.078.676.468.669,1.612-.021,3.226-.007,4.838-.007m2.241-8.323a2.221,2.221,0,0,0-2.251-2.252,2.275,2.275,0,0,0-2.224,2.3,2.216,2.216,0,0,0,2.22,2.176,2.172,2.172,0,0,0,2.255-2.225" transform="translate(-102.276 -99.844)" fill="#3c5756"/>
        </g>
      </g>
      <g id="Grupo_1099407" data-name="Grupo 1099407" transform="translate(828.909 5750)">
        <g id="Grupo_1099406" data-name="Grupo 1099406" clip-path="url(#clip-path-18)">
          <path id="Trazado_873686" data-name="Trazado 873686" d="M54.634,41.232a23.617,23.617,0,0,1-6.149,2.787,21.007,21.007,0,0,1-5.518.828c-1.427,0-1.587-.147-1.587-1.622,0-6.208-.03-12.416.028-18.624.01-1.055-.308-1.236-1.277-1.229-6.208.044-12.416.023-18.624.022-1.406,0-1.633-.22-1.594-1.628A21.918,21.918,0,0,1,24.4,8.962a1.853,1.853,0,0,1,.78-.753A.927.927,0,0,1,26.329,9.42a2.911,2.911,0,0,1-.427.67,20.863,20.863,0,0,0-4.046,10.289c-.121,1.037.223,1.14,1.088,1.136,6.141-.028,12.282-.015,18.424-.015,1.8,0,1.9.094,1.9,1.946,0,6.141.014,12.283-.016,18.424,0,.856.133,1.124,1.1,1.023A20.871,20.871,0,0,0,54.089,39.3a1.39,1.39,0,0,0,.691-1.308c-.029-3-.02-6.008-.01-9.012a2.783,2.783,0,0,1,2.963-3.032,37.1,37.1,0,0,1,3.8.021c.934.08,1.161-.374,1.22-1.115a21.194,21.194,0,0,0-1.5-10.38,15.018,15.018,0,0,0-1.6-2.971C58.58,13.42,57.534,15.273,56.5,17.13c-.217.388-.436.763-.927.828a.877.877,0,0,1-.864-.4,1.04,1.04,0,0,1,.065-1.212c1.065-1.887,2.079-3.8,3.2-5.653a1.3,1.3,0,0,0-.193-1.805A20.6,20.6,0,0,0,29.139,6.676c-.2.17-.409.342-.626.5A.813.813,0,0,1,27.351,7a.849.849,0,0,1,.021-1.255,8.182,8.182,0,0,1,.9-.793,22.376,22.376,0,0,1,30.446,2.2c.225.24.448.482.737.793.448-.778.865-1.45,1.228-2.151a1.378,1.378,0,0,1,1.357-.819c4.172.012,8.344.005,12.516.007.644,0,1.255.1,1.272.922.019.9-.654.967-1.321.968-3.7.005-7.41.03-11.114-.017a1.792,1.792,0,0,0-1.73.972,2.685,2.685,0,0,0,0,3.365,20.844,20.844,0,0,1,2.941,13.513c-.089.745-.137,1.339.774,1.757a2.523,2.523,0,0,1,1.257,2.545c-.012,3.071,0,6.141,0,9.212q0,6.609,0,13.217a7.172,7.172,0,0,1-.045,1,.817.817,0,0,1-.826.732.862.862,0,0,1-.939-.728,4.861,4.861,0,0,1-.038-1q0-10.964,0-21.929c0-1.512-.2-1.7-1.745-1.7q-2.4,0-4.806,0c-1.357,0-1.627.27-1.627,1.64q0,13.217,0,26.434c0,1.8.022,3.605-.012,5.407-.011.607.177.814.792.806,2.2-.029,4.406-.038,6.608,0,.71.014.814-.288.8-.888-.03-1.6,0-3.2-.016-4.806-.009-.712.13-1.337.969-1.328.8.008.892.647.89,1.3-.006,2.1-.021,4.206.006,6.308.012.945-.412,1.319-1.33,1.313-3.071-.018-6.141,0-9.212-.011-1.081,0-1.333-.28-1.333-1.387q-.006-10.163-.007-20.326a1.828,1.828,0,0,0-.128-1.044" transform="translate(-15.922 -0.001)" fill="#3c5756"/>
          <path id="Trazado_873687" data-name="Trazado 873687" d="M11.651,127.111q5.056,0,10.112,0c1.388,0,1.631.245,1.632,1.635q0,10.062,0,20.124c0,1.386-.255,1.628-1.629,1.618a17.516,17.516,0,0,1-4.25-.563.815.815,0,0,0-1.139.562c-.779,1.8-1.651,3.566-2.454,5.358a1.278,1.278,0,0,1-1.3.866c-3.371-.015-6.741-.009-10.112,0a1.086,1.086,0,0,1-1.153-.6.858.858,0,0,1,.225-1c.279-.319.667-.257,1.029-.258,2.937,0,5.874-.023,8.81.014a1.134,1.134,0,0,0,1.264-.814c.554-1.355,1.174-2.686,1.843-3.988.344-.67.242-.93-.469-1.213A22.416,22.416,0,0,1,0,128.712c-.045-1.36.19-1.6,1.534-1.6q5.056-.01,10.112,0m9.823,11.645q0-4.452,0-8.9c0-.451.042-.833-.639-.831q-9.153.031-18.307,0c-.484,0-.631.139-.589.632a19.516,19.516,0,0,0,.893,4.594A20.554,20.554,0,0,0,15,147.233c.555.23.816.166,1.022-.416.22-.625.548-1.212.82-1.818.264-.587.678-.978,1.33-.686.625.279.71.823.41,1.428-.133.268-.251.544-.375.816-.657,1.441-.66,1.452.933,1.775.486.1,1,.082,1.482.182.755.155.877-.183.87-.854-.031-2.968-.013-5.936-.014-8.9" transform="translate(0 -101.653)" fill="#3c5756"/>
          <path id="Trazado_873688" data-name="Trazado 873688" d="M260.611,213.1c0-3.1-.008-6.208,0-9.312.007-2.216,1.036-3.239,3.236-3.243,1.9,0,3.8-.012,5.707,0a2.757,2.757,0,0,1,2.931,2.862c.022,6.575.006,13.15.014,19.725a1.069,1.069,0,0,1-1.212,1.233c-3.137,0-6.275-.007-9.412.006-.946,0-1.284-.445-1.276-1.363.027-3.3.01-6.608.01-9.913m1.864-.484c0,3,.015,6-.013,9.005-.006.63.145.873.823.86,2.167-.04,4.336-.033,6.5,0,.633.009.871-.158.868-.837-.024-5.937-.01-11.873-.018-17.81,0-1.108-.329-1.423-1.436-1.429q-2.652-.015-5.3,0c-1.143.006-1.42.278-1.423,1.409-.007,2.935,0,5.87,0,8.8" transform="translate(-208.41 -160.382)" fill="#3c5756"/>
          <path id="Trazado_873689" data-name="Trazado 873689" d="M133.024,265.419c-1.5,0-3,.012-4.505,0-1.083-.011-1.374-.3-1.378-1.367-.01-3.037-.019-6.074,0-9.111a2.857,2.857,0,0,1,3.08-3.054q2.9-.033,5.807,0a2.827,2.827,0,0,1,3.031,2.908c.062,3.136.023,6.274.017,9.411a1.091,1.091,0,0,1-1.248,1.217c-1.6-.007-3.2,0-4.806,0m-3.977-6.524c0,1.3.012,2.6-.006,3.9-.007.476.095.735.654.729q3.4-.034,6.8,0c.538.005.678-.205.675-.707q-.026-3.9,0-7.8c.005-.841-.382-1.232-1.2-1.232-1.9,0-3.8.006-5.7,0-.9-.005-1.24.455-1.224,1.314.024,1.266.006,2.533.006,3.8" transform="translate(-101.67 -201.426)" fill="#3c5756"/>
          <path id="Trazado_873690" data-name="Trazado 873690" d="M249.531,8.164c-1.433,0-2.865,0-4.3,0-.629,0-1.162-.151-1.2-.888-.043-.817.534-1,1.193-1q4.3-.012,8.6,0c.638,0,1.252.108,1.246.941-.005.813-.576.947-1.238.945-1.433-.006-2.865,0-4.3,0" transform="translate(-195.158 -5.018)" fill="#3c5756"/>
          <path id="Trazado_873691" data-name="Trazado 873691" d="M11.206,247.31c-1.2,0-2.4-.01-3.6,0-.665.007-1.167-.267-1.176-.939s.49-.932,1.161-.927q3.652.025,7.3,0c.651,0,1.168.189,1.166.912,0,.7-.492.955-1.152.951-1.234-.007-2.468,0-3.7,0" transform="translate(-5.141 -196.291)" fill="#3c5756"/>
          <path id="Trazado_873692" data-name="Trazado 873692" d="M271.739,105.464c1.032,0,2.063.011,3.095-.006.674-.011,1.149.267,1.124.956-.022.617-.483.905-1.105.9-2.163,0-4.326,0-6.489,0-.618,0-1.059-.288-1.069-.93s.419-.925,1.05-.922c1.131.006,2.263,0,3.394,0" transform="translate(-213.764 -84.339)" fill="#3c5756"/>
          <path id="Trazado_873693" data-name="Trazado 873693" d="M271.723,145.7c1.032,0,2.065.008,3.1,0,.671-.007,1.14.294,1.145.964,0,.632-.466.921-1.082.922q-3.247.007-6.494,0c-.6,0-1.083-.244-1.085-.907,0-.691.451-.983,1.121-.979,1.1.007,2.2,0,3.3,0" transform="translate(-213.772 -116.518)" fill="#3c5756"/>
          <path id="Trazado_873694" data-name="Trazado 873694" d="M271.658,125.6c1.065,0,2.13.013,3.195,0,.635-.011,1.084.269,1.107.886.026.685-.455.977-1.121.976q-3.195,0-6.39,0c-.652,0-1.157-.231-1.149-.941s.5-.935,1.162-.923c1.065.02,2.13.005,3.195.005" transform="translate(-213.769 -100.438)" fill="#3c5756"/>
        </g>
      </g>
      <g id="Grupo_1099409" data-name="Grupo 1099409" transform="translate(751 5951)">
        <g id="Grupo_1099408" data-name="Grupo 1099408" clip-path="url(#clip-path-19)">
          <path id="Trazado_873695" data-name="Trazado 873695" d="M95.8,64.959c.225.273.491.129.715.184a1.205,1.205,0,0,1,1.009,1.093,1.11,1.11,0,0,1-.787,1.248c-1.362.425-2.735.823-4.12,1.167a1.147,1.147,0,0,1-1.528-1.142c-.115-1.425-.132-2.86-.122-4.291a1.064,1.064,0,0,1,1.107-1.089c1.039-.056,1.254.715,1.43,1.695a19.436,19.436,0,0,0,3.029-7.383A21.336,21.336,0,0,0,84.829,33.007a20.941,20.941,0,0,0-18.362-.115c-.335.152-.655.336-1,.474-.71.288-1.381.305-1.8-.469-.437-.8-.009-1.322.665-1.7A19,19,0,0,1,69.1,29.3c.784-.191,1.155-.475,1.146-1.376q-.07-7.12,0-14.24c.01-.958-.323-1.235-1.2-1.127a5.514,5.514,0,0,1-1.226-.007,1.738,1.738,0,0,1-1.307-2.811C69.049,6.638,71.662,3.6,74.3.581a1.589,1.589,0,0,1,2.5.058c2.606,2.991,5.194,6,7.707,9.069a1.751,1.751,0,0,1-1.377,2.852c-2.319.2-2.319.2-2.319,2.562,0,4.256.026,8.512-.02,12.767a1.2,1.2,0,0,0,1.109,1.4,20.188,20.188,0,0,1,5.737,2.41c.626.377.839.273.835-.477q-.03-5.586,0-11.171c0-.645-.224-.888-.857-.837-.447.036-.9-.006-1.35.006a1.753,1.753,0,0,1-1.761-1.085,1.672,1.672,0,0,1,.373-1.92q3.128-3.7,6.268-7.393c.4-.468.774-.955,1.2-1.395a1.719,1.719,0,0,1,2.773-.017c2.547,2.933,5.047,5.909,7.558,8.874a1.716,1.716,0,0,1,.259,1.951,1.768,1.768,0,0,1-1.7.991c-2.178.09-2.177.109-2.177,2.307q0,10.373.005,20.746a3.544,3.544,0,0,1-.538,2.338.827.827,0,0,0-.142.8A23.9,23.9,0,0,1,95.8,64.959M87.7,16.712c.467.028.629.044.791.046,2.273.037,2.445.208,2.445,2.444,0,3.884.106,7.772-.042,11.651-.079,2.083.184,3.831,2.01,5.1a5.455,5.455,0,0,1,1.148,1.269c.812,1.089,1.589,2.2,2.549,3.544V39.289q0-9.813,0-19.625c0-2.1-.642-3,2.808-2.931.054,0,.109-.089.238-.2q-2.759-3.259-5.516-6.525c-.291-.347-.5-.3-.768.019-1.834,2.175-3.678,4.342-5.668,6.688M69.454,10.039c2.929.127,3.278-.411,3.251,3.22-.036,4.7.011,9.4-.026,14.1-.007.89.188,1.249,1.159,1.15a14.431,14.431,0,0,1,3.18,0c1.146.14,1.354-.3,1.344-1.338-.048-5.068-.028-10.137-.016-15.205,0-1.539.341-1.837,1.878-1.877.375-.01.8.178,1.2-.244L75.968,3.4c-.22-.259-.437-.534-.775-.135-1.861,2.2-3.723,4.4-5.738,6.775" transform="translate(-47.901 0)" fill="#3c5756"/>
          <path id="Trazado_873696" data-name="Trazado 873696" d="M76.239,154.946a.733.733,0,0,1-.107.4c-1.133,1.455-.22,2.745.278,4.088.265.715.915.769,1.463.951a1.708,1.708,0,0,1,1.343,1.907c-.053,1.02-.028,2.046-.007,3.069a1.587,1.587,0,0,1-1.141,1.67,3.442,3.442,0,0,0-2.039,4.8,1.651,1.651,0,0,1-.395,2.1c-.752.691-1.486,1.409-2.171,2.166a1.638,1.638,0,0,1-2.177.407,3.429,3.429,0,0,0-4.67,1.894,1.766,1.766,0,0,1-1.936,1.32,18.029,18.029,0,0,0-2.7,0,1.912,1.912,0,0,1-2.173-1.519,3.42,3.42,0,0,0-4.326-1.806,1.91,1.91,0,0,1-2.681-.525,16.684,16.684,0,0,0-1.818-1.823,1.781,1.781,0,0,1-.423-2.4,3.4,3.4,0,0,0-1.861-4.5,1.82,1.82,0,0,1-1.407-2.109,7.3,7.3,0,0,0,0-1.594c-.226-1.713.188-2.927,2.1-3.368.86-.2,1.858-2.867,1.405-3.654a2.342,2.342,0,0,1,.717-3.487,4.1,4.1,0,0,0,.869-.863,2.4,2.4,0,0,1,3.582-.753c.887.523,3.473-.662,3.74-1.69a2.118,2.118,0,0,1,2.671-1.817,4.286,4.286,0,0,0,1.225,0c1.728-.25,2.911.218,3.344,2.113.195.853,2.991,1.815,3.8,1.334a2.172,2.172,0,0,1,3.2.6c.538.664,1.2,1.224,1.807,1.835a1.45,1.45,0,0,1,.5,1.262M56.667,173.252c.3.117.638.24.97.384a13.277,13.277,0,0,0,2.24.956,2.216,2.216,0,0,1,1.9,1.8c.187.894.811.843,1.49.854.7.012,1.282-.016,1.463-.89a2.127,2.127,0,0,1,1.934-1.762,4.022,4.022,0,0,0,1.468-.59,2.8,2.8,0,0,1,3.3-.16c.743.468,1.065-.327,1.481-.708.331-.3.851-.568.431-1.2a2.73,2.73,0,0,1,.159-3.3,5.086,5.086,0,0,0,.605-1.593,2.073,2.073,0,0,1,1.63-1.768,1.148,1.148,0,0,0,1.022-1.379c-.051-.751.07-1.471-.952-1.661A2.116,2.116,0,0,1,74.1,160.4a4.7,4.7,0,0,0-.61-1.591,2.639,2.639,0,0,1-.162-3.185c.478-.732-.175-1.022-.546-1.387s-.67-1.04-1.4-.553a2.555,2.555,0,0,1-3.16-.156,4.145,4.145,0,0,0-1.475-.576,2.4,2.4,0,0,1-2.062-1.965c-.156-.779-.74-.75-1.323-.705-.565.044-1.314-.263-1.5.625a2.6,2.6,0,0,1-2.249,2.1,4.1,4.1,0,0,0-1.467.593,2.35,2.35,0,0,1-2.935.117c-.7-.469-1.05.042-1.424.458s-1.11.7-.592,1.484a2.551,2.551,0,0,1-.134,3.075,3.956,3.956,0,0,0-.6,1.463,2.356,2.356,0,0,1-1.908,2.117c-.75.161-.852.629-.79,1.26.06.607-.25,1.381.7,1.579a2.519,2.519,0,0,1,2.036,2.291A4.645,4.645,0,0,0,53.185,169a2.346,2.346,0,0,1,.111,2.643c-.164.291-.559.663-.123,1.092.735.724,1.357,1.732,2.613.807a3.239,3.239,0,0,1,.88-.292" transform="translate(-35.636 -111.461)" fill="#3c5756"/>
          <path id="Trazado_873697" data-name="Trazado 873697" d="M20.952,150.94a19.96,19.96,0,0,0-3.316,9.745,21.343,21.343,0,0,0,17.67,22.876,20.631,20.631,0,0,0,13.444-2.049c.291-.149.574-.312.865-.462.717-.37,1.412-.338,1.79.418a1.238,1.238,0,0,1-.624,1.752,23.231,23.231,0,0,1-6.12,2.436,23.879,23.879,0,0,1-29.143-18.676,23.465,23.465,0,0,1,2.692-16.332c.175-.314.349-.629.548-.988a7.239,7.239,0,0,1-1.1-.194,1.046,1.046,0,0,1-.692-1.061,1.157,1.157,0,0,1,.883-1.185c1.291-.38,2.572-.8,3.874-1.135A1.2,1.2,0,0,1,23.4,147.2c.126,1.423.135,2.857.14,4.287a1.1,1.1,0,0,1-1.075,1.134,1.123,1.123,0,0,1-1.249-.778c-.1-.245-.15-.508-.261-.9" transform="translate(-11.364 -110.163)" fill="#3c5756"/>
          <path id="Trazado_873698" data-name="Trazado 873698" d="M15.348,64.507c-1.881-2.218-3.672-4.334-5.47-6.445-.225-.265-.432-.657-.845-.167C7.2,60.072,5.353,62.24,3.54,64.378c.214.4.487.3.71.312,2.243.08,2.287.12,2.288,2.312,0,2.576-.011,5.152.006,7.728.006.907-.132,1.707-1.261,1.676-1.023-.028-1.217-.775-1.213-1.638.01-2.208-.025-4.417.017-6.624.015-.743-.2-1.016-.964-.993C2,67.186.712,67.419.15,66.046-.4,64.7.687,63.942,1.4,63.089Q4.522,59.383,7.67,55.7C8.892,54.28,9.9,54.282,11.1,55.688q3.465,4.054,6.907,8.128c.57.672,1.068,1.352.582,2.312a2.092,2.092,0,0,1-2.171,1.042c-1.955.008-1.737-.236-1.747,1.786q-.014,2.944,0,5.888c.006.883-.229,1.585-1.263,1.564-.954-.019-1.2-.693-1.205-1.519,0-2.862.009-5.725-.005-8.587a1.391,1.391,0,0,1,1.548-1.609,3.364,3.364,0,0,0,1.6-.188" transform="translate(0 -41.219)" fill="#3c5756"/>
          <path id="Trazado_873699" data-name="Trazado 873699" d="M95.613,187.791a8.133,8.133,0,1,1-8.115-8.245,8.1,8.1,0,0,1,8.115,8.245m-13.8-.087a5.669,5.669,0,1,0,5.677-5.688,5.693,5.693,0,0,0-5.677,5.688" transform="translate(-59.863 -135.456)" fill="#3c5756"/>
        </g>
      </g>
    </g>
  </g>
</svg>
