<svg xmlns="http://www.w3.org/2000/svg" xmlns:xlink="http://www.w3.org/1999/xlink" width="1030" height="613.713" viewBox="0 0 1030 613.713">
  <defs>
    <clipPath id="clip-path">
      <path id="Trazado_611005" data-name="Trazado 611005" d="M0,0H1030V612.713H0Z" fill="#e2f8f4"/>
    </clipPath>
    <clipPath id="clip-path-2">
      <rect id="Rectángulo_401206" data-name="Rectángulo 401206" width="205.474" height="535.752" fill="none"/>
    </clipPath>
    <clipPath id="clip-path-3">
      <rect id="Rectángulo_401207" data-name="Rectángulo 401207" width="1030" height="7.299" fill="none"/>
    </clipPath>
    <clipPath id="clip-path-4">
      <rect id="Rectángulo_401209" data-name="Rectángulo 401209" width="179.654" height="160.648" fill="none"/>
    </clipPath>
    <clipPath id="clip-path-5">
      <rect id="Rectángulo_401210" data-name="Rectángulo 401210" width="97.081" height="97.08" fill="none"/>
    </clipPath>
    <clipPath id="clip-path-6">
      <rect id="Rectángulo_401214" data-name="Rectángulo 401214" width="250.313" height="550.364" fill="none"/>
    </clipPath>
  </defs>
  <g id="Grupo_1099356" data-name="Grupo 1099356" transform="translate(-285 -4322.59)">
    <g id="Grupo_1099334" data-name="Grupo 1099334" transform="translate(0 3876.09)">
      <path id="Trazado_608309" data-name="Trazado 608309" d="M0,0H1030V612.713H0Z" transform="translate(285 446.5)" fill="#fef0d7"/>
    </g>
    <path id="Trazado_873551" data-name="Trazado 873551" d="M806.657,598.9H160.633C84.959,497.138,68.319,378.543,111.695,297.57c29.025-54.195,74.871-105.724,146.613-104.562a327.1,327.1,0,0,0,40.333-1.732l11.22-1.437C392.73,177.425,434.127,142.97,471.877,97.82c14.774-17.677,28.776-34.907,44.4-49.965C563.4,2.384,613.656-2.549,632.707.86c15.009,2.685,28.281,11.384,39.4,25.148,28.941,35.814,43.32,105.883,35.794,193.355-5.1,59.24,6.416,91.36,26.132,112.355,54.572,58.135,126.819,51.788,72.619,267.182" transform="translate(281.864 4337.404)" fill="#ffdfb9"/>
    <g id="Grupo_1099342" data-name="Grupo 1099342" transform="translate(34.614 -162.848)">
      <text id="Y" transform="translate(789.386 4541)" fill="#12263f" font-size="18" font-family="Roboto-Black, Roboto" font-weight="800"><tspan x="-5.651" y="0">Y</tspan></text>
      <g id="Grupo_1099341" data-name="Grupo 1099341">
        <g id="Grupo_1099340" data-name="Grupo 1099340" transform="translate(-89.614 -733)">
          <text id="_10_9_8_7_6_5_4_3_2_1_-1_-2_-3_-4_-5_-6_-7_-8_-9_-10" data-name="10
9
8
7
6
5
4
3
2
1

-1
-2
-3
-4
-5
-6
-7
-8
-9
-10" transform="translate(833.5 5311)" fill="#12263f" font-size="16" font-family="Roboto-Regular, Roboto"><tspan x="-8.984" y="0">10</tspan><tspan x="-4.492" y="21">9</tspan><tspan x="-4.492" y="42">8</tspan><tspan x="-4.492" y="63">7</tspan><tspan x="-4.492" y="84">6</tspan><tspan x="-4.492" y="105">5</tspan><tspan x="-4.492" y="126">4</tspan><tspan x="-4.492" y="147">3</tspan><tspan x="-4.492" y="168">2</tspan><tspan x="-4.492" y="189">1</tspan><tspan x="0" y="210"></tspan><tspan x="-6.699" y="231">-1</tspan><tspan x="-6.699" y="252">-2</tspan><tspan x="-6.699" y="273">-3</tspan><tspan x="-6.699" y="294">-4</tspan><tspan x="-6.699" y="315">-5</tspan><tspan x="-6.699" y="336">-6</tspan><tspan x="-6.699" y="357">-7</tspan><tspan x="-6.699" y="378">-8</tspan><tspan x="-6.699" y="399">-9</tspan><tspan x="-11.191" y="420">-10</tspan></text>
          <path id="Trazado_873528" data-name="Trazado 873528" d="M11-6385.638v493.614" transform="translate(844 11653.139)" fill="none" stroke="#714611" stroke-width="3"/>
          <path id="Trazado_873530" data-name="Trazado 873530" d="M11-6385.638v493.614" transform="translate(-5284.024 5503.5) rotate(90)" fill="none" stroke="#714611" stroke-width="3"/>
          <text id="_1_2_3_4_5_6_7_8_9_10" data-name="1 2 3 4 5 6 7 8 9 10" transform="translate(871.5 5525)" fill="#12263f" font-size="16" font-family="Roboto-Regular, Roboto" letter-spacing="0.265em"><tspan x="0" y="15">1 2 3 4 5 6 7 8 9 </tspan><tspan y="15" letter-spacing="0.01em">10</tspan></text>
          <text id="_-10_-9_-8_-7_-6_-5_-4_-3_-2_" data-name="-10 -9 -8 -7 -6 -5 -4 -3 -2 " transform="translate(624.5 5525)" fill="#12263f" font-size="16" font-family="Roboto-Regular, Roboto" letter-spacing="0.265em"><tspan x="0" y="15">-10</tspan><tspan y="15"> </tspan><tspan y="15">-9</tspan><tspan y="15"> </tspan><tspan y="15">-8</tspan><tspan y="15"> </tspan><tspan y="15">-7</tspan><tspan y="15"> </tspan><tspan y="15">-6</tspan><tspan y="15"> </tspan><tspan y="15">-5</tspan><tspan y="15"> </tspan><tspan y="15">-4</tspan><tspan y="15"> </tspan><tspan y="15">-3</tspan><tspan y="15"> </tspan><tspan y="15">-2</tspan><tspan y="15"> </tspan></text>
          <path id="Trazado_873531" data-name="Trazado 873531" d="M.118-6134.442H7.552" transform="translate(846.948 11629.941)" fill="none" stroke="#714611" stroke-width="2"/>
          <path id="Trazado_873532" data-name="Trazado 873532" d="M.118-6134.442H7.552" transform="translate(846.948 11608.941)" fill="none" stroke="#714611" stroke-width="2"/>
          <path id="Trazado_873533" data-name="Trazado 873533" d="M.118-6134.442H7.552" transform="translate(846.948 11586.941)" fill="none" stroke="#714611" stroke-width="2"/>
          <path id="Trazado_873534" data-name="Trazado 873534" d="M.118-6134.442H7.552" transform="translate(846.948 11565.941)" fill="none" stroke="#714611" stroke-width="2"/>
          <path id="Trazado_873535" data-name="Trazado 873535" d="M.118-6134.442H7.552" transform="translate(846.948 11543.941)" fill="none" stroke="#714611" stroke-width="2"/>
          <path id="Trazado_873536" data-name="Trazado 873536" d="M.118-6134.442H7.552" transform="translate(846.948 11522.941)" fill="none" stroke="#714611" stroke-width="2"/>
          <path id="Trazado_873537" data-name="Trazado 873537" d="M.118-6134.442H7.552" transform="translate(846.948 11500.941)" fill="none" stroke="#714611" stroke-width="2"/>
          <path id="Trazado_873538" data-name="Trazado 873538" d="M.118-6134.442H7.552" transform="translate(846.948 11479.941)" fill="none" stroke="#714611" stroke-width="2"/>
          <path id="Trazado_873539" data-name="Trazado 873539" d="M.118-6134.442H7.552" transform="translate(846.948 11458.941)" fill="none" stroke="#714611" stroke-width="2"/>
          <path id="Trazado_873540" data-name="Trazado 873540" d="M.118-6134.442H7.552" transform="translate(846.948 11436.941)" fill="none" stroke="#714611" stroke-width="2"/>
          <g id="Grupo_1099337" data-name="Grupo 1099337" transform="translate(-60.5 -76)">
            <path id="Trazado_873550" data-name="Trazado 873550" d="M.118-6134.442H7.552" transform="translate(907.448 11937.941)" fill="none" stroke="#714611" stroke-width="2"/>
            <path id="Trazado_873549" data-name="Trazado 873549" d="M.118-6134.442H7.552" transform="translate(907.448 11916.941)" fill="none" stroke="#714611" stroke-width="2"/>
            <path id="Trazado_873548" data-name="Trazado 873548" d="M.118-6134.442H7.552" transform="translate(907.448 11894.941)" fill="none" stroke="#714611" stroke-width="2"/>
            <path id="Trazado_873547" data-name="Trazado 873547" d="M.118-6134.442H7.552" transform="translate(907.448 11873.941)" fill="none" stroke="#714611" stroke-width="2"/>
            <path id="Trazado_873546" data-name="Trazado 873546" d="M.118-6134.442H7.552" transform="translate(907.448 11851.941)" fill="none" stroke="#714611" stroke-width="2"/>
            <path id="Trazado_873545" data-name="Trazado 873545" d="M.118-6134.442H7.552" transform="translate(907.448 11830.941)" fill="none" stroke="#714611" stroke-width="2"/>
            <path id="Trazado_873543" data-name="Trazado 873543" d="M.118-6134.442H7.552" transform="translate(907.448 11808.941)" fill="none" stroke="#714611" stroke-width="2"/>
            <path id="Trazado_873544" data-name="Trazado 873544" d="M.118-6134.442H7.552" transform="translate(907.448 11787.941)" fill="none" stroke="#714611" stroke-width="2"/>
            <path id="Trazado_873542" data-name="Trazado 873542" d="M.118-6134.442H7.552" transform="translate(907.448 11766.941)" fill="none" stroke="#714611" stroke-width="2"/>
            <path id="Trazado_873541" data-name="Trazado 873541" d="M.118-6134.442H7.552" transform="translate(907.448 11744.941)" fill="none" stroke="#714611" stroke-width="2"/>
          </g>
          <g id="Grupo_1099338" data-name="Grupo 1099338" transform="translate(-4969 6429.5) rotate(-90)">
            <path id="Trazado_873550-2" data-name="Trazado 873550" d="M.118-6134.442H7.552" transform="translate(907.448 11937.941)" fill="none" stroke="#714611" stroke-width="2"/>
            <path id="Trazado_873549-2" data-name="Trazado 873549" d="M.118-6134.442H7.552" transform="translate(907.448 11916.941)" fill="none" stroke="#714611" stroke-width="2"/>
            <path id="Trazado_873548-2" data-name="Trazado 873548" d="M.118-6134.442H7.552" transform="translate(907.448 11894.941)" fill="none" stroke="#714611" stroke-width="2"/>
            <path id="Trazado_873547-2" data-name="Trazado 873547" d="M.118-6134.442H7.552" transform="translate(907.448 11873.941)" fill="none" stroke="#714611" stroke-width="2"/>
            <path id="Trazado_873546-2" data-name="Trazado 873546" d="M.118-6134.442H7.552" transform="translate(907.448 11851.941)" fill="none" stroke="#714611" stroke-width="2"/>
            <path id="Trazado_873545-2" data-name="Trazado 873545" d="M.118-6134.442H7.552" transform="translate(907.448 11830.941)" fill="none" stroke="#714611" stroke-width="2"/>
            <path id="Trazado_873543-2" data-name="Trazado 873543" d="M.118-6134.442H7.552" transform="translate(907.448 11808.941)" fill="none" stroke="#714611" stroke-width="2"/>
            <path id="Trazado_873544-2" data-name="Trazado 873544" d="M.118-6134.442H7.552" transform="translate(907.448 11787.941)" fill="none" stroke="#714611" stroke-width="2"/>
            <path id="Trazado_873542-2" data-name="Trazado 873542" d="M.118-6134.442H7.552" transform="translate(907.448 11766.941)" fill="none" stroke="#714611" stroke-width="2"/>
            <path id="Trazado_873541-2" data-name="Trazado 873541" d="M.118-6134.442H7.552" transform="translate(907.448 11744.941)" fill="none" stroke="#714611" stroke-width="2"/>
          </g>
          <g id="Grupo_1099339" data-name="Grupo 1099339" transform="translate(-4736 6429.5) rotate(-90)">
            <path id="Trazado_873550-3" data-name="Trazado 873550" d="M.118-6134.442H7.552" transform="translate(907.448 11937.941)" fill="none" stroke="#714611" stroke-width="2"/>
            <path id="Trazado_873549-3" data-name="Trazado 873549" d="M.118-6134.442H7.552" transform="translate(907.448 11916.941)" fill="none" stroke="#714611" stroke-width="2"/>
            <path id="Trazado_873548-3" data-name="Trazado 873548" d="M.118-6134.442H7.552" transform="translate(907.448 11894.941)" fill="none" stroke="#714611" stroke-width="2"/>
            <path id="Trazado_873547-3" data-name="Trazado 873547" d="M.118-6134.442H7.552" transform="translate(907.448 11873.941)" fill="none" stroke="#714611" stroke-width="2"/>
            <path id="Trazado_873546-3" data-name="Trazado 873546" d="M.118-6134.442H7.552" transform="translate(907.448 11851.941)" fill="none" stroke="#714611" stroke-width="2"/>
            <path id="Trazado_873545-3" data-name="Trazado 873545" d="M.118-6134.442H7.552" transform="translate(907.448 11830.941)" fill="none" stroke="#714611" stroke-width="2"/>
            <path id="Trazado_873543-3" data-name="Trazado 873543" d="M.118-6134.442H7.552" transform="translate(907.448 11808.941)" fill="none" stroke="#714611" stroke-width="2"/>
            <path id="Trazado_873544-3" data-name="Trazado 873544" d="M.118-6134.442H7.552" transform="translate(907.448 11787.941)" fill="none" stroke="#714611" stroke-width="2"/>
            <path id="Trazado_873542-3" data-name="Trazado 873542" d="M.118-6134.442H7.552" transform="translate(907.448 11766.941)" fill="none" stroke="#714611" stroke-width="2"/>
            <path id="Trazado_873541-3" data-name="Trazado 873541" d="M.118-6134.442H7.552" transform="translate(907.448 11744.941)" fill="none" stroke="#714611" stroke-width="2"/>
          </g>
          <path id="Polígono_20" data-name="Polígono 20" d="M9.5,0,19,16H0Z" transform="translate(845.5 5260)" fill="#714611"/>
          <path id="Polígono_22" data-name="Polígono 22" d="M9.5,0,19,16H0Z" transform="translate(1109.614 5505) rotate(90)" fill="#714611"/>
          <path id="Polígono_23" data-name="Polígono 23" d="M9.5,0,19,16H0Z" transform="translate(600 5524) rotate(-90)" fill="#714611"/>
          <path id="Polígono_21" data-name="Polígono 21" d="M9.5,0,19,16H0Z" transform="translate(864.5 5769) rotate(180)" fill="#714611"/>
          <circle id="Elipse_11484" data-name="Elipse 11484" cx="6" cy="6" r="6" transform="translate(848.5 5509)" fill="#714611"/>
          <text id="_0" data-name="0" transform="translate(865 5510)" fill="#12263f" font-size="16" font-family="Roboto-Regular, Roboto"><tspan x="-4.492" y="0">0</tspan></text>
        </g>
        <text id="X" transform="translate(1012.386 4759)" fill="#12263f" font-size="18" font-family="Roboto-Black, Roboto" font-weight="800"><tspan x="-5.744" y="0">X</tspan></text>
      </g>
    </g>
    <g id="Grupo_1099344" data-name="Grupo 1099344" transform="translate(349.263 4400.551)">
      <g id="Grupo_1099343" data-name="Grupo 1099343" clip-path="url(#clip-path-2)">
        <path id="Trazado_873552" data-name="Trazado 873552" d="M199.137,249.271c25.891-6.589,54.351-46.755,54.351-46.755l-7.291-6.324c-7.547,8.9-38.929,24.224-38.929,24.224.169-8.143-.045-15.57-.558-22.331-3.483-45.946-20.8-61.254-25.531-64.613a11.283,11.283,0,0,0-1.2-.773s-.018.333-.045.966c-.068,1.365-.194,4.116-.322,7.891-.96,28.122-2.108,113.226,19.526,107.714" transform="translate(-61.528 -45.564)" fill="#fdad9b"/>
        <path id="Trazado_873553" data-name="Trazado 873553" d="M281.236,215.452c.109-1.085.839-16.87,3.975-19.875s9.327-7.1,11.106-6.767,7.822,10.382,4.969,17.305-12.76,15.661-12.76,15.661Z" transform="translate(-96.565 -64.823)" fill="#fdad9b"/>
        <path id="Trazado_873554" data-name="Trazado 873554" d="M119.968,595.334c1.577,6.271,3.312,12.242,5.08,17.8.38,1.191.753,2.365,1.132,3.509.19.569.38,1.133.563,1.689q.559,1.65,1.106,3.234c.478,1.376.956,2.717,1.428,4.013.347.963.694,1.906,1.034,2.828,5.25,14.082,9.649,23,9.649,23l10.461-.72s-3.928-18.684-4.713-45.445c-.026-.955-.053-1.918-.072-2.893-.039-2.076-.066-4.19-.066-6.35,0-.885.006-1.781.012-2.685.21-23.049,3.065-50.289,12.169-76.3a497.433,497.433,0,0,0,16.654-58.806c12.53-57.713,9.584-95.629,9.584-95.629l-58.852,6.886-2.743.321c-.249,27.029-.942,63.728-1.551,92.421-.105,4.981-.2,9.722-.3,14.127-.406,18.421-.714,31.016-.714,31.016-11.318,24.365-7.207,58.761.137,87.977" transform="translate(-38.735 -124.498)" fill="#f18c7e"/>
        <path id="Trazado_873555" data-name="Trazado 873555" d="M132.282,36.094s-13.923,11.855-1.157,25.5c0,0-10.638,1.043-14.239-1.9a9.91,9.91,0,0,0,1.365,2.082s-11.893.427-16.8-3.282S99.693-6.067,132.7.736c0,0,27.979-2.112,25.372,30.262s7.956,32.374,7.956,32.374-2.938,1.449-4.355,1.449c0,0-2.074-.791-2.483-1.937a7.373,7.373,0,0,0,.941,2.373s-11.4,1.08-17.1-3.224-12.38-19.259-10.755-25.938" transform="translate(-34.201 -0.071)" fill="#66192d"/>
        <path id="Trazado_873556" data-name="Trazado 873556" d="M80.817,258.441c11.121-24.943,16.443-32,16.629-39.845.147-6.206-2.913-12.9-8.857-29.322a61.175,61.175,0,0,1-2.959-11.87c-4.7-31.654,13.6-65.873,24.981-68.2,3.165-.837,8.531-12.27,8.465-30.693l1.425.28,23.956,4.744s-.545,7.54-.561,14.641c-.016,5.919.3,11.942,1.644,12.648,1.724.156,3.293.47,3.293.47s20.274,14.239,21.583,33.55c1.749,25.8-16.438,56.376-.309,107.934,16.468,52.657-95.434,19.451-89.289,5.668" transform="translate(-27.666 -26.956)" fill="#fdad9b"/>
        <path id="Trazado_873557" data-name="Trazado 873557" d="M165.334,83.677s-.546,7.54-.562,14.641c-13.405-.378-20.491-12.607-23.395-19.385Z" transform="translate(-48.543 -27.103)" fill="#f18c7e"/>
        <path id="Trazado_873558" data-name="Trazado 873558" d="M132.946,49.222s-7.025-11.1-8.712-20.592c-1.2-6.777,2.248-31.894,27.489-28.277A34.289,34.289,0,0,1,165.945,5.73c5.48,3.7,13.39,11.692,4.546,33.611l-2.3,7.4Z" transform="translate(-42.587 0)" fill="#66192d"/>
        <path id="Trazado_873559" data-name="Trazado 873559" d="M167.9,68.414s-31.718.523-31.74-19.235-4.13-32.995,16.12-34.164,24.193,6.365,25.8,12.959-1.934,39.794-10.184,40.44" transform="translate(-46.628 -5.114)" fill="#fdad9b"/>
        <path id="Trazado_873560" data-name="Trazado 873560" d="M161.389,11.826S152.7,35.005,139.377,38.432s-19.108-.144-19.108-.144a127.057,127.057,0,0,0,7-26.1s27.571-11.395,34.123-.362" transform="translate(-41.296 -2.409)" fill="#66192d"/>
        <path id="Trazado_873561" data-name="Trazado 873561" d="M179.612,15.231s6.485,5.174,8.067,10.206,2.293,15.388,5.31,15.036c0,0,6.543-15.754-.81-24.667-7.8-9.45-12.567-.575-12.567-.575" transform="translate(-61.672 -3.932)" fill="#66192d"/>
        <path id="Trazado_873562" data-name="Trazado 873562" d="M18.124,300.673l9.522,2.856s31.411-52.116,34.267-65.677c.931-4.415,3.216-13.25,5.88-23.147,5.516-20.5,12.634-45.581,12.634-45.581l2.344-10.154,8-34.626s-15.31,1.564-24.265,5.309c-2.965,1.237-5.227,2.714-6.017,4.447-6.579,14.464-13.146,50.971-17.763,77.013-2.572,14.514-4.534,25.78-5.558,28.167-2.856,6.66-11.582,43.308-19.039,61.392" transform="translate(-6.223 -42.695)" fill="#fdad9b"/>
        <path id="Trazado_873563" data-name="Trazado 873563" d="M169.418,15.1s-6.188,24.273-23,32.047c0,0,16.816-14.912,18.244-30.936s4.759-1.111,4.759-1.111" transform="translate(-50.273 -3.018)" fill="#66192d"/>
        <path id="Trazado_873564" data-name="Trazado 873564" d="M71.859,583.787c3.384,36.111,18.283,59.468,18.283,59.468l5.086,4.628s4.635-26.44,7.981-56.711c3.188-28.771,7.56-59.217,12.5-68.514,7.39-13.885,12.838-42.283,16.759-72.285,6.481-49.647,8.779-103.7,8.779-103.7l-59.669-2.959c-6,10.088-8.616,26.637-9.238,45.451-.655,19.783.9,42.074,3.064,61.994,3.017,27.887,7.22,51.134,8.2,56.358a.048.048,0,0,0,.007.026,3.111,3.111,0,0,1-.393,2c-11.875,23.5-13.59,50.388-11.357,74.249" transform="translate(-24.385 -118.018)" fill="#fdad9b"/>
        <path id="Trazado_873565" data-name="Trazado 873565" d="M178.114,192.2c1.342,32.777,6.245,65.234,20.517,63.146,17.491-2.553,22.048-18.88,22.977-31.017a69.653,69.653,0,0,0-.255-13.485s-8.609-.039-10-1.322c-6.612-6.108-4.648-66.007-7.921-72.226s-24.51-10.213-24.51-10.213-2.141,32.718-.805,65.117" transform="translate(-61.007 -43.636)" fill="#ff8548"/>
        <path id="Trazado_873566" data-name="Trazado 873566" d="M178.343,214.488c1.342,32.777,6.245,65.234,20.517,63.146,17.491-2.553,22.048-18.88,22.977-31.017-4.294-.216-11.856-1.263-14.86-5.846-4.3-6.559-17.721-48.782-17.721-48.782s-5.276,9.479-10.913,22.5" transform="translate(-61.236 -65.921)" fill="#fc6827"/>
        <path id="Trazado_873567" data-name="Trazado 873567" d="M119.968,644.626c1.577,6.271,3.312,12.242,5.08,17.8.38,1.191.753,2.365,1.132,3.509.19.569.38,1.133.563,1.689q.559,1.65,1.106,3.234c.478,1.376.956,2.716,1.428,4.013.347.963.694,1.906,1.034,2.828,5.25,14.082,9.649,23,9.649,23l10.461-.72s-3.928-18.684-4.713-45.445c-.026-.955-.053-1.918-.072-2.893-.039-2.076-.066-4.19-.066-6.35,0-.885.006-1.781.012-2.685.21-23.049,3.065-50.289,12.169-76.3a497.435,497.435,0,0,0,16.654-58.806c-6.219,1.282-11.695-.027-27.586-1.362-1.67-.14-9.656,9.748-17.544,22.834-.406,18.421-9.446,27.671-9.446,27.671-11.318,24.365-7.207,58.761.137,87.977" transform="translate(-38.735 -173.79)" fill="#f22525"/>
        <path id="Trazado_873568" data-name="Trazado 873568" d="M71.859,639.56c3.384,36.111,18.283,59.468,18.283,59.468l5.086,4.628s4.635-26.44,7.981-56.711c3.188-28.771,7.56-59.217,12.5-68.514,7.39-13.885,12.838-42.283,16.759-72.285-5.493,2.284-24.182,8.222-57.065.785,3.017,27.888,7.22,51.134,8.2,56.358a.048.048,0,0,0,.007.026,3.111,3.111,0,0,1-.393,2c-11.875,23.5-13.59,50.388-11.357,74.249" transform="translate(-24.385 -173.791)" fill="#ff443c"/>
        <path id="Trazado_873569" data-name="Trazado 873569" d="M54.892,390.262a215.325,215.325,0,0,0,30.875,6.4c22.772,3.149,54.6,4.285,83.033-6.4,0,0,2.343-42.3-4.394-64.354s-9.884-32.609-9.884-32.609-26.989,6.768-54.4,1.519a88.868,88.868,0,0,1-11.5-2.972s-16.908,35.9-21.557,51.28-12.179,47.136-12.179,47.136" transform="translate(-18.848 -100.209)" fill="#ffba41"/>
        <path id="Trazado_873570" data-name="Trazado 873570" d="M54.892,390.262a215.325,215.325,0,0,0,30.875,6.4c33.724-19.123,17.28-99.592,17.28-99.592q-1.5-1.218-2.923-2.252a88.868,88.868,0,0,1-11.5-2.972s-16.908,35.9-21.557,51.28-12.179,47.136-12.179,47.136" transform="translate(-18.848 -100.209)" fill="#ffba41"/>
        <path id="Trazado_873571" data-name="Trazado 873571" d="M12.85,245.124c0,8.235,8.4,13.3,17.413,15.756,8.668,2.37,17.9,2.337,20.785.406,4.982-3.338,13.1-40.457,15.47-51.756.425-2.049.668-3.246.668-3.246s6.473,15.449,6.677,16.889c.092.647.17,1.539.229,2.323.066.95.105,1.735.105,1.735s35.134,17.734,65.888,1.447c0,0,12.5-72.259,7.077-84.7-2.7-6.18-16.765-18.932-22.4-24.431-1.263-1.238-1.139-3.686-.648-5.925a2.588,2.588,0,0,0-3.169-3.07c-3.619.943-10.133.779-17.112-1.513a41.271,41.271,0,0,1-10.461-5.112,1.6,1.6,0,0,0-2.481,1.132c-.531,4.308-1.833,12.176-4.21,12.176-3.273-.019-25.61,2.724-27.246,5.486-.569.962-6.376,14.1-13.707,31.508a.222.222,0,0,0-.014.046C31.959,186.932,12.85,234.59,12.85,245.124" transform="translate(-4.412 -35.591)" fill="#ff8548"/>
        <path id="Trazado_873572" data-name="Trazado 873572" d="M95.6,236.8s6.474,15.449,6.677,16.889c.093.647.171,1.539.23,2.324a31.89,31.89,0,0,0,10.769,5.663c10.951,3.319,15.711-17.675,15.057-28.149s-16.144-40.371-21.3-40.993S95.6,236.8,95.6,236.8" transform="translate(-32.824 -66.106)" fill="#fc6827"/>
        <path id="Trazado_873573" data-name="Trazado 873573" d="M94.579,263.2c.425-2.049.668-3.246.668-3.246a16.545,16.545,0,0,0-.668,3.246" transform="translate(-32.475 -89.257)" fill="#e58638"/>
        <path id="Trazado_873574" data-name="Trazado 873574" d="M142.893,297.419c19.993,0,28.234-6.881,28.843-7.349l1.294-9.416c-.192.142-27.018,16.251-68.534.823l.881,7.134c15.966,5.932,27.133,8.808,37.517,8.808" transform="translate(-35.88 -96.366)" fill="#fc6827"/>
        <path id="Trazado_873575" data-name="Trazado 873575" d="M12.85,271.6c0,8.235,8.4,13.3,17.413,15.756-12.425-14.794,14.762-104.315,15.456-106.6C31.959,213.4,12.85,261.063,12.85,271.6" transform="translate(-4.412 -62.063)" fill="#fc6827"/>
        <path id="Trazado_873576" data-name="Trazado 873576" d="M125.295,117.24s16.726,10.592,29.38,8.085c0,0,3.038-1.918-1.152-3.849-3.934-1.807-13.086-7.155-11.076-12.432a41.274,41.274,0,0,1-10.461-5.113,1.6,1.6,0,0,0-2.481,1.133c-.531,4.308-1.833,12.176-4.21,12.176" transform="translate(-43.021 -35.591)" fill="#fc6827"/>
        <path id="Trazado_873577" data-name="Trazado 873577" d="M142.147,803.143h6.678c2.236-.353,3.888-1,6.182-1.3,3.484-.456,5.088.971,5.406,1.3a.662.662,0,0,1,.062.066h28.366c.714-1.018.028-3.379-.643-5.116a4.034,4.034,0,0,0-2.655-2.427c-3.008-.871-8.938-1.647-14.369-6.563-3.056-2.761-14.754-10.152-14.754-10.152l-.061-.014c-.258,0-1.481.381-6.8,4.872-2.751,2.319-7.439-3.274-7.439-3.274a6.671,6.671,0,0,0-1.537,2.085,7.046,7.046,0,0,0-.609,4.354c.424,2.556-.942,7.306-2.032,10.518-.661,1.946-1.218,3.327-1.218,3.327s-.319,1.6,5.425,2.323" transform="translate(-46.944 -267.457)" fill="#66192d"/>
        <path id="Trazado_873578" data-name="Trazado 873578" d="M142.6,782.621c1.594,1.123,4.959,3.336,7.192,3.626,3.013.4,8.647-7.3,8.647-7.3l-.061-.014c-.258,0-1.481.381-6.8,4.873-2.751,2.319-7.439-3.274-7.439-3.274a6.663,6.663,0,0,0-1.537,2.085" transform="translate(-48.964 -267.457)" fill="#552748"/>
        <path id="Trazado_873579" data-name="Trazado 873579" d="M142.147,812.846h6.678c2.236-.353,3.888-1,6.182-1.3,3.484-.456,5.088.971,5.406,1.3a.666.666,0,0,1,.062.066h28.366c.714-1.018.028-3.379-.643-5.117-.861-.766-1.1,3.327-1.581,3.979s-23.139.237-24.448-.714-5.235-2.617-10.709-1.309c-4.764,1.139-11.783-1.779-13.521-2.556-.661,1.946-1.218,3.327-1.218,3.327s-.319,1.6,5.425,2.323" transform="translate(-46.944 -277.16)" fill="#552748"/>
        <path id="Trazado_873580" data-name="Trazado 873580" d="M87.882,803.143H94.56c2.237-.353,3.888-1,6.182-1.3,3.483-.456,5.088.971,5.407,1.3a.79.79,0,0,1,.062.066h28.365c.714-1.018.029-3.379-.643-5.116a4.035,4.035,0,0,0-2.655-2.427c-3.008-.871-8.938-1.647-14.369-6.563-3.055-2.761-14.754-10.152-14.754-10.152l-.062-.014c-.257,0-1.48.381-6.8,4.872-2.751,2.319-7.439-3.274-7.439-3.274a6.682,6.682,0,0,0-1.537,2.085,7.041,7.041,0,0,0-.609,4.354c.424,2.556-.942,7.306-2.032,10.518-.662,1.946-1.219,3.327-1.219,3.327s-.319,1.6,5.426,2.323" transform="translate(-28.311 -267.457)" fill="#66192d"/>
        <path id="Trazado_873581" data-name="Trazado 873581" d="M88.336,782.621c1.595,1.123,4.959,3.336,7.192,3.626,3.013.4,8.647-7.3,8.647-7.3l-.062-.014c-.257,0-1.48.381-6.8,4.873-2.751,2.319-7.439-3.274-7.439-3.274a6.674,6.674,0,0,0-1.537,2.085" transform="translate(-30.331 -267.457)" fill="#552748"/>
        <path id="Trazado_873582" data-name="Trazado 873582" d="M87.882,812.846H94.56c2.237-.353,3.888-1,6.182-1.3,3.483-.456,5.088.971,5.407,1.3a.8.8,0,0,1,.062.066h28.365c.714-1.018.029-3.379-.643-5.117-.862-.766-1.1,3.327-1.58,3.979s-23.139.237-24.449-.714-5.235-2.617-10.708-1.309c-4.764,1.139-11.784-1.779-13.521-2.556-.662,1.946-1.219,3.327-1.219,3.327s-.319,1.6,5.426,2.323" transform="translate(-28.311 -277.16)" fill="#552748"/>
        <path id="Trazado_873583" data-name="Trazado 873583" d="M12.576,390.463s-2.894,6.822-5.909,8.726S.788,405.66.162,409.341C-.986,416.1,4.192,420.287,8,420.287s7.446-5.191,9.685-17.589c.122-.682,3.736-7.793,3.736-7.793Z" transform="translate(0 -134.07)" fill="#fdad9b"/>
        <path id="Trazado_873584" data-name="Trazado 873584" d="M287.808,197.593h7.178v-21.24l-7.178,3.076Z" transform="translate(-98.822 -60.553)" fill="#552748"/>
        <path id="Trazado_873585" data-name="Trazado 873585" d="M300.33,189.236s-4.648-5.19-9.3-1.224.308,12.435,4.341,14.749a32.656,32.656,0,0,1,5.325,3.522Z" transform="translate(-99.285 -64.043)" fill="#fdad9b"/>
      </g>
    </g>
    <g id="Grupo_1099346" data-name="Grupo 1099346" transform="translate(285 4929.005)">
      <g id="Grupo_1099345" data-name="Grupo 1099345" transform="translate(0 0)" clip-path="url(#clip-path-3)">
        <path id="Trazado_873586" data-name="Trazado 873586" d="M1028.669,7.3H1.331C.6,7.3,0,6.416,0,5.338V1.962C0,.883.6,0,1.331,0H1028.67c.731,0,1.33.883,1.33,1.961V5.337c0,1.079-.6,1.962-1.331,1.962" transform="translate(0 0)" fill="#66192d"/>
      </g>
    </g>
    <g id="Grupo_1099348" data-name="Grupo 1099348" transform="translate(525.346 4768.357)">
      <g id="Grupo_1099347" data-name="Grupo 1099347" clip-path="url(#clip-path-4)">
        <path id="Trazado_873587" data-name="Trazado 873587" d="M177.607,138.025s-11.188-13.053-.69-21.345c0,0,7.668-4.642,13.921-4.265,0,0-8.859,14.858-5.993,16.336s8.679-17.267,8.679-17.267,17.451-1.692,23.065,1.006c0,0-14.919,12.208-11.777,12.935s19.256-11.256,19.256-11.256,16.242,2.764,15.376,12.672-6.463,12.968-8.922,12.7-16.848-5.756-17.162-3.741,8.348,8.6,14.413,8.91c0,0-11.451,12.629-19.061,8.984s-8.26-9.422-13-11.589-8.794-2.161-6.835.048,10.544,4.358,13.257,9.156,5.147,8.035-2.726,6.851-20.673-6.946-21.234-13.543Z" transform="translate(-73.204 -47.109)" fill="#ff8548"/>
        <path id="Trazado_873588" data-name="Trazado 873588" d="M228.044,138.966s-44.114-1.7-53.857,10.917a31.9,31.9,0,0,1-8.785,12.329l-1.033,2.816s7.645-8.06,10.38-8.548c0,0-4.278-15.631,53.295-17.514" transform="translate(-69.785 -58.967)" fill="#ff8548"/>
        <path id="Trazado_873589" data-name="Trazado 873589" d="M158.694,178.6s-9.469,7-10.127,19.515l1.718.154s3.025-12.938,8.491-18-.082-1.672-.082-1.672" transform="translate(-63.076 -75.355)" fill="#ff8548"/>
        <path id="Trazado_873590" data-name="Trazado 873590" d="M65.283,95.461s17.8-9.967,9.492-23.493c0,0-6.645-8.305-13.764-10.441,0,0,3.8,20.171,0,20.646S58.4,59.391,58.4,59.391s-18.748-9.018-26.1-8.305c0,0,11.628,19.7,7.831,19.221S23.28,49.9,23.28,49.9,4.058,46.339.973,57.729s1.9,17.087,4.746,17.8,21.12.474,20.646,2.848-12.815,6.17-19.7,4.034c0,0,7.594,18.748,17.561,17.8s13.051-7.119,19.221-7.593,10.679,1.187,7.594,2.847-13.526.545-18.51,4.781-9.018,6.847.238,8.745,25.866.712,29.188-6.407Z" transform="translate(0 -20.962)" fill="#ffba41"/>
        <path id="Trazado_873591" data-name="Trazado 873591" d="M16.95,70.082s49.834,16.137,55.53,34.172a37.859,37.859,0,0,0,4.746,17.323v3.56s-5.221-12.1-8.068-13.763c0,0,11.153-15.662-52.208-41.292" transform="translate(-7.196 -29.754)" fill="#ff8548"/>
        <path id="Trazado_873592" data-name="Trazado 873592" d="M119.941,157.937s7.685,11.671,3.3,25.877l-1.977-.531s1.919-15.647-2.1-23.517.775-1.829.775-1.829" transform="translate(-49.912 -66.113)" fill="#ff8548"/>
        <path id="Trazado_873593" data-name="Trazado 873593" d="M151.277,60.754s-23.461-13.138-12.513-30.968c0,0,8.759-10.948,18.144-13.764,0,0-5.005,26.589,0,27.215s3.441-30.03,3.441-30.03S185.06,1.319,194.758,2.258c0,0-15.328,25.964-10.323,25.338s22.21-26.9,22.21-26.9S231.983-4,236.049,11.017s-2.5,22.523-6.256,23.461-27.84.625-27.215,3.754,16.892,8.133,25.963,5.318c0,0-10.01,24.712-23.148,23.461s-17.2-9.384-25.338-10.01-14.077,1.564-10.01,3.754,17.831.718,24.4,6.3,11.887,9.026-.313,11.529-34.1.938-38.476-8.446Z" transform="translate(-57.678 0)" fill="#ffba41"/>
        <path id="Trazado_873594" data-name="Trazado 873594" d="M231.239,27.3s-65.691,21.271-73.2,45.045c0,0,.312,10.636-6.257,22.836v4.692s6.882-15.953,10.636-18.143c0,0-14.7-20.646,68.819-54.43" transform="translate(-64.442 -11.59)" fill="#ff8548"/>
        <path id="Trazado_873595" data-name="Trazado 873595" d="M147.258,143.108s-10.131,15.384-4.355,34.11l2.607-.7s-2.53-20.626,2.77-31-1.022-2.411-1.022-2.411" transform="translate(-59.916 -59.519)" fill="#ff8548"/>
        <path id="Trazado_873596" data-name="Trazado 873596" d="M127.376,241.2a45.957,45.957,0,0,0,45.957-45.957H81.419A45.957,45.957,0,0,0,127.376,241.2" transform="translate(-34.567 -82.895)" fill="#552748"/>
        <path id="Trazado_873597" data-name="Trazado 873597" d="M173.5,274.992H80.316a5.67,5.67,0,0,1,5.67-5.67h81.842a5.67,5.67,0,0,1,5.67,5.67" transform="translate(-34.099 -114.344)" fill="#552748"/>
        <rect id="Rectángulo_401208" data-name="Rectángulo 401208" width="94.47" height="1.41" transform="translate(45.34 112.352)" fill="#552748"/>
      </g>
    </g>
    <g id="Grupo_1099350" data-name="Grupo 1099350" transform="translate(566.632 4337.4)">
      <g id="Grupo_1099349" data-name="Grupo 1099349" clip-path="url(#clip-path-5)">
        <path id="Trazado_873598" data-name="Trazado 873598" d="M48.54,0A48.54,48.54,0,1,0,97.08,48.541,48.6,48.6,0,0,0,48.54,0m0,93.915A45.375,45.375,0,1,1,93.915,48.541,45.426,45.426,0,0,1,48.54,93.915" fill="#ff443c"/>
        <path id="Trazado_873599" data-name="Trazado 873599" d="M89.826,18.716a1.935,1.935,0,1,0-1.934-1.934,1.934,1.934,0,0,0,1.934,1.934" transform="translate(-41.286 -6.974)" fill="#ff443c"/>
        <path id="Trazado_873600" data-name="Trazado 873600" d="M89.826,162.114a1.935,1.935,0,1,0,1.934,1.935,1.934,1.934,0,0,0-1.934-1.935" transform="translate(-41.286 -76.151)" fill="#ff443c"/>
        <path id="Trazado_873601" data-name="Trazado 873601" d="M159.811,88.48a1.935,1.935,0,1,0,1.935,1.935,1.935,1.935,0,0,0-1.935-1.935" transform="translate(-74.16 -41.562)" fill="#ff443c"/>
        <path id="Trazado_873602" data-name="Trazado 873602" d="M125.121,149.543a1.935,1.935,0,1,0,2.735-.065,1.934,1.934,0,0,0-2.735.065" transform="translate(-58.523 -69.964)" fill="#ff443c"/>
        <path id="Trazado_873603" data-name="Trazado 873603" d="M149,126.843a1.935,1.935,0,1,0,2.735-.065,1.936,1.936,0,0,0-2.735.065" transform="translate(-69.741 -59.302)" fill="#ff443c"/>
        <path id="Trazado_873604" data-name="Trazado 873604" d="M151.241,57.331a1.935,1.935,0,1,0-2.582-.9,1.935,1.935,0,0,0,2.582.9" transform="translate(-69.74 -25.203)" fill="#ff443c"/>
        <path id="Trazado_873605" data-name="Trazado 873605" d="M127.569,29.173a1.935,1.935,0,1,0,.576,2.675,1.934,1.934,0,0,0-.576-2.675" transform="translate(-58.522 -13.558)" fill="#ff443c"/>
        <path id="Trazado_873606" data-name="Trazado 873606" d="M25.13,87.259a1.935,1.935,0,1,0,1.934,1.934,1.935,1.935,0,0,0-1.934-1.934" transform="translate(-10.896 -40.989)" fill="#ff443c"/>
        <path id="Trazado_873607" data-name="Trazado 873607" d="M57.086,148.256a1.935,1.935,0,1,0,2.736.065,1.935,1.935,0,0,0-2.736-.065" transform="translate(-26.534 -69.39)" fill="#ff443c"/>
        <path id="Trazado_873608" data-name="Trazado 873608" d="M33.2,125.556a1.935,1.935,0,1,0,2.735.065,1.934,1.934,0,0,0-2.735-.065" transform="translate(-15.316 -58.727)" fill="#ff443c"/>
        <path id="Trazado_873609" data-name="Trazado 873609" d="M33.7,56.109a1.935,1.935,0,1,0-.9-2.582,1.934,1.934,0,0,0,.9,2.582" transform="translate(-15.315 -24.629)" fill="#ff443c"/>
        <path id="Trazado_873610" data-name="Trazado 873610" d="M57.371,27.951a1.935,1.935,0,1,0,2.675.576,1.935,1.935,0,0,0-2.675-.576" transform="translate(-26.534 -12.984)" fill="#ff443c"/>
        <path id="Trazado_873611" data-name="Trazado 873611" d="M109.305,47.907,93.492,58.835a1.832,1.832,0,0,0-.176-.1l-1.7-29.875V58.741a1.934,1.934,0,1,0,2.787,1.735,2.046,2.046,0,0,0-.023-.287Z" transform="translate(-42.528 -13.558)" fill="#ff443c"/>
      </g>
    </g>
    <path id="Trazado_874364" data-name="Trazado 874364" d="M14,0H185a14,14,0,0,1,14,14V43a14,14,0,0,1-14,14H14A14,14,0,0,1,0,43V14A14,14,0,0,1,14,0Z" transform="translate(855 4442)" fill="#ffac47"/>
    <path id="Trazado_874365" data-name="Trazado 874365" d="M14,0H185a14,14,0,0,1,14,14V43a14,14,0,0,1-14,14H14A14,14,0,0,1,0,43V14A14,14,0,0,1,14,0Z" transform="translate(855 4735)" fill="#ffac47"/>
    <path id="Trazado_874366" data-name="Trazado 874366" d="M-41.379-12.8l2.856,8.9,2.848-8.9h4.061V0h-3.094V-2.988l.3-6.117L-37.5,0h-2.039l-3.1-9.114.3,6.126V0h-3.085V-12.8Zm11.215,7.954a5.613,5.613,0,0,1,.554-2.536A3.96,3.96,0,0,1-28.02-9.088a4.791,4.791,0,0,1,2.435-.6,4.373,4.373,0,0,1,3.366,1.323,5.076,5.076,0,0,1,1.23,3.6v.105a4.925,4.925,0,0,1-1.235,3.529A4.384,4.384,0,0,1-25.567.176a4.434,4.434,0,0,1-3.261-1.217,4.761,4.761,0,0,1-1.327-3.3Zm2.962.185a3.538,3.538,0,0,0,.413,1.934,1.376,1.376,0,0,0,1.222.615q1.582,0,1.617-2.435v-.3q0-2.558-1.635-2.558-1.485,0-1.608,2.206ZM-16.963-9.51l.1,1.116A3.225,3.225,0,0,1-14.15-9.686a2.713,2.713,0,0,1,2.219.888,4.226,4.226,0,0,1,.76,2.672V0h-2.971V-6a1.6,1.6,0,0,0-.29-1.059A1.342,1.342,0,0,0-15.486-7.4a1.413,1.413,0,0,0-1.292.686V0H-19.74V-9.51Zm10.881-2.364V-9.51h1.564v2.057H-6.082V-3.1a1.111,1.111,0,0,0,.193.747,1.037,1.037,0,0,0,.765.211A4.345,4.345,0,0,0-4.386-2.2V-.079a5.466,5.466,0,0,1-1.67.255A3.1,3.1,0,0,1-8.314-.545a2.954,2.954,0,0,1-.729-2.188v-4.72h-1.213V-9.51h1.213v-2.364ZM1.248.176A4.889,4.889,0,0,1-2.294-1.129a4.507,4.507,0,0,1-1.354-3.4v-.246a5.84,5.84,0,0,1,.541-2.575A3.955,3.955,0,0,1-1.529-9.075,4.763,4.763,0,0,1,.932-9.686,4.117,4.117,0,0,1,4.1-8.442a4.887,4.887,0,0,1,1.16,3.467v1.151H-.633A2.135,2.135,0,0,0,.062-2.566a2.066,2.066,0,0,0,1.389.457,2.662,2.662,0,0,0,2.2-.984L5-1.494A3.784,3.784,0,0,1,3.432-.277,5.3,5.3,0,0,1,1.248.176ZM.914-7.4q-1.3,0-1.547,1.723H2.355v-.229A1.467,1.467,0,0,0,2-7.009,1.434,1.434,0,0,0,.914-7.4Zm9.554,5.291a1.317,1.317,0,0,0,.967-.338,1.241,1.241,0,0,0,.334-.945h2.777A3.288,3.288,0,0,1,13.425-.826a4.168,4.168,0,0,1-2.887,1,4.22,4.22,0,0,1-3.27-1.3,5.125,5.125,0,0,1-1.2-3.6v-.123A5.792,5.792,0,0,1,6.6-7.4a3.872,3.872,0,0,1,1.534-1.7,4.573,4.573,0,0,1,2.373-.593,4.116,4.116,0,0,1,2.944,1.028,3.647,3.647,0,0,1,1.09,2.786H11.769A1.626,1.626,0,0,0,11.408-7a1.244,1.244,0,0,0-.967-.4Q9.29-7.4,9.1-5.933a10.357,10.357,0,0,0-.062,1.283,4.068,4.068,0,0,0,.343,1.986A1.187,1.187,0,0,0,10.468-2.109ZM21.155,0a3.344,3.344,0,0,1-.281-.853A2.754,2.754,0,0,1,18.589.176,3.374,3.374,0,0,1,16.3-.637a2.588,2.588,0,0,1-.94-2.043,2.66,2.66,0,0,1,1.143-2.338,5.821,5.821,0,0,1,3.322-.791h.914v-.5q0-1.316-1.134-1.316a.927.927,0,0,0-1.055,1.042H15.592a2.655,2.655,0,0,1,1.173-2.239,4.931,4.931,0,0,1,2.993-.86,4.323,4.323,0,0,1,2.874.888,3.086,3.086,0,0,1,1.081,2.435v4.21a4.311,4.311,0,0,0,.4,2V0ZM19.3-1.934a1.652,1.652,0,0,0,.918-.237,1.487,1.487,0,0,0,.523-.536V-4.228h-.861q-1.547,0-1.547,1.389a.848.848,0,0,0,.272.655A.986.986,0,0,0,19.3-1.934Zm11.8-4.9-.976-.07a1.752,1.752,0,0,0-1.793.879V0H25.374V-9.51h2.777l.1,1.222a2.294,2.294,0,0,1,2.083-1.4,2.888,2.888,0,0,1,.826.105ZM35.3,0H32.326V-13.5H35.3Zm1.45-4.843A5.613,5.613,0,0,1,37.3-7.378a3.96,3.96,0,0,1,1.591-1.709,4.791,4.791,0,0,1,2.435-.6,4.373,4.373,0,0,1,3.366,1.323,5.076,5.076,0,0,1,1.23,3.6v.105a4.925,4.925,0,0,1-1.235,3.529A4.384,4.384,0,0,1,41.344.176a4.434,4.434,0,0,1-3.261-1.217,4.761,4.761,0,0,1-1.327-3.3Zm2.962.185a3.538,3.538,0,0,0,.413,1.934,1.376,1.376,0,0,0,1.222.615q1.582,0,1.617-2.435v-.3q0-2.558-1.635-2.558-1.485,0-1.608,2.206Z" transform="translate(955 4477)" fill="#12263f"/>
    <path id="Trazado_874367" data-name="Trazado 874367" d="M-38.856,0V-12.8h4.6a6.509,6.509,0,0,1,3.757.905,3.012,3.012,0,0,1,1.288,2.628,3.045,3.045,0,0,1-.457,1.7A2.663,2.663,0,0,1-31.017-6.53a2.7,2.7,0,0,1,1.538.984,2.862,2.862,0,0,1,.536,1.758A3.388,3.388,0,0,1-30.133-.962,5.667,5.667,0,0,1-33.662,0Zm3.085-5.44v3.067h2.021a1.923,1.923,0,0,0,1.283-.382,1.338,1.338,0,0,0,.448-1.077A1.419,1.419,0,0,0-33.609-5.44Zm0-2.021h1.608a2.285,2.285,0,0,0,1.441-.37A1.314,1.314,0,0,0-32.291-8.9a1.379,1.379,0,0,0-.466-1.168,2.493,2.493,0,0,0-1.5-.357h-1.512Zm8.016,2.619A5.613,5.613,0,0,1-27.2-7.378a3.96,3.96,0,0,1,1.591-1.709,4.791,4.791,0,0,1,2.435-.6,4.373,4.373,0,0,1,3.366,1.323,5.076,5.076,0,0,1,1.23,3.6v.105a4.925,4.925,0,0,1-1.235,3.529A4.384,4.384,0,0,1-23.159.176,4.434,4.434,0,0,1-26.42-1.042a4.761,4.761,0,0,1-1.327-3.3Zm2.962.185a3.538,3.538,0,0,0,.413,1.934,1.376,1.376,0,0,0,1.222.615q1.582,0,1.617-2.435v-.3q0-2.558-1.635-2.558-1.485,0-1.608,2.206Zm7.146-.185a5.613,5.613,0,0,1,.554-2.536A3.96,3.96,0,0,1-15.5-9.088a4.791,4.791,0,0,1,2.435-.6A4.373,4.373,0,0,1-9.7-8.363a5.076,5.076,0,0,1,1.23,3.6v.105A4.925,4.925,0,0,1-9.708-1.129,4.384,4.384,0,0,1-13.052.176a4.434,4.434,0,0,1-3.261-1.217,4.761,4.761,0,0,1-1.327-3.3Zm2.962.185a3.538,3.538,0,0,0,.413,1.934,1.376,1.376,0,0,0,1.222.615q1.582,0,1.617-2.435v-.3q0-2.558-1.635-2.558-1.485,0-1.608,2.206Zm10.969-7.216V-9.51h1.564v2.057H-3.718V-3.1a1.111,1.111,0,0,0,.193.747,1.037,1.037,0,0,0,.765.211A4.345,4.345,0,0,0-2.021-2.2V-.079a5.466,5.466,0,0,1-1.67.255A3.1,3.1,0,0,1-5.95-.545,2.954,2.954,0,0,1-6.68-2.733v-4.72H-7.893V-9.51H-6.68v-2.364Zm7.708,9.2a.684.684,0,0,0-.4-.606,6.016,6.016,0,0,0-1.5-.475A6.853,6.853,0,0,1,.264-4.4a3.062,3.062,0,0,1-1.1-.971,2.319,2.319,0,0,1-.378-1.31A2.628,2.628,0,0,1-.132-8.837,4.453,4.453,0,0,1,2.7-9.686a4.934,4.934,0,0,1,3.023.853A2.666,2.666,0,0,1,6.864-6.592H3.894q0-1.143-1.2-1.143a1.194,1.194,0,0,0-.782.259.8.8,0,0,0-.316.646.737.737,0,0,0,.387.642,3.654,3.654,0,0,0,1.235.4,10.671,10.671,0,0,1,1.49.378A2.706,2.706,0,0,1,6.847-2.76,2.491,2.491,0,0,1,5.691-.642,5.068,5.068,0,0,1,2.7.176,5.172,5.172,0,0,1,.519-.264a3.645,3.645,0,0,1-1.494-1.2A2.707,2.707,0,0,1-1.512-3.05H1.257a1.145,1.145,0,0,0,.439.962,1.808,1.808,0,0,0,1.081.3,1.422,1.422,0,0,0,.91-.246A.787.787,0,0,0,3.99-2.672Zm7.69-9.2V-9.51h1.564v2.057H11.681V-3.1a1.111,1.111,0,0,0,.193.747,1.037,1.037,0,0,0,.765.211,4.345,4.345,0,0,0,.738-.053V-.079a5.466,5.466,0,0,1-1.67.255A3.1,3.1,0,0,1,9.448-.545a2.954,2.954,0,0,1-.729-2.188v-4.72H7.506V-9.51H8.719v-2.364Zm8.481,5.045-.976-.07a1.752,1.752,0,0,0-1.793.879V0H14.432V-9.51h2.777l.1,1.222a2.294,2.294,0,0,1,2.083-1.4,2.888,2.888,0,0,1,.826.105ZM26.323,0a3.344,3.344,0,0,1-.281-.853A2.754,2.754,0,0,1,23.757.176a3.374,3.374,0,0,1-2.285-.813,2.588,2.588,0,0,1-.94-2.043,2.66,2.66,0,0,1,1.143-2.338A5.821,5.821,0,0,1,25-5.81h.914v-.5q0-1.316-1.134-1.316a.927.927,0,0,0-1.055,1.042H20.76a2.655,2.655,0,0,1,1.173-2.239,4.931,4.931,0,0,1,2.993-.86A4.323,4.323,0,0,1,27.8-8.8a3.086,3.086,0,0,1,1.081,2.435v4.21a4.311,4.311,0,0,0,.4,2V0ZM24.469-1.934a1.652,1.652,0,0,0,.918-.237,1.487,1.487,0,0,0,.523-.536V-4.228h-.861q-1.547,0-1.547,1.389a.848.848,0,0,0,.272.655A.986.986,0,0,0,24.469-1.934Zm14.88-2.751a5.735,5.735,0,0,1-1,3.538A3.2,3.2,0,0,1,35.657.176,2.742,2.742,0,0,1,33.5-.782V3.656H30.542V-9.51h2.769l.088.879A2.742,2.742,0,0,1,35.64-9.686a3.224,3.224,0,0,1,2.733,1.3,5.805,5.805,0,0,1,.976,3.564Zm-2.962-.185q0-2.531-1.477-2.531a1.394,1.394,0,0,0-1.406.756V-2.9a1.439,1.439,0,0,0,1.424.791q1.415,0,1.459-2.443Z" transform="translate(955 4770)" fill="#12263f"/>
    <path id="Trazado_873612" data-name="Trazado 873612" d="M-62.774-7328.949H50.466v72.958" transform="translate(904 11700)" fill="none" stroke="#ffac47" stroke-width="3"/>
    <path id="Trazado_873613" data-name="Trazado 873613" d="M160.159-7082.848H201v65.833H50.186v54.722" transform="translate(904 11700)" fill="none" stroke="#ffac47" stroke-width="3"/>
    <path id="Trazado_874368" data-name="Trazado 874368" d="M5.5,0A5.5,5.5,0,1,1,0,5.5,5.5,5.5,0,0,1,5.5,0Z" transform="translate(837 4366)" fill="#ffac47"/>
    <path id="Trazado_874369" data-name="Trazado 874369" d="M5.5,0A5.5,5.5,0,1,1,0,5.5,5.5,5.5,0,0,1,5.5,0Z" transform="translate(1061 4612)" fill="#ffac47"/>
    <g id="Grupo_1099355" data-name="Grupo 1099355" transform="translate(1041.807 4382.291)">
      <g id="Grupo_1099354" data-name="Grupo 1099354" clip-path="url(#clip-path-6)">
        <path id="Trazado_873614" data-name="Trazado 873614" d="M26.875,1.857C32.026.162,37.623.991,41.452,2a6.705,6.705,0,0,0-2.677-2c2.474.128,7.357,3.592,7.357,3.592C82.146-2.551,77.479,47.715,74.473,59.005s14.394,44.019,26.4,59.987C134.549,163.8,80.7,210.45,80.7,210.45c-43.658,36.665-23.819-34.433-23.819-34.433,2.706-9.068-30.092-66.412-49.387-85.494C3.684,81.461,4.6,66.994,4.676,65.857c-1.315,11.351-.667,18,.328,21.868C-10.333,66.6,13.22,6.348,26.875,1.857" transform="translate(138.365 0)" fill="#66192d"/>
        <path id="Trazado_873615" data-name="Trazado 873615" d="M144.353,206.95c0,4.857,2.44,11.078,5.932,17.484,8.684,15.968,23.867,33.088,23.867,33.088l8.8-12.529s-5.348-13.275-8.9-24.219c-2.134-6.58-3.613-12.315-2.891-13.824,1.925-4.024,40.027-49.1,40.027-49.1l10.354-34.875S196.2,124.32,185.4,140.121s-41.05,53.74-41.05,66.829" transform="translate(-68.738 -39.909)" fill="#ff443c"/>
        <path id="Trazado_873616" data-name="Trazado 873616" d="M201.485,271.417c8.684,15.968,23.867,33.088,23.867,33.088l8.8-12.529s-5.348-13.274-8.9-24.218c-4.266,2.526-11.656,4.932-23.768,3.659" transform="translate(-119.938 -86.892)" fill="#fdad9b"/>
        <path id="Trazado_873617" data-name="Trazado 873617" d="M117.207,712.617l-9.118,38.4-13.658-.078-.5-38.327Z" transform="translate(69.659 -231.255)" fill="#fdad9b"/>
        <path id="Trazado_873618" data-name="Trazado 873618" d="M300.069,712.612l-25.945,36.767L264.012,736.4l15.614-28.839Z" transform="translate(-228.091 -229.613)" fill="#fdad9b"/>
        <path id="Trazado_873619" data-name="Trazado 873619" d="M99.493,123.513c-.114.051,10.953,5.8,19.278,3.521,7.83-2.136,12.946-12.288,12.838-12.311-3.317-.659-4.272-5.215-4.2-24.8l-1.5.3L100.7,95.213s.573,7.933.591,15.405c.016,6.275-.364,12.226-1.8,12.895" transform="translate(51.497 -29.183)" fill="#fdad9b"/>
        <path id="Trazado_873620" data-name="Trazado 873620" d="M114.542,18.581s-9.574-15.434-27.358-6.206c0,0,9.216.254,27.358,6.206" transform="translate(76.88 -3.062)" fill="#ffba41"/>
        <path id="Trazado_873621" data-name="Trazado 873621" d="M107.935,95.355s.573,7.933.591,15.405c14.1-.4,21.559-13.264,24.615-20.4Z" transform="translate(44.264 -29.325)" fill="#f18c7e"/>
        <path id="Trazado_873622" data-name="Trazado 873622" d="M116.4,65.545s9.553-9.989,13.266-19.428c2.65-6.739,4.312-33.363-22.473-34.88A36.085,36.085,0,0,0,91.4,13.826C84.981,16.5,75.163,23.1,79.727,47.547l.83,8.115Z" transform="translate(66.195 -3.621)" fill="#66192d"/>
        <path id="Trazado_873623" data-name="Trazado 873623" d="M99.489,598.117s6.7,1.156,12.2,1.575c1.221.092,2.382.147,3.4.147a59.692,59.692,0,0,0,10.624-1.744l.24-.055c1.406-.333,2.48-.605,2.878-.709l.168-.044s33.41-37.192,52.146-96.811q.654-2.085,1.384-4.208c10.259-29.9,31.518-67.434,42.72-101.412q2.675-8.11,4.82-15.323.7-2.313,1.335-4.551c8.258-28.688,10.646-47.523,12.848-67.648l-67.359,17.138s-28.28,122.6-77.4,273.644" transform="translate(-61.138 -99.735)" fill="#ffba41"/>
        <path id="Trazado_873624" data-name="Trazado 873624" d="M95.995,77.821s32.6,7.133,36.736-13.239,11.118-33.174-9.524-38.59-26.276,1.536-29.309,8-6.278,41.446,2.1,43.828" transform="translate(51.793 -7.804)" fill="#fdad9b"/>
        <path id="Trazado_873625" data-name="Trazado 873625" d="M78.762,20.343S82.9,46.055,95.934,52.361s19.738,3.825,19.738,3.825a55.326,55.326,0,0,1-5.689-26.8S87.812,10.326,78.762,20.343" transform="translate(81.439 -5.657)" fill="#66192d"/>
        <path id="Trazado_873626" data-name="Trazado 873626" d="M150.367,22.792s-7.764,3.989-10.442,8.85-5.564,15.394-8.6,14.4c0,0-3.473-17.611,5.964-25.274,10.007-8.125,13.081,2.02,13.081,2.02" transform="translate(11.662 -5.718)" fill="#66192d"/>
        <path id="Trazado_873627" data-name="Trazado 873627" d="M121.528,766.294a37.019,37.019,0,0,0,1.739,15.746s2.237,10.184-7.8,10.374-12.492-.757-11.356-7,3.3-17.048,3.3-17.048Z" transform="translate(56.678 -248.675)" fill="#fdad9b"/>
        <path id="Trazado_873628" data-name="Trazado 873628" d="M122.648,789.479s2.226,10.7,1.09,15.81c0,0-3.4,1.188-10.683,1.188a42.9,42.9,0,0,1-10.971-1.188s.253-11.623,2.1-16.071c0,0,7.11,10.671,18.466.261" transform="translate(57.297 -256.114)" fill="#66192d"/>
        <path id="Trazado_873629" data-name="Trazado 873629" d="M297.041,781.225s18.495-20.528,24.173-30.974l13.752,7.045-30.742,28.87-7.192-.946Z" transform="translate(-285.293 -243.468)" fill="#fdad9b"/>
        <path id="Trazado_873630" data-name="Trazado 873630" d="M291.871,796.641s19.874,0,23.281-.38,6.15-5.3,9.84-12.68c1.51-3.019,4.9-4.684,8.375-5.6l-.066,18.046h5.467l4.819-19.12c3.276-6.019.262-11.475-2.044-16.228-2.68-.006-9.892,1.828-23.553,17.222-4.491,5.053-9.449,6.859-14.372,6.706a1.192,1.192,0,0,1-.2.107c-11.357,5.111-11.544,11.924-11.544,11.924" transform="translate(-291.871 -246.853)" fill="#66192d"/>
        <path id="Trazado_873631" data-name="Trazado 873631" d="M118.509,627.848c1.221.093,2.382.147,3.4.147a59.686,59.686,0,0,0,10.624-1.744l.24-.055,2.878-.708.168-.044s33.41-37.192,52.146-96.811q.654-2.084,1.384-4.208c10.259-29.905,31.518-67.435,42.72-101.412q2.675-8.11,4.82-15.323.7-2.314,1.335-4.551L226.31,394.1s-35.77,57.918-46.841,112.423c-9.18,45.179-48.695,103.75-60.96,121.33" transform="translate(-67.958 -127.89)" fill="#ff8548"/>
        <path id="Trazado_873632" data-name="Trazado 873632" d="M54.213,504.213c-.2,26.5,1.139,87.441,4.589,112.674,0,0,3.274,2.9,11.393,2.93,8.313.035,12.03-3.034,12.03-3.034,8.662-43.865,14.821-80.158,19.308-111.437,3.68-25.663,6.95-47.669,9.463-66.612,2.23-16.784,3.865-31.17,4.65-43.57q.155-2.526.273-4.939c.1-2.126.174-4.191.212-6.192q.057-3.025.032-5.882l-.289-.027-16.734-1.63-52.876-5.157c.883,46.443,8.062,117.471,7.948,132.875" transform="translate(102.891 -120.505)" fill="#ffba41"/>
        <path id="Trazado_873633" data-name="Trazado 873633" d="M46.259,617.057a20.661,20.661,0,0,0,12.03-3.034c8.662-43.865,14.821-80.158,19.308-111.437,3.68-25.664,6.95-47.669,9.463-66.612,2.23-16.784,3.865-31.17,4.65-43.571.093-6.11.158-11.965.228-17.04.077-5.146.159-9.5.3-12.532L75.2,373.735,57.281,385.2s25.425,23.129,19.178,66.852-21.505,158.814-30.2,165.007" transform="translate(126.827 -117.745)" fill="#ff8548"/>
        <path id="Trazado_873634" data-name="Trazado 873634" d="M45.523,302.609c20.284,5.271,114.936,15.678,115.754-8.029.2-5.784,0-12.766-.458-20.327-1.412-23.418-5.255-52.357-7.1-68.28-.845-7.3,1.962-39.989-.191-57.8a40.427,40.427,0,0,0-1.308-6.809c-4.089-13.441-22.459-17.088-31.889-17.409L91.88,122.98S62.493,155.806,58.4,165.891s-5.424,44.606-8.6,61.325-14.146,72.832-4.28,75.393" transform="translate(60.929 -39.909)" fill="#ff443c"/>
        <path id="Trazado_873635" data-name="Trazado 873635" d="M43.4,234.591s15.819,48.585,59.4,51.763c-1.412-23.418-5.255-52.357-7.1-68.28-.844-7.3,1.963-39.989-.19-57.8-.567.12-1.081.436-1.673.551-47.984,9.267-54.794,63.641-50.434,73.77" transform="translate(118.951 -52.01)" fill="#f22525"/>
        <rect id="Rectángulo_401213" data-name="Rectángulo 401213" width="77.35" height="50.82" transform="matrix(-0.106, -0.994, 0.994, -0.106, 131.939, 210.465)" fill="#552748"/>
        <path id="Trazado_873636" data-name="Trazado 873636" d="M96.485,189.618l3.242-.257,7.616,76.853-2.667.319Z" transform="translate(77.796 -61.451)" fill="#66192d"/>
        <path id="Trazado_873637" data-name="Trazado 873637" d="M120.637,240.152S84.982,251.05,50.9,255.921c0,0-11.245,4.863-5.965,6.194,1.352.342,69.593,15.221,79.712,5.567Z" transform="translate(96.259 -77.933)" fill="#fdad9b"/>
        <path id="Trazado_873638" data-name="Trazado 873638" d="M40.7,124.417s18.745.1,26.752,9.235c14.613,16.67,17.507,87.57,12.9,96.472-1.983,3.829-17.2,4.139-23.611-14.4C53.411,206.106,38.876,141.9,40.7,124.417" transform="translate(140.559 -40.375)" fill="#ff443c"/>
        <path id="Trazado_873639" data-name="Trazado 873639" d="M170.937,258.793s-4.191-.391-4.986-1.729c-1.59-2.677-4.1-2.644-6.2-3s-4.449-2.648-4.866-2.187,1.546,2.99,2.64,3.933a9.146,9.146,0,0,1-3.736-.572c-1.489-.709-6.023-6.57-6.737-4.1-1.88,6.486.072,12.719,5.276,13.225,5.612.546,19.541,3.234,19.541,3.234Z" transform="translate(-20.414 -81.303)" fill="#fdad9b"/>
      </g>
    </g>
  </g>
</svg>
