<svg xmlns="http://www.w3.org/2000/svg" xmlns:xlink="http://www.w3.org/1999/xlink" width="116" height="116" viewBox="0 0 116 116">
  <defs>
    <clipPath id="clip-path">
      <rect id="Rect치ngulo_378477" data-name="Rect치ngulo 378477" width="90" height="89.999" fill="none"/>
    </clipPath>
    <clipPath id="clip-path-2">
      <rect id="Rect치ngulo_401441" data-name="Rect치ngulo 401441" width="47.36" height="49.836" fill="#12263f"/>
    </clipPath>
  </defs>
  <g id="Grupo_1099955" data-name="Grupo 1099955" transform="translate(-744 -7238)">
    <circle id="Elipse_11490" data-name="Elipse 11490" cx="58" cy="58" r="58" transform="translate(744 7238)" fill="#851717"/>
    <g id="Grupo_1099438" data-name="Grupo 1099438" transform="translate(420 1549)">
      <g id="Grupo_1074114" data-name="Grupo 1074114" transform="translate(257 -26)">
        <g id="Grupo_1074112" data-name="Grupo 1074112" transform="translate(80 5728)">
          <g id="Grupo_1074103" data-name="Grupo 1074103" clip-path="url(#clip-path)">
            <path id="Trazado_611090" data-name="Trazado 611090" d="M45,0c2.318.367,4.306,2.287,6.625,2.654S56.587,1.835,58.9,2.2C61,3.267,62.293,5.709,64.385,6.773s4.974.756,7.065,1.82c1.66,1.66,2.139,4.382,3.8,6.041s4.5,2.255,6.157,3.916c1.066,2.09.681,4.828,1.746,6.918S86.733,29,87.8,31.093c.368,2.318-.844,4.8-.477,7.12S89.632,42.682,90,45c-.367,2.318-2.286,4.306-2.654,6.625s.819,4.964.452,7.282c-1.064,2.09-3.506,3.388-4.571,5.479s-.755,4.974-1.821,7.065c-1.659,1.659-4.382,2.14-6.041,3.8s-2.255,4.5-3.915,6.158c-2.09,1.065-4.828.68-6.918,1.745S61,86.732,58.907,87.8c-2.319.368-4.8-.844-7.121-.477S47.317,89.632,45,90c-2.317-.367-4.305-2.287-6.624-2.654s-4.964.819-7.282.452C29,86.732,27.7,84.29,25.615,83.226s-4.975-.755-7.066-1.82c-1.66-1.66-2.14-4.382-3.8-6.041s-4.5-2.256-6.158-3.915c-1.066-2.091-.679-4.829-1.744-6.919S3.267,61,2.2,58.906c-.368-2.318.844-4.8.477-7.121S.368,47.317,0,45c.368-2.317,2.286-4.306,2.654-6.624s-.818-4.964-.451-7.282C3.267,29,5.709,27.7,6.774,25.614s.754-4.974,1.819-7.065c1.66-1.66,4.382-2.14,6.041-3.8s2.255-4.5,3.915-6.158c2.091-1.065,4.829-.68,6.92-1.745S29,3.267,31.093,2.2c2.318-.368,4.8.844,7.12.477S42.682.367,45,0" transform="translate(0 0)" fill="#ffac47" fill-rule="evenodd"/>
            <path id="Trazado_611091" data-name="Trazado 611091" d="M46.344,88.074A41.73,41.73,0,1,0,4.614,46.344a41.811,41.811,0,0,0,41.73,41.731" transform="translate(-1.345 -1.345)" fill="#fef0d7" fill-rule="evenodd"/>
          </g>
        </g>
      </g>
    </g>
    <g id="Grupo_1099634" data-name="Grupo 1099634" transform="translate(778.32 7271.082)">
      <g id="Grupo_1099633" data-name="Grupo 1099633" clip-path="url(#clip-path-2)">
        <path id="Trazado_874204" data-name="Trazado 874204" d="M56.455,9.617c0-.24-.02-.482,0-.72a1.9,1.9,0,0,0-1.176-2.29,3.334,3.334,0,0,1-1.464-4.089,3.613,3.613,0,0,1,6.988.406,3.517,3.517,0,0,1-1.994,3.961,1.081,1.081,0,0,0-.765,1.236c.049,1.171.02,2.346.011,3.519,0,.349.011.585.479.633A9.985,9.985,0,0,1,63.793,14.4c.409.323.645.291.99-.074.823-.872,1.675-1.719,2.543-2.546a.862.862,0,0,0,.256-1.145,3.593,3.593,0,0,1,2.062-4.726,3.623,3.623,0,0,1,2.662,6.739,3.323,3.323,0,0,1-2.789-.032.709.709,0,0,0-.963.189c-.863.909-1.746,1.8-2.659,2.657-.377.354-.355.577-.056.979A10.789,10.789,0,1,1,46.682,25.1a10.628,10.628,0,0,1,2.009-8.67c.269-.359.344-.573-.027-.921-.933-.876-1.837-1.784-2.715-2.714a.726.726,0,0,0-.968-.163,3.561,3.561,0,0,1-4.424-1.345,3.623,3.623,0,0,1,.427-4.494,3.665,3.665,0,0,1,4.549-.543,3.558,3.558,0,0,1,1.421,4.337.918.918,0,0,0,.254,1.217c.874.821,1.717,1.676,2.546,2.543.312.326.53.4.925.091A10.18,10.18,0,0,1,56,12.267c.339-.035.464-.154.457-.491-.016-.72,0-1.44,0-2.16M49.839,28.28c.054-.059.128-.108.156-.176a7.728,7.728,0,0,1,3.944-4.21c.542-.256.208-.449.02-.684a4.133,4.133,0,0,1-.674-4.485,4.318,4.318,0,0,1,7.819-.261,4.013,4.013,0,0,1-.486,4.629c-.389.484-.386.638.195.923a7.493,7.493,0,0,1,3.351,3.316c.167.315.207.712.532.944,2.746-3.315,2.178-8.954-1.2-12.047a9.215,9.215,0,0,0-12.665.187,9.06,9.06,0,0,0-.99,11.863m7.4,3.876a9.355,9.355,0,0,0,5.576-1.846.905.905,0,0,0,.367-1.15,6.193,6.193,0,0,0-11.866.048.86.86,0,0,0,.357,1.08,9.223,9.223,0,0,0,5.566,1.867m-.018-14.45a2.721,2.721,0,0,0-2.693,2.7,2.726,2.726,0,1,0,5.452.014,2.722,2.722,0,0,0-2.759-2.718M43.575,11.315A2,2,0,1,0,43.6,7.308a2,2,0,0,0-.027,4.007m27.343,0a2,2,0,1,0-1.993-2.059,2.015,2.015,0,0,0,1.993,2.059M59.266,3.642a2.007,2.007,0,1,0-4.014,0,2.007,2.007,0,0,0,4.014,0" transform="translate(-33.573 0)" fill="#12263f"/>
        <path id="Trazado_874205" data-name="Trazado 874205" d="M6.8,100.771a2.977,2.977,0,0,1,3.468-.834,2.374,2.374,0,0,1,.914.632,36.469,36.469,0,0,0,5.09,4.722,5.946,5.946,0,0,1,2.111,4.875c.038,1.838.022,3.678,0,5.516-.006.5.052.756.67.757a1.9,1.9,0,0,1,2.056,2.041q.035,1,.009,2a1.878,1.878,0,0,1-1.9,1.952q-5.875.089-11.751.121a1.891,1.891,0,0,1-2.032-2.061c-.008-.666-.012-1.333,0-2a1.907,1.907,0,0,1,1.941-1.99c.313-.019.779.217.911-.208a1.273,1.273,0,0,0-.376-1.366c-1.965-1.916-3.867-3.9-5.844-5.8a6.331,6.331,0,0,1-2.062-5.065c.179-4.766.269-9.535.422-14.3a3.081,3.081,0,0,1,2.614-3.151A2.991,2.991,0,0,1,6.288,88.76a6.146,6.146,0,0,1,.468,2.332q0,4.517,0,9.034c0,.154.023.308.05.646M5.141,95.62h.01c0-1.413-.007-2.826,0-4.239a5.432,5.432,0,0,0-.325-1.958c-.323-.868-.925-1.324-1.571-1.208A1.492,1.492,0,0,0,2.041,89.84c-.143,4.823-.265,9.646-.422,14.468a4.461,4.461,0,0,0,1.421,3.5c2.016,1.979,3.986,4,6.011,5.974a2.218,2.218,0,0,1,.891,2.078c-.084.47.1.653.611.642,1.865-.041,3.732-.052,5.6-.045.482,0,.646-.15.64-.642-.023-1.893,0-3.786-.01-5.678a4.577,4.577,0,0,0-1.836-3.877,34.466,34.466,0,0,1-4.1-3.679c-.293-.309-.558-.649-.874-.933a1.177,1.177,0,0,0-1.658-.036,1.145,1.145,0,0,0-.1,1.595,5.113,5.113,0,0,0,.683.78q1.3,1.3,2.607,2.593c.4.391.539.83.121,1.257a.777.777,0,0,1-1.2-.069,49.744,49.744,0,0,1-3.989-4.144,5.648,5.648,0,0,1-1.288-3.69c.018-1.439,0-2.879,0-4.319m8.146,25.323v-.105c1.463,0,2.927,0,4.39,0,1.855-.007,1.814-.011,1.848-1.853.015-.806-.281-.968-1.02-.954-3.166.059-6.332.063-9.5.083-1.994.012-1.966.009-1.979,2.039,0,.655.222.813.832.8,1.809-.032,3.618-.012,5.427-.012" transform="translate(0 -72.718)" fill="#12263f"/>
        <path id="Trazado_874206" data-name="Trazado 874206" d="M178.4,100.782c0-1.55,0-2.9,0-4.258,0-1.893-.01-3.787.018-5.68a5.446,5.446,0,0,1,.771-2.737,2.813,2.813,0,0,1,3.1-1.443,3,3,0,0,1,2.409,2.82c.16,5.037.3,10.074.441,15.112a5.628,5.628,0,0,1-1.811,4.285q-3.033,3.019-6.058,6.046c-.2.2-.432.369-.456.714-.04.58.006.925.77.9,1.424-.044,2.135.735,2.137,2.172,0,.587,0,1.173-.007,1.76a1.916,1.916,0,0,1-2.091,2.09c-2.32-.008-4.639-.059-6.959-.084-1.52-.017-3.04-.011-4.56-.032a1.921,1.921,0,0,1-2.071-2.106c-.005-.613-.008-1.227.011-1.84a1.9,1.9,0,0,1,2.044-2.054c.6,0,.677-.225.685-.745a61.33,61.33,0,0,1,.129-6.871,4.9,4.9,0,0,1,1.625-3.2,64.277,64.277,0,0,0,5.513-5.1,2.754,2.754,0,0,1,3.836-.159c.121.1.244.19.521.407m5.132-3.432h-.209c-.075-2.558-.165-5.115-.215-7.673a1.393,1.393,0,0,0-1.155-1.425c-.7-.183-1.152.249-1.462.841a4.84,4.84,0,0,0-.486,2.318c.007,2.879.006,5.758.014,8.638a5.075,5.075,0,0,1-.726,2.744,28.524,28.524,0,0,1-4.7,5.1.715.715,0,0,1-1.077-.047.765.765,0,0,1-.015-1.085,5.873,5.873,0,0,1,.448-.456c.973-.986,1.971-1.949,2.908-2.968a1.156,1.156,0,0,0-.014-1.717,1.171,1.171,0,0,0-1.716.112,61.722,61.722,0,0,1-5.572,5.153,3.064,3.064,0,0,0-1.028,1.934,67.861,67.861,0,0,0-.152,7.187c-.015.508.327.456.645.459,1.839.016,3.679.006,5.518.057.6.017.76-.226.674-.744A2.026,2.026,0,0,1,176,113.9c2.08-2.028,4.114-4.1,6.18-6.145a4.413,4.413,0,0,0,1.363-3.37c-.035-2.345-.01-4.69-.01-7.035m-11.594,20.779v-.063c-1.463,0-2.927.007-4.39,0-1.92-.012-1.891-.017-1.92,1.942-.01.68.221.85.869.85,3.193,0,6.385.039,9.578.078,2.069.025,2.04.036,2.057-2.025.005-.672-.251-.8-.845-.791-1.782.029-3.565.011-5.348.011" transform="translate(-137.786 -72.729)" fill="#12263f"/>
        <path id="Trazado_874207" data-name="Trazado 874207" d="M109.022,287.769c-.08.51-.365.856-.89.833a.862.862,0,0,1,.046-1.723c.52.011.8.365.844.889" transform="translate(-90.127 -240.977)" fill="#12263f"/>
        <path id="Trazado_874208" data-name="Trazado 874208" d="M179.808,287.69c-.077.538-.341.9-.865.911a.862.862,0,0,1-.035-1.724c.527-.02.792.35.9.813" transform="translate(-149.581 -240.975)" fill="#12263f"/>
      </g>
    </g>
  </g>
</svg>
