<svg xmlns="http://www.w3.org/2000/svg" xmlns:xlink="http://www.w3.org/1999/xlink" width="1030" height="492" viewBox="0 0 1030 492">
  <defs>
    <linearGradient id="linear-gradient" x1="0.5" x2="0.5" y2="1" gradientUnits="objectBoundingBox">
      <stop offset="0" stop-color="#d2edec"/>
      <stop offset="1" stop-color="#fcfcfc"/>
    </linearGradient>
    <clipPath id="clip-path">
      <rect id="Rectángulo_401413" data-name="Rectángulo 401413" width="483.782" height="455.708" fill="none"/>
    </clipPath>
  </defs>
  <g id="Grupo_1099618" data-name="Grupo 1099618" transform="translate(-285 -4099)">
    <path id="Trazado_874158" data-name="Trazado 874158" d="M16,0h998c8.837,0,16,7.629,16,17.039V474.961c0,9.41-7.163,17.039-16,17.039H16c-8.837,0-16-7.629-16-17.039V17.039C0,7.629,7.163,0,16,0Z" transform="translate(285 4099)" fill="url(#linear-gradient)"/>
    <g id="Grupo_1099608" data-name="Grupo 1099608" transform="translate(810 4116.487)">
      <g id="Grupo_1099607" data-name="Grupo 1099607" transform="translate(0 0)" clip-path="url(#clip-path)">
        <path id="Trazado_873952" data-name="Trazado 873952" d="M545.66,586.215s56.957-191.23,15.969-233.813c-27.4-28.462-56.436,34.281-91.1,1.089C439.676,323.941,482.7,249.5,431.21,230.025c-54.117-20.469-98.452,145.3-143.86,122.378-55.1-27.812-109.909,28.647-62.543,234.178Z" transform="translate(-147.257 -168.022)" fill="#b0dfde"/>
        <path id="Trazado_873953" data-name="Trazado 873953" d="M492.434,404.662c.956-3.8,1.9-7.74,2.812-11.707L493,392.09c-.9,3.941-1.843,7.854-2.793,11.63ZM91.422,399.753l2.321-.372c-.385-4.046-.751-8.122-1.088-12.112l-2.325.33c.338,4,.705,8.094,1.092,12.154m406.405-18.589c.818-3.92,1.612-7.913,2.359-11.868l-2.271-.722c-.743,3.932-1.532,7.9-2.345,11.8ZM89.373,375.425l2.328-.285c-.3-4.063-.57-8.149-.814-12.146l-2.331.24c.245,4.012.52,8.114.817,12.192m412.95-18.068c.675-3.994,1.318-8.032,1.91-12l-2.3-.576c-.588,3.946-1.227,7.96-1.9,11.929ZM87.884,351.025l2.334-.192c-.2-4.06-.372-8.155-.516-12.172l-2.336.141c.145,4.033.319,8.145.518,12.222M505.91,333.29c.52-4.043,1-8.12,1.431-12.117l-2.316-.419c-.427,3.971-.905,8.021-1.422,12.037Zm-418.9-6.72,2.338-.088c-.091-4.078-.154-8.177-.187-12.185l-2.338.032c.033,4.026.1,8.144.188,12.241m421.5-17.563c.349-4.084.652-8.191.9-12.207l-2.331-.244c-.248,3.987-.549,8.063-.9,12.117Zm-419.364-6.9c.028-4.081.087-8.179.178-12.181l-2.338-.089c-.091,4.023-.151,8.142-.178,12.243Zm420.879-17.55c.155-4.107.258-8.231.306-12.258L508,272.257c-.047,3.992-.149,8.082-.3,12.156ZM89.7,277.76c.16-4.076.358-8.165.586-12.154l-2.332-.225c-.23,4.013-.429,8.126-.59,12.224ZM507.975,260.1l2.338-.062c-.065-4.118-.191-8.244-.373-12.261l-2.335.178c.181,3.979.305,8.065.37,12.145M91.1,253.476c.312-4.075.666-8.145,1.051-12.1L89.833,241c-.388,3.978-.744,8.075-1.058,12.177Zm415.762-17.637,2.327-.3c-.318-4.1-.705-8.2-1.151-12.189l-2.314.436c.441,3.941.824,8,1.139,12.056m-413.4-6.51c.486-4.049,1.021-8.083,1.588-11.989l-2.3-.561c-.572,3.937-1.11,8-1.6,12.083Zm276.58-.428c3.25-.665,5.6-2.584,8.856-5.9l-1.478-2.351c-2.852,2.9-4.912,4.633-7.627,5.232Zm-8.113-7.219,2.082-1.38a58.425,58.425,0,0,1-2.813-11.218l-2.285.648a61.02,61.02,0,0,0,3.015,11.95m23.833-7.381c1.863-2.692,3.854-5.789,6.086-9.47l-1.838-1.876c-2.2,3.629-4.16,6.677-5.989,9.32Zm118.4-2.488,2.3-.578c-.606-4.05-1.291-8.088-2.037-12l-2.27.728c.737,3.865,1.414,7.852,2.012,11.852M96.94,205.429c.693-4.007,1.439-7.98,2.22-11.808l-2.261-.776c-.788,3.865-1.542,7.876-2.241,11.92Zm260.4-7.908,2.319-.387c-.359-3.621-.681-7.587-.984-12.124l-2.33.262c.306,4.579.631,8.586.995,12.25m40.236-2.466c1.9-3.331,3.873-6.852,5.572-9.89l-1.893-1.782c-1.7,3.033-3.663,6.546-5.558,9.866Zm-171.214-.25a8.352,8.352,0,0,0,5.311-2.1l-1.247-2.567c-2.558,2.1-5.074,2.1-7.792.429l-1.006,2.739a9.021,9.021,0,0,0,4.734,1.5m273.3-6.537,2.236-.887c-.929-3.942-1.949-7.863-3.03-11.653l-2.193,1.053c1.066,3.736,2.071,7.6,2.987,11.488m-285.682-2.892,1.718-2.058a102.2,102.2,0,0,1-5.811-9.4l-1.895,1.779a105.12,105.12,0,0,0,5.987,9.675m24.342-2.086a104.936,104.936,0,0,0,4.585-10.905l-2.114-1.3a101.661,101.661,0,0,1-4.434,10.553Zm-136.579-1.343c.942-3.931,1.947-7.8,2.988-11.5l-2.2-1.04c-1.053,3.747-2.071,7.663-3.024,11.641Zm306.946-6.673c2.139-3.794,3.923-6.908,5.612-9.8l-1.864-1.831c-1.7,2.907-3.487,6.034-5.635,9.841Zm-53.048-2.255,2.334-.2c-.177-3.555-.358-7.55-.551-12.215l-2.335.163c.194,4.675.375,8.681.553,12.247m137.528-7.469,2.139-1.225q-1.926-5.658-4.106-11.1l-2.074,1.4q2.146,5.346,4.04,10.921m-290.534,0,1.954-1.667c-1.662-3.278-3.379-6.751-5.116-10.26l-1.967,1.64c1.742,3.518,3.46,6.994,5.129,10.286m44.036-4.487c1.059-3.447,2.154-7.208,3.346-11.5l-2.2-1.03c-1.184,4.258-2.269,7.988-3.319,11.4Zm-138.5-1.892c1.257-3.8,2.587-7.491,3.953-10.97l-2.084-1.377c-1.389,3.538-2.74,7.29-4.018,11.15Zm311.9-3.311c2.122-3.417,4.1-6.459,6.039-9.3l-1.75-2.013c-1.966,2.876-3.965,5.953-6.11,9.408ZM354.6,148.532l2.336-.153c-.158-4.054-.314-8.109-.481-12.236l-2.336.159c.167,4.125.324,8.178.481,12.23m-162.223-3.517,1.951-1.673c-1.954-3.836-3.7-7.154-5.343-10.144l-1.9,1.76c1.625,2.961,3.358,6.25,5.3,10.057m292.113-.856,1.971-1.633a96.97,96.97,0,0,0-5.632-10.024l-1.787,1.958a93.873,93.873,0,0,1,5.447,9.7m-231.352-6.172c1.073-4.078,2.125-8.158,3.013-11.611l-2.218-.96c-.887,3.448-1.937,7.522-3.008,11.59Zm179.4-.212a91.643,91.643,0,0,1,6.985-7.928l-1.426-2.4a94.319,94.319,0,0,0-7.19,8.158Zm-315.879-.13c1.676-3.548,3.433-6.9,5.222-9.973l-1.865-1.83c-1.835,3.148-3.636,6.586-5.351,10.218Zm355.821-11.439,1.418-2.412a26.308,26.308,0,0,0-8.639-5.924l-.684,2.9a24.111,24.111,0,0,1,7.9,5.435m-291.043-.928,1.817-1.91c-2.193-3.511-4.271-6.532-6.353-9.236l-1.654,2.144c2.024,2.629,4.049,5.573,6.191,9M353.6,124.084l2.334-.181c-.2-4.41-.4-8.415-.614-12.244l-2.333.216c.21,3.817.411,7.81.613,12.208m93.663-.635a23.525,23.525,0,0,1,8.531-3.574l-.318-3.006a25.489,25.489,0,0,0-9.255,3.864Zm-319.358-4.9a62.6,62.6,0,0,1,6.929-7.851l-1.377-2.453a65.265,65.265,0,0,0-7.225,8.184Zm131.233-3.779c1.163-4.514,2.122-8.195,3.017-11.584l-2.212-.984c-.9,3.4-1.858,7.084-3.023,11.606Zm-90.884-6.235,1.341-2.486a31.031,31.031,0,0,0-8.634-5.746l-.722,2.886a28.873,28.873,0,0,1,8.016,5.347m-25.517-3.717a24.3,24.3,0,0,1,8.714-2.916l-.217-3.021a26.209,26.209,0,0,0-9.405,3.141Zm209.5-5.118,2.329-.268c-.291-4.257-.608-8.368-.942-12.22l-2.324.339c.332,3.828.647,7.916.937,12.149m-86.972-8.054c1.13-4.092,2.195-7.833,3.256-11.436l-2.185-1.082c-1.067,3.623-2.137,7.383-3.273,11.495Zm84.844-16.193,2.314-.434c-.473-4.248-.993-8.333-1.545-12.142l-2.3.561c.546,3.767,1.061,7.81,1.529,12.016M272,68.877c1.257-3.921,2.523-7.673,3.765-11.152l-2.122-1.275c-1.254,3.514-2.534,7.3-3.8,11.262ZM346.6,51.56l2.269-.735c-.816-4.237-1.715-8.228-2.673-11.862l-2.213.982c.936,3.553,1.817,7.461,2.616,11.615m-66.681-4.723c1.538-3.758,3.109-7.287,4.67-10.487l-1.976-1.622c-1.592,3.265-3.193,6.86-4.76,10.686Zm60.553-18.008,2.1-1.343A65.322,65.322,0,0,0,337.5,16.877l-1.837,1.877a62.075,62.075,0,0,1,4.8,10.074m-50.523-2.319a70.345,70.345,0,0,1,6.269-8.75l-1.569-2.25a73.207,73.207,0,0,0-6.528,9.108Zm39.2-15.619L330.4,8.335a20.4,20.4,0,0,0-9.072-4.446l-.356,3a18.365,18.365,0,0,1,8.167,4m-25.55,0a24.317,24.317,0,0,1,8.434-3.872l-.41-2.987a26.33,26.33,0,0,0-9.134,4.188Z" transform="translate(-49.466 -2.864)" fill="#dce6ff"/>
        <path id="Trazado_873954" data-name="Trazado 873954" d="M27.135,942.606c19.407-3.732,16.24,29.985,43.9,29.985,25.292,0,33.383-128.4,51.785-91.7,94.339,188.168,39.558-80.022,114.585-83.43,33.925-1.541,56.531,45.391,64.867,128.487,12.084,75.121,40.108-57.3,68.948-44.984,18.329,7.825,16.23,91.624,41.522,91.624,27.663,0,24.5-33.717,43.9-29.985,20.894,4.018,27.135,63.7,27.135,63.7H0s6.241-59.678,27.135-63.7" transform="translate(0 -586.958)" fill="#d2edec"/>
        <path id="Trazado_873955" data-name="Trazado 873955" d="M98.3,1241.06c17.854-1.594,14.94,12.8,40.389,12.8,23.268,0,22.629-32.267,38.2-39.125,28.674-12.629,52.313,51.287,63.43,19.209,21.114-85.116,82.694-127.8,111.1,0,11.117,32.078,37.114-25.16,63.43-19.209,16.2,3.663,14.931,39.125,38.2,39.125,25.449,0,22.536-14.4,40.389-12.8,19.222,1.716,24.964,27.2,24.964,27.2H73.339s5.741-25.483,24.963-27.2" transform="translate(-53.982 -848.914)" fill="#b0dfde"/>
        <path id="Trazado_873956" data-name="Trazado 873956" d="M483.422,1588.8s3.394,8.438-10.667,10.551c-19.233,2.89-132.128,10.482-104.7,16.251,15.482,3.257-7.9,7.679-83.313,9.308s-204.8-4.752-161.291-14.193S-10.324,1608.442.475,1588.8Z" transform="translate(0 -1169.461)" fill="#8ad0ce"/>
        <path id="Trazado_873957" data-name="Trazado 873957" d="M543.389,665.532c2.581,7.695,15.744,12.953,21.357,14.88,3.362,38.582,17.64,68.3,42.9,76.3a96.713,96.713,0,0,0,26.113,4.225l-4.093,32.975-3.442,27.718h126.7l-6.328-111.7A150.561,150.561,0,0,0,778.663,648.8c11.109-42.063,2.056-79.117-16.384-105.8v0c-.467-.674-8.31-2.353-19.988-4.077-16.2-2.386-39.795-4.86-61.336-4.86-36.177,0-81.286,7.156-82.652,8.94-14.171,18.484-24.244,41.928-29.346,68.549q-.672,3.518-1.253,7.018c-4.154,6.831-16.959,27.99-23.482,39.729a8.661,8.661,0,0,0-.833,7.233" transform="translate(-443.03 -393.105)" fill="#ffac47"/>
        <path id="Trazado_873958" data-name="Trazado 873958" d="M865.451,1359.892s46.4-19.463,68.723-55.9c-.487.352-31.823,22.9-64.629,22.921Z" transform="translate(-678.817 -959.824)" fill="#ef9029"/>
        <path id="Trazado_873959" data-name="Trazado 873959" d="M1343.466,1028.269c2.581,7.695,15.744,12.953,21.357,14.881,7.15.456,7.475-4.286,7.475-4.286-16.26-1.864-28.73-10.991-28.73-10.991Z" transform="translate(-1243.107 -756.58)" fill="#ef9029"/>
        <path id="Trazado_873960" data-name="Trazado 873960" d="M542.944,832.338l.11.049h61.575l-6.328-111.7a150.559,150.559,0,0,0,32.073-61.124c11.109-42.063,2.056-79.117-16.384-105.8v0c-.467-.674-8.31-2.353-19.988-4.077L547.153,569.92s9.91,30.113,10.641,64.055c0,0,13.982-19.416,30.051-4.6,13.762,12.686,8.28,64.321-30.051,62.423,0,0,12.491,14.592,13.982,41.147s-13.671,74.534-28.832,99.4" transform="translate(-294.741 -404.602)" fill="#ef9029"/>
        <path id="Trazado_873961" data-name="Trazado 873961" d="M623.4,534.167c-1.061,9.017,36.707,16.44,81.989,16.44s81.988-7.361,81.988-16.44v0c-2.35-5.44-44.918-11.1-81.988-11.1-36.178,0-81.309,5.332-81.989,11.107" transform="translate(-468.127 -385.006)" fill="#d86d03"/>
        <path id="Trazado_873962" data-name="Trazado 873962" d="M1106.479,876.972c2.153-.17,20.12-.346,18.228-5.848a2.748,2.748,0,0,0-3.408-1.871c-29.3,8.419-35.835-8.537-41.234-4.74-2.748,3.7,2.853,6.565,11.4,10.052a46.193,46.193,0,0,0,15.011,2.407" transform="translate(-925.948 -635.922)" fill="#ef9029"/>
        <path id="Trazado_873963" data-name="Trazado 873963" d="M795.825,41.9V28.236h7.847a27.645,27.645,0,0,1,2.772-6.884l-5.607-5.607L810.5,6.081l5.4,5.4a27.693,27.693,0,0,1,7.935-3.4V0H837.5V8.076a27.671,27.671,0,0,1,7.414,3.081l5.077-5.076,9.664,9.664-5.076,5.077a27.688,27.688,0,0,1,3.081,7.415h7.846V41.9h-7.846a27.7,27.7,0,0,1-3.4,7.935l5.4,5.4L849.99,64.9l-5.607-5.607a27.665,27.665,0,0,1-6.884,2.772v8.07H823.832v-8.07a27.689,27.689,0,0,1-7.414-3.081L810.5,64.9l-9.664-9.664,5.917-5.916a27.672,27.672,0,0,1-3.081-7.415ZM829.85,47.53c16.321.97,17.892-23.763,1.631-24.92-16.32-.97-17.892,23.763-1.631,24.92" transform="translate(-591.772 -0.005)" fill="#8ad0ce"/>
        <path id="Trazado_873964" data-name="Trazado 873964" d="M595.7,275.8v-6.057h5.353a35.291,35.291,0,0,1,3.221-12.045l-4.631-2.673,3.029-5.246,4.635,2.676a35.713,35.713,0,0,1,8.816-8.816l-2.676-4.635,5.246-3.029,2.673,4.631a35.292,35.292,0,0,1,12.045-3.221v-5.353h6.057v5.353a35.292,35.292,0,0,1,12.045,3.221l2.673-4.631,5.246,3.029-2.676,4.635a35.712,35.712,0,0,1,8.816,8.816l4.635-2.676,3.029,5.246L668.6,257.7a35.29,35.29,0,0,1,3.221,12.045h5.353V275.8h-5.353A35.29,35.29,0,0,1,668.6,287.85l4.631,2.673-3.029,5.246-4.635-2.676a35.713,35.713,0,0,1-8.816,8.816l2.676,4.635-5.246,3.029-2.673-4.631a35.291,35.291,0,0,1-12.045,3.221v5.353h-6.057v-5.353a35.291,35.291,0,0,1-12.045-3.221l-2.673,4.631-5.246-3.029,2.676-4.635a35.714,35.714,0,0,1-8.816-8.816l-4.635,2.676-3.029-5.246,4.631-2.673a35.292,35.292,0,0,1-3.221-12.045Zm40.74,20.061c30.351-.518,30.346-45.665,0-46.179-30.35.518-30.345,45.665,0,46.179" transform="translate(-350.62 -170.794)" fill="#23659b"/>
        <path id="Trazado_873965" data-name="Trazado 873965" d="M916.207,285.671l1.148-13.494,10.336.88a37.9,37.9,0,0,1,2.155-6l-8.5-5.923,7.742-11.112,8.513,5.931a38.375,38.375,0,0,1,4.868-4.1l-4.407-9.392,12.261-5.753,4.4,9.38a37.9,37.9,0,0,1,6.274-1.11l.879-10.336,13.495,1.148-.879,10.336a37.923,37.923,0,0,1,6,2.155l5.923-8.5,11.112,7.742-5.931,8.513a38.463,38.463,0,0,1,4.1,4.868l9.392-4.407,5.753,12.261-9.38,4.4a37.9,37.9,0,0,1,1.11,6.274l10.335.88-1.148,13.494-10.336-.88a37.889,37.889,0,0,1-2.155,6l8.5,5.923-7.742,11.112-8.512-5.931a38.439,38.439,0,0,1-4.868,4.1l4.407,9.393-12.261,5.753-4.4-9.38a37.9,37.9,0,0,1-6.274,1.11l-.88,10.336-13.495-1.149.879-10.335a37.915,37.915,0,0,1-6-2.155l-5.923,8.5-11.113-7.742,5.931-8.513a38.439,38.439,0,0,1-4.1-4.868l-9.393,4.407-5.753-12.261,9.38-4.4a37.9,37.9,0,0,1-1.11-6.274Zm46.731,16.343c25.044,1.7,28.206-35.5,3.238-38.049-25.043-1.7-28.205,35.5-3.238,38.049" transform="translate(-770.946 -172.711)" fill="#7689d6"/>
        <path id="Trazado_873966" data-name="Trazado 873966" d="M1557.253,1174.952c.052-.389.084-.809.1-1.248a38.2,38.2,0,0,0-.5-6.856c-.056-.318-.1-.492-.113-.47q-.027-.112-.064-.219a2.393,2.393,0,0,0-1.519-1.6h0a2.879,2.879,0,0,0-2.91.7c-.015.015-.029.032-.043.047a2.378,2.378,0,0,0-.6,2.024c.006.038.011.078.018.116.009.053.02.105.032.157a29.387,29.387,0,0,1,.466,5.624,10.508,10.508,0,0,1-.13,1.924c-4.922,1.476,9.88,6.329,5.258-.2" transform="translate(-1483.74 -857.086)" fill="#f99370"/>
        <path id="Trazado_873967" data-name="Trazado 873967" d="M1479.622,1198.877c3.525,4.591,5.144,9.915,8.732,14.258.248.218-.185.085-.323.158.067.009.144.021.205.028.116.035.373-.015.275.129-.109.108-.161.449.05.153,1.262-4.752-1.359-10.089-2.59-14.726a8.244,8.244,0,0,0-.55-2.771,1.921,1.921,0,0,1,1.284-2.589,19.522,19.522,0,0,1,3.944,3.811c4.785,6.55,11.123,21.021-.5,24.5-9.831,2.22-14.335-10.679-18.988-16.874-3.772-5.514,4.44-11.4,8.458-6.079" transform="translate(-1400.996 -878.504)" fill="#f99370"/>
        <path id="Trazado_873968" data-name="Trazado 873968" d="M1486.855,1224.667a7.676,7.676,0,0,1-8.084,7.59h-.019c-3.369-.009-5.858-2.406-7.731-5.81-3.535-6.417-4.88-16.415-5.792-20.728,3.947.433,9.325,6.33,10.994,11.184-.459-2.086-1.114-5.22-1.374-7.465a14.419,14.419,0,0,1-.113-1.6,5.235,5.235,0,0,0,4.382-1.969c.065.08.4.461.9,1.1,2.051,2.63,6.841,9.6,6.836,17.7" transform="translate(-1389.802 -887.486)" fill="#1d3f70"/>
        <path id="Trazado_873969" data-name="Trazado 873969" d="M1542.057,1146.327a14.017,14.017,0,0,0-.371-4.7l-1.641.585Z" transform="translate(-1464.804 -840.311)" fill="#8e4a35"/>
        <path id="Trazado_873970" data-name="Trazado 873970" d="M1545.962,1147.218c-2.693,2.088-8.025,1.852-9.635-.357-6.009-8.241,5.787-22.645,9.686-9.592,1.411,3.761,4.385,5.9-.051,9.95" transform="translate(-1469.573 -833.238)" fill="#f99370"/>
        <path id="Trazado_873971" data-name="Trazado 873971" d="M1555.038,1159.619a.35.35,0,1,0-.485.1.35.35,0,0,0,.485-.1" transform="translate(-1481.578 -853.153)" fill="#c16256"/>
        <path id="Trazado_873972" data-name="Trazado 873972" d="M1543.742,1159.031a.35.35,0,1,0-.485.1.35.35,0,0,0,.485-.1" transform="translate(-1467.3 -852.72)" fill="#c16256"/>
        <path id="Trazado_873973" data-name="Trazado 873973" d="M1544.984,1163.519a1.426,1.426,0,0,1-.582-.11.132.132,0,0,1,.109-.241,1.189,1.189,0,0,0,1.184-.148c.038-.067-.049-.147-.128-.2a4.079,4.079,0,0,1-1.052-2.022.132.132,0,0,1,.1-.158.135.135,0,0,1,.159.1,3.924,3.924,0,0,0,.946,1.863c.336.235.256.464.206.551a1.135,1.135,0,0,1-.941.368" transform="translate(-1469.793 -854.3)" fill="#c16256"/>
        <path id="Trazado_873974" data-name="Trazado 873974" d="M1556.265,1135.228c-1.807-1.219-5.251-.622-6.953-.832a5.585,5.585,0,0,1-3.1,4.632c-.547,2.616-1.113,3.72,1.233,7.255h0a5.336,5.336,0,0,1-.533-.485h0c-7.419-9.373,4.821-22.249,9.361-10.57" transform="translate(-1480.153 -832.176)" fill="#e57d61"/>
        <path id="Trazado_873975" data-name="Trazado 873975" d="M1550.582,1120.057c-.839-2.26-3.919-3.789-6.993-1.464-2.367,1.79-4.671,1.511-4.868,3.658-4.505,1.457-2.918,6.421-2.918,6.421l2.176-.009a6.63,6.63,0,0,0,2.937-4.634h0a5.677,5.677,0,0,0,1.647.06,10.49,10.49,0,0,1,5.694.708c1.707.86,3.263-2.213,2.325-4.74" transform="translate(-1472.367 -822.502)" fill="#8e4a35"/>
        <path id="Trazado_873976" data-name="Trazado 873976" d="M1548.638,1160.7a5.769,5.769,0,0,1-.1.868c-.413,2.245-2.109,5.069-5.027,4.95a4.579,4.579,0,0,1-.686-.079,14.983,14.983,0,0,1-4.548-1.093c-2.192-.965-4-2.7-3.607-5.75h0a.059.059,0,0,1,0-.007l.308-1.32h0l0-.012.034-.145h0l.495-2.119,1.579-1.431h0c-.014.284-.2.883-.353,1.623-.3,1.481-.466,3.527,1.181,4.746l.04.026c1.411.906,3.2-.131,5.122-.965,1.79-.776,3.693-1.377,5.509-.068.009.05.016.1.023.151h0a3.992,3.992,0,0,1,.024.625m-6.91,1.734a14.18,14.18,0,0,0,1.664.195c1.6.084,3.294-.166,4.022-1.417-.271-2.218-2.61-1.473-4.211-.349a4,4,0,0,0-1.475,1.571" transform="translate(-1469.902 -849.828)" fill="#8e4a35"/>
        <path id="Trazado_873977" data-name="Trazado 873977" d="M1582,1160.291a1.693,1.693,0,1,0,1.454-2.2,1.887,1.887,0,0,0-1.454,2.2" transform="translate(-1519.064 -852.424)" fill="#f99370"/>
        <path id="Trazado_873978" data-name="Trazado 873978" d="M1587.214,1161.237c-.033-.017-.811-.423-1.316-.053a.849.849,0,0,0-.288.406l0,0a2.754,2.754,0,0,0-.017,1.393.133.133,0,0,0,.131.109l.023,0a.133.133,0,0,0,.106-.154,2.931,2.931,0,0,1-.036-1.115,1.809,1.809,0,0,1,1.028,1.134.132.132,0,0,0,.127.095.137.137,0,0,0,.037-.005.133.133,0,0,0,.09-.165,2.048,2.048,0,0,0-1.191-1.309.538.538,0,0,1,.146-.174c.37-.273,1.03.07,1.036.073a.132.132,0,0,0,.124-.234" transform="translate(-1521.979 -854.591)" fill="#c16256"/>
        <path id="Trazado_873979" data-name="Trazado 873979" d="M1609.23,1302.6h-.862l.036-.24.107.032q.312.093.627.181l.093.026" transform="translate(-1549.957 -958.619)" fill="#e8c0a6"/>
        <path id="Trazado_873980" data-name="Trazado 873980" d="M1543.133,1176.552a.112.112,0,0,1-.047-.01.118.118,0,0,1-.062-.155,1.548,1.548,0,0,1,1.315-.83.118.118,0,1,1,.021.235,1.316,1.316,0,0,0-1.12.689.119.119,0,0,1-.109.071" transform="translate(-1467.946 -865.285)" fill="#c16256"/>
        <path id="Trazado_873981" data-name="Trazado 873981" d="M1505.991,1185.261l-4.382,1.969c-.032-.017.056-1.973-1.162-2.312a5.823,5.823,0,0,1-2.631-2.035c-.419,1.076-2.463-.97-1.767-1.353-.467-.431-.152-.92.431-1.2-.39-.378.026-.827.589-1.008a10.575,10.575,0,0,0-1.988-.771c-1.036-.32-.351-.915.262-.808,5.005.874,7.19,2.877,10.649,7.523" transform="translate(-1416.677 -866.881)" fill="#f99370"/>
        <path id="Trazado_873982" data-name="Trazado 873982" d="M1544.287,1151.948a.118.118,0,0,1-.026,0,2.326,2.326,0,0,1-1.6-1.238.118.118,0,0,1,.217-.093,2.13,2.13,0,0,0,1.436,1.1.118.118,0,0,1-.027.233" transform="translate(-1467.787 -846.872)" fill="#c16256"/>
        <path id="Trazado_873983" data-name="Trazado 873983" d="M1553.135,1153.952a.118.118,0,0,1-.1-.182,2.518,2.518,0,0,1,1.774-1.012.118.118,0,0,1,.029.234,2.326,2.326,0,0,0-1.6.9.118.118,0,0,1-.1.054" transform="translate(-1481.061 -848.503)" fill="#c16256"/>
        <path id="Trazado_873984" data-name="Trazado 873984" d="M1503.662,1260.56c-3.368-.009-5.857-2.406-7.731-5.81l.559-10.58a105.9,105.9,0,0,1,5.11,12.657,9.826,9.826,0,0,0,2.062,3.732" transform="translate(-1414.713 -915.788)" fill="#163356"/>
        <path id="Trazado_873985" data-name="Trazado 873985" d="M1598.954,1586.562l-.211-.11c0,.148-.183.662-.331.662l-6.247.129c-.148,0-.239-.279-.239-.426l-.533-.153a3.2,3.2,0,0,1,.49-2c1.52-2.007-.3-11.053-.242-13.407-.375-.645,6.579-.139,6.676-.291a.268.268,0,0,1,.267.289l-.818,10.317c-.3,2.422,1.182,3.087,1.188,4.99" transform="translate(-1535.2 -1156.296)" fill="#f99370"/>
        <path id="Trazado_873986" data-name="Trazado 873986" d="M1499.1,1587.591h-12.445c-1.086-.044-1.078-1.152-.878-2.011.685-3.1-.526-10.208-.75-13.393a.989.989,0,0,1,.984-1.09h5.492a.99.99,0,0,1,.982,1.113l-1,7.964c-.383,3.686,3.429,3.994,5.938,4.5a4.131,4.131,0,0,1,2.493,1.366.99.99,0,0,1-.817,1.549" transform="translate(-1408.267 -1156.426)" fill="#f99370"/>
        <path id="Trazado_873987" data-name="Trazado 873987" d="M1484.24,1617.878c.033.61.336,1.306,1.043,1.291h12.909c3.219-.987-1.492-5.494-7.306-5.153a15.868,15.868,0,0,1-5.183.12c-1.445-.149-1.516,2.481-1.463,3.742" transform="translate(-1407.199 -1188.004)" fill="#103663"/>
        <path id="Trazado_873988" data-name="Trazado 873988" d="M1591.876,1619.22h5.517c2.665-.3.8-5.118-2.758-5.153-3.574-.035-5.422,4.856-2.759,5.153" transform="translate(-1534.695 -1188.055)" fill="#103663"/>
        <path id="Trazado_873989" data-name="Trazado 873989" d="M1493.113,1620.509a.274.274,0,0,0,.254-.171,2.919,2.919,0,0,1,1.427-1.614.274.274,0,0,0-.2-.51,3.447,3.447,0,0,0-1.735,1.918.276.276,0,0,0,.254.377" transform="translate(-1405.198 -1191.091)" fill="#e8c0a6"/>
        <path id="Trazado_873990" data-name="Trazado 873990" d="M1500.272,1618.206a.274.274,0,0,0,.262-.193,3.8,3.8,0,0,1,1.686-2.079.274.274,0,0,0-.253-.487,4.316,4.316,0,0,0-1.957,2.4.276.276,0,0,0,.262.355" transform="translate(-1414.489 -1189.046)" fill="#e8c0a6"/>
        <path id="Trazado_873991" data-name="Trazado 873991" d="M1509.482,1616.578a.275.275,0,0,0,.259-.184,4.946,4.946,0,0,1,1.707-2.281.274.274,0,0,0-.3-.457,5.416,5.416,0,0,0-1.922,2.558.276.276,0,0,0,.259.365" transform="translate(-1426.125 -1187.715)" fill="#e8c0a6"/>
        <path id="Trazado_873992" data-name="Trazado 873992" d="M1597.424,1617.477c2.1-1.183,3.96.37,4.256-.161.246-.556-2.5-1.388-4.394-.35a.276.276,0,0,0,.139.511" transform="translate(-1539.462 -1189.825)" fill="#e8c0a6"/>
        <path id="Trazado_873993" data-name="Trazado 873993" d="M1499.39,1628.7h-14.855a3.4,3.4,0,0,0,.407,1.291h13.545a.959.959,0,0,0,.9-1.291" transform="translate(-1407.495 -1198.825)" fill="#0f2e54"/>
        <path id="Trazado_873994" data-name="Trazado 873994" d="M1591.969,1629.99h5.517a1.222,1.222,0,0,0,1.223-1.291h-7.964a1.223,1.223,0,0,0,1.224,1.291" transform="translate(-1534.787 -1198.825)" fill="#0f2e54"/>
        <path id="Trazado_873995" data-name="Trazado 873995" d="M1505.032,1379.423s5.885,1.429,8.916-.107c1.578-9.895,5.958-37.446,7.484-56.327.058,1.1,3.263,45.5,3.873,56.327,2.093.7,6.3,1.545,8.657-.151,1.058-11.4,4.455-48.921-.662-79.568,0,0-14.023,1.56-24.974-1.749-3.015,9.721-3.813,69.909-3.293,81.575" transform="translate(-1449.462 -955.298)" fill="#3a72aa"/>
        <path id="Trazado_873996" data-name="Trazado 873996" d="M1518.552,1431.5c2.846-32.932-.52-60.952-1.363-61.264-.618.141,2.9,28.633,1.363,61.264" transform="translate(-1436.316 -1008.583)" fill="#23659b"/>
        <path id="Trazado_873997" data-name="Trazado 873997" d="M1580.687,1419.244c1.962-33.746,6.916-65.209,6.332-65.66-.753-.045-5.778,32.133-6.332,65.66" transform="translate(-1520.487 -996.323)" fill="#23659b"/>
        <path id="Trazado_873998" data-name="Trazado 873998" d="M1579.8,1243.408q.751.913,1.6,1.833a5.269,5.269,0,0,0,4.913-2.352c-8.793-19.016,8.161-20.056,4.793-36.978-11.35,1.34-27.139,18.28-11.307,37.5" transform="translate(-1522.973 -887.627)" fill="#1d3f70"/>
        <path id="Trazado_873999" data-name="Trazado 873999" d="M1592.974,1340.336q.751.913,1.6,1.832a5.268,5.268,0,0,0,4.913-2.352c-.258-.916-.642-1.456-.911-2.221,0,0-1.643,1.926-5.6,2.741" transform="translate(-1536.151 -984.555)" fill="#163356"/>
        <path id="Trazado_874000" data-name="Trazado 874000" d="M1591.035,1345.941c4.739.287,7.08-4.715,5.165-3.544-.048.126-1.209,3.005-5.577,2.815-.689.136-.4.878.412.729" transform="translate(-1532.81 -987.958)" fill="#23659b"/>
        <path id="Trazado_874001" data-name="Trazado 874001" d="M1530.8,1339.176s-.857,3.675-7.711,5.487c-1.963.519-3.1.262-3.386-1.1a3.939,3.939,0,0,0-1.2-2.314,5.464,5.464,0,0,0-2.112,1.6c-1.269,2.06-3.18.188-4.111-1.968-1.151-2.667-4.067-4.927-4.705-7.164Z" transform="translate(-1444.925 -981.703)" fill="#f4d4be"/>
        <path id="Trazado_874002" data-name="Trazado 874002" d="M1504.229,1239.393c.223.395.356.332.584.1,6.16-4.6,8.362,5.45,15,5.63,6.754.668,10.511,1.05,12.35-1.192,3.212-4.978-1.9-27.23-6.028-32.619a35.031,35.031,0,0,0-6.335-6.987c.035.146.667,3.987-5.258.2-.3.126-2.3,2.18-2.184,3.161-.3,4.505-10.99,26.647-8.126,31.708" transform="translate(-1446.284 -886.462)" fill="#1d3f70"/>
        <path id="Trazado_874003" data-name="Trazado 874003" d="M1580.192,1274.456l1.35-.281c-5.4-12.151.95-17.288,4.308-24.134-7.787,9.011-8.964,13.951-5.658,24.414" transform="translate(-1518.682 -920.11)" fill="#163356"/>
        <path id="Trazado_874004" data-name="Trazado 874004" d="M1544.094,1205.072c-.032,2.26,5.767,4.256,6.1,4.259l.7-2.057c.892.22,1.678,1.47,1.678,1.47,2.407-2.348,1.252-3.76.649-4.048a5.915,5.915,0,0,0-1.911-.367c.036.146.13,3.63-5.258.2-.694-.321-1.949.546-1.949.546" transform="translate(-1477.787 -886.462)" fill="#f4d4be"/>
        <path id="Trazado_874005" data-name="Trazado 874005" d="M1542.58,1449.43a13.852,13.852,0,0,0,1.816.484s-2.956-44.061-3.4-49.941-2.293-6.869-2.293-6.869,3.923,55.375,3.874,56.327" transform="translate(-1466.737 -1025.412)" fill="#23659b"/>
        <path id="Trazado_874006" data-name="Trazado 874006" d="M1512.042,1598.419c.079,1.271.122,2.031.116,2.136,2.093.7,6.3,1.545,8.657-.151,0,0,.075-.7.2-1.985a12.31,12.31,0,0,1-8.971,0" transform="translate(-1436.316 -1176.537)" fill="#23659b"/>
        <path id="Trazado_874007" data-name="Trazado 874007" d="M1587.389,1600.661s5.885,1.429,8.916-.107c0,0,.125-.766.344-2.136a20.953,20.953,0,0,1-9.331,0c-.023,1.336.09,2.132.071,2.243" transform="translate(-1531.819 -1176.537)" fill="#23659b"/>
        <path id="Trazado_874008" data-name="Trazado 874008" d="M1496.413,1207.38c-.024.033-.047.065-.073.1a6.647,6.647,0,0,1-5.1,2.372,14.462,14.462,0,0,1-.112-1.6,5.234,5.234,0,0,0,4.382-1.969c.065.08.4.461.9,1.1" transform="translate(-1406.197 -887.897)" fill="#163356"/>
        <path id="Trazado_874009" data-name="Trazado 874009" d="M399.327,1119.8a6.151,6.151,0,0,0,1.38,7.608l3.722-1.419Z" transform="translate(-25.843 -824.245)" fill="#f99370"/>
        <path id="Trazado_874010" data-name="Trazado 874010" d="M177.358,848.862l-6.183-.142.161-7h6.2a40.773,40.773,0,0,1,4.023-13.685l-5.277-3.211,3.638-5.978h6.551l.527.941a41.264,41.264,0,0,1,8.621-7.676l-2.968-5.424,6.139-3.359h6.551l-.3,4.134a40.82,40.82,0,0,1,10.708-2.115l.142-6.183h6.551l.04.151.4.01-.032,1.387,1.329,4.979a40.748,40.748,0,0,1,12.388,3.857l3.211-5.277h6.551l.357,12.4a41.246,41.246,0,0,1,5.8,6.936l5.424-2.968h6.551l-3.385,5.786.193.353-.588.322-1.528,15.4c.038.413.072.828.1,1.245l6.183.142-.161,7-6.183-.142a40.937,40.937,0,0,1-.933,5.329l5.084,17.687H256.7l-5.282-3.214a41.246,41.246,0,0,1-4.867,5.522l-2.17,13.209h-6.551l-2.965-5.419a40.709,40.709,0,0,1-8.418,2.671l.829,6.913h-6.551l-7-.161.142-6.183a40.821,40.821,0,0,1-10.224-2.461l-.263,3.7h-6.551l-5.978-3.637,3.214-5.282a41.268,41.268,0,0,1-8.109-7.871l-.713.422H178.7l-3.359-6.139,5.419-2.965a40.772,40.772,0,0,1-3.4-14m40.953,24.118A26.676,26.676,0,1,0,191.635,846.3a26.676,26.676,0,0,0,26.676,26.676" transform="translate(173.155 -588.239)" fill="#16537c"/>
        <path id="Trazado_874011" data-name="Trazado 874011" d="M202.371,1141.415c13.5-9.833,13.161-27.592,5.232-40.865-1.705-2.566-5.181-.121-3.649,2.475,3.7,10.007,3.479,23.788-7.217,29.25,0,0-.018.007.025-.022-5.976,3.7-.4,12.8,5.608,9.162" transform="translate(219.396 -809.274)" fill="#f99370"/>
        <path id="Trazado_874012" data-name="Trazado 874012" d="M193.86,1150.82a9.394,9.394,0,0,0,3.056-.889,15.555,15.555,0,0,0,6.011-4.6c2.873-3.43,5.652-9.175,5.446-18.5-.172-7.779-3.857-15-6.337-18.594-.355-.516-.684-.958-.968-1.315,0,0-2.064,1.815-4.265,1.31,0,0,.146.563.357,1.5.734,3.248,2.244,10.97,1.119,15.158-1.448,5.393-6.786,9.94-10.431,10.719a16.1,16.1,0,0,0-2.252,6.717c-.12,2.868,2.627,9.064,8.264,8.5" transform="translate(226.414 -814.761)" fill="#1d3f70"/>
        <path id="Trazado_874013" data-name="Trazado 874013" d="M209.64,1108.226s.146.563.357,1.5c3.48.162,4.876-1.5,4.876-1.5-.355-.516-.685-.958-.968-1.315,0,0-2.063,1.815-4.265,1.31" transform="translate(213.577 -814.761)" fill="#f4d4be"/>
        <path id="Trazado_874014" data-name="Trazado 874014" d="M206.265,1257.931a9.4,9.4,0,0,0,3.056-.889,15.556,15.556,0,0,0,6.011-4.6v0s-3.274,2.463-5.939,1.151c-2.023-1-2.848,2.567-3.128,4.345" transform="translate(214.009 -921.871)" fill="#10325b"/>
        <path id="Trazado_874015" data-name="Trazado 874015" d="M300.658,1592.609l12.136.938a.969.969,0,0,0,1.042-.943,7.783,7.783,0,0,0-.035-.949,16.23,16.23,0,0,1,.006-3.078q.069-.735.2-1.464l1.532-8.446a.967.967,0,0,0-.878-1.136l-5.356-.414a.967.967,0,0,0-1.041,1.01l.375,7.832a3.385,3.385,0,0,1-2.829,3.5c-1.207.2-2.423.287-3.3.441-.113.021-.226.042-.336.064h0a3.594,3.594,0,0,0-2.2,1.078.968.968,0,0,0,.68,1.57" transform="translate(89.106 -1160.855)" fill="#f99370"/>
        <path id="Trazado_874016" data-name="Trazado 874016" d="M318.95,1623.152c-.079.592-.426,1.247-1.114,1.179l-12.588-.973a.937.937,0,0,1-.784-1.326c.595-1.335,2.489-3.246,8.463-3.122a21.359,21.359,0,0,0,5.622.427,6.119,6.119,0,0,1,.4,3.815" transform="translate(84.365 -1191.616)" fill="#eb5648"/>
        <path id="Trazado_874017" data-name="Trazado 874017" d="M345.48,1623.589a.268.268,0,0,0,.276-.349,3.368,3.368,0,0,0-1.547-2,.268.268,0,0,0-.235.481,2.839,2.839,0,0,1,1.271,1.68.269.269,0,0,0,.235.186" transform="translate(47.265 -1193.317)" fill="#e8c0a6"/>
        <path id="Trazado_874018" data-name="Trazado 874018" d="M337.73,1621.9a.258.258,0,0,0,.08-.006.268.268,0,0,0,.2-.321,4.219,4.219,0,0,0-1.727-2.488.268.268,0,0,0-.284.455,3.733,3.733,0,0,1,1.488,2.152.269.269,0,0,0,.241.208" transform="translate(57.113 -1191.722)" fill="#e8c0a6"/>
        <path id="Trazado_874019" data-name="Trazado 874019" d="M328.663,1621.014a.276.276,0,0,0,.089-.008.268.268,0,0,0,.191-.328,5.291,5.291,0,0,0-1.682-2.637.268.268,0,0,0-.33.422,4.834,4.834,0,0,1,1.493,2.351.268.268,0,0,0,.239.2" transform="translate(68.568 -1190.939)" fill="#e8c0a6"/>
        <path id="Trazado_874020" data-name="Trazado 874020" d="M304.959,1630.755l14.486,1.12a3.317,3.317,0,0,1-.494,1.227l-13.208-1.021a.937.937,0,0,1-.793-1.3l.009-.021" transform="translate(83.87 -1200.339)" fill="#ce3932"/>
        <path id="Trazado_874021" data-name="Trazado 874021" d="M237.076,1414.433c.493,1.6.809,2.533.809,2.533s5.254,2.15,10.117.237c0,0-.023-.352-.065-.989,0-.075-.01-.154-.015-.237-.016-.251-.034-.537-.054-.857-.426-6.808-1.3-26.854-.911-31.894a31.944,31.944,0,0,1,5.763-15.824,26.046,26.046,0,0,1,2.85-3.393c5.434-5.39,11.155-5.189,9.144-14.64-.3-1.391-12.578-.78-12.578-.78l-13.859,2.234s-6.109,14.912-7.242,28.992c-.906,11.263,4.152,28.47,6.042,34.618" transform="translate(157.706 -992.549)" fill="#eb5648"/>
        <path id="Trazado_874022" data-name="Trazado 874022" d="M278.638,1458.673H280.7c0-.075-.01-.154-.015-.238-.016-.251-.034-.537-.054-.857-.426-6.808-1.3-26.853-.911-31.894a31.946,31.946,0,0,1,5.763-15.824l-.311-3.723s-5.31,7.527-6.669,14.385.139,38.151.139,38.151" transform="translate(124.947 -1035.006)" fill="#ce3932"/>
        <path id="Trazado_874023" data-name="Trazado 874023" d="M295.8,1598.428c.494,1.6.81,2.534.81,2.534s5.254,2.151,10.117.237c0,0-.052-.77-.135-2.083h0a17.361,17.361,0,0,1-10.791-.687" transform="translate(98.978 -1176.544)" fill="#ce3932"/>
        <path id="Trazado_874024" data-name="Trazado 874024" d="M95.931,1534.155l5.119-11.043a.969.969,0,0,0-.519-1.306,7.736,7.736,0,0,0-.9-.3,16.228,16.228,0,0,1-2.882-1.081c-.443-.215-4.711-2.68-5.135-2.932,0,0-3.77,5.005-3.216,5.182l5.91,3.067c.988,1.259.8.8.471,2.482-.231,1.2-.578,2.37-.74,3.247-.02.113-.04.226-.057.336v0a3.592,3.592,0,0,0,.242,2.436.967.967,0,0,0,1.709-.089" transform="translate(359.326 -1116.971)" fill="#f99370"/>
        <path id="Trazado_874025" data-name="Trazado 874025" d="M95.191,1529.505c.527.281,1.02.835.715,1.456L90.6,1542.416a.938.938,0,0,1-1.516.271c-1.043-1.023-2.172-3.466.032-9.02a21.355,21.355,0,0,0,2.364-5.119,6.124,6.124,0,0,1,3.715.957" transform="translate(364.596 -1125.094)" fill="#eb5648"/>
        <path id="Trazado_874026" data-name="Trazado 874026" d="M112.019,1567a.268.268,0,0,0-.23-.381,3.368,3.368,0,0,0-2.413.752.268.268,0,0,0,.368.389,2.843,2.843,0,0,1,2.018-.6.269.269,0,0,0,.256-.156" transform="translate(342.892 -1153.129)" fill="#e8c0a6"/>
        <path id="Trazado_874027" data-name="Trazado 874027" d="M110.083,1559.36a.268.268,0,0,0-.207-.379,4.219,4.219,0,0,0-2.934.749.268.268,0,1,0,.327.425,3.734,3.734,0,0,1,2.536-.642.269.269,0,0,0,.279-.153" transform="translate(345.477 -1147.483)" fill="#e8c0a6"/>
        <path id="Trazado_874028" data-name="Trazado 874028" d="M107.459,1550.769a.268.268,0,0,0-.217-.38,5.292,5.292,0,0,0-3.058.655.268.268,0,0,0,.281.457,4.828,4.828,0,0,1,2.724-.578.268.268,0,0,0,.27-.154" transform="translate(348.833 -1141.167)" fill="#e8c0a6"/>
        <path id="Trazado_874029" data-name="Trazado 874029" d="M87.209,1545.41l6.11-13.182a3.317,3.317,0,0,1,.977.892l-5.571,12.019a.937.937,0,0,1-1.5.287l-.016-.016" transform="translate(366.468 -1127.817)" fill="#ce3932"/>
        <path id="Trazado_874030" data-name="Trazado 874030" d="M113.037,1358.275c3.916,14.835,7.025,26.386,18.315,37.8,7.436,7.518,19.028,11.021,23.978,11.776,1.669.254,2.674.321,2.674.321s5.012-4.231,3.219-10.544c0,0-.842-.236-2.167-.671-4.136-1.354-12.69-4.837-15.613-8.648-9.146-11.93-4.715-20.453-9.332-30.886Z" transform="translate(292.335 -999.151)" fill="#eb5648"/>
        <path id="Trazado_874031" data-name="Trazado 874031" d="M113.037,1518.105c1.669.254,2.674.32,2.674.32s5.012-4.231,3.219-10.544c0,0-.842-.236-2.167-.67,0,0,.672,6.877-3.726,10.894" transform="translate(334.628 -1109.403)" fill="#ce3932"/>
        <path id="Trazado_874032" data-name="Trazado 874032" d="M301.767,1170.671c-18.323-2.728-27.6-13.333-31.266-30.887-.483-2.472,2.935-4.486,3.735-2.106.116.286.351.85.475,1.132,5.646,12.384,13.224,20.218,27.549,19.571l-.023,0c8.04.344,7.568,12.566-.47,12.294" transform="translate(104.363 -836.619)" fill="#f99370"/>
        <path id="Trazado_874033" data-name="Trazado 874033" d="M319.6,1165.269l-7.88,13.322a23.534,23.534,0,0,1-11.3-4.791l0,0q-.467-.352-.935-.739c-7.892-6.134-12.162-19.666-12.928-25a5.432,5.432,0,0,0,4.16-1.579c.222.409.46.825.71,1.245h0c6.627,11.668,17.5,18.716,28.181,17.546" transform="translate(88.556 -843.879)" fill="#1d3f70"/>
        <path id="Trazado_874034" data-name="Trazado 874034" d="M398.186,1147.721h0c-1.5,1.688-4.574,1.867-4.574,1.867-.209-.971-.3-1.534-.3-1.534a5.433,5.433,0,0,0,4.16-1.579c.222.409.46.825.71,1.245" transform="translate(-18.215 -843.879)" fill="#f4d4be"/>
        <path id="Trazado_874035" data-name="Trazado 874035" d="M329.244,1243.848l-.521,6.259a24.884,24.884,0,0,1-10.232-4.636c2.446,1.658,6.147,2.426,7.645,1.71,1.706-.816,3.108-3.333,3.108-3.333" transform="translate(70.477 -915.551)" fill="#10325b"/>
        <path id="Trazado_874036" data-name="Trazado 874036" d="M265.007,1190.1a29.318,29.318,0,0,1,.482-8.064c.669-3.109,5.605-1.906,4.785,1.15a28.05,28.05,0,0,0-.317,7.1c4.633,1.388-9.3,5.953-4.95-.185" transform="translate(143.148 -868.717)" fill="#f99370"/>
        <path id="Trazado_874037" data-name="Trazado 874037" d="M271.741,1182.763c-.006.036-.01.073-.017.109s-.019.1-.03.147a27.621,27.621,0,0,0-.439,5.289,8.634,8.634,0,0,1-4.923.451,35.911,35.911,0,0,1,.47-6.448c.057-.259.1-.411.106-.443q.026-.105.06-.206a2.454,2.454,0,0,1,1.43-1.5h0a2.465,2.465,0,0,1,2.74.656c.014.015.027.03.04.045a2.456,2.456,0,0,1,.561,1.9" transform="translate(141.729 -868.547)" fill="#e57d61"/>
        <path id="Trazado_874038" data-name="Trazado 874038" d="M286.864,1156.75a13.594,13.594,0,0,1,1.584-4.291l1.38.979Z" transform="translate(118.239 -848.283)" fill="#1d3f70"/>
        <path id="Trazado_874039" data-name="Trazado 874039" d="M253.66,1160.881a7.555,7.555,0,0,0,6.433,2.945,5.822,5.822,0,0,0,2.042-.428h0a5.134,5.134,0,0,0,.626-.312h0c9.741-7.067.612-22.71-6.532-11.514-2.3,3.1-5.653,4.426-2.573,9.307" transform="translate(150.154 -844.747)" fill="#f99370"/>
        <path id="Trazado_874040" data-name="Trazado 874040" d="M283.948,1184.816l3.149-1.014s-.083,1.613-1.3,1.857a1.885,1.885,0,0,1-1.845-.843" transform="translate(121.741 -871.353)" fill="#f9f8f3"/>
        <path id="Trazado_874041" data-name="Trazado 874041" d="M282.613,1172.859a.34.34,0,1,1,.428.22.339.339,0,0,1-.428-.22" transform="translate(125.917 -862.972)" fill="#c16256"/>
        <path id="Trazado_874042" data-name="Trazado 874042" d="M293.019,1169.333a.34.34,0,1,1,.428.22.339.339,0,0,1-.428-.22" transform="translate(112.765 -860.377)" fill="#c16256"/>
        <path id="Trazado_874043" data-name="Trazado 874043" d="M283.554,1184.581a.13.13,0,0,0,.075,0l3.148-1.014a.129.129,0,1,0-.079-.245l-3.149,1.014a.128.128,0,0,0-.083.162.13.13,0,0,0,.087.084" transform="translate(122.099 -870.994)" fill="#c16256"/>
        <path id="Trazado_874044" data-name="Trazado 874044" d="M290.34,1174.83a1.39,1.39,0,0,0,.574.05.129.129,0,0,0-.038-.254,1.153,1.153,0,0,1-1.068-.45c-.018-.073.084-.125.173-.156.783-.273,1.487-1.557,1.517-1.611a.129.129,0,0,0-.052-.175.127.127,0,0,0-.174.052c-.007.012-.685,1.251-1.375,1.491-.376.131-.361.366-.338.461a1.1,1.1,0,0,0,.783.592" transform="translate(115.847 -862.827)" fill="#c16256"/>
        <path id="Trazado_874045" data-name="Trazado 874045" d="M252.608,1150.641c1.977-.664,5.136.747,6.76,1a5.419,5.419,0,0,0,1.682,5.145c-.178,2.587.061,3.768-3.064,6.451h0a5.142,5.142,0,0,0,.626-.312h0c9.367-6.726,1.1-22.149-6.008-12.283" transform="translate(154.303 -844.583)" fill="#e57d61"/>
        <path id="Trazado_874046" data-name="Trazado 874046" d="M246.451,1133.378c1.38-1.89,4.662-2.507,6.924.476,1.742,2.3,3.969,2.642,3.588,4.7,3.828,2.548,1.037,6.767,1.037,6.767l-2.032-.582a6.431,6.431,0,0,1-1.526-5.1h0a5.511,5.511,0,0,1-1.556-.379,10.2,10.2,0,0,0-5.51-.839c-1.822.353-2.469-2.927-.926-5.04" transform="translate(159.98 -833.068)" fill="#1d3f70"/>
        <path id="Trazado_874047" data-name="Trazado 874047" d="M251.758,1182.521a1.644,1.644,0,1,1-.78-2.439,1.833,1.833,0,0,1,.78,2.439" transform="translate(166.246 -868.55)" fill="#f99370"/>
        <path id="Trazado_874048" data-name="Trazado 874048" d="M251.046,1182.873c.035-.007.87-.183,1.245.3a.827.827,0,0,1,.162.454h0c0,.017,0,.032.005.049h0a2.794,2.794,0,0,1-.356,1.258.129.129,0,0,1-.151.067l-.021-.008a.129.129,0,0,1-.059-.172,2.856,2.856,0,0,0,.326-1.024,1.764,1.764,0,0,0-1.259.78.129.129,0,0,1-.144.055.13.13,0,0,1-.033-.015.128.128,0,0,1-.04-.177,1.987,1.987,0,0,1,1.458-.908.526.526,0,0,0-.09-.2c-.276-.353-.982-.206-.988-.2a.129.129,0,0,1-.055-.251" transform="translate(165.153 -870.642)" fill="#c16256"/>
        <path id="Trazado_874049" data-name="Trazado 874049" d="M216.524,1353.037s.347,1,2.867,2.29a35.993,35.993,0,0,0,6.518,2.233,5.289,5.289,0,0,0,1.371-1.664,3.312,3.312,0,0,0,1.3,1.664s10.282.237,18.41-4.523c0,0,.527-.313-.194-1.573Z" transform="translate(179.458 -994.763)" fill="#f4d4be"/>
        <path id="Trazado_874050" data-name="Trazado 874050" d="M253.187,1186.789l1.164-.727a.578.578,0,1,1,.38.607l-1.164.727a.358.358,0,1,1-.38-.607" transform="translate(161.498 -872.638)" fill="#fdffde"/>
        <path id="Trazado_874051" data-name="Trazado 874051" d="M217.222,1254.553s16.028,5.042,30.271-1.573c0,0,1.267-2.173-1.623-12.258-1.061-3.7-.521-8.974-.81-10.8a15.007,15.007,0,0,0-10.735-12.254c-1.075,2.526-3.061,2.736-4.119,2.233a1.846,1.846,0,0,1-.814-2.23c-5.138,1.577-9.543,5.858-11.018,14.668-.885,5.286-2.012,16.822-1.152,22.218" transform="translate(178.76 -896.279)" fill="#1d3f70"/>
        <path id="Trazado_874052" data-name="Trazado 874052" d="M362.783,1246.455a2.618,2.618,0,0,1,.229.194c-.077-.064-.152-.128-.229-.194" transform="translate(25.018 -917.47)" fill="#a523a2"/>
        <path id="Trazado_874053" data-name="Trazado 874053" d="M196.71,1236.6c-.042.058-.084.116-.129.174a1.979,1.979,0,0,1,.129-.174" transform="translate(235.186 -910.216)" fill="#a523a2"/>
        <path id="Trazado_874054" data-name="Trazado 874054" d="M213.3,1071.926s5.587-.012,5.467,9.235l-4.447-.52Z" transform="translate(208.715 -789.006)" fill="#f99370"/>
        <path id="Trazado_874055" data-name="Trazado 874055" d="M146.354,848.719l.161-7,6.183.142a40.774,40.774,0,0,1,4.04-13.827l-5.277-3.211,3.637-5.978,5.282,3.214a41.264,41.264,0,0,1,10.417-9.948l-2.968-5.424,6.139-3.359,2.965,5.419a40.772,40.772,0,0,1,14-3.4l.142-6.183,7,.161-.142,6.183a40.765,40.765,0,0,1,13.827,4.041l3.211-5.278,5.978,3.637-3.214,5.283a41.258,41.258,0,0,1,9.949,10.417l5.424-2.968,3.359,6.139-5.419,2.965a40.77,40.77,0,0,1,3.4,14l6.183.142-.161,7-6.183-.142a40.767,40.767,0,0,1-4.04,13.827l5.277,3.211-3.638,5.979-5.282-3.214a41.255,41.255,0,0,1-10.417,9.948l2.967,5.424-6.139,3.359-2.965-5.419a40.777,40.777,0,0,1-14,3.4l-.142,6.183-7-.161.142-6.183a40.772,40.772,0,0,1-13.827-4.04l-3.211,5.277-5.978-3.637,3.214-5.282A41.261,41.261,0,0,1,159.3,869l-5.424,2.968-3.359-6.139,5.419-2.964a40.777,40.777,0,0,1-3.4-14Zm46.523,24.253a26.676,26.676,0,1,0-26.056-27.282,26.675,26.675,0,0,0,26.056,27.282" transform="translate(204.527 -588.238)" fill="#23659b"/>
        <path id="Trazado_874056" data-name="Trazado 874056" d="M401.137,1129.348c0-.056,0-.083,0-.116v-.093c0-.06,0-.119-.007-.175-.006-.115-.02-.224-.031-.333a5.857,5.857,0,0,0-.123-.64,5.541,5.541,0,0,0-.448-1.2,5.431,5.431,0,0,0-.694-1.051,6.084,6.084,0,0,0-.883-.859.548.548,0,0,0-.764.78l.027.031a4.883,4.883,0,0,1,.583.792,4.045,4.045,0,0,1,.388.872,3.993,3.993,0,0,1,.178.918,4.168,4.168,0,0,1,.01.457c-.005.074-.008.149-.017.219,0,.036-.008.07-.013.1,0,.016,0,.033-.008.045s-.006.031-.007.021a.91.91,0,0,0,1.806.226" transform="translate(-22.422 -827.893)" fill="#f99370"/>
        <path id="Trazado_874057" data-name="Trazado 874057" d="M263.446,1216.149s-.542,2.974,1.671,4.16a3.129,3.129,0,0,0,1.835-1.039,2.425,2.425,0,0,0,1.488,1.236,4.975,4.975,0,0,0,3.58-4.9,3.113,3.113,0,0,0-1.177.543,4.747,4.747,0,0,1-3.438,1.541c-1.384-.016-1.494-1.538-1.494-1.538a4.029,4.029,0,0,0-2.464,0" transform="translate(142.242 -894.763)" fill="#f4d4be"/>
        <path id="Trazado_874058" data-name="Trazado 874058" d="M224.493,1094.551c-2.157-.795-1.829-3.416-2.768-3.24-1.368,1.29.761,4.519,2.156,5.279,1.661,1.079,2.587-2.027.612-2.039" transform="translate(199.768 -803.268)" fill="#f99370"/>
        <path id="Trazado_874059" data-name="Trazado 874059" d="M280.136,1168.885a.159.159,0,0,0,.07-.016.164.164,0,0,0,.078-.218,2.387,2.387,0,0,0-1.6-1.251.164.164,0,0,0-.059.322,2.089,2.089,0,0,1,1.366,1.07.164.164,0,0,0,.148.093" transform="translate(129.979 -859.278)" fill="#c16256"/>
        <path id="Trazado_874060" data-name="Trazado 874060" d="M289.457,1165.91a.164.164,0,0,0,.067-.015,1.561,1.561,0,0,1,1.348-.007.164.164,0,0,0,.162-.285,1.887,1.887,0,0,0-1.645-.007.164.164,0,0,0,.067.313" transform="translate(116.31 -857.819)" fill="#c16256"/>
        <path id="Trazado_874061" data-name="Trazado 874061" d="M610.035,804.974c-2.683-11.943-7.044-24.828-17.02-32.626a1.485,1.485,0,0,0-2.007,2.147,23.722,23.722,0,0,1,2.368,3.382,38.941,38.941,0,0,1,4.094,11.58,69.725,69.725,0,0,1,1.289,16.323c-1.047,9.584,13.448,8.653,11.276-.8" transform="translate(-282.37 -568.28)" fill="#f99370"/>
        <path id="Trazado_874062" data-name="Trazado 874062" d="M654.228,758.79a10.168,10.168,0,0,1,4.25,4.539l-2.342,1.957a7.37,7.37,0,0,1-3.134-2.26c-1.239-2.226,1.225-4.235,1.225-4.235" transform="translate(-346.956 -558.518)" fill="#f99370"/>
        <path id="Trazado_874063" data-name="Trazado 874063" d="M723.6,781.328a8.612,8.612,0,0,0-.687,5.874l3.169.424a7.373,7.373,0,0,0,1.086-3.708c-.388-2.518-3.568-2.591-3.568-2.591" transform="translate(-434.143 -575.108)" fill="#f99370"/>
        <path id="Trazado_874064" data-name="Trazado 874064" d="M652.731,641.046A20,20,0,1,1,689.24,644.8l.166,8.079a6.581,6.581,0,0,1-4.595,6.409l-9.687,3.065a6.581,6.581,0,0,1-7.445-2.6l-4.511-6.7a19.945,19.945,0,0,1-10.437-12.008" transform="translate(-380.058 -452.684)" fill="#ffebca"/>
        <path id="Trazado_874065" data-name="Trazado 874065" d="M669.669,791.616l11.183-3.538a1.253,1.253,0,0,0-.756-2.389l-11.183,3.538a1.253,1.253,0,0,0,.756,2.389" transform="translate(-374.266 -578.274)" fill="#d86d03"/>
        <path id="Trazado_874066" data-name="Trazado 874066" d="M665.51,804.765l11.183-3.538a1.253,1.253,0,0,0-.756-2.389l-11.183,3.538a1.253,1.253,0,0,0,.756,2.389" transform="translate(-369.008 -587.953)" fill="#d86d03"/>
        <path id="Trazado_874067" data-name="Trazado 874067" d="M661.35,817.914l11.183-3.538a1.253,1.253,0,0,0-.756-2.389l-11.183,3.538a1.253,1.253,0,1,0,.756,2.389" transform="translate(-363.75 -597.631)" fill="#d86d03"/>
        <path id="Trazado_874068" data-name="Trazado 874068" d="M665.013,831.071l6.941-2.2a1.558,1.558,0,0,0,1.015-1.956l-.3-.954-9.912,3.136.3.954a1.558,1.558,0,0,0,1.956,1.016" transform="translate(-364.186 -607.963)" fill="#d86d03"/>
        <path id="Trazado_874069" data-name="Trazado 874069" d="M695.192,683.108a1.253,1.253,0,0,0,.2-2.306L684.983,675.4a1.253,1.253,0,1,0-1.155,2.224l10.409,5.406a1.25,1.25,0,0,0,.955.083" transform="translate(-392.595 -497.031)" fill="#f39200"/>
        <path id="Trazado_874070" data-name="Trazado 874070" d="M713.512,688.9a1.253,1.253,0,0,0,.2-2.307L703.3,681.192a1.253,1.253,0,1,0-1.155,2.224l10.409,5.406a1.25,1.25,0,0,0,.956.083" transform="translate(-415.75 -501.297)" fill="#f39200"/>
        <path id="Trazado_874071" data-name="Trazado 874071" d="M731.831,694.7a1.253,1.253,0,0,0,.2-2.307l-10.409-5.405a1.253,1.253,0,1,0-1.155,2.224l10.409,5.406a1.25,1.25,0,0,0,.956.083" transform="translate(-438.904 -505.563)" fill="#f39200"/>
        <path id="Trazado_874072" data-name="Trazado 874072" d="M660.44,582.367a1.251,1.251,0,0,0,.734-.617l4.275-8.233a1.253,1.253,0,0,0-2.224-1.155l-4.275,8.232a1.253,1.253,0,0,0,1.49,1.772" transform="translate(-355.693 -420.799)" fill="#ffebca"/>
        <path id="Trazado_874073" data-name="Trazado 874073" d="M593.881,656.1l8.845-2.8a1.253,1.253,0,1,0-.756-2.389l-8.844,2.8a1.253,1.253,0,1,0,.756,2.389" transform="translate(-276.136 -479.068)" fill="#ffebca"/>
        <path id="Trazado_874074" data-name="Trazado 874074" d="M611.028,744.416a1.253,1.253,0,0,0,.2-2.306l-8.232-4.276a1.253,1.253,0,0,0-1.155,2.224l8.233,4.275a1.25,1.25,0,0,0,.956.083" transform="translate(-286.791 -542.989)" fill="#ffebca"/>
        <path id="Trazado_874075" data-name="Trazado 874075" d="M768.8,791.026a1.249,1.249,0,0,0,.734-.617l4.275-8.232a1.253,1.253,0,1,0-2.224-1.155l-4.275,8.233a1.253,1.253,0,0,0,1.49,1.772" transform="translate(-492.655 -574.384)" fill="#ffebca"/>
        <path id="Trazado_874076" data-name="Trazado 874076" d="M818.048,727.017l8.844-2.8a1.253,1.253,0,1,0-.756-2.389l-8.844,2.8a1.253,1.253,0,0,0,.756,2.389" transform="translate(-559.468 -531.27)" fill="#ffebca"/>
        <path id="Trazado_874077" data-name="Trazado 874077" d="M819.686,636.056a1.253,1.253,0,0,0,.2-2.307l-8.232-4.275A1.253,1.253,0,0,0,810.5,631.7l8.233,4.275a1.25,1.25,0,0,0,.956.083" transform="translate(-550.521 -463.23)" fill="#ffebca"/>
        <path id="Trazado_874078" data-name="Trazado 874078" d="M755.678,574.066a1.253,1.253,0,0,0,.817-1.573l-2.8-8.844a1.253,1.253,0,1,0-2.389.756l2.8,8.844a1.253,1.253,0,0,0,1.572.817" transform="translate(-471.054 -414.238)" fill="#ffebca"/>
        <path id="Trazado_874079" data-name="Trazado 874079" d="M701.352,740.635a1.253,1.253,0,0,0,.817-1.573l-3.708-11.718a1.253,1.253,0,1,0-2.389.756l3.707,11.718a1.253,1.253,0,0,0,1.573.817" transform="translate(-402.15 -534.728)" fill="#f39200"/>
        <path id="Trazado_874080" data-name="Trazado 874080" d="M544.735,1317.75c12.673-37.766,26.7-79.557,39.328-117.2.783-2.459,4.926-1.274,4.052,1.2l-3.406,10.148H609.4l3.809-11.35c.78-2.449,4.927-1.281,4.052,1.2-12.621,37.613-26.641,79.395-39.328,117.2-.793,2.456-4.923,1.273-4.052-1.2l3.823-11.394H553.013l-4.226,12.6a2.117,2.117,0,0,1-2.026,1.4,2.03,2.03,0,0,1-2.027-2.6m45.449-48.579H565.49l-4.62,13.768h24.693Zm-17.394-21.754h24.693l4.62-13.768H577.41Zm-1.34,3.993-4.62,13.768h24.693l4.62-13.768Zm11.919-35.522-4.62,13.768h24.693l4.62-13.768Zm-4.862,86.474a2.241,2.241,0,0,1,.518.062l5.2-15.493H559.531l-5.178,15.431Z" transform="translate(-277.35 -882.681)" fill="#143256"/>
        <path id="Trazado_874081" data-name="Trazado 874081" d="M560.931,1206.626l12.051-.108c-.169-4.173-.828-10.348-1.469-14.632l-6.137.245,2.322,8.633a2.013,2.013,0,0,1-1.3,2.324c-2.227.895-4.959.433-6.219,2.409a.8.8,0,0,0,.752,1.129" transform="translate(-237.033 -877.304)" fill="#f99370"/>
        <path id="Trazado_874082" data-name="Trazado 874082" d="M571.95,1233.379a3.518,3.518,0,0,1-.311,1.262h-12.1a.856.856,0,0,1-.826-1.123c.446-1.3,2.019-3.187,7.574-3.527a11.749,11.749,0,0,0,5-.045,7.448,7.448,0,0,1,.663,3.434" transform="translate(-235.648 -905.317)" fill="#eb5648"/>
        <path id="Trazado_874083" data-name="Trazado 874083" d="M596.2,1236.087a.245.245,0,0,1-.226-.151,2.588,2.588,0,0,0-1.285-1.426c-.638-.973,1.185-.293,1.736,1.238a.246.246,0,0,1-.226.338" transform="translate(-269.589 -908.345)" fill="#e8c0a6"/>
        <path id="Trazado_874084" data-name="Trazado 874084" d="M589.209,1233.97a.245.245,0,0,1-.233-.17,3.379,3.379,0,0,0-1.518-1.838c-.53-1.131,1.518.06,1.983,1.689a.245.245,0,0,1-.232.319" transform="translate(-260.701 -906.474)" fill="#e8c0a6"/>
        <path id="Trazado_874085" data-name="Trazado 874085" d="M581.018,1232.432a.244.244,0,0,1-.23-.162,4.406,4.406,0,0,0-1.539-2.018c-.394-1.182,1.453.23,2,1.854a.245.245,0,0,1-.23.327" transform="translate(-250.353 -905.221)" fill="#e8c0a6"/>
        <path id="Trazado_874086" data-name="Trazado 874086" d="M558.821,1243.072l13.229-.119a3.029,3.029,0,0,1-.352,1.153l-12.058.109a.857.857,0,0,1-.819-1.143" transform="translate(-235.749 -914.892)" fill="#ce3932"/>
        <path id="Trazado_874087" data-name="Trazado 874087" d="M660.159,833.246c-17.826-3.835-27.957-15.2-20.563-33.446,1.118-2.167,3.49-1.6,3.139.716-2.31,15.217,4.683,20.457,18.478,21.058,0,0,.034,0-.008-.007,7.636.719,6.592,12.33-1.046,11.679" transform="translate(-350.824 -587.705)" fill="#f99370"/>
        <path id="Trazado_874088" data-name="Trazado 874088" d="M613.065,1205.258l11.876.016c.441-2.936-2.151-12.521-2.872-15.225l-6.447,1.347,3.253,7.778s1.5,2.048-.482,2.6c-2.2.749-4.557.485-6.055,2.035a.907.907,0,0,0,.727,1.447" transform="translate(-302.781 -875.951)" fill="#f99370"/>
        <path id="Trazado_874089" data-name="Trazado 874089" d="M624.13,1233.766a3.025,3.025,0,0,1-.364,1.15l-12.058-.016a.857.857,0,0,1-.815-1.131c.46-1.292,2.052-3.166,7.61-3.449a11.748,11.748,0,0,0,5,.007,7.447,7.447,0,0,1,.627,3.44" transform="translate(-301.605 -905.593)" fill="#eb5648"/>
        <path id="Trazado_874090" data-name="Trazado 874090" d="M648.354,1236.09a.245.245,0,0,1-.227-.153,2.584,2.584,0,0,0-1.271-1.439c-.628-.98,1.188-.281,1.724,1.256a.246.246,0,0,1-.227.336" transform="translate(-335.513 -908.336)" fill="#e8c0a6"/>
        <path id="Trazado_874091" data-name="Trazado 874091" d="M641.35,1234.043a.245.245,0,0,1-.234-.172,3.4,3.4,0,0,0-1.5-1.854c-.515-1.137,1.517.077,1.966,1.71a.245.245,0,0,1-.233.316" transform="translate(-326.61 -906.515)" fill="#e8c0a6"/>
        <path id="Trazado_874092" data-name="Trazado 874092" d="M633.2,1232.55a.245.245,0,0,1-.231-.165,4.407,4.407,0,0,0-1.518-2.034.244.244,0,0,1,.27-.407,4.828,4.828,0,0,1,1.709,2.281.246.246,0,0,1-.231.324" transform="translate(-316.304 -905.285)" fill="#e8c0a6"/>
        <path id="Trazado_874093" data-name="Trazado 874093" d="M611.021,1243.312l13.23.018a3.025,3.025,0,0,1-.364,1.15l-12.058-.016a.857.857,0,0,1-.808-1.151" transform="translate(-301.726 -915.156)" fill="#ce3932"/>
        <path id="Trazado_874094" data-name="Trazado 874094" d="M567.259,912.679l25.352-3.859c-5.481-38.82-23.819-40.25-26.8-18.31-.88,5.569.617,18.93,1.444,22.169" transform="translate(-258.097 -644.991)" fill="#1d3f70"/>
        <path id="Trazado_874095" data-name="Trazado 874095" d="M656.781,943.671a32,32,0,0,1,2.649-13.09l-2.828-.362a69.564,69.564,0,0,0,.179,13.452" transform="translate(-348.884 -684.7)" fill="#163356"/>
        <path id="Trazado_874096" data-name="Trazado 874096" d="M625.888,780.517s.3.473.7,1.2c.888,1.586,2.3,4.379,2.3,6.064,0,2.455,5.93-3.123,5.93-3.123a29.98,29.98,0,0,0-5.02-5.319c-.39-.324-.8-.649-1.232-.965a4.186,4.186,0,0,1-2.678,2.142" transform="translate(-316.231 -572.934)" fill="#1d3f70"/>
        <path id="Trazado_874097" data-name="Trazado 874097" d="M649.871,823.281a20.552,20.552,0,0,0,14.108,15.471,99.5,99.5,0,0,0,10.487,2.257s4.393-12.294-.591-12.646-11.639-2.034-15.084-6.106c-2.546-3.007-3.024-8.824-3.1-11.656-.028-1-.006-1.627-.006-1.627a4.442,4.442,0,0,1-3.5-.448s-.237.47-.564,1.292c-.97,2.416-2.752,7.881-1.757,13.462" transform="translate(-363.921 -595.128)" fill="#1d3f70"/>
        <path id="Trazado_874098" data-name="Trazado 874098" d="M588.561,1040.416s-4.532,2.374-8.837,1.01c-5.653-13.669-8.334-32.323-6.868-45.86-.386-.591-7.921,19.226.244,45.971a9.06,9.06,0,0,1-7.006,1.6c-4.961-9.535-16.38-32.5-6.635-62.88,3.213-1.254,21.675-3.034,25.546-1.154a29.473,29.473,0,0,1,2.252,18.062c-2.563,13.819.022,34.455.976,41.1h.006c.194,1.37.322,2.147.322,2.147" transform="translate(-251.434 -720.082)" fill="#3a72aa"/>
        <path id="Trazado_874099" data-name="Trazado 874099" d="M614.212,1211.927c.694,1.342,1.131,2.062,1.131,2.062a9.072,9.072,0,0,0,7.01-1.6q-.284-1.006-.545-1.988a9.566,9.566,0,0,1-7.6,1.528" transform="translate(-300.685 -890.931)" fill="#23659b"/>
        <path id="Trazado_874100" data-name="Trazado 874100" d="M592.7,974.03s-10.573-3.337-25.573,1.582a2.878,2.878,0,0,0-.343,1.961s16.058-3.305,26.594-1.035a4.447,4.447,0,0,0-.678-2.509" transform="translate(-259.18 -716.134)" fill="#23659b"/>
        <path id="Trazado_874101" data-name="Trazado 874101" d="M570.035,798.253c3.274-.664,8.1.889,9.659,7.045,1.267,4.986,6.181,4.19,9.848,10.175,3.833,6.257.754,11.885-4.776,15.118-10.189,6.111-26.714-4.987-21.5-17.085,2.206-5.234,1.148-14.115,6.766-15.254" transform="translate(-255.871 -587.461)" fill="#8e4a35"/>
        <path id="Trazado_874102" data-name="Trazado 874102" d="M565.08,1207.689s-4.532,2.374-8.837,1.01c0,0-.234-.647-.6-1.731a14.674,14.674,0,0,0,9.115-1.426c.194,1.37.322,2.147.322,2.147" transform="translate(-227.954 -887.355)" fill="#23659b"/>
        <path id="Trazado_874103" data-name="Trazado 874103" d="M592.039,1075.366h-1.881c-5.452-13.11-7.971-32.066-6.546-44.912a6.3,6.3,0,0,0,2.69-4.8c-1.086,13.386-2.668,28.279,5.736,49.716" transform="translate(-262.191 -754.944)" fill="#23659b"/>
        <path id="Trazado_874104" data-name="Trazado 874104" d="M465.468,1320.347a2.116,2.116,0,0,1-2.025-1.4l-4.227-12.6H434.524l3.823,11.394c.871,2.474-3.259,3.658-4.052,1.2-12.687-37.809-26.707-79.59-39.328-117.2-.875-2.483,3.271-3.65,4.052-1.2l3.808,11.35h24.693l-3.405-10.148c-.874-2.475,3.269-3.661,4.052-1.2,12.633,37.647,26.655,79.438,39.328,117.2a2.031,2.031,0,0,1-2.027,2.6m-38.8-37.409h24.693l-4.62-13.768H422.047Zm8.154-49.289H410.127l4.62,13.768H439.44Zm-18.733,17.761,4.62,13.768H445.4l-4.62-13.768Zm-11.919-35.522,4.62,13.768H433.48l-4.62-13.768Zm53.709,86.474-5.178-15.431H428.006l5.2,15.493a2.236,2.236,0,0,1,.518-.062Z" transform="translate(-88.032 -882.681)" fill="#1d3f70"/>
        <path id="Trazado_874105" data-name="Trazado 874105" d="M731.383,787.617c-.669-1.909,1.12-3.664.46-4.083-1.516-.041-2.079,3.036-2.014,4.284a.785.785,0,1,0,1.554-.2" transform="translate(-440.838 -576.731)" fill="#f99370"/>
        <path id="Trazado_874106" data-name="Trazado 874106" d="M659.666,765.527c-.583-.946-3.351-3.29-4.239-2.068a.448.448,0,0,0,.294.493,4.573,4.573,0,0,1,2.606,2.391.785.785,0,1,0,1.34-.816" transform="translate(-349.036 -561.701)" fill="#f99370"/>
        <path id="Trazado_874107" data-name="Trazado 874107" d="M727.48,809.82a6.041,6.041,0,0,0,4.063.781l0,0c-.027-1-.005-1.627-.005-1.627a4.443,4.443,0,0,1-3.5-.448s-.237.47-.563,1.292" transform="translate(-439.773 -595.128)" fill="#163356"/>
        <path id="Trazado_874108" data-name="Trazado 874108" d="M644.906,780.517s.3.473.7,1.2c2.125.011,3.208-2.378,3.208-2.378-.39-.324-.8-.649-1.232-.965a4.186,4.186,0,0,1-2.678,2.142" transform="translate(-335.249 -572.934)" fill="#163356"/>
        <path id="Trazado_874109" data-name="Trazado 874109" d="M1258.844,1595.721l-10.734-1.107c-.933-.134-.828-1.09-.578-1.813.867-2.61.454-8.852.544-11.619a.858.858,0,0,1,.946-.853l4.737.488a.858.858,0,0,1,.748,1.047l-1.571,6.781c-.658,3.145,2.6,3.751,4.721,4.412a3.583,3.583,0,0,1,2.029,1.4.859.859,0,0,1-.843,1.263" transform="translate(-1105.235 -1163.219)" fill="#f99370"/>
        <path id="Trazado_874110" data-name="Trazado 874110" d="M1246.633,1621.1c-.026.529.174,1.156.785,1.206l11.134,1.149c2.865-.565-.8-4.872-5.843-5.095a13.768,13.768,0,0,1-4.481-.357c-1.233-.257-1.529,2-1.6,3.1" transform="translate(-1104.809 -1190.934)" fill="#103663"/>
        <path id="Trazado_874111" data-name="Trazado 874111" d="M1253.385,1626.781a.239.239,0,0,0,.235-.125,2.532,2.532,0,0,1,1.375-1.265.238.238,0,0,0-.128-.458,2.989,2.989,0,0,0-1.667,1.5.239.239,0,0,0,.185.348" transform="translate(-1102.141 -1196.045)" fill="#e8c0a6"/>
        <path id="Trazado_874112" data-name="Trazado 874112" d="M1259.316,1624.136a.238.238,0,0,0,.243-.143,3.294,3.294,0,0,1,1.639-1.644.238.238,0,0,0-.175-.442,3.744,3.744,0,0,0-1.9,1.9.239.239,0,0,0,.195.33" transform="translate(-1109.887 -1193.811)" fill="#e8c0a6"/>
        <path id="Trazado_874113" data-name="Trazado 874113" d="M1267.1,1621.911a.238.238,0,0,0,.24-.136,4.288,4.288,0,0,1,1.676-1.816.238.238,0,0,0-.221-.421,4.7,4.7,0,0,0-1.885,2.036.239.239,0,0,0,.191.337" transform="translate(-1119.736 -1192.059)" fill="#e8c0a6"/>
        <path id="Trazado_874114" data-name="Trazado 874114" d="M1259.763,1631.111l-12.813-1.322a2.95,2.95,0,0,0,.236,1.15l11.683,1.205a.832.832,0,0,0,.894-1.034" transform="translate(-1105.125 -1199.627)" fill="#0f2e54"/>
        <path id="Trazado_874115" data-name="Trazado 874115" d="M1413.077,1521.066l-3.425-10.233c-.263-.906.651-1.2,1.412-1.276,2.735-.289,8.25-3.242,10.807-4.3a.857.857,0,0,1,1.167.509l1.512,4.516a.858.858,0,0,1-.644,1.114l-6.824,1.37c-3.137.7-2.341,3.919-2.068,6.122a3.584,3.584,0,0,1-.437,2.426.859.859,0,0,1-1.5-.246" transform="translate(-1312.86 -1107.905)" fill="#f99370"/>
        <path id="Trazado_874116" data-name="Trazado 874116" d="M1442.873,1519.558c-.493.2-.981.636-.775,1.213l3.553,10.615c1.7,2.376,4.107-2.739,2.227-7.426a13.76,13.76,0,0,1-1.526-4.229c-.275-1.229-2.457-.564-3.479-.173" transform="translate(-1345.392 -1118.098)" fill="#103663"/>
        <path id="Trazado_874117" data-name="Trazado 874117" d="M1441.943,1553.576a.238.238,0,0,0,.211.162,2.532,2.532,0,0,1,1.72.73.238.238,0,0,0,.364-.306,2.988,2.988,0,0,0-2.054-.9.239.239,0,0,0-.24.313" transform="translate(-1341.094 -1143.299)" fill="#e8c0a6"/>
        <path id="Trazado_874118" data-name="Trazado 874118" d="M1441.636,1546.666a.237.237,0,0,0,.231.162,3.29,3.29,0,0,1,2.174.814c.218.218.556-.131.331-.342a3.745,3.745,0,0,0-2.515-.947.239.239,0,0,0-.22.313" transform="translate(-1341.162 -1138.213)" fill="#e8c0a6"/>
        <path id="Trazado_874119" data-name="Trazado 874119" d="M1442.691,1538.8a.238.238,0,0,0,.223.162,4.292,4.292,0,0,1,2.346.775.238.238,0,0,0,.293-.375,4.7,4.7,0,0,0-2.633-.876.239.239,0,0,0-.228.313" transform="translate(-1342.639 -1132.423)" fill="#e8c0a6"/>
        <path id="Trazado_874120" data-name="Trazado 874120" d="M1453.154,1533.262l-4.088-12.215a2.951,2.951,0,0,0-.95.69l3.728,11.138a.832.832,0,0,0,1.31.387" transform="translate(-1351.584 -1119.587)" fill="#0f2e54"/>
        <path id="Trazado_874121" data-name="Trazado 874121" d="M1288.523,1206.826c-4.861,4.865.978,10.886,5.92,6.033,4.861-4.865-.978-10.885-5.92-6.033" transform="translate(-1152.095 -886.982)" fill="#662948"/>
        <path id="Trazado_874122" data-name="Trazado 874122" d="M1156.573,1251.875c14.29,16.623,29.667,12.9,33.732-8.829.428-2.607-2.557-2.934-3.224.1-2.634,6.353-8.563,16.1-16.446,10.974-2.962-1.948-6.354-7.872-11.927-10.507a11.724,11.724,0,0,0-1.8,1.179h0c-2.218,1.809-3.774,4.272-.331,7.084" transform="translate(-1011.296 -913.44)" fill="#e57d61"/>
        <path id="Trazado_874123" data-name="Trazado 874123" d="M1234.189,1253.816s2.954.126,5.56,3.865,4.4,3.862,4.385,5.439a9.669,9.669,0,0,0-3.518,6.7s-2.454.618-3.871-.744-9.143-9.671-2.556-15.256" transform="translate(-1085.409 -922.888)" fill="#23659b"/>
        <path id="Trazado_874124" data-name="Trazado 874124" d="M1128.772,1174.513a14.85,14.85,0,1,1,27.239-.759l.9,5.931a4.886,4.886,0,0,1-2.763,5.162l-6.835,3.192a4.886,4.886,0,0,1-5.732-1.2l-3.968-4.5a14.809,14.809,0,0,1-8.843-7.832" transform="translate(-970.856 -848.958)" fill="#ffebca"/>
        <path id="Trazado_874125" data-name="Trazado 874125" d="M1131.484,1279.594l7.89-3.685a.93.93,0,1,0-.787-1.686l-7.891,3.684a.93.93,0,1,0,.787,1.686" transform="translate(-954.422 -937.845)" fill="#d86d03"/>
        <path id="Trazado_874126" data-name="Trazado 874126" d="M1127.152,1288.871l7.89-3.685a.93.93,0,0,0-.787-1.686l-7.891,3.684a.93.93,0,0,0,.787,1.686" transform="translate(-948.946 -944.674)" fill="#d86d03"/>
        <path id="Trazado_874127" data-name="Trazado 874127" d="M1122.82,1298.149l7.891-3.685a.93.93,0,0,0-.787-1.686l-7.891,3.684a.93.93,0,1,0,.787,1.686" transform="translate(-943.47 -951.503)" fill="#d86d03"/>
        <path id="Trazado_874128" data-name="Trazado 874128" d="M1124.158,1307.524l4.9-2.287a1.157,1.157,0,0,0,.559-1.538l-.314-.674-6.994,3.266.314.673a1.157,1.157,0,0,0,1.538.559" transform="translate(-942.16 -959.109)" fill="#d86d03"/>
        <path id="Trazado_874129" data-name="Trazado 874129" d="M1159.478,1202.9a.93.93,0,0,0-.076-1.717l-8.185-2.974a.93.93,0,1,0-.636,1.749l8.185,2.974a.927.927,0,0,0,.712-.032" transform="translate(-979.753 -881.915)" fill="#d86d03"/>
        <path id="Trazado_874130" data-name="Trazado 874130" d="M1172.4,1208.933a.93.93,0,0,0-.076-1.717l-8.185-2.974a.93.93,0,1,0-.635,1.749l8.185,2.974a.926.926,0,0,0,.711-.031" transform="translate(-996.09 -886.357)" fill="#d86d03"/>
        <path id="Trazado_874131" data-name="Trazado 874131" d="M1185.331,1214.969a.93.93,0,0,0-.076-1.717l-8.185-2.974a.93.93,0,1,0-.635,1.749l8.185,2.974a.927.927,0,0,0,.711-.031" transform="translate(-1012.429 -890.8)" fill="#d86d03"/>
        <path id="Trazado_874132" data-name="Trazado 874132" d="M1157.366,1244.684a.93.93,0,0,0,.449-1.237l-3.861-8.268a.93.93,0,0,0-1.686.787l3.861,8.268a.931.931,0,0,0,1.237.449" transform="translate(-978.225 -908.775)" fill="#f39200"/>
        <path id="Trazado_874133" data-name="Trazado 874133" d="M1279.043,1241.392l-.184,2.063c-.879,2.353-3.915,1.156-5.128-.458,0,0,.33-1.519.392-2.231Z" transform="translate(-1131.446 -913.283)" fill="#f99370"/>
        <path id="Trazado_874134" data-name="Trazado 874134" d="M1252.759,1178.066c7.114-2.1,9.885,8.2,6.125,12.763Z" transform="translate(-1107.432 -866.926)" fill="#662948"/>
        <path id="Trazado_874135" data-name="Trazado 874135" d="M1272.273,1214.675c0,.086.007.174.017.259a26.784,26.784,0,0,1-.195,5.269,9,9,0,0,0,4.891,1.051c.283-3.584,1.42-6.969-1.026-8.756a2.519,2.519,0,0,0-3.688,2.177" transform="translate(-1129.47 -892.259)" fill="#e57d61"/>
        <path id="Trazado_874136" data-name="Trazado 874136" d="M1251.352,1190.776c.093,2.23.556,4.777,2.136,6.412h0c4.253,4.8,14.982-.646,10.692-6.539a6.427,6.427,0,0,1-1.236-2.525c-1.6-8.751-12.212-5.066-11.595,2.652" transform="translate(-1111.667 -870.802)" fill="#f99370"/>
        <path id="Trazado_874137" data-name="Trazado 874137" d="M1266.993,1221.592l-2.751-1.8a1.684,1.684,0,0,0,2.751,1.8" transform="translate(-1116.87 -897.844)" fill="#f9f8f3"/>
        <path id="Trazado_874138" data-name="Trazado 874138" d="M1271.177,1209.541c.251-.361-.332-.728-.566-.369-.251.361.332.728.566.369" transform="translate(-1122.802 -889.919)" fill="#c16256"/>
        <path id="Trazado_874139" data-name="Trazado 874139" d="M1260.19,1209.028c.251-.361-.332-.728-.566-.369-.251.361.332.728.566.369" transform="translate(-1108.915 -889.541)" fill="#c16256"/>
        <path id="Trazado_874140" data-name="Trazado 874140" d="M1266.544,1221.436a.128.128,0,0,0,.07-.234c-.082.021-2.9-2.075-2.927-1.764-.19.2,2.788,1.929,2.858,2" transform="translate(-1116.42 -897.56)" fill="#c16256"/>
        <path id="Trazado_874141" data-name="Trazado 874141" d="M1261.427,1213.271c.579-.012,1.373-.3.713-.874-.763-.523-.753-1.87-1.064-1.867-.357.21.487,1.706,1.044,2.264a1.188,1.188,0,0,1-1.157.137.127.127,0,0,0-.168.065c-.041.281.424.25.632.276" transform="translate(-1111.377 -891.027)" fill="#c16256"/>
        <path id="Trazado_874142" data-name="Trazado 874142" d="M1245.6,1411a26.176,26.176,0,0,0,3.172-.723c7.079-2,23.958-9.019,29.09-31.234,0,0,2.378,17.693-2.166,41.381q-.3,1.571-.643,3.178a22.26,22.26,0,0,0,2.21,1.047c3.3,1.383,9.729,3.359,15.252.825.135-.806.261-1.6.385-2.389,3.948-25.294,2.251-41.554-1.457-58.235l-25.329-3.736c-4.069,7.647-4.005,17.135-7.249,22.248a30.51,30.51,0,0,1-15,12.6,16.445,16.445,0,0,1-2.7.789A24.939,24.939,0,0,0,1245.6,1411" transform="translate(-1138.968 -1001.868)" fill="#1d3f70"/>
        <path id="Trazado_874143" data-name="Trazado 874143" d="M1248.181,1278.119s12.962,7.521,24.955,3.938a2.421,2.421,0,0,0,.546-2.439c-2.323-6.723.376-10.053,1.216-13.824.5-2.22.347-4.594-1.851-7.9-.978-1.5-2.6-4.266-3.8-6.361-.414-.724-.777-1.368-1.044-1.853.016.156-.217.31-.828.742a2.07,2.07,0,0,1-.976.437h0c-.676.083-1.685-.213-3.323-1.636a11.747,11.747,0,0,0-1.419.169c-4.075.737-6.751,3.542-8.573,7.188-3.485,6.972-3.847,17.015-4.9,21.541" transform="translate(-1120.791 -919.506)" fill="#f99370"/>
        <path id="Trazado_874144" data-name="Trazado 874144" d="M1266.761,1190.475c.093,2.23.556,4.777,2.136,6.412h0a11.972,11.972,0,0,1-1.119-4.019l.606-1.125c8.054-1.54,8.132-7.694,8.132-7.694-4.35-3.989-10.25,1.259-9.758,6.426" transform="translate(-1127.075 -870.5)" fill="#e57d61"/>
        <path id="Trazado_874145" data-name="Trazado 874145" d="M1280.712,1178.4s-.108,6.066-7.35,7.718l-2.695,1.217c-4.038-7.481,4.345-15.818,10.045-8.934" transform="translate(-1132.026 -865.49)" fill="#662948"/>
        <path id="Trazado_874146" data-name="Trazado 874146" d="M1297.413,1210.18c.2,2.518,3.463,2.243,3.2-.281-.2-2.518-3.463-2.243-3.2.281" transform="translate(-1159.281 -889.27)" fill="#f99370"/>
        <path id="Trazado_874147" data-name="Trazado 874147" d="M1301.245,1212.609a.128.128,0,0,0,.125-.15c-.139-.754-.072-1.256.195-1.453.408-.334.935.2,1.19.015-.621-1.049-2.415.107-1.51,1.587" transform="translate(-1162.355 -891.091)" fill="#c16256"/>
        <path id="Trazado_874148" data-name="Trazado 874148" d="M1303.018,1214.108c.449.076-.525-1.752-1.337-1.348a.127.127,0,0,0,.1.148c.994.218.977,1.152,1.234,1.2" transform="translate(-1162.911 -892.625)" fill="#c16256"/>
        <path id="Trazado_874149" data-name="Trazado 874149" d="M1302.634,1220.132a.29.29,0,0,0,.575.067.29.29,0,0,0-.575-.067" transform="translate(-1163.243 -897.917)" fill="#f4d4be"/>
        <path id="Trazado_874150" data-name="Trazado 874150" d="M1248.181,1279.226s13.337,7.318,25.33,3.735a4.055,4.055,0,0,0,.414-2.871c-2.323-6.723.376-10.054,1.215-13.825.5-2.22.347-4.594-1.851-7.9-.777-1.193-2.123-5.206-3.475-7.459a2.24,2.24,0,0,0-.688-.4c-.1.982-.132,3.672-1.507,3.768a3.1,3.1,0,0,1-2.486-1.427c-.955-1.112-1.854-2.539-3.234-2.987-4.193.514-6.751,3.542-8.573,7.188-3.485,6.972-4.09,17.652-5.145,22.177" transform="translate(-1121.034 -919.977)" fill="#3a72aa"/>
        <path id="Trazado_874151" data-name="Trazado 874151" d="M1194.449,1259.089c8.239,16.739,27.44,20.026,33.681-.065,1.073-2.337-1.779-3.6-2.786-1.239-7.491,12.445-16.944,9.959-22.146-2.479-2.5-5.711-11.2-1.948-8.749,3.782" transform="translate(-1059.733 -921.898)" fill="#f99370"/>
        <path id="Trazado_874152" data-name="Trazado 874152" d="M1275.594,1251.78c2.971.022,4.136,1.308,5.209,3.578s4.628,5.076,4.46,7.1c0,0-5.055,1.238-5.81,6.149a9.754,9.754,0,0,1-4.509-3.26c-1.652-2.352-4.376-5.595-4.417-7.626s1.138-5.967,5.067-5.939" transform="translate(-1136.827 -921.389)" fill="#23659b"/>
        <path id="Trazado_874153" data-name="Trazado 874153" d="M1173.573,1240.8c.747.117.3,1.692.653,2.286a10.253,10.253,0,0,0,1.3-1.966c.355-1.312.643-2.64.873-3.98a.7.7,0,0,1,.284-.458c1.047-.718.133,3.962.142,4.5l.021,0a32.913,32.913,0,0,0,1.716-3.907.7.7,0,0,1,.379-.416c1.22-.517-.9,4.453-1.061,4.962l.01,0a18.8,18.8,0,0,0,2.054-3.495.648.648,0,0,1,.452-.375c1.19-.241-1.3,4.414-1.628,4.9l.01.014a18.635,18.635,0,0,0,2.023-2.45.7.7,0,0,1,.5-.3c1.158-.1-1.569,3.627-1.911,4.026a18.422,18.422,0,0,1-3.68,3.614c-.651.532-2.371-1.049-2.514-1.863.08-1.15-.486-5.008.376-5.1" transform="translate(-1007.427 -910.223)" fill="#f99370"/>
        <path id="Trazado_874154" data-name="Trazado 874154" d="M1268.606,1205.438a.121.121,0,0,0,.094-.045,1.787,1.787,0,0,1,1.49-.63.122.122,0,0,0,.139-.1.121.121,0,0,0-.1-.139,1.986,1.986,0,0,0-1.716.716.121.121,0,0,0,.094.2" transform="translate(-1121.349 -886.592)" fill="#c16256"/>
        <path id="Trazado_874155" data-name="Trazado 874155" d="M1259.886,1204.957a.127.127,0,0,0,.052-.012.122.122,0,0,0,.057-.162,1.268,1.268,0,0,0-1.428-.739.121.121,0,0,0,.06.235,1.013,1.013,0,0,1,1.149.609.121.121,0,0,0,.11.069" transform="translate(-1108.385 -886.234)" fill="#c16256"/>
        <path id="Trazado_874156" data-name="Trazado 874156" d="M1250.36,1460.285c4.544-23.688,2.167-41.381,2.167-41.381a8.3,8.3,0,0,0,2.172-3.637s3.881,24.026-1.894,46.148a26.615,26.615,0,0,0,14.76,1.531c-.124.786-.25,1.583-.385,2.389-5.523,2.535-11.95.558-15.252-.825a22.332,22.332,0,0,1-2.21-1.047c.228-1.069.443-2.13.643-3.178" transform="translate(-1113.629 -1041.726)" fill="#163356"/>
        <path id="Trazado_874157" data-name="Trazado 874157" d="M1421.357,1508.2a26.078,26.078,0,0,0,3.172-.723v0s-5.248-6.315-4.912-14.309a16.435,16.435,0,0,1-2.705.789,24.939,24.939,0,0,0,4.445,14.245" transform="translate(-1314.722 -1099.062)" fill="#163356"/>
      </g>
    </g>
    <path id="Trazado_874532" data-name="Trazado 874532" d="M38.5,0h238a38.5,38.5,0,0,1,0,77H38.5a38.5,38.5,0,0,1,0-77Z" transform="translate(380 4162)" fill="#fee7bd"/>
    <path id="Trazado_874533" data-name="Trazado 874533" d="M38.5,0h238a38.5,38.5,0,0,1,0,77H38.5a38.5,38.5,0,0,1,0-77Z" transform="translate(380 4292)" fill="#ffc278"/>
    <path id="Trazado_874534" data-name="Trazado 874534" d="M38.5,0h238a38.5,38.5,0,0,1,0,77H38.5a38.5,38.5,0,0,1,0-77Z" transform="translate(380 4421)" fill="#b0dfde"/>
    <path id="Trazado_874535" data-name="Trazado 874535" d="M-104.15-5.1h-4.975V0h-3.085V-12.8h8.561v2.382h-5.476v2.944h4.975Zm7.119,4.069a3.054,3.054,0,0,1-2.54,1.2,3,3,0,0,1-2.369-.91,3.826,3.826,0,0,1-.8-2.615V-9.51h2.962v6.179A1.065,1.065,0,0,0-98.6-2.109a1.548,1.548,0,0,0,1.45-.729V-9.51h2.979V0h-2.777Zm9.088,1.2a4.889,4.889,0,0,1-3.542-1.305,4.507,4.507,0,0,1-1.354-3.4v-.246A5.84,5.84,0,0,1-92.3-7.348a3.955,3.955,0,0,1,1.578-1.727,4.763,4.763,0,0,1,2.461-.611A4.117,4.117,0,0,1-85.1-8.442a4.887,4.887,0,0,1,1.16,3.467v1.151h-5.889a2.135,2.135,0,0,0,.694,1.257,2.066,2.066,0,0,0,1.389.457,2.662,2.662,0,0,0,2.2-.984l1.354,1.6A3.784,3.784,0,0,1-85.759-.277,5.3,5.3,0,0,1-87.943.176ZM-88.277-7.4q-1.3,0-1.547,1.723h2.988v-.229a1.467,1.467,0,0,0-.36-1.1A1.434,1.434,0,0,0-88.277-7.4Zm11.285.571-.976-.07a1.752,1.752,0,0,0-1.793.879V0h-2.962V-9.51h2.777l.1,1.222a2.294,2.294,0,0,1,2.083-1.4,2.888,2.888,0,0,1,.826.105Zm4.562,4.544H-68.1V0h-8.077V-1.652l4.219-5.572H-75.99V-9.51h7.8v1.6ZM-61.3,0a3.344,3.344,0,0,1-.281-.853A2.754,2.754,0,0,1-63.87.176a3.374,3.374,0,0,1-2.285-.813,2.588,2.588,0,0,1-.94-2.043,2.66,2.66,0,0,1,1.143-2.338,5.821,5.821,0,0,1,3.322-.791h.914v-.5q0-1.316-1.134-1.316a.927.927,0,0,0-1.055,1.042h-2.962a2.655,2.655,0,0,1,1.173-2.239,4.931,4.931,0,0,1,2.993-.86,4.323,4.323,0,0,1,2.874.888,3.086,3.086,0,0,1,1.081,2.435v4.21a4.311,4.311,0,0,0,.4,2V0Zm-1.854-1.934a1.652,1.652,0,0,0,.918-.237,1.487,1.487,0,0,0,.523-.536V-4.228h-.861q-1.547,0-1.547,1.389a.848.848,0,0,0,.272.655A.986.986,0,0,0-63.158-1.934Zm11.03-.738a.684.684,0,0,0-.4-.606,6.016,6.016,0,0,0-1.5-.475A6.853,6.853,0,0,1-55.854-4.4a3.062,3.062,0,0,1-1.1-.971,2.319,2.319,0,0,1-.378-1.31A2.628,2.628,0,0,1-56.25-8.837a4.453,4.453,0,0,1,2.83-.848,4.934,4.934,0,0,1,3.023.853,2.666,2.666,0,0,1,1.143,2.241h-2.971q0-1.143-1.2-1.143a1.194,1.194,0,0,0-.782.259.8.8,0,0,0-.316.646.737.737,0,0,0,.387.642,3.654,3.654,0,0,0,1.235.4,10.671,10.671,0,0,1,1.49.378A2.706,2.706,0,0,1-49.271-2.76,2.491,2.491,0,0,1-50.427-.642,5.068,5.068,0,0,1-53.42.176,5.172,5.172,0,0,1-55.6-.264a3.645,3.645,0,0,1-1.494-1.2A2.707,2.707,0,0,1-57.63-3.05h2.769a1.145,1.145,0,0,0,.439.962,1.808,1.808,0,0,0,1.081.3,1.422,1.422,0,0,0,.91-.246A.787.787,0,0,0-52.128-2.672Zm13.7,0a.684.684,0,0,0-.4-.606,6.016,6.016,0,0,0-1.5-.475A6.853,6.853,0,0,1-42.152-4.4a3.062,3.062,0,0,1-1.1-.971,2.319,2.319,0,0,1-.378-1.31,2.628,2.628,0,0,1,1.081-2.158,4.453,4.453,0,0,1,2.83-.848,4.934,4.934,0,0,1,3.023.853,2.666,2.666,0,0,1,1.143,2.241h-2.971q0-1.143-1.2-1.143a1.194,1.194,0,0,0-.782.259.8.8,0,0,0-.316.646.737.737,0,0,0,.387.642,3.654,3.654,0,0,0,1.235.4,10.671,10.671,0,0,1,1.49.378A2.706,2.706,0,0,1-35.569-2.76,2.491,2.491,0,0,1-36.725-.642a5.068,5.068,0,0,1-2.993.817A5.172,5.172,0,0,1-41.9-.264a3.645,3.645,0,0,1-1.494-1.2,2.707,2.707,0,0,1-.536-1.591h2.769a1.145,1.145,0,0,0,.439.962,1.808,1.808,0,0,0,1.081.3,1.422,1.422,0,0,0,.91-.246A.787.787,0,0,0-38.426-2.672Zm3.867-2.171A5.613,5.613,0,0,1-34-7.378a3.96,3.96,0,0,1,1.591-1.709,4.791,4.791,0,0,1,2.435-.6,4.373,4.373,0,0,1,3.366,1.323,5.076,5.076,0,0,1,1.23,3.6v.105a4.925,4.925,0,0,1-1.235,3.529A4.384,4.384,0,0,1-29.962.176a4.434,4.434,0,0,1-3.261-1.217,4.761,4.761,0,0,1-1.327-3.3Zm2.962.185a3.538,3.538,0,0,0,.413,1.934,1.376,1.376,0,0,0,1.222.615q1.582,0,1.617-2.435v-.3q0-2.558-1.635-2.558-1.485,0-1.608,2.206Zm11.54,2.549a1.317,1.317,0,0,0,.967-.338,1.241,1.241,0,0,0,.334-.945h2.777A3.288,3.288,0,0,1-17.1-.826a4.168,4.168,0,0,1-2.887,1,4.22,4.22,0,0,1-3.27-1.3,5.125,5.125,0,0,1-1.2-3.6v-.123A5.792,5.792,0,0,1-23.919-7.4a3.872,3.872,0,0,1,1.534-1.7,4.573,4.573,0,0,1,2.373-.593,4.116,4.116,0,0,1,2.944,1.028,3.647,3.647,0,0,1,1.09,2.786h-2.777A1.626,1.626,0,0,0-19.116-7a1.244,1.244,0,0,0-.967-.4q-1.151,0-1.345,1.468a10.357,10.357,0,0,0-.062,1.283,4.068,4.068,0,0,0,.343,1.986A1.187,1.187,0,0,0-20.057-2.109ZM-11.6,0h-2.971V-9.51H-11.6Zm-3.146-11.962A1.322,1.322,0,0,1-14.291-13a1.724,1.724,0,0,1,1.187-.4,1.724,1.724,0,0,1,1.187.4,1.322,1.322,0,0,1,.457,1.037,1.322,1.322,0,0,1-.457,1.037,1.724,1.724,0,0,1-1.187.4,1.724,1.724,0,0,1-1.187-.4A1.322,1.322,0,0,1-14.748-11.962ZM-4.421,0A3.344,3.344,0,0,1-4.7-.853,2.754,2.754,0,0,1-6.987.176,3.374,3.374,0,0,1-9.272-.637a2.588,2.588,0,0,1-.94-2.043A2.66,2.66,0,0,1-9.07-5.019,5.821,5.821,0,0,1-5.748-5.81h.914v-.5q0-1.316-1.134-1.316A.927.927,0,0,0-7.022-6.587H-9.984A2.655,2.655,0,0,1-8.811-8.825a4.931,4.931,0,0,1,2.993-.86A4.323,4.323,0,0,1-2.944-8.8,3.086,3.086,0,0,1-1.863-6.363v4.21a4.311,4.311,0,0,0,.4,2V0ZM-6.275-1.934a1.652,1.652,0,0,0,.918-.237,1.487,1.487,0,0,0,.523-.536V-4.228H-5.7q-1.547,0-1.547,1.389a.848.848,0,0,0,.272.655A.986.986,0,0,0-6.275-1.934ZM2.9,0H-.07V-13.5H2.9ZM9.325.176A4.889,4.889,0,0,1,5.783-1.129a4.507,4.507,0,0,1-1.354-3.4v-.246A5.84,5.84,0,0,1,4.97-7.348,3.955,3.955,0,0,1,6.548-9.075a4.763,4.763,0,0,1,2.461-.611,4.117,4.117,0,0,1,3.164,1.244,4.887,4.887,0,0,1,1.16,3.467v1.151H7.444a2.135,2.135,0,0,0,.694,1.257,2.066,2.066,0,0,0,1.389.457,2.662,2.662,0,0,0,2.2-.984l1.354,1.6A3.784,3.784,0,0,1,11.509-.277,5.3,5.3,0,0,1,9.325.176ZM8.991-7.4q-1.3,0-1.547,1.723h2.988v-.229a1.467,1.467,0,0,0-.36-1.1A1.434,1.434,0,0,0,8.991-7.4ZM19.5-2.672a.684.684,0,0,0-.4-.606,6.016,6.016,0,0,0-1.5-.475A6.853,6.853,0,0,1,15.776-4.4a3.062,3.062,0,0,1-1.1-.971A2.319,2.319,0,0,1,14.3-6.68a2.628,2.628,0,0,1,1.081-2.158,4.453,4.453,0,0,1,2.83-.848,4.934,4.934,0,0,1,3.023.853,2.666,2.666,0,0,1,1.143,2.241H19.406q0-1.143-1.2-1.143a1.194,1.194,0,0,0-.782.259.8.8,0,0,0-.316.646.737.737,0,0,0,.387.642,3.654,3.654,0,0,0,1.235.4,10.671,10.671,0,0,1,1.49.378A2.706,2.706,0,0,1,22.359-2.76,2.491,2.491,0,0,1,21.2-.642a5.068,5.068,0,0,1-2.993.817,5.172,5.172,0,0,1-2.18-.439,3.645,3.645,0,0,1-1.494-1.2A2.707,2.707,0,0,1,14-3.05H16.77a1.145,1.145,0,0,0,.439.962,1.808,1.808,0,0,0,1.081.3,1.422,1.422,0,0,0,.91-.246A.787.787,0,0,0,19.5-2.672ZM32.027-4.148,33.609-9.51h3.173l-3.876,11.1-.167.4a2.944,2.944,0,0,1-2.918,1.846A4.642,4.642,0,0,1,28.6,3.666V1.556h.387a2.026,2.026,0,0,0,.954-.18,1.094,1.094,0,0,0,.488-.647L30.665.1,27.36-9.51h3.164Zm9.633-.677a5.809,5.809,0,0,1,.976-3.56,3.211,3.211,0,0,1,2.725-1.3,2.731,2.731,0,0,1,2.145,1V-13.5h2.971V0H47.813l-.149-1.02a2.8,2.8,0,0,1-2.32,1.2,3.205,3.205,0,0,1-2.689-1.3A5.993,5.993,0,0,1,41.66-4.825Zm2.962.185q0,2.531,1.477,2.531A1.458,1.458,0,0,0,47.5-2.936V-6.557A1.419,1.419,0,0,0,46.116-7.4q-1.371,0-1.485,2.215ZM56.76.176a4.889,4.889,0,0,1-3.542-1.305,4.507,4.507,0,0,1-1.354-3.4v-.246A5.84,5.84,0,0,1,52.4-7.348a3.955,3.955,0,0,1,1.578-1.727,4.763,4.763,0,0,1,2.461-.611,4.117,4.117,0,0,1,3.164,1.244,4.887,4.887,0,0,1,1.16,3.467v1.151H54.879a2.135,2.135,0,0,0,.694,1.257,2.066,2.066,0,0,0,1.389.457,2.662,2.662,0,0,0,2.2-.984l1.354,1.6A3.784,3.784,0,0,1,58.944-.277,5.3,5.3,0,0,1,56.76.176ZM56.426-7.4q-1.3,0-1.547,1.723h2.988v-.229a1.467,1.467,0,0,0-.36-1.1A1.434,1.434,0,0,0,56.426-7.4Zm9.668,2.575a6.421,6.421,0,0,1,.475-2.549,3.821,3.821,0,0,1,1.362-1.709A3.591,3.591,0,0,1,70-9.686a2.855,2.855,0,0,1,2.32,1l.105-.826h2.689V-.36a4.009,4.009,0,0,1-.584,2.184,3.75,3.75,0,0,1-1.692,1.424,6.219,6.219,0,0,1-2.566.5,5.365,5.365,0,0,1-2.026-.4,3.657,3.657,0,0,1-1.5-1.028L67.983.58a2.716,2.716,0,0,0,2.18.976A1.764,1.764,0,0,0,72.132-.466v-.3a2.781,2.781,0,0,1-2.153.94,3.437,3.437,0,0,1-2.812-1.332A5.517,5.517,0,0,1,66.094-4.72Zm2.971.185a3.383,3.383,0,0,0,.439,1.85,1.386,1.386,0,0,0,1.23.681,1.573,1.573,0,0,0,1.4-.642v-4a1.534,1.534,0,0,0-1.38-.65,1.4,1.4,0,0,0-1.239.708A3.858,3.858,0,0,0,69.064-4.641ZM82.547-6.829l-.976-.07a1.752,1.752,0,0,0-1.793.879V0H76.816V-9.51h2.777l.1,1.222a2.294,2.294,0,0,1,2.083-1.4,2.888,2.888,0,0,1,.826.105Zm6.732,5.8a3.054,3.054,0,0,1-2.54,1.2,3,3,0,0,1-2.369-.91,3.826,3.826,0,0,1-.8-2.615V-9.51h2.962v6.179a1.065,1.065,0,0,0,1.187,1.222,1.548,1.548,0,0,0,1.45-.729V-9.51h2.979V0H89.367Zm13.315-3.656a5.735,5.735,0,0,1-1,3.538A3.2,3.2,0,0,1,98.9.176,2.742,2.742,0,0,1,96.75-.782V3.656H93.788V-9.51h2.769l.088.879a2.742,2.742,0,0,1,2.241-1.055,3.224,3.224,0,0,1,2.733,1.3,5.805,5.805,0,0,1,.976,3.564Zm-2.962-.185q0-2.531-1.477-2.531a1.394,1.394,0,0,0-1.406.756V-2.9a1.439,1.439,0,0,0,1.424.791q1.415,0,1.459-2.443Zm3.894.026a5.613,5.613,0,0,1,.554-2.536,3.96,3.96,0,0,1,1.591-1.709,4.791,4.791,0,0,1,2.435-.6,4.373,4.373,0,0,1,3.366,1.323,5.076,5.076,0,0,1,1.23,3.6v.105a4.925,4.925,0,0,1-1.235,3.529A4.384,4.384,0,0,1,108.123.176a4.434,4.434,0,0,1-3.261-1.217,4.761,4.761,0,0,1-1.327-3.3Zm2.962.185a3.538,3.538,0,0,0,.413,1.934,1.376,1.376,0,0,0,1.222.615q1.582,0,1.617-2.435v-.3q0-2.558-1.635-2.558-1.485,0-1.608,2.206Z" transform="translate(538 4207)" fill="#12263f"/>
    <path id="Trazado_874536" data-name="Trazado 874536" d="M-79.146-5.1H-84.12V0h-3.085V-12.8h8.561v2.382H-84.12v2.944h4.975Zm7.119,4.069a3.054,3.054,0,0,1-2.54,1.2,3,3,0,0,1-2.369-.91,3.826,3.826,0,0,1-.8-2.615V-9.51h2.962v6.179a1.065,1.065,0,0,0,1.187,1.222,1.548,1.548,0,0,0,1.45-.729V-9.51h2.979V0h-2.777Zm9.088,1.2A4.889,4.889,0,0,1-66.48-1.129a4.507,4.507,0,0,1-1.354-3.4v-.246a5.84,5.84,0,0,1,.541-2.575,3.955,3.955,0,0,1,1.578-1.727,4.763,4.763,0,0,1,2.461-.611,4.117,4.117,0,0,1,3.164,1.244,4.887,4.887,0,0,1,1.16,3.467v1.151h-5.889a2.135,2.135,0,0,0,.694,1.257,2.066,2.066,0,0,0,1.389.457,2.662,2.662,0,0,0,2.2-.984l1.354,1.6A3.784,3.784,0,0,1-60.754-.277,5.3,5.3,0,0,1-62.938.176ZM-63.272-7.4q-1.3,0-1.547,1.723h2.988v-.229a1.467,1.467,0,0,0-.36-1.1A1.434,1.434,0,0,0-63.272-7.4Zm11.285.571-.976-.07a1.752,1.752,0,0,0-1.793.879V0h-2.962V-9.51h2.777l.1,1.222a2.294,2.294,0,0,1,2.083-1.4,2.888,2.888,0,0,1,.826.105Zm4.562,4.544h4.333V0H-51.17V-1.652l4.219-5.572h-4.034V-9.51h7.8v1.6ZM-36.3,0a3.344,3.344,0,0,1-.281-.853A2.754,2.754,0,0,1-38.865.176,3.374,3.374,0,0,1-41.15-.637a2.588,2.588,0,0,1-.94-2.043,2.66,2.66,0,0,1,1.143-2.338,5.821,5.821,0,0,1,3.322-.791h.914v-.5q0-1.316-1.134-1.316A.927.927,0,0,0-38.9-6.587h-2.962a2.655,2.655,0,0,1,1.173-2.239,4.931,4.931,0,0,1,2.993-.86,4.323,4.323,0,0,1,2.874.888,3.086,3.086,0,0,1,1.081,2.435v4.21a4.311,4.311,0,0,0,.4,2V0Zm-1.854-1.934a1.652,1.652,0,0,0,.918-.237,1.487,1.487,0,0,0,.523-.536V-4.228h-.861q-1.547,0-1.547,1.389a.848.848,0,0,0,.272.655A.986.986,0,0,0-38.153-1.934Zm11.03-.738a.684.684,0,0,0-.4-.606,6.016,6.016,0,0,0-1.5-.475A6.853,6.853,0,0,1-30.85-4.4a3.062,3.062,0,0,1-1.1-.971,2.319,2.319,0,0,1-.378-1.31,2.628,2.628,0,0,1,1.081-2.158,4.453,4.453,0,0,1,2.83-.848,4.934,4.934,0,0,1,3.023.853,2.666,2.666,0,0,1,1.143,2.241H-27.22q0-1.143-1.2-1.143a1.194,1.194,0,0,0-.782.259.8.8,0,0,0-.316.646.737.737,0,0,0,.387.642,3.654,3.654,0,0,0,1.235.4,10.671,10.671,0,0,1,1.49.378A2.706,2.706,0,0,1-24.267-2.76,2.491,2.491,0,0,1-25.422-.642a5.068,5.068,0,0,1-2.993.817,5.172,5.172,0,0,1-2.18-.439,3.645,3.645,0,0,1-1.494-1.2,2.707,2.707,0,0,1-.536-1.591h2.769a1.145,1.145,0,0,0,.439.962,1.808,1.808,0,0,0,1.081.3,1.422,1.422,0,0,0,.91-.246A.787.787,0,0,0-27.123-2.672ZM-9.571-4.685a5.735,5.735,0,0,1-1,3.538A3.2,3.2,0,0,1-13.263.176a2.742,2.742,0,0,1-2.153-.958V3.656h-2.962V-9.51h2.769l.088.879A2.742,2.742,0,0,1-13.28-9.686a3.224,3.224,0,0,1,2.733,1.3,5.805,5.805,0,0,1,.976,3.564Zm-2.962-.185q0-2.531-1.477-2.531a1.394,1.394,0,0,0-1.406.756V-2.9a1.439,1.439,0,0,0,1.424.791q1.415,0,1.459-2.443Zm9.246,2.2a.684.684,0,0,0-.4-.606,6.016,6.016,0,0,0-1.5-.475A6.853,6.853,0,0,1-7.014-4.4a3.062,3.062,0,0,1-1.1-.971A2.319,2.319,0,0,1-8.49-6.68,2.628,2.628,0,0,1-7.409-8.837a4.453,4.453,0,0,1,2.83-.848,4.934,4.934,0,0,1,3.023.853A2.666,2.666,0,0,1-.413-6.592H-3.384q0-1.143-1.2-1.143a1.194,1.194,0,0,0-.782.259.8.8,0,0,0-.316.646.737.737,0,0,0,.387.642,3.654,3.654,0,0,0,1.235.4,10.671,10.671,0,0,1,1.49.378A2.706,2.706,0,0,1-.431-2.76,2.491,2.491,0,0,1-1.586-.642,5.068,5.068,0,0,1-4.579.176a5.172,5.172,0,0,1-2.18-.439,3.645,3.645,0,0,1-1.494-1.2A2.707,2.707,0,0,1-8.789-3.05h2.769a1.145,1.145,0,0,0,.439.962,1.808,1.808,0,0,0,1.081.3,1.422,1.422,0,0,0,.91-.246A.787.787,0,0,0-3.287-2.672ZM.58-4.843a5.613,5.613,0,0,1,.554-2.536A3.96,3.96,0,0,1,2.725-9.088a4.791,4.791,0,0,1,2.435-.6A4.373,4.373,0,0,1,8.525-8.363a5.076,5.076,0,0,1,1.23,3.6v.105A4.925,4.925,0,0,1,8.521-1.129,4.384,4.384,0,0,1,5.177.176,4.434,4.434,0,0,1,1.916-1.042a4.761,4.761,0,0,1-1.327-3.3Zm2.962.185a3.538,3.538,0,0,0,.413,1.934,1.376,1.376,0,0,0,1.222.615q1.582,0,1.617-2.435v-.3Q6.794-7.4,5.159-7.4q-1.485,0-1.608,2.206Zm11.54,2.549a1.317,1.317,0,0,0,.967-.338,1.241,1.241,0,0,0,.334-.945H19.16A3.288,3.288,0,0,1,18.04-.826a4.168,4.168,0,0,1-2.887,1,4.22,4.22,0,0,1-3.27-1.3,5.125,5.125,0,0,1-1.2-3.6v-.123A5.792,5.792,0,0,1,11.219-7.4a3.872,3.872,0,0,1,1.534-1.7,4.573,4.573,0,0,1,2.373-.593A4.116,4.116,0,0,1,18.07-8.657a3.647,3.647,0,0,1,1.09,2.786H16.383A1.626,1.626,0,0,0,16.022-7a1.244,1.244,0,0,0-.967-.4q-1.151,0-1.345,1.468a10.357,10.357,0,0,0-.062,1.283,4.068,4.068,0,0,0,.343,1.986A1.187,1.187,0,0,0,15.082-2.109Zm4.957-2.733a5.613,5.613,0,0,1,.554-2.536,3.96,3.96,0,0,1,1.591-1.709,4.791,4.791,0,0,1,2.435-.6,4.373,4.373,0,0,1,3.366,1.323,5.076,5.076,0,0,1,1.23,3.6v.105A4.925,4.925,0,0,1,27.98-1.129,4.384,4.384,0,0,1,24.636.176a4.434,4.434,0,0,1-3.261-1.217,4.761,4.761,0,0,1-1.327-3.3ZM23-4.658a3.538,3.538,0,0,0,.413,1.934,1.376,1.376,0,0,0,1.222.615q1.582,0,1.617-2.435v-.3q0-2.558-1.635-2.558-1.485,0-1.608,2.206ZM33.645,0H30.674V-13.5h2.971Zm1.45-4.843a5.613,5.613,0,0,1,.554-2.536,3.96,3.96,0,0,1,1.591-1.709,4.791,4.791,0,0,1,2.435-.6A4.373,4.373,0,0,1,43.04-8.363a5.076,5.076,0,0,1,1.23,3.6v.105a4.925,4.925,0,0,1-1.235,3.529A4.384,4.384,0,0,1,39.691.176a4.434,4.434,0,0,1-3.261-1.217,4.761,4.761,0,0,1-1.327-3.3Zm2.962.185a3.538,3.538,0,0,0,.413,1.934,1.376,1.376,0,0,0,1.222.615q1.582,0,1.617-2.435v-.3q0-2.558-1.635-2.558-1.485,0-1.608,2.206ZM40.078-13.5h3.129l-2.443,2.76-2.417,0Zm5.15,8.675A6.421,6.421,0,0,1,45.7-7.374a3.821,3.821,0,0,1,1.362-1.709,3.591,3.591,0,0,1,2.065-.6,2.855,2.855,0,0,1,2.32,1l.105-.826h2.689V-.36a4.009,4.009,0,0,1-.584,2.184A3.75,3.75,0,0,1,51.97,3.248a6.219,6.219,0,0,1-2.566.5,5.365,5.365,0,0,1-2.026-.4,3.657,3.657,0,0,1-1.5-1.028L47.118.58a2.716,2.716,0,0,0,2.18.976A1.764,1.764,0,0,0,51.267-.466v-.3a2.781,2.781,0,0,1-2.153.94A3.437,3.437,0,0,1,46.3-1.156,5.517,5.517,0,0,1,45.229-4.72Zm2.971.185a3.383,3.383,0,0,0,.439,1.85,1.386,1.386,0,0,0,1.23.681,1.573,1.573,0,0,0,1.4-.642v-4a1.534,1.534,0,0,0-1.38-.65,1.4,1.4,0,0,0-1.239.708A3.858,3.858,0,0,0,48.2-4.641ZM59.054,0H56.083V-9.51h2.971ZM55.907-11.962A1.322,1.322,0,0,1,56.364-13a1.724,1.724,0,0,1,1.187-.4,1.724,1.724,0,0,1,1.187.4,1.322,1.322,0,0,1,.457,1.037,1.322,1.322,0,0,1-.457,1.037,1.724,1.724,0,0,1-1.187.4,1.724,1.724,0,0,1-1.187-.4A1.322,1.322,0,0,1,55.907-11.962ZM64.9-2.109a1.317,1.317,0,0,0,.967-.338,1.241,1.241,0,0,0,.334-.945h2.777A3.288,3.288,0,0,1,67.856-.826a4.168,4.168,0,0,1-2.887,1,4.22,4.22,0,0,1-3.27-1.3,5.125,5.125,0,0,1-1.2-3.6v-.123A5.792,5.792,0,0,1,61.036-7.4a3.872,3.872,0,0,1,1.534-1.7,4.573,4.573,0,0,1,2.373-.593,4.116,4.116,0,0,1,2.944,1.028,3.647,3.647,0,0,1,1.09,2.786H66.2A1.626,1.626,0,0,0,65.839-7a1.244,1.244,0,0,0-.967-.4q-1.151,0-1.345,1.468a10.357,10.357,0,0,0-.062,1.283,4.068,4.068,0,0,0,.343,1.986A1.187,1.187,0,0,0,64.9-2.109ZM75.586,0A3.344,3.344,0,0,1,75.3-.853,2.754,2.754,0,0,1,73.02.176a3.374,3.374,0,0,1-2.285-.813,2.588,2.588,0,0,1-.94-2.043,2.66,2.66,0,0,1,1.143-2.338,5.821,5.821,0,0,1,3.322-.791h.914v-.5q0-1.316-1.134-1.316a.927.927,0,0,0-1.055,1.042H70.022A2.655,2.655,0,0,1,71.2-8.825a4.931,4.931,0,0,1,2.993-.86,4.323,4.323,0,0,1,2.874.888,3.086,3.086,0,0,1,1.081,2.435v4.21a4.311,4.311,0,0,0,.4,2V0ZM73.731-1.934a1.652,1.652,0,0,0,.918-.237,1.487,1.487,0,0,0,.523-.536V-4.228h-.861q-1.547,0-1.547,1.389a.848.848,0,0,0,.272.655A.986.986,0,0,0,73.731-1.934Zm11.03-.738a.684.684,0,0,0-.4-.606,6.016,6.016,0,0,0-1.5-.475A6.853,6.853,0,0,1,81.035-4.4a3.062,3.062,0,0,1-1.1-.971,2.319,2.319,0,0,1-.378-1.31A2.628,2.628,0,0,1,80.64-8.837a4.453,4.453,0,0,1,2.83-.848,4.934,4.934,0,0,1,3.023.853,2.666,2.666,0,0,1,1.143,2.241H84.665q0-1.143-1.2-1.143a1.194,1.194,0,0,0-.782.259.8.8,0,0,0-.316.646.737.737,0,0,0,.387.642,3.654,3.654,0,0,0,1.235.4,10.671,10.671,0,0,1,1.49.378A2.706,2.706,0,0,1,87.618-2.76,2.491,2.491,0,0,1,86.462-.642,5.068,5.068,0,0,1,83.47.176a5.172,5.172,0,0,1-2.18-.439,3.645,3.645,0,0,1-1.494-1.2A2.707,2.707,0,0,1,79.26-3.05h2.769a1.145,1.145,0,0,0,.439.962,1.808,1.808,0,0,0,1.081.3,1.422,1.422,0,0,0,.91-.246A.787.787,0,0,0,84.762-2.672Z" transform="translate(538 4337)" fill="#12263f"/>
    <path id="Trazado_874537" data-name="Trazado 874537" d="M-97.137,0h-3.076V-12.8h3.076Zm4.729-9.51.1,1.116A3.225,3.225,0,0,1-89.6-9.686a2.713,2.713,0,0,1,2.219.888,4.226,4.226,0,0,1,.76,2.672V0h-2.971V-6a1.6,1.6,0,0,0-.29-1.059A1.342,1.342,0,0,0-90.932-7.4a1.413,1.413,0,0,0-1.292.686V0h-2.962V-9.51Zm14.054-1.828q-.756-.062-1.274-.062-1.723,0-1.723,1.345v.545H-79.5v2.057h-1.854V0h-2.971V-7.453H-85.7V-9.51h1.38v-.615a3.284,3.284,0,0,1,1.1-2.632,4.716,4.716,0,0,1,3.133-.927q1.45,0,4.711.185V0h-2.979ZM-67.9-1.028a3.054,3.054,0,0,1-2.54,1.2,3,3,0,0,1-2.369-.91,3.826,3.826,0,0,1-.8-2.615V-9.51h2.962v6.179a1.065,1.065,0,0,0,1.187,1.222,1.548,1.548,0,0,0,1.45-.729V-9.51h2.979V0h-2.777Zm9.088,1.2a4.889,4.889,0,0,1-3.542-1.305,4.507,4.507,0,0,1-1.354-3.4v-.246a5.84,5.84,0,0,1,.541-2.575,3.955,3.955,0,0,1,1.578-1.727,4.763,4.763,0,0,1,2.461-.611,4.117,4.117,0,0,1,3.164,1.244,4.887,4.887,0,0,1,1.16,3.467v1.151H-60.7A2.135,2.135,0,0,0-60-2.566a2.066,2.066,0,0,0,1.389.457,2.662,2.662,0,0,0,2.2-.984l1.354,1.6A3.784,3.784,0,0,1-56.632-.277,5.3,5.3,0,0,1-58.816.176ZM-59.15-7.4q-1.3,0-1.547,1.723h2.988v-.229a1.467,1.467,0,0,0-.36-1.1A1.434,1.434,0,0,0-59.15-7.4ZM-50.9-9.51l.1,1.116a3.225,3.225,0,0,1,2.716-1.292,2.713,2.713,0,0,1,2.219.888,4.226,4.226,0,0,1,.76,2.672V0h-2.971V-6a1.6,1.6,0,0,0-.29-1.059A1.342,1.342,0,0,0-49.421-7.4a1.413,1.413,0,0,0-1.292.686V0h-2.962V-9.51Zm11.452,7.4a1.317,1.317,0,0,0,.967-.338,1.241,1.241,0,0,0,.334-.945h2.777A3.288,3.288,0,0,1-36.488-.826a4.168,4.168,0,0,1-2.887,1,4.22,4.22,0,0,1-3.27-1.3,5.125,5.125,0,0,1-1.2-3.6v-.123A5.792,5.792,0,0,1-43.308-7.4a3.872,3.872,0,0,1,1.534-1.7A4.573,4.573,0,0,1-39.4-9.686a4.116,4.116,0,0,1,2.944,1.028,3.647,3.647,0,0,1,1.09,2.786h-2.777A1.626,1.626,0,0,0-38.5-7a1.244,1.244,0,0,0-.967-.4q-1.151,0-1.345,1.468a10.357,10.357,0,0,0-.062,1.283,4.068,4.068,0,0,0,.343,1.986A1.187,1.187,0,0,0-39.445-2.109ZM-30.99,0h-2.971V-9.51h2.971Zm-3.146-11.962A1.322,1.322,0,0,1-33.68-13a1.724,1.724,0,0,1,1.187-.4,1.724,1.724,0,0,1,1.187.4,1.322,1.322,0,0,1,.457,1.037,1.322,1.322,0,0,1-.457,1.037,1.724,1.724,0,0,1-1.187.4,1.724,1.724,0,0,1-1.187-.4A1.322,1.322,0,0,1-34.137-11.962ZM-23.81,0a3.344,3.344,0,0,1-.281-.853A2.754,2.754,0,0,1-26.376.176a3.374,3.374,0,0,1-2.285-.813,2.588,2.588,0,0,1-.94-2.043,2.66,2.66,0,0,1,1.143-2.338,5.821,5.821,0,0,1,3.322-.791h.914v-.5q0-1.316-1.134-1.316a.927.927,0,0,0-1.055,1.042h-2.962A2.655,2.655,0,0,1-28.2-8.825a4.931,4.931,0,0,1,2.993-.86,4.323,4.323,0,0,1,2.874.888,3.086,3.086,0,0,1,1.081,2.435v4.21a4.311,4.311,0,0,0,.4,2V0Zm-1.854-1.934a1.652,1.652,0,0,0,.918-.237,1.487,1.487,0,0,0,.523-.536V-4.228h-.861q-1.547,0-1.547,1.389a.848.848,0,0,0,.272.655A.986.986,0,0,0-25.664-1.934Zm11.03-.738a.684.684,0,0,0-.4-.606,6.016,6.016,0,0,0-1.5-.475A6.853,6.853,0,0,1-18.36-4.4a3.062,3.062,0,0,1-1.1-.971,2.319,2.319,0,0,1-.378-1.31,2.628,2.628,0,0,1,1.081-2.158,4.453,4.453,0,0,1,2.83-.848,4.934,4.934,0,0,1,3.023.853A2.666,2.666,0,0,1-11.76-6.592H-14.73q0-1.143-1.2-1.143a1.194,1.194,0,0,0-.782.259.8.8,0,0,0-.316.646.737.737,0,0,0,.387.642,3.654,3.654,0,0,0,1.235.4,10.671,10.671,0,0,1,1.49.378A2.706,2.706,0,0,1-11.777-2.76,2.491,2.491,0,0,1-12.933-.642a5.068,5.068,0,0,1-2.993.817,5.172,5.172,0,0,1-2.18-.439,3.645,3.645,0,0,1-1.494-1.2,2.707,2.707,0,0,1-.536-1.591h2.769a1.145,1.145,0,0,0,.439.962,1.808,1.808,0,0,0,1.081.3,1.422,1.422,0,0,0,.91-.246A.787.787,0,0,0-14.634-2.672Zm13.7,0a.684.684,0,0,0-.4-.606,6.016,6.016,0,0,0-1.5-.475A6.853,6.853,0,0,1-4.658-4.4a3.062,3.062,0,0,1-1.1-.971,2.319,2.319,0,0,1-.378-1.31A2.628,2.628,0,0,1-5.054-8.837a4.453,4.453,0,0,1,2.83-.848A4.934,4.934,0,0,1,.8-8.833,2.666,2.666,0,0,1,1.942-6.592H-1.028q0-1.143-1.2-1.143a1.194,1.194,0,0,0-.782.259.8.8,0,0,0-.316.646.737.737,0,0,0,.387.642,3.654,3.654,0,0,0,1.235.4,10.671,10.671,0,0,1,1.49.378A2.706,2.706,0,0,1,1.925-2.76,2.491,2.491,0,0,1,.769-.642,5.068,5.068,0,0,1-2.224.176,5.172,5.172,0,0,1-4.4-.264,3.645,3.645,0,0,1-5.9-1.459,2.707,2.707,0,0,1-6.434-3.05h2.769a1.145,1.145,0,0,0,.439.962,1.808,1.808,0,0,0,1.081.3,1.422,1.422,0,0,0,.91-.246A.787.787,0,0,0-.932-2.672ZM6.434,0H3.463V-9.51H6.434ZM3.287-11.962A1.322,1.322,0,0,1,3.744-13a1.724,1.724,0,0,1,1.187-.4,1.724,1.724,0,0,1,1.187.4,1.322,1.322,0,0,1,.457,1.037,1.322,1.322,0,0,1-.457,1.037,1.724,1.724,0,0,1-1.187.4,1.724,1.724,0,0,1-1.187-.4A1.322,1.322,0,0,1,3.287-11.962Zm8.42.088V-9.51h1.564v2.057H11.707V-3.1a1.111,1.111,0,0,0,.193.747,1.037,1.037,0,0,0,.765.211A4.345,4.345,0,0,0,13.4-2.2V-.079a5.466,5.466,0,0,1-1.67.255A3.1,3.1,0,0,1,9.475-.545a2.954,2.954,0,0,1-.729-2.188v-4.72H7.532V-9.51H8.745v-2.364ZM20.1-1.028a3.054,3.054,0,0,1-2.54,1.2,3,3,0,0,1-2.369-.91,3.826,3.826,0,0,1-.8-2.615V-9.51H17.35v6.179a1.065,1.065,0,0,0,1.187,1.222,1.548,1.548,0,0,0,1.45-.729V-9.51h2.979V0H20.188ZM29.944,0a3.344,3.344,0,0,1-.281-.853A2.754,2.754,0,0,1,27.378.176a3.374,3.374,0,0,1-2.285-.813,2.588,2.588,0,0,1-.94-2.043,2.66,2.66,0,0,1,1.143-2.338,5.821,5.821,0,0,1,3.322-.791h.914v-.5q0-1.316-1.134-1.316a.927.927,0,0,0-1.055,1.042H24.381a2.655,2.655,0,0,1,1.173-2.239,4.931,4.931,0,0,1,2.993-.86,4.323,4.323,0,0,1,2.874.888A3.086,3.086,0,0,1,32.5-6.363v4.21a4.311,4.311,0,0,0,.4,2V0ZM28.09-1.934a1.652,1.652,0,0,0,.918-.237,1.487,1.487,0,0,0,.523-.536V-4.228H28.67q-1.547,0-1.547,1.389a.848.848,0,0,0,.272.655A.986.986,0,0,0,28.09-1.934Zm10.072-.176a1.317,1.317,0,0,0,.967-.338,1.241,1.241,0,0,0,.334-.945H42.24A3.288,3.288,0,0,1,41.12-.826a4.168,4.168,0,0,1-2.887,1,4.22,4.22,0,0,1-3.27-1.3,5.125,5.125,0,0,1-1.2-3.6v-.123A5.792,5.792,0,0,1,34.3-7.4a3.872,3.872,0,0,1,1.534-1.7,4.573,4.573,0,0,1,2.373-.593A4.116,4.116,0,0,1,41.15-8.657a3.647,3.647,0,0,1,1.09,2.786H39.463A1.626,1.626,0,0,0,39.1-7a1.244,1.244,0,0,0-.967-.4q-1.151,0-1.345,1.468a10.357,10.357,0,0,0-.062,1.283,4.068,4.068,0,0,0,.343,1.986A1.187,1.187,0,0,0,38.162-2.109ZM46.617,0H43.646V-9.51h2.971ZM43.471-11.962A1.322,1.322,0,0,1,43.928-13a1.724,1.724,0,0,1,1.187-.4A1.724,1.724,0,0,1,46.3-13a1.322,1.322,0,0,1,.457,1.037,1.322,1.322,0,0,1-.457,1.037,1.724,1.724,0,0,1-1.187.4,1.724,1.724,0,0,1-1.187-.4A1.322,1.322,0,0,1,43.471-11.962Zm4.6,7.119a5.613,5.613,0,0,1,.554-2.536,3.96,3.96,0,0,1,1.591-1.709,4.791,4.791,0,0,1,2.435-.6,4.373,4.373,0,0,1,3.366,1.323,5.076,5.076,0,0,1,1.23,3.6v.105a4.925,4.925,0,0,1-1.235,3.529A4.384,4.384,0,0,1,52.664.176,4.434,4.434,0,0,1,49.4-1.042a4.761,4.761,0,0,1-1.327-3.3Zm2.962.185a3.538,3.538,0,0,0,.413,1.934,1.376,1.376,0,0,0,1.222.615q1.582,0,1.617-2.435v-.3q0-2.558-1.635-2.558-1.485,0-1.608,2.206ZM61.269-9.51l.1,1.116a3.225,3.225,0,0,1,2.716-1.292A2.713,2.713,0,0,1,66.3-8.8a4.226,4.226,0,0,1,.76,2.672V0H64.09V-6a1.6,1.6,0,0,0-.29-1.059A1.342,1.342,0,0,0,62.745-7.4a1.413,1.413,0,0,0-1.292.686V0H58.491V-9.51ZM74.057,0a3.344,3.344,0,0,1-.281-.853A2.754,2.754,0,0,1,71.49.176a3.374,3.374,0,0,1-2.285-.813,2.588,2.588,0,0,1-.94-2.043,2.66,2.66,0,0,1,1.143-2.338,5.821,5.821,0,0,1,3.322-.791h.914v-.5q0-1.316-1.134-1.316a.927.927,0,0,0-1.055,1.042H68.493a2.655,2.655,0,0,1,1.173-2.239,4.931,4.931,0,0,1,2.993-.86,4.323,4.323,0,0,1,2.874.888,3.086,3.086,0,0,1,1.081,2.435v4.21a4.311,4.311,0,0,0,.4,2V0ZM72.2-1.934a1.652,1.652,0,0,0,.918-.237,1.487,1.487,0,0,0,.523-.536V-4.228h-.861q-1.547,0-1.547,1.389a.848.848,0,0,0,.272.655A.986.986,0,0,0,72.2-1.934ZM81.378,0H78.407V-13.5h2.971ZM87.8.176a4.889,4.889,0,0,1-3.542-1.305,4.507,4.507,0,0,1-1.354-3.4v-.246a5.84,5.84,0,0,1,.541-2.575,3.955,3.955,0,0,1,1.578-1.727,4.763,4.763,0,0,1,2.461-.611A4.117,4.117,0,0,1,90.65-8.442a4.887,4.887,0,0,1,1.16,3.467v1.151H85.922a2.135,2.135,0,0,0,.694,1.257A2.066,2.066,0,0,0,88-2.109a2.662,2.662,0,0,0,2.2-.984l1.354,1.6A3.784,3.784,0,0,1,89.987-.277,5.3,5.3,0,0,1,87.8.176ZM87.469-7.4q-1.3,0-1.547,1.723H88.91v-.229a1.467,1.467,0,0,0-.36-1.1A1.434,1.434,0,0,0,87.469-7.4ZM97.98-2.672a.684.684,0,0,0-.4-.606,6.016,6.016,0,0,0-1.5-.475A6.853,6.853,0,0,1,94.254-4.4a3.062,3.062,0,0,1-1.1-.971,2.319,2.319,0,0,1-.378-1.31,2.628,2.628,0,0,1,1.081-2.158,4.453,4.453,0,0,1,2.83-.848,4.934,4.934,0,0,1,3.023.853,2.666,2.666,0,0,1,1.143,2.241H97.884q0-1.143-1.2-1.143a1.194,1.194,0,0,0-.782.259.8.8,0,0,0-.316.646.737.737,0,0,0,.387.642,3.654,3.654,0,0,0,1.235.4,10.671,10.671,0,0,1,1.49.378,2.706,2.706,0,0,1,2.145,2.646A2.491,2.491,0,0,1,99.681-.642a5.068,5.068,0,0,1-2.993.817,5.172,5.172,0,0,1-2.18-.439,3.645,3.645,0,0,1-1.494-1.2,2.707,2.707,0,0,1-.536-1.591h2.769a1.145,1.145,0,0,0,.439.962,1.808,1.808,0,0,0,1.081.3,1.422,1.422,0,0,0,.91-.246A.787.787,0,0,0,97.98-2.672Z" transform="translate(538 4466)" fill="#12263f"/>
    <path id="Trazado_874162" data-name="Trazado 874162" d="M8121-7499h230" transform="translate(-7436 11700)" fill="none" stroke="#8ad0ce" stroke-width="3"/>
    <path id="Trazado_874163" data-name="Trazado 874163" d="M8121-7499h135" transform="translate(-7417 11830)" fill="none" stroke="#8ad0ce" stroke-width="3"/>
    <path id="Trazado_874164" data-name="Trazado 874164" d="M8121-7499h83.56" transform="translate(-7423.56 11960)" fill="none" stroke="#8ad0ce" stroke-width="3"/>
    <path id="Trazado_874538" data-name="Trazado 874538" d="M8.5,0A8.5,8.5,0,1,1,0,8.5,8.5,8.5,0,0,1,8.5,0Z" transform="translate(907 4192)" fill="#8ad0ce"/>
    <path id="Trazado_874539" data-name="Trazado 874539" d="M8.5,0A8.5,8.5,0,1,1,0,8.5,8.5,8.5,0,0,1,8.5,0Z" transform="translate(831 4322)" fill="#8ad0ce"/>
    <path id="Trazado_874540" data-name="Trazado 874540" d="M8.5,0A8.5,8.5,0,1,1,0,8.5,8.5,8.5,0,0,1,8.5,0Z" transform="translate(773 4452)" fill="#8ad0ce"/>
  </g>
</svg>
