<svg xmlns="http://www.w3.org/2000/svg" xmlns:xlink="http://www.w3.org/1999/xlink" width="122.752" height="122.752" viewBox="0 0 122.752 122.752">
  <defs>
    <clipPath id="clip-path">
      <rect id="Rect치ngulo_378442" data-name="Rect치ngulo 378442" width="122.752" height="122.752" fill="none"/>
    </clipPath>
    <clipPath id="clip-path-2">
      <rect id="Rect치ngulo_401437" data-name="Rect치ngulo 401437" width="55.477" height="54.944" fill="#f3f9ff"/>
    </clipPath>
  </defs>
  <g id="Grupo_1074051" data-name="Grupo 1074051" transform="translate(-886.113 -393.669)">
    <g id="Grupo_1074049" data-name="Grupo 1074049" transform="translate(886.113 393.669)">
      <g id="Grupo_1074048" data-name="Grupo 1074048" clip-path="url(#clip-path)">
        <path id="Trazado_611054" data-name="Trazado 611054" d="M122.752,61.376c0,7.637-11.233,12.986-13.987,19.627-2.855,6.884,1.2,18.584-3.99,23.772S87.887,105.91,81,108.765c-6.641,2.754-11.99,13.987-19.627,13.987S48.39,111.519,41.749,108.765c-6.884-2.855-18.584,1.2-23.773-3.99S16.842,87.887,13.987,81C11.233,74.362,0,69.013,0,61.376S11.233,48.39,13.987,41.749c2.855-6.884-1.2-18.584,3.99-23.772s16.888-1.135,23.772-3.99C48.39,11.233,53.739,0,61.376,0S74.362,11.233,81,13.987c6.884,2.855,18.584-1.2,23.773,3.99s1.134,16.888,3.989,23.772c2.754,6.641,13.987,11.99,13.987,19.627" fill="#137c78"/>
      </g>
    </g>
    <g id="Grupo_1099625" data-name="Grupo 1099625" transform="translate(919.751 427.573)">
      <g id="Grupo_1099623" data-name="Grupo 1099623" clip-path="url(#clip-path-2)">
        <path id="Trazado_874167" data-name="Trazado 874167" d="M10.847,8.054c0,1.907-.368,3.911.1,5.693s1.78,3.336,2.728,4.987c.861,1.5,1.71,3.006,2.607,4.483.329.541.349.791-.323,1.062a11.54,11.54,0,1,1-5.8-22.168c.525-.083.668.063.662.573-.021,1.79-.008,3.58-.008,5.37h.032" transform="translate(-0.171 -1.721)" fill="#f3f9ff"/>
        <path id="Trazado_874168" data-name="Trazado 874168" d="M63.595,181.051q0,5.456,0,10.912c0,1.379-.338,1.707-1.711,1.71-.939,0-1.877.011-2.816,0s-1.342-.393-1.36-1.338c-.025-1.349-.008-2.7-.008-4.048q0-9.064,0-18.128c0-1.468.281-1.747,1.745-1.753q1.188,0,2.376,0c1.483,0,1.772.3,1.774,1.824q0,3.52,0,7.04,0,1.892,0,3.784" transform="translate(-47.53 -138.737)" fill="#f3f9ff"/>
        <path id="Trazado_874169" data-name="Trazado 874169" d="M137.894,144.514a11.339,11.339,0,1,1,11.385-11.237,11.345,11.345,0,0,1-11.385,11.237m9.163-11.384A9.12,9.12,0,1,0,138,142.305a9.143,9.143,0,0,0,9.055-9.175" transform="translate(-104.294 -100.377)" fill="#f3f9ff"/>
        <path id="Trazado_874170" data-name="Trazado 874170" d="M5.885,207.709q0,4.269,0,8.538c0,1.21-.368,1.574-1.57,1.58-1,0-2,.014-2.992,0-.9-.016-1.309-.393-1.311-1.287q-.02-8.758,0-17.516c0-.932.361-1.27,1.29-1.286,1.056-.019,2.113-.014,3.169,0s1.412.362,1.415,1.44c.008,2.846,0,5.692,0,8.538" transform="translate(0.001 -162.892)" fill="#f3f9ff"/>
        <path id="Trazado_874171" data-name="Trazado 874171" d="M75.567,12.6c-1.525,0-3.05-.017-4.574.01-.489.008-.658-.13-.655-.638.02-3.108.012-6.216.007-9.324,0-.387-.006-.668.553-.6a11.675,11.675,0,0,1,9.974,9.732c.1.677-.049.861-.732.839-1.523-.048-3.049-.015-4.574-.015" transform="translate(-57.948 -1.677)" fill="#f3f9ff"/>
        <path id="Trazado_874172" data-name="Trazado 874172" d="M118.3,223.812q0-3.472,0-6.945a4.462,4.462,0,0,1,.039-.788.711.711,0,0,1,.544-.626c.3-.044.295.3.39.5a13.2,13.2,0,0,0,4.421,5.136.972.972,0,0,1,.468.933c-.014,2.989,0,5.978-.01,8.967,0,1.028-.412,1.435-1.431,1.446-1,.011-1.993.01-2.989,0-1.072-.009-1.427-.355-1.431-1.411-.008-2.4,0-4.806,0-7.209" transform="translate(-97.457 -177.498)" fill="#f3f9ff"/>
        <path id="Trazado_874173" data-name="Trazado 874173" d="M243.1,229.429c.556.635,1.09,1.253,1.631,1.863.242.272.462.486.876.175a.924.924,0,0,1,1.268.208q3.035,2.937,6.064,5.881a1.049,1.049,0,0,1,.048,1.629c-.678.73-1.386,1.434-2.09,2.14a1.048,1.048,0,0,1-1.63.031c-2.03-1.952-4.044-3.92-6.064-5.881a.967.967,0,0,1-.256-1.269c.252-.385.092-.548-.144-.8-.556-.591-1.593-1.065-1.572-1.76.018-.6.94-1.182,1.463-1.772.077-.087.156-.172.406-.447" transform="translate(-198.737 -189.015)" fill="#f3f9ff"/>
        <path id="Trazado_874174" data-name="Trazado 874174" d="M184.277,262.489c0,1.231.007,2.462,0,3.692-.008,1.012-.369,1.387-1.359,1.4-1.055.014-2.11.017-3.165,0-.915-.016-1.321-.432-1.325-1.362-.01-2.374.012-4.747-.015-7.121-.006-.549.15-.715.7-.658a12.453,12.453,0,0,0,4.619-.283c.458-.125.559.047.554.465-.015,1.289-.005,2.579-.005,3.868" transform="translate(-146.984 -212.649)" fill="#f3f9ff"/>
        <path id="Trazado_874175" data-name="Trazado 874175" d="M73.908,71.947c3.292,0,6.368.007,9.444-.008.448,0,.554.17.5.575a11.536,11.536,0,0,1-4.56,7.828c-.2.157-.37.258-.554-.061-1.572-2.73-3.157-5.453-4.828-8.334" transform="translate(-60.889 -59.267)" fill="#f3f9ff"/>
        <path id="Trazado_874176" data-name="Trazado 874176" d="M217.64,0q4.088,0,8.176,0c.562,0,1.08.061,1.217.732.126.617-.29,1.03-1.069,1.034-2.051.012-4.1,0-6.153,0q-5.143,0-10.285,0c-.493,0-.959-.027-1.182-.55-.283-.662.218-1.216,1.122-1.219,2.725-.01,5.45,0,8.176,0" transform="translate(-171.577 0)" fill="#f3f9ff"/>
        <path id="Trazado_874177" data-name="Trazado 874177" d="M217.777,53.559q-3.956,0-7.911,0a2.81,2.81,0,0,1-.867-.076.808.808,0,0,1-.584-.958.786.786,0,0,1,.758-.719,5.1,5.1,0,0,1,.527-.011h16.175c.146,0,.293,0,.439.006a.869.869,0,0,1,.076,1.732,12.061,12.061,0,0,1-1.492.03q-3.56,0-7.12,0" transform="translate(-171.691 -42.666)" fill="#f3f9ff"/>
        <path id="Trazado_874178" data-name="Trazado 874178" d="M217.773,105.067q-3.919,0-7.837,0a4.392,4.392,0,0,1-.876-.052.766.766,0,0,1-.637-.739.783.783,0,0,1,.557-.889,2.517,2.517,0,0,1,.781-.086q8.058-.007,16.115,0a3.2,3.2,0,0,1,.526.026.819.819,0,0,1,.77.906.8.8,0,0,1-.77.813,6.431,6.431,0,0,1-.791.024q-3.919,0-7.837,0" transform="translate(-171.704 -85.1)" fill="#f3f9ff"/>
        <path id="Trazado_874179" data-name="Trazado 874179" d="M167.113,2.8c0,2.674,0,2.674-2.711,2.674-2.729,0-2.752-.023-2.752-2.738,0-2.677.045-2.723,2.683-2.723,2.78,0,2.78,0,2.78,2.787" transform="translate(-133.175 -0.009)" fill="#f3f9ff"/>
        <path id="Trazado_874180" data-name="Trazado 874180" d="M164.431,51.792c2.68,0,2.68,0,2.68,2.688,0,2.745-.031,2.775-2.81,2.775-2.548,0-2.653-.106-2.653-2.685,0-2.778,0-2.778,2.782-2.778" transform="translate(-133.174 -42.669)" fill="#f3f9ff"/>
        <path id="Trazado_874181" data-name="Trazado 874181" d="M213.6,22.737c-1.319,0-2.638,0-3.957,0-.615,0-1.155-.132-1.159-.877s.53-.892,1.147-.892q3.957,0,7.913,0c.617,0,1.158.151,1.162.881s-.53.89-1.151.888c-1.319,0-2.638,0-3.957,0" transform="translate(-171.763 -17.275)" fill="#f3f9ff"/>
        <path id="Trazado_874182" data-name="Trazado 874182" d="M213.588,72.758c1.318,0,2.637,0,3.955,0,.61,0,1.167.109,1.165.861,0,.727-.549.9-1.155.905q-3.955.012-7.91,0c-.6,0-1.151-.161-1.161-.9-.01-.76.54-.872,1.151-.87,1.318,0,2.636,0,3.955,0" transform="translate(-171.758 -59.94)" fill="#f3f9ff"/>
        <path id="Trazado_874183" data-name="Trazado 874183" d="M161.632,105.652c0-.327-.015-.674,0-1.019a1.256,1.256,0,0,1,1.3-1.346c.961-.039,1.926-.016,2.889-.005a1.206,1.206,0,0,1,1.043.545.8.8,0,0,1,.16.819c-.128.242-.421.131-.639.134a13.058,13.058,0,0,0-3.935.732,1.258,1.258,0,0,1-.823.141" transform="translate(-133.155 -85.075)" fill="#f3f9ff"/>
        <path id="Trazado_874184" data-name="Trazado 874184" d="M233.287,124.123c1.669,0,3.215-.014,4.76.007.606.008,1.135.223,1.1.956-.036.691-.556.811-1.131.8a3.56,3.56,0,0,0-.7.006c-1.68.321-2.9-.44-4.025-1.773" transform="translate(-192.193 -102.255)" fill="#f3f9ff"/>
        <path id="Trazado_874185" data-name="Trazado 874185" d="M162.109,156.442a5.915,5.915,0,0,0-11.135-.065c-2.449-2.346-2.358-7.038.19-9.738a7.392,7.392,0,0,1,10.445-.335,7.31,7.31,0,0,1,.5,10.137m-5.539-4.416a2.9,2.9,0,0,0,2.893-2.916,2.945,2.945,0,0,0-2.923-2.9,2.9,2.9,0,0,0-2.876,2.933,2.864,2.864,0,0,0,2.906,2.886" transform="translate(-122.913 -118.886)" fill="#f3f9ff"/>
      </g>
    </g>
  </g>
</svg>
