<svg xmlns="http://www.w3.org/2000/svg" xmlns:xlink="http://www.w3.org/1999/xlink" width="145" height="145" viewBox="0 0 145 145">
  <defs>
    <clipPath id="clip-path">
      <path id="Trazado_611025" data-name="Trazado 611025" d="M72.628,1.073a11,11,0,0,0-8.919,4.552A10.54,10.54,0,0,1,53.171,7.88a10.955,10.955,0,0,0-9.324-.6c-.156.058-.312.119-.466.184l-.12.05a11.051,11.051,0,0,0-6.3,7.8,10.581,10.581,0,0,1-8.714,6.368,10.966,10.966,0,0,0-9.2,3.715,11.091,11.091,0,0,0-2.6,9.664,10.617,10.617,0,0,1-5.353,9.395,11.053,11.053,0,0,0-6.932,7.179c-.011.033-.016.065-.027.094-.049.174-.1.347-.14.521A11.1,11.1,0,0,0,5.7,61.525,10.665,10.665,0,0,1,4.61,72.3,11.249,11.249,0,0,0,6.623,90.121a10.661,10.661,0,0,1,3.332,10.292,11.1,11.1,0,0,0,.377,9.374c.076.162.16.313.246.466.018.033.033.066.049.094a11,11,0,0,0,8.387,5.485,10.618,10.618,0,0,1,7.21,8.042,11.159,11.159,0,0,0,14.481,10.394,10.542,10.542,0,0,1,9.859,4.364A11.023,11.023,0,0,0,58.4,144.81c.031.008.062.008.094.016.175.03.349.063.531.087a10.986,10.986,0,0,0,9-2.671A10.514,10.514,0,0,1,78.8,142.2a11.147,11.147,0,0,0,17.436-3.876,10.544,10.544,0,0,1,9.838-4.4,10.96,10.96,0,0,0,9.241-1.359c.147-.091.29-.19.43-.29.031-.021.067-.041.1-.065a11.079,11.079,0,0,0,4.553-8.954,10.606,10.606,0,0,1,7.207-8.041,11.205,11.205,0,0,0,8.775-15.557,10.656,10.656,0,0,1,3.316-10.334,11.23,11.23,0,0,0,1.717-17.792,10.671,10.671,0,0,1-1.151-10.8,11.221,11.221,0,0,0-5.632-16.957,10.637,10.637,0,0,1-5.427-9.394,11.092,11.092,0,0,0-2.721-9.578,10.96,10.96,0,0,0-9.29-3.608,10.583,10.583,0,0,1-8.744-6.334,11.053,11.053,0,0,0-6.381-7.675.884.884,0,0,0-.107-.042c-.156-.066-.32-.128-.48-.19a10.975,10.975,0,0,0-9.364.732A10.528,10.528,0,0,1,81.563,5.477a11,11,0,0,0-8.778-4.405h-.157" transform="translate(-1.105 -1.072)" fill="#e36849"/>
    </clipPath>
    <clipPath id="clip-path-2">
      <path id="Trazado_611025-2" data-name="Trazado 611025" d="M72.628,1.073a11,11,0,0,0-8.919,4.552A10.54,10.54,0,0,1,53.171,7.88a10.955,10.955,0,0,0-9.324-.6c-.156.058-.312.119-.466.184l-.12.05a11.051,11.051,0,0,0-6.3,7.8,10.581,10.581,0,0,1-8.714,6.368,10.966,10.966,0,0,0-9.2,3.715,11.091,11.091,0,0,0-2.6,9.664,10.617,10.617,0,0,1-5.353,9.395,11.053,11.053,0,0,0-6.932,7.179c-.011.033-.016.065-.027.094-.049.174-.1.347-.14.521A11.1,11.1,0,0,0,5.7,61.525,10.665,10.665,0,0,1,4.61,72.3,11.249,11.249,0,0,0,6.623,90.121a10.661,10.661,0,0,1,3.332,10.292,11.1,11.1,0,0,0,.377,9.374c.076.162.16.313.246.466.018.033.033.066.049.094a11,11,0,0,0,8.387,5.485,10.618,10.618,0,0,1,7.21,8.042,11.159,11.159,0,0,0,14.481,10.394,10.542,10.542,0,0,1,9.859,4.364A11.023,11.023,0,0,0,58.4,144.81c.031.008.062.008.094.016.175.03.349.063.531.087a10.986,10.986,0,0,0,9-2.671A10.514,10.514,0,0,1,78.8,142.2a11.147,11.147,0,0,0,17.436-3.876,10.544,10.544,0,0,1,9.838-4.4,10.96,10.96,0,0,0,9.241-1.359c.147-.091.29-.19.43-.29.031-.021.067-.041.1-.065a11.079,11.079,0,0,0,4.553-8.954,10.606,10.606,0,0,1,7.207-8.041,11.205,11.205,0,0,0,8.775-15.557,10.656,10.656,0,0,1,3.316-10.334,11.23,11.23,0,0,0,1.717-17.792,10.671,10.671,0,0,1-1.151-10.8,11.221,11.221,0,0,0-5.632-16.957,10.637,10.637,0,0,1-5.427-9.394,11.092,11.092,0,0,0-2.721-9.578,10.96,10.96,0,0,0-9.29-3.608,10.583,10.583,0,0,1-8.744-6.334,11.053,11.053,0,0,0-6.381-7.675.884.884,0,0,0-.107-.042c-.156-.066-.32-.128-.48-.19a10.975,10.975,0,0,0-9.364.732A10.528,10.528,0,0,1,81.563,5.477a11,11,0,0,0-8.778-4.405h-.157" transform="translate(-1.105 -1.072)" fill="#fff"/>
    </clipPath>
    <clipPath id="clip-path-3">
      <rect id="Rectángulo_378432" data-name="Rectángulo 378432" width="145" height="145" fill="none"/>
    </clipPath>
    <clipPath id="clip-path-4">
      <rect id="Rectángulo_401439" data-name="Rectángulo 401439" width="71" height="70.241" fill="#fef0d7"/>
    </clipPath>
  </defs>
  <g id="Grupo_1099730" data-name="Grupo 1099730" transform="translate(-728 -544.873)">
    <g id="Grupo_1099276" data-name="Grupo 1099276" transform="translate(408 -9006.127)">
      <g id="Grupo_1074143" data-name="Grupo 1074143" transform="translate(320 9551)">
        <g id="Grupo_1074028" data-name="Grupo 1074028" transform="translate(0)">
          <g id="Grupo_1074021" data-name="Grupo 1074021" transform="translate(0 0)">
            <g id="Grupo_1074018" data-name="Grupo 1074018" transform="translate(0.458 0.445)">
              <g id="Grupo_1074017" data-name="Grupo 1074017" clip-path="url(#clip-path)">
                <path id="Trazado_611056" data-name="Trazado 611056" d="M0,0H159.982V159.745H0Z" transform="translate(-6.043 155.081) rotate(-90)" fill="#e36849"/>
              </g>
            </g>
            <g id="Grupo_1074020" data-name="Grupo 1074020">
              <g id="Grupo_1074019" data-name="Grupo 1074019" clip-path="url(#clip-path-3)">
                <path id="Trazado_611027" data-name="Trazado 611027" d="M20.249,131.032a10.9,10.9,0,0,0,3.616,4.062,11.024,11.024,0,0,0,5.073,1.81h.016l.019.007a10.9,10.9,0,0,1,4.815,3.022,12.1,12.1,0,0,1,2.625,5.093l.008.031v.037a10.709,10.709,0,0,0,4.6,8.467A10.524,10.524,0,0,0,50.432,155l.046-.016.059-.006a11.233,11.233,0,0,1,5.789.823,12.248,12.248,0,0,1,4.569,3.676l.041.051.031.067a10.436,10.436,0,0,0,3.067,3.8,10.284,10.284,0,0,0,4.475,1.982l-.052-.011.607.091c.207.021.434.059.623.068a10.424,10.424,0,0,0,1.183.021,10.176,10.176,0,0,0,2.36-.37,10.3,10.3,0,0,0,4.15-2.287l.053-.048.074-.043a11.357,11.357,0,0,1,5.736-1.625,12.385,12.385,0,0,1,5.746,1.54l.081.042.067.059a10.338,10.338,0,0,0,16.157-3.62l.034-.078.055-.077a11.557,11.557,0,0,1,4.634-3.831,12.516,12.516,0,0,1,5.909-.928l.1.006.095.028a10.15,10.15,0,0,0,4.707.26,10.352,10.352,0,0,0,8.475-10.1v-.1l.021-.095a11.669,11.669,0,0,1,2.717-5.4,12.575,12.575,0,0,1,5.041-3.242l.1-.035.091-.011a10.192,10.192,0,0,0,7.623-5.136,10.3,10.3,0,0,0,.518-9.236l-.033-.077-.018-.084a11.647,11.647,0,0,1,.277-6.021,12.54,12.54,0,0,1,3.278-5.015l.065-.063.074-.044a10.529,10.529,0,0,0,1.669-16.617l-.054-.05-.04-.056a11.479,11.479,0,0,1-2.132-5.553,12.44,12.44,0,0,1,.982-5.834l.028-.067.035-.049a10.714,10.714,0,0,0-5.28-16.206l-.046-.016-.036-.021a11.179,11.179,0,0,1-4.085-4.125,12.123,12.123,0,0,1-1.405-5.609V55.69l.006-.028a11.015,11.015,0,0,0-11.72-13.118,11.009,11.009,0,0,1,9.378,3.476,11.17,11.17,0,0,1,2.6,4.512,11.421,11.421,0,0,1,.3,5.236l.005-.064a11.464,11.464,0,0,0,1.449,5.282,10.389,10.389,0,0,0,3.9,3.749l-.08-.036a11.431,11.431,0,0,1,7.355,7.3,11.56,11.56,0,0,1,.539,5.341,11.717,11.717,0,0,1-1.925,5.029l.062-.116a11.205,11.205,0,0,0-.821,5.28,10.17,10.17,0,0,0,1.972,4.9l-.094-.106a11.766,11.766,0,0,1,3.837,9.877,11.592,11.592,0,0,1-1.719,5.194,11.84,11.84,0,0,1-3.88,3.855l.138-.107a11,11,0,0,0-2.864,4.4,10.042,10.042,0,0,0-.2,5.206l-.051-.161a11.966,11.966,0,0,1,1,5.409,11.961,11.961,0,0,1-10.383,11.3l.186-.045a10.859,10.859,0,0,0-4.357,2.812,9.9,9.9,0,0,0-2.28,4.61l.021-.191a12.039,12.039,0,0,1-1.275,5.4,11.841,11.841,0,0,1-3.581,4.216,12.075,12.075,0,0,1-5.066,2.187,11.844,11.844,0,0,1-5.5-.33l.189.035a10.853,10.853,0,0,0-5.129.765,9.9,9.9,0,0,0-3.98,3.275l.09-.155a11.89,11.89,0,0,1-3.363,4.378,11.869,11.869,0,0,1-15.308-.258l.147.1a10.86,10.86,0,0,0-5.034-1.39,10.066,10.066,0,0,0-5,1.39l.126-.09a11.725,11.725,0,0,1-7.451,2.92,11.4,11.4,0,0,1-1.371-.048c-.235-.017-.429-.054-.646-.079l-.655-.107.026,0-.078-.014a11.452,11.452,0,0,1-2.583-.843,11.648,11.648,0,0,1-5.706-5.742l.072.117a11.123,11.123,0,0,0-4.095-3.406,10.164,10.164,0,0,0-5.241-.813l.1-.022a11.473,11.473,0,0,1-5.317.369,11.2,11.2,0,0,1-4.887-2.08,11.328,11.328,0,0,1-3.45-4.022,11.473,11.473,0,0,1-1.265-5.127l.01.069a11.574,11.574,0,0,0-2.392-4.932,10.512,10.512,0,0,0-4.571-3.017l.036.009a11.03,11.03,0,0,1-8.654-6.206" transform="translate(-10.501 -21.928)" fill="#ffc278"/>
                <path id="Trazado_611028" data-name="Trazado 611028" d="M101.257,6.584a11.015,11.015,0,0,0-9.731.72l-.016.01-.024.008A10.945,10.945,0,0,1,85.8,7.77a12,12,0,0,1-5.157-2.548L80.61,5.2l-.031-.041a10.635,10.635,0,0,0-8.634-4.115,10.43,10.43,0,0,0-8.382,4.395l-.034.049-.058.052a11.351,11.351,0,0,1-5.224,2.774,12.384,12.384,0,0,1-5.911-.279l-.073-.021-.082-.044a10.324,10.324,0,0,0-9.264-.28,10.251,10.251,0,0,0-5.778,7.23L37.122,15l-.039.088A11.6,11.6,0,0,1,33.348,19.8a12.541,12.541,0,0,1-5.587,2.15l-.1.015-.1-.009A10.42,10.42,0,0,0,16.839,29.57a10.289,10.289,0,0,0-.152,4.726l.018.09v.09a11.7,11.7,0,0,1-1.52,5.842,12.515,12.515,0,0,1-4.246,4.228l-.085.054-.084.028a10.262,10.262,0,0,0-6.444,6.627c-.1.358-.213.779-.3,1.2a11.2,11.2,0,0,0-.166,1.171,10.34,10.34,0,0,0,.081,2.4,10.5,10.5,0,0,0,1.779,4.438l.049.07.028.066A11.571,11.571,0,0,1,6.722,66.5,12.436,12.436,0,0,1,4.552,72l-.046.068-.048.044A10.537,10.537,0,0,0,1.127,81,10.711,10.711,0,0,0,6.24,89.12l.042.025.027.026a11.1,11.1,0,0,1,3.084,4.876,12.11,12.11,0,0,1,.18,5.728l0,.028-.008.017a11.138,11.138,0,0,0-.514,7.395,11.994,11.994,0,0,0,.948,2.354,12.108,12.108,0,0,1-1.057-2.32,11.127,11.127,0,0,1,.246-7.588l-.013.044a11.6,11.6,0,0,0-.347-5.477,10.4,10.4,0,0,0-3.045-4.475l.069.051a11.274,11.274,0,0,1-3.909-3.634A11.5,11.5,0,0,1,.1,81.125,11.667,11.667,0,0,1,3.607,71.2l-.094.111a11.144,11.144,0,0,0,1.854-4.962A10.134,10.134,0,0,0,4.439,61.2l.078.137a11.757,11.757,0,0,1-2.086-5.07A11.927,11.927,0,0,1,2.319,53.5a12.46,12.46,0,0,1,.191-1.394c.09-.424.192-.84.326-1.313a11.858,11.858,0,0,1,7.4-7.713l-.17.082a10.854,10.854,0,0,0,3.675-3.687A9.984,9.984,0,0,0,15,34.464l.018.18a12.034,12.034,0,0,1,.141-5.527A11.909,11.909,0,0,1,27.71,20.254l-.194.006a10.874,10.874,0,0,0,4.863-1.818A9.941,9.941,0,0,0,35.6,14.406l-.055.169a11.923,11.923,0,0,1,2.376-4.968,11.706,11.706,0,0,1,4.343-3.343A11.984,11.984,0,0,1,47.63,5.2a11.61,11.61,0,0,1,5.26,1.471l-.155-.063a10.97,10.97,0,0,0,5.238.367A10.054,10.054,0,0,0,62.647,4.6l-.091.1A11.636,11.636,0,0,1,66.7,1.215a11.8,11.8,0,0,1,10.444.007A11.266,11.266,0,0,1,81.2,4.68l-.063-.065a11.335,11.335,0,0,0,4.783,2.569,10.44,10.44,0,0,0,5.439-.254l-.04.017a11.035,11.035,0,0,1,4.948-1.365,11.184,11.184,0,0,1,4.986,1" transform="translate(0 0)" fill="#ffc278"/>
              </g>
            </g>
          </g>
        </g>
      </g>
      <g id="Grupo_1074144" data-name="Grupo 1074144" transform="translate(347.117 9578.125)">
        <rect id="Rectángulo_378411" data-name="Rectángulo 378411" width="91.063" height="91.062" transform="translate(0)" fill="none"/>
      </g>
    </g>
    <g id="Grupo_1099629" data-name="Grupo 1099629" transform="translate(764.5 577.46)">
      <g id="Grupo_1099628" data-name="Grupo 1099628" clip-path="url(#clip-path-4)">
        <path id="Trazado_874193" data-name="Trazado 874193" d="M156.233,191.787q-7.361,0-14.722,0c-1.658,0-1.989-.335-1.991-2.012,0-4.717-.019-9.435.015-14.152a2.077,2.077,0,0,0-.937-1.99,5.2,5.2,0,0,1-2.206-3.95,2.829,2.829,0,0,1,.318-1.642c1.594-3.023,3.183-6.05,4.734-9.1a2.341,2.341,0,0,1,2.353-1.41q12.554.049,25.108,0a2.328,2.328,0,0,1,2.341,1.426c1.4,2.779,2.875,5.524,4.315,8.285a4.692,4.692,0,0,1-1.381,6.313,2.4,2.4,0,0,0-1.051,2.278c.041,4.6.02,9.206.017,13.809,0,1.9-.246,2.139-2.192,2.14H156.233m14.59-9.654c0-2.132-.01-4.264.007-6.4,0-.537-.1-.81-.735-.845a5.359,5.359,0,0,1-3.822-1.8c-.468-.527-.668-.293-1.045.062a5.754,5.754,0,0,1-8.365-.05c-.466-.445-.639-.368-1.053.024a5.738,5.738,0,0,1-8.359,0c-.507-.487-.71-.385-1.118.055a4.914,4.914,0,0,1-3.407,1.658c-1.026.045-1.118.495-1.108,1.336.04,3.274-.01,6.549.031,9.822.014,1.121-.51,2.562.264,3.28.707.656,2.118.087,3.206.211.98.112,1.126-.352,1.113-1.186-.039-2.7-.028-5.406-.008-8.109.012-1.6.71-2.288,2.308-2.3q3.141-.029,6.282,0c1.6.015,2.3.718,2.308,2.3.014,2.741.023,5.482-.008,8.223-.008.738.13,1.092.991,1.082q5.767-.064,11.535,0c.855.009,1.007-.34.994-1.08-.035-2.093-.012-4.188-.013-6.282m-15.8,2.714c0-1.29-.019-2.58.009-3.87.012-.564-.142-.816-.762-.8q-2.389.054-4.78,0c-.62-.014-.769.241-.765.8q.028,3.813,0,7.626c-.005.605.149.9.826.883q2.332-.057,4.666,0c.684.018.83-.285.817-.886-.029-1.251-.009-2.5-.009-3.756m2.457-20.969c0,1.026.05,2.056-.016,3.078-.05.783.262.955.978.936,1.633-.045,3.27-.048,4.9,0,.756.023.929-.2.718-.913-.387-1.308-.709-2.635-1.066-3.952-.277-1.02-.267-2.369-.93-2.967-.735-.663-2.108-.144-3.2-.211-.227-.014-.458.019-.684-.005-.555-.059-.724.193-.71.725.029,1.1.009,2.2.008,3.307m-2.3-.03c0-.114.008-.228,0-.342-.1-1.194.552-2.9-.264-3.457-.889-.606-2.484-.174-3.771-.2-.381-.008-.628.08-.74.514-.584,2.273-1.2,4.54-1.8,6.807-.153.571.09.723.633.716q2.619-.034,5.239,0c.547.007.729-.2.714-.733-.029-1.1-.009-2.2-.008-3.3m-15.767,4.024c2.18,0,4.173,0,6.166,0,.533,0,.584-.415.675-.763.566-2.16,1.088-4.331,1.684-6.482.164-.59.147-.818-.538-.792-1.061.041-2.124.018-3.187.007a.8.8,0,0,0-.851.408c-1.278,2.482-2.568,4.958-3.948,7.619m33.873,0c-1.381-2.649-2.648-5.063-3.9-7.486a.862.862,0,0,0-.882-.549c-1.1.027-2.2.023-3.3,0-.521-.009-.645.148-.5.671.623,2.263,1.212,4.536,1.8,6.809a.624.624,0,0,0,.7.558c1.963-.017,3.925-.008,6.082-.008m-18.315,2.343c-.408-.018-.666-.039-.923-.039-1.7,0-3.409.01-5.113,0-.8-.007-.552.39-.31.764a3.373,3.373,0,0,0,3.154,1.662,3.463,3.463,0,0,0,3.193-2.382m6.11-.04c-.874,0-1.749.022-2.623-.006-.775-.025-.712.277-.395.8a3.574,3.574,0,0,0,5.957.052c.363-.563.405-.887-.431-.851s-1.672.008-2.509.008m-18.861,0c-.91,0-1.821.006-2.731,0-.495,0-.626.207-.382.624a3.556,3.556,0,0,0,6.181.014c.327-.546.033-.647-.451-.641-.872.011-1.745,0-2.617,0m28.278,0c-.869,0-1.739.008-2.608,0-.6-.007-.773.194-.427.735a3.547,3.547,0,0,0,6.048,0c.348-.536.209-.743-.406-.737-.869.01-1.739,0-2.608,0" transform="translate(-105.223 -121.547)" fill="#fef0d7"/>
        <path id="Trazado_874194" data-name="Trazado 874194" d="M31.8,35.412a16.856,16.856,0,0,1-9.974-3.06c-.593-.41-.942-.4-1.4.142-.441.52-.983.952-1.468,1.436-.749.746-1.717,1.313-1.272,2.726.2.641-.326,1.365-.871,1.893-2.953,2.858-5.888,5.734-8.854,8.579a2.672,2.672,0,0,1-4.04-.055Q2.39,45.541.9,43.96a2.628,2.628,0,0,1,.083-4.035c2.908-2.85,5.845-5.669,8.766-8.506a2.655,2.655,0,0,1,2.59-.832.955.955,0,0,0,1.095-.337c.024-.029.054-.053.081-.08.984-.954,2.344-1.744,2.846-2.906.51-1.181-.845-2.337-1.285-3.546A17.763,17.763,0,1,1,31.8,35.412M31.768,33.1A15.417,15.417,0,1,0,16.379,17.641,15.377,15.377,0,0,0,31.768,33.1M15.381,36.435c-.113-.14-.241-.328-.4-.49-.869-.9-1.772-1.772-2.609-2.7-.453-.5-.757-.432-1.2,0q-4.188,4.1-8.414,8.168c-.4.389-.491.7-.051,1.13.92.9,1.813,1.835,2.7,2.77.405.427.737.391,1.149-.011q4.234-4.138,8.488-8.254c.154-.15.362-.288.331-.613m3.9-5.879a3.43,3.43,0,0,0-1.056-1.39c-.311-.291-.5.158-.687.329-.728.669-1.406,1.394-2.146,2.049-.537.475-.732.8-.117,1.443s.961.421,1.441-.085c.654-.689,1.352-1.338,2.044-1.991a3.512,3.512,0,0,1,.521-.355" transform="translate(0 0)" fill="#fef0d7"/>
        <path id="Trazado_874195" data-name="Trazado 874195" d="M29.71,209.384a11.188,11.188,0,0,1,6.841,8.728c.2,1.281-.218,1.751-1.537,1.771-1.9.028-3.806.042-5.707-.007-.8-.021-.914.219-.759.965.45,2.16.138,2.508-2.034,2.508q-9.018,0-18.036,0c-1.774,0-2.211-.6-1.8-2.357a11.09,11.09,0,0,1,6.1-7.8c.679-.336.6-.51.185-1.008a6.181,6.181,0,0,1,5.972-10.107.97.97,0,0,0,1.207-.477,6.166,6.166,0,0,1,9.16-1.847c2.947,2.24,3.238,6.253.673,9.259-.073.085-.13.183-.264.374M17.588,221.039c2.551,0,5.1-.038,7.652.021.919.021.985-.261.706-1.017a9.056,9.056,0,0,0-8.339-5.706,9.07,9.07,0,0,0-8.3,5.776c-.3.838,0,.948.739.938,2.512-.031,5.025-.012,7.538-.012m4.269-8.192a11.634,11.634,0,0,1,5.234,4.4c.226.357.574.321.913.321,1.712,0,3.424-.027,5.135.014.835.02.984-.23.67-.993a8.79,8.79,0,0,0-5.63-5.277c-2.965-.958-4.807-.488-6.322,1.532m-4.259-.84a3.867,3.867,0,0,0,3.967-3.832,3.919,3.919,0,1,0-7.838-.093,3.864,3.864,0,0,0,3.871,3.924m7.973-3.439a3.91,3.91,0,0,0,3.8-3.14,3.926,3.926,0,0,0-7.209-2.786.967.967,0,0,0,.121,1.388,5.333,5.333,0,0,1,1.455,3.021c.189,1.367.4,1.527,1.83,1.516" transform="translate(-5.042 -153.109)" fill="#fef0d7"/>
        <path id="Trazado_874196" data-name="Trazado 874196" d="M92.392,44.586a13.825,13.825,0,1,1,13.9-13.666,13.767,13.767,0,0,1-13.9,13.666m-.007-2.308A11.512,11.512,0,1,0,80.91,30.729,11.511,11.511,0,0,0,92.385,42.278" transform="translate(-60.652 -13.067)" fill="#fef0d7"/>
        <path id="Trazado_874197" data-name="Trazado 874197" d="M123.682,47.74c-.027-.682-.642-1.233-1.5-1.6a22.647,22.647,0,0,0-2.863-.723,4.9,4.9,0,0,1-3.595-2.708,4.222,4.222,0,0,1,2.658-5.6c.579-.223,1.005-.358.98-1.123a1.132,1.132,0,1,1,2.253.061c-.02.637.3.818.832.991a4.95,4.95,0,0,1,2.888,2.435c.387.707.549,1.4-.248,1.892-.824.506-1.317,0-1.738-.7a3.219,3.219,0,0,0-4.225-1.372,2.066,2.066,0,0,0-1.409,1.9,1.851,1.851,0,0,0,1.416,1.741,12.3,12.3,0,0,0,1.868.485,9.639,9.639,0,0,1,2.065.619,4.316,4.316,0,0,1,2.953,4.183c-.048,1.747-1.189,3.133-3.244,3.808-.688.226-1.27.354-1.2,1.3a.964.964,0,0,1-1.047.99,1.034,1.034,0,0,1-1.139-1.04c0-.814-.4-1.058-1.094-1.288a4.866,4.866,0,0,1-3.23-3.279,1.114,1.114,0,0,1,.718-1.558c.679-.241,1.147.112,1.447.752a3.848,3.848,0,0,0,5.553,1.637,1.783,1.783,0,0,0,.906-1.8" transform="translate(-88.705 -26.826)" fill="#fef0d7"/>
      </g>
    </g>
  </g>
</svg>
