<svg xmlns="http://www.w3.org/2000/svg" xmlns:xlink="http://www.w3.org/1999/xlink" width="145" height="145" viewBox="0 0 145 145">
  <defs>
    <clipPath id="clip-path">
      <path id="Trazado_611025" data-name="Trazado 611025" d="M72.628,1.073a11,11,0,0,0-8.919,4.552A10.54,10.54,0,0,1,53.171,7.88a10.955,10.955,0,0,0-9.324-.6c-.156.058-.312.119-.466.184l-.12.05a11.051,11.051,0,0,0-6.3,7.8,10.581,10.581,0,0,1-8.714,6.368,10.966,10.966,0,0,0-9.2,3.715,11.091,11.091,0,0,0-2.6,9.664,10.617,10.617,0,0,1-5.353,9.395,11.053,11.053,0,0,0-6.932,7.179c-.011.033-.016.065-.027.094-.049.174-.1.347-.14.521A11.1,11.1,0,0,0,5.7,61.525,10.665,10.665,0,0,1,4.61,72.3,11.249,11.249,0,0,0,6.623,90.121a10.661,10.661,0,0,1,3.332,10.292,11.1,11.1,0,0,0,.377,9.374c.076.162.16.313.246.466.018.033.033.066.049.094a11,11,0,0,0,8.387,5.485,10.618,10.618,0,0,1,7.21,8.042,11.159,11.159,0,0,0,14.481,10.394,10.542,10.542,0,0,1,9.859,4.364A11.023,11.023,0,0,0,58.4,144.81c.031.008.062.008.094.016.175.03.349.063.531.087a10.986,10.986,0,0,0,9-2.671A10.514,10.514,0,0,1,78.8,142.2a11.147,11.147,0,0,0,17.436-3.876,10.544,10.544,0,0,1,9.838-4.4,10.96,10.96,0,0,0,9.241-1.359c.147-.091.29-.19.43-.29.031-.021.067-.041.1-.065a11.079,11.079,0,0,0,4.553-8.954,10.606,10.606,0,0,1,7.207-8.041,11.205,11.205,0,0,0,8.775-15.557,10.656,10.656,0,0,1,3.316-10.334,11.23,11.23,0,0,0,1.717-17.792,10.671,10.671,0,0,1-1.151-10.8,11.221,11.221,0,0,0-5.632-16.957,10.637,10.637,0,0,1-5.427-9.394,11.092,11.092,0,0,0-2.721-9.578,10.96,10.96,0,0,0-9.29-3.608,10.583,10.583,0,0,1-8.744-6.334,11.053,11.053,0,0,0-6.381-7.675.884.884,0,0,0-.107-.042c-.156-.066-.32-.128-.48-.19a10.975,10.975,0,0,0-9.364.732A10.528,10.528,0,0,1,81.563,5.477a11,11,0,0,0-8.778-4.405h-.157" transform="translate(-1.105 -1.072)" fill="#e36849"/>
    </clipPath>
    <clipPath id="clip-path-2">
      <path id="Trazado_611025-2" data-name="Trazado 611025" d="M72.628,1.073a11,11,0,0,0-8.919,4.552A10.54,10.54,0,0,1,53.171,7.88a10.955,10.955,0,0,0-9.324-.6c-.156.058-.312.119-.466.184l-.12.05a11.051,11.051,0,0,0-6.3,7.8,10.581,10.581,0,0,1-8.714,6.368,10.966,10.966,0,0,0-9.2,3.715,11.091,11.091,0,0,0-2.6,9.664,10.617,10.617,0,0,1-5.353,9.395,11.053,11.053,0,0,0-6.932,7.179c-.011.033-.016.065-.027.094-.049.174-.1.347-.14.521A11.1,11.1,0,0,0,5.7,61.525,10.665,10.665,0,0,1,4.61,72.3,11.249,11.249,0,0,0,6.623,90.121a10.661,10.661,0,0,1,3.332,10.292,11.1,11.1,0,0,0,.377,9.374c.076.162.16.313.246.466.018.033.033.066.049.094a11,11,0,0,0,8.387,5.485,10.618,10.618,0,0,1,7.21,8.042,11.159,11.159,0,0,0,14.481,10.394,10.542,10.542,0,0,1,9.859,4.364A11.023,11.023,0,0,0,58.4,144.81c.031.008.062.008.094.016.175.03.349.063.531.087a10.986,10.986,0,0,0,9-2.671A10.514,10.514,0,0,1,78.8,142.2a11.147,11.147,0,0,0,17.436-3.876,10.544,10.544,0,0,1,9.838-4.4,10.96,10.96,0,0,0,9.241-1.359c.147-.091.29-.19.43-.29.031-.021.067-.041.1-.065a11.079,11.079,0,0,0,4.553-8.954,10.606,10.606,0,0,1,7.207-8.041,11.205,11.205,0,0,0,8.775-15.557,10.656,10.656,0,0,1,3.316-10.334,11.23,11.23,0,0,0,1.717-17.792,10.671,10.671,0,0,1-1.151-10.8,11.221,11.221,0,0,0-5.632-16.957,10.637,10.637,0,0,1-5.427-9.394,11.092,11.092,0,0,0-2.721-9.578,10.96,10.96,0,0,0-9.29-3.608,10.583,10.583,0,0,1-8.744-6.334,11.053,11.053,0,0,0-6.381-7.675.884.884,0,0,0-.107-.042c-.156-.066-.32-.128-.48-.19a10.975,10.975,0,0,0-9.364.732A10.528,10.528,0,0,1,81.563,5.477a11,11,0,0,0-8.778-4.405h-.157" transform="translate(-1.105 -1.072)" fill="#fff"/>
    </clipPath>
    <clipPath id="clip-path-3">
      <rect id="Rectángulo_378432" data-name="Rectángulo 378432" width="145" height="145" fill="none"/>
    </clipPath>
    <clipPath id="clip-path-4">
      <rect id="Rectángulo_401438" data-name="Rectángulo 401438" width="76.662" height="78.301" fill="#fef0d7"/>
    </clipPath>
  </defs>
  <g id="Grupo_1099731" data-name="Grupo 1099731" transform="translate(-1148 -544.873)">
    <g id="Grupo_1099275" data-name="Grupo 1099275" transform="translate(828 -9006.127)">
      <g id="Grupo_1074143" data-name="Grupo 1074143" transform="translate(320 9551)">
        <g id="Grupo_1074028" data-name="Grupo 1074028" transform="translate(0)">
          <g id="Grupo_1074021" data-name="Grupo 1074021" transform="translate(0 0)">
            <g id="Grupo_1074018" data-name="Grupo 1074018" transform="translate(0.458 0.445)">
              <g id="Grupo_1074017" data-name="Grupo 1074017" clip-path="url(#clip-path)">
                <path id="Trazado_611056" data-name="Trazado 611056" d="M0,0H159.982V159.745H0Z" transform="translate(-6.043 155.081) rotate(-90)" fill="#e36849"/>
              </g>
            </g>
            <g id="Grupo_1074020" data-name="Grupo 1074020">
              <g id="Grupo_1074019" data-name="Grupo 1074019" clip-path="url(#clip-path-3)">
                <path id="Trazado_611027" data-name="Trazado 611027" d="M20.249,131.032a10.9,10.9,0,0,0,3.616,4.062,11.024,11.024,0,0,0,5.073,1.81h.016l.019.007a10.9,10.9,0,0,1,4.815,3.022,12.1,12.1,0,0,1,2.625,5.093l.008.031v.037a10.709,10.709,0,0,0,4.6,8.467A10.524,10.524,0,0,0,50.432,155l.046-.016.059-.006a11.233,11.233,0,0,1,5.789.823,12.248,12.248,0,0,1,4.569,3.676l.041.051.031.067a10.436,10.436,0,0,0,3.067,3.8,10.284,10.284,0,0,0,4.475,1.982l-.052-.011.607.091c.207.021.434.059.623.068a10.424,10.424,0,0,0,1.183.021,10.176,10.176,0,0,0,2.36-.37,10.3,10.3,0,0,0,4.15-2.287l.053-.048.074-.043a11.357,11.357,0,0,1,5.736-1.625,12.385,12.385,0,0,1,5.746,1.54l.081.042.067.059a10.338,10.338,0,0,0,16.157-3.62l.034-.078.055-.077a11.557,11.557,0,0,1,4.634-3.831,12.516,12.516,0,0,1,5.909-.928l.1.006.095.028a10.15,10.15,0,0,0,4.707.26,10.352,10.352,0,0,0,8.475-10.1v-.1l.021-.095a11.669,11.669,0,0,1,2.717-5.4,12.575,12.575,0,0,1,5.041-3.242l.1-.035.091-.011a10.192,10.192,0,0,0,7.623-5.136,10.3,10.3,0,0,0,.518-9.236l-.033-.077-.018-.084a11.647,11.647,0,0,1,.277-6.021,12.54,12.54,0,0,1,3.278-5.015l.065-.063.074-.044a10.529,10.529,0,0,0,1.669-16.617l-.054-.05-.04-.056a11.479,11.479,0,0,1-2.132-5.553,12.44,12.44,0,0,1,.982-5.834l.028-.067.035-.049a10.714,10.714,0,0,0-5.28-16.206l-.046-.016-.036-.021a11.179,11.179,0,0,1-4.085-4.125,12.123,12.123,0,0,1-1.405-5.609V55.69l.006-.028a11.015,11.015,0,0,0-11.72-13.118,11.009,11.009,0,0,1,9.378,3.476,11.17,11.17,0,0,1,2.6,4.512,11.421,11.421,0,0,1,.3,5.236l.005-.064a11.464,11.464,0,0,0,1.449,5.282,10.389,10.389,0,0,0,3.9,3.749l-.08-.036a11.431,11.431,0,0,1,7.355,7.3,11.56,11.56,0,0,1,.539,5.341,11.717,11.717,0,0,1-1.925,5.029l.062-.116a11.205,11.205,0,0,0-.821,5.28,10.17,10.17,0,0,0,1.972,4.9l-.094-.106a11.766,11.766,0,0,1,3.837,9.877,11.592,11.592,0,0,1-1.719,5.194,11.84,11.84,0,0,1-3.88,3.855l.138-.107a11,11,0,0,0-2.864,4.4,10.042,10.042,0,0,0-.2,5.206l-.051-.161a11.966,11.966,0,0,1,1,5.409,11.961,11.961,0,0,1-10.383,11.3l.186-.045a10.859,10.859,0,0,0-4.357,2.812,9.9,9.9,0,0,0-2.28,4.61l.021-.191a12.039,12.039,0,0,1-1.275,5.4,11.841,11.841,0,0,1-3.581,4.216,12.075,12.075,0,0,1-5.066,2.187,11.844,11.844,0,0,1-5.5-.33l.189.035a10.853,10.853,0,0,0-5.129.765,9.9,9.9,0,0,0-3.98,3.275l.09-.155a11.89,11.89,0,0,1-3.363,4.378,11.869,11.869,0,0,1-15.308-.258l.147.1a10.86,10.86,0,0,0-5.034-1.39,10.066,10.066,0,0,0-5,1.39l.126-.09a11.725,11.725,0,0,1-7.451,2.92,11.4,11.4,0,0,1-1.371-.048c-.235-.017-.429-.054-.646-.079l-.655-.107.026,0-.078-.014a11.452,11.452,0,0,1-2.583-.843,11.648,11.648,0,0,1-5.706-5.742l.072.117a11.123,11.123,0,0,0-4.095-3.406,10.164,10.164,0,0,0-5.241-.813l.1-.022a11.473,11.473,0,0,1-5.317.369,11.2,11.2,0,0,1-4.887-2.08,11.328,11.328,0,0,1-3.45-4.022,11.473,11.473,0,0,1-1.265-5.127l.01.069a11.574,11.574,0,0,0-2.392-4.932,10.512,10.512,0,0,0-4.571-3.017l.036.009a11.03,11.03,0,0,1-8.654-6.206" transform="translate(-10.501 -21.928)" fill="#ffc278"/>
                <path id="Trazado_611028" data-name="Trazado 611028" d="M101.257,6.584a11.015,11.015,0,0,0-9.731.72l-.016.01-.024.008A10.945,10.945,0,0,1,85.8,7.77a12,12,0,0,1-5.157-2.548L80.61,5.2l-.031-.041a10.635,10.635,0,0,0-8.634-4.115,10.43,10.43,0,0,0-8.382,4.395l-.034.049-.058.052a11.351,11.351,0,0,1-5.224,2.774,12.384,12.384,0,0,1-5.911-.279l-.073-.021-.082-.044a10.324,10.324,0,0,0-9.264-.28,10.251,10.251,0,0,0-5.778,7.23L37.122,15l-.039.088A11.6,11.6,0,0,1,33.348,19.8a12.541,12.541,0,0,1-5.587,2.15l-.1.015-.1-.009A10.42,10.42,0,0,0,16.839,29.57a10.289,10.289,0,0,0-.152,4.726l.018.09v.09a11.7,11.7,0,0,1-1.52,5.842,12.515,12.515,0,0,1-4.246,4.228l-.085.054-.084.028a10.262,10.262,0,0,0-6.444,6.627c-.1.358-.213.779-.3,1.2a11.2,11.2,0,0,0-.166,1.171,10.34,10.34,0,0,0,.081,2.4,10.5,10.5,0,0,0,1.779,4.438l.049.07.028.066A11.571,11.571,0,0,1,6.722,66.5,12.436,12.436,0,0,1,4.552,72l-.046.068-.048.044A10.537,10.537,0,0,0,1.127,81,10.711,10.711,0,0,0,6.24,89.12l.042.025.027.026a11.1,11.1,0,0,1,3.084,4.876,12.11,12.11,0,0,1,.18,5.728l0,.028-.008.017a11.138,11.138,0,0,0-.514,7.395,11.994,11.994,0,0,0,.948,2.354,12.108,12.108,0,0,1-1.057-2.32,11.127,11.127,0,0,1,.246-7.588l-.013.044a11.6,11.6,0,0,0-.347-5.477,10.4,10.4,0,0,0-3.045-4.475l.069.051a11.274,11.274,0,0,1-3.909-3.634A11.5,11.5,0,0,1,.1,81.125,11.667,11.667,0,0,1,3.607,71.2l-.094.111a11.144,11.144,0,0,0,1.854-4.962A10.134,10.134,0,0,0,4.439,61.2l.078.137a11.757,11.757,0,0,1-2.086-5.07A11.927,11.927,0,0,1,2.319,53.5a12.46,12.46,0,0,1,.191-1.394c.09-.424.192-.84.326-1.313a11.858,11.858,0,0,1,7.4-7.713l-.17.082a10.854,10.854,0,0,0,3.675-3.687A9.984,9.984,0,0,0,15,34.464l.018.18a12.034,12.034,0,0,1,.141-5.527A11.909,11.909,0,0,1,27.71,20.254l-.194.006a10.874,10.874,0,0,0,4.863-1.818A9.941,9.941,0,0,0,35.6,14.406l-.055.169a11.923,11.923,0,0,1,2.376-4.968,11.706,11.706,0,0,1,4.343-3.343A11.984,11.984,0,0,1,47.63,5.2a11.61,11.61,0,0,1,5.26,1.471l-.155-.063a10.97,10.97,0,0,0,5.238.367A10.054,10.054,0,0,0,62.647,4.6l-.091.1A11.636,11.636,0,0,1,66.7,1.215a11.8,11.8,0,0,1,10.444.007A11.266,11.266,0,0,1,81.2,4.68l-.063-.065a11.335,11.335,0,0,0,4.783,2.569,10.44,10.44,0,0,0,5.439-.254l-.04.017a11.035,11.035,0,0,1,4.948-1.365,11.184,11.184,0,0,1,4.986,1" transform="translate(0 0)" fill="#ffc278"/>
              </g>
            </g>
          </g>
        </g>
      </g>
      <g id="Grupo_1074144" data-name="Grupo 1074144" transform="translate(347.117 9578.125)">
        <rect id="Rectángulo_378411" data-name="Rectángulo 378411" width="91.063" height="91.062" transform="translate(0)" fill="none"/>
      </g>
    </g>
    <g id="Grupo_1099627" data-name="Grupo 1099627" transform="translate(1181.67 578.209)">
      <g id="Grupo_1099626" data-name="Grupo 1099626" clip-path="url(#clip-path-4)">
        <path id="Trazado_874186" data-name="Trazado 874186" d="M11.213,77.778c-2.1-4.334.384-7.787,3.075-8.763a6.039,6.039,0,0,1,7.738,3.659c1.163,3.323-.655,6.589-4.52,7.9a13.614,13.614,0,0,1,2.365,6.056c.121.649.352.889,1,.413.864-.636,1.792-1.187,2.695-1.771a4.79,4.79,0,0,1,3.035-.843,1.844,1.844,0,0,0,1.753-2.457A5.1,5.1,0,0,1,30.2,75.9a5.03,5.03,0,0,1,7.247,6.52,5.117,5.117,0,0,1-5.865,2.467,1.926,1.926,0,0,0-2.5,2.156,3.241,3.241,0,0,1-.92,2.818c-2.152,2.213-4.271,4.458-6.45,6.643a3.19,3.19,0,0,1-5.1-.323,13.253,13.253,0,0,1-1.3-1.826c-.614-1.11-1.131-.888-1.7.009-2.093,3.306-4.128,6.543-4.282,10.725-.187,5.083-.843,10.149-1.328,15.219a3.667,3.667,0,0,1-3.892,3.265,3.82,3.82,0,0,1-3.738-3.656c-.131-2.943-.167-5.891-.2-8.837C.106,105.323.085,99.569,0,93.817a7.3,7.3,0,0,1,1.428-4.581c2.283-3.136,4.528-6.3,6.767-9.468a4.975,4.975,0,0,1,3.017-1.99M2.39,106.126h.217c0,1.636-.008,3.273,0,4.909.016,2.759.02,5.518.077,8.276.02.96.373,1.76,1.53,1.8,1.206.042,1.436-.741,1.517-1.735.366-4.517.7-9.038,1.186-13.542.2-1.806-.11-3.748.655-5.4,1.566-3.379,3.137-6.787,5.77-9.542.976-1.021,1.651-1.05,2.489.081.889,1.2,1.731,2.437,2.6,3.649.4.556.875.9,1.489.268q3.283-3.359,6.553-6.731a.712.712,0,0,0,.132-1,.8.8,0,0,0-1.008-.248,5.078,5.078,0,0,0-.979.536c-1.456.93-2.893,1.891-4.363,2.8-1.13.7-1.838.4-2.186-.853-.1-.359-.155-.731-.236-1.1-.536-2.413-1.037-4.806-2.621-6.857-1.254-1.625-4.269-1.78-5.4.046C7.929,84.534,5.71,87.383,3.6,90.3A6.177,6.177,0,0,0,2.365,94.2c.076,3.972.026,7.947.026,11.921M16.409,78.189a3.54,3.54,0,0,0,3.553-3.575,3.593,3.593,0,1,0-7.185.1,3.529,3.529,0,0,0,3.633,3.48m16.529,4.472a2.6,2.6,0,1,0,.143-5.195,2.6,2.6,0,0,0-.143,5.195" transform="translate(0 -49.376)" fill="#fef0d7"/>
        <path id="Trazado_874187" data-name="Trazado 874187" d="M147.082,150.713a11.124,11.124,0,0,1,2.02-6.592c.571-.8.426-1.232-.207-1.855-3.167-3.115-6.3-6.27-9.436-9.414-.464-.465-.98-.919-.632-1.694.419-.935,1.322-.973,2.275-.028,3.089,3.062,6.194,6.11,9.212,9.242a1.527,1.527,0,0,0,2.387.257,11.915,11.915,0,0,1,17.9,12.93,11.934,11.934,0,0,1-23.522-2.847m4.868,6.247a7.418,7.418,0,0,1,3.227-6.294c.515-.353.1-.642-.049-.936a4.509,4.509,0,0,1,6.611-5.89,4.465,4.465,0,0,1,1.146,5.777c-.34.637-.307.925.281,1.336a7.043,7.043,0,0,1,2.682,3.987c.171.593-.062,1.279.36,1.86,3.3-3.428,3.065-9.318-.457-12.841a9.483,9.483,0,0,0-13.8,13m11.663.124a4.722,4.722,0,0,0-.738-3.045,4.636,4.636,0,0,0-6.059-1.544c-1.911,1.03-3.225,4.512-2.414,6.387.171.4.55.475.886.616a9.465,9.465,0,0,0,6.3.406c1.995-.542,2.024-.558,2.02-2.82m-2.5-9.687a2.074,2.074,0,0,0-2.169-2.068,2.033,2.033,0,0,0-2.045,2.041,2.118,2.118,0,0,0,2.088,2.167,2.145,2.145,0,0,0,2.125-2.14" transform="translate(-99.761 -93.81)" fill="#fef0d7"/>
        <path id="Trazado_874188" data-name="Trazado 874188" d="M88.279,148.878c0,1.823.095,3.653-.032,5.467-.089,1.279.336,1.744,1.581,2.017a11.886,11.886,0,0,1-3.022,23.468c-5.819-.152-10.937-4.644-11.517-10.108-.7-6.573,3.007-12.022,9.216-13.4,1.111-.247,1.491-.6,1.464-1.788-.091-3.878-.028-7.759-.039-11.639,0-.85.04-1.7,1.143-1.713s1.209.811,1.207,1.67c-.006,2.01,0,4.02,0,6.03m-8.307,25.256c.209-2.612,1.054-4.717,3.138-6.14.485-.331.4-.591.14-1.015a4.2,4.2,0,0,1-.609-2.955,4.363,4.363,0,0,1,3.313-3.76,4.135,4.135,0,0,1,4.528,1.445,4.326,4.326,0,0,1,.6,4.966c-.185.387-.834.777-.1,1.284a7.252,7.252,0,0,1,3.164,6.087c3.274-2.839,3.258-8.858.061-12.494a9.547,9.547,0,0,0-13.576-.686,9.381,9.381,0,0,0-.665,13.267m11.731.544c0-.462.016-.744,0-1.023a4.6,4.6,0,1,0-9.208.14c-.02.514.046,1.035-.019,1.542-.1.817.327,1.172,1.006,1.435a9.759,9.759,0,0,0,6.317.32c1.358-.378,2.377-.917,1.906-2.414m-4.628-12.155a2.07,2.07,0,0,0-2.1,2.138,2.131,2.131,0,0,0,2.184,2.076,2.195,2.195,0,0,0,2.056-2.089,2.127,2.127,0,0,0-2.141-2.125" transform="translate(-54.087 -101.533)" fill="#fef0d7"/>
        <path id="Trazado_874189" data-name="Trazado 874189" d="M155.1,77.447c1.357,0,2.715-.038,4.07.013.8.031,1.089-.2,1.245-1.052a11.93,11.93,0,1,1,14.6,13.728c-6.781,1.494-13.291-2.552-14.545-9.13-.194-1.02-.538-1.268-1.508-1.243-2.619.064-5.24.013-7.86.026-.858,0-1.684-.088-1.726-1.157-.044-1.118.8-1.2,1.653-1.189,1.357.013,2.714,0,4.071,0m24.132,7.188c3.369-2.966,3.192-9.233-.3-12.769a9.559,9.559,0,0,0-13.883.284c-3.289,3.6-3.32,9.776.016,12.554a6.872,6.872,0,0,1,2.81-5.836c.7-.514.671-.825.28-1.52a4.181,4.181,0,0,1,.512-4.96,4.47,4.47,0,0,1,5.945-.879,4.563,4.563,0,0,1,1.512,5.83c-.166.346-.923.709-.135,1.239a7.4,7.4,0,0,1,3.24,6.057m-11.755.691c.131.589-.382,1.491.666,1.939a9.587,9.587,0,0,0,7.989-.03,1,1,0,0,0,.6-.543c.826-2.074-.509-5.355-2.546-6.422-2.77-1.452-7.049.416-6.709,5.057m6.71-10.053a2,2,0,0,0-2.111-2.085,2.163,2.163,0,0,0-2.111,2.012,2.288,2.288,0,0,0,2.11,2.2,2.11,2.11,0,0,0,2.112-2.13" transform="translate(-107.425 -47.906)" fill="#fef0d7"/>
        <path id="Trazado_874190" data-name="Trazado 874190" d="M169.165,10.669c0,2.994-.038,5.989.018,8.983.025,1.357-.565,1.855-1.853,1.807-1.215-.045-2.433-.03-3.649,0-1.159.025-1.724-.466-1.721-1.666q.024-9.123,0-18.247c0-1.04.434-1.562,1.512-1.542q2.1.04,4.211,0c1.082-.02,1.5.493,1.488,1.545-.026,3.041-.009,6.082-.009,9.123m-4.816.054c0,2.384.049,4.768-.023,7.15-.03,1,.385,1.168,1.232,1.134.757-.03,1.308.01,1.295-1.08q-.09-7.22,0-14.441c.011-1-.4-1.115-1.237-1.137-.937-.024-1.319.194-1.287,1.224.074,2.381.024,4.766.024,7.15" transform="translate(-116.479 0)" fill="#fef0d7"/>
        <path id="Trazado_874191" data-name="Trazado 874191" d="M132.149,25.284c0,2.242-.022,4.483.009,6.725a1.339,1.339,0,0,1-1.516,1.556c-1.4.01-2.8.006-4.2,0a1.329,1.329,0,0,1-1.5-1.452q-.018-6.935,0-13.87a1.253,1.253,0,0,1,1.4-1.389q2.172,0,4.343,0c1.052,0,1.5.508,1.481,1.567-.036,2.287-.011,4.576-.011,6.864m-2.339-.116c0-1.63-.07-3.265.024-4.89.065-1.129-.593-1.028-1.316-1.038-.7-.01-1.233-.038-1.213.984q.1,4.96,0,9.922c-.019,1.032.545.966,1.227.971.745.005,1.365.046,1.3-1.059-.093-1.625-.024-3.26-.024-4.89" transform="translate(-89.845 -12.12)" fill="#fef0d7"/>
        <path id="Trazado_874192" data-name="Trazado 874192" d="M95.395,39.764c0,1.4-.018,2.8.006,4.205.021,1.186-.556,1.705-1.71,1.693-1.355-.015-2.71.005-4.065-.008a1.311,1.311,0,0,1-1.476-1.466q0-4.555,0-9.111a1.261,1.261,0,0,1,1.395-1.4c1.448-.025,2.9-.023,4.345,0a1.376,1.376,0,0,1,1.5,1.6c-.017,1.5,0,2.99,0,4.485m-2.387-.1c0-.935-.022-1.87.006-2.8.032-1.053-.744-.74-1.275-.749s-1.273-.264-1.251.778c.039,1.822.006,3.645.015,5.468,0,.3-.074.631.353.809a1.422,1.422,0,0,0,2.154-1.4c0-.7,0-1.4,0-2.1" transform="translate(-63.396 -24.21)" fill="#fef0d7"/>
      </g>
    </g>
  </g>
</svg>
