<svg xmlns="http://www.w3.org/2000/svg" xmlns:xlink="http://www.w3.org/1999/xlink" width="116" height="116" viewBox="0 0 116 116">
  <defs>
    <clipPath id="clip-path">
      <rect id="Rect치ngulo_378477" data-name="Rect치ngulo 378477" width="90" height="89.999" fill="none"/>
    </clipPath>
    <clipPath id="clip-path-2">
      <rect id="Rect치ngulo_401440" data-name="Rect치ngulo 401440" width="46.929" height="46.935" fill="#12263f"/>
    </clipPath>
  </defs>
  <g id="Grupo_1099954" data-name="Grupo 1099954" transform="translate(-324 -7238)">
    <circle id="Elipse_11491" data-name="Elipse 11491" cx="58" cy="58" r="58" transform="translate(324 7238)" fill="#851717"/>
    <g id="Grupo_1099439" data-name="Grupo 1099439" transform="translate(0 1549)">
      <g id="Grupo_1074114" data-name="Grupo 1074114" transform="translate(257 -26)">
        <g id="Grupo_1074112" data-name="Grupo 1074112" transform="translate(80 5728)">
          <g id="Grupo_1074103" data-name="Grupo 1074103" clip-path="url(#clip-path)">
            <path id="Trazado_611090" data-name="Trazado 611090" d="M45,0c2.318.367,4.306,2.287,6.625,2.654S56.587,1.835,58.9,2.2C61,3.267,62.293,5.709,64.385,6.773s4.974.756,7.065,1.82c1.66,1.66,2.139,4.382,3.8,6.041s4.5,2.255,6.157,3.916c1.066,2.09.681,4.828,1.746,6.918S86.733,29,87.8,31.093c.368,2.318-.844,4.8-.477,7.12S89.632,42.682,90,45c-.367,2.318-2.286,4.306-2.654,6.625s.819,4.964.452,7.282c-1.064,2.09-3.506,3.388-4.571,5.479s-.755,4.974-1.821,7.065c-1.659,1.659-4.382,2.14-6.041,3.8s-2.255,4.5-3.915,6.158c-2.09,1.065-4.828.68-6.918,1.745S61,86.732,58.907,87.8c-2.319.368-4.8-.844-7.121-.477S47.317,89.632,45,90c-2.317-.367-4.305-2.287-6.624-2.654s-4.964.819-7.282.452C29,86.732,27.7,84.29,25.615,83.226s-4.975-.755-7.066-1.82c-1.66-1.66-2.14-4.382-3.8-6.041s-4.5-2.256-6.158-3.915c-1.066-2.091-.679-4.829-1.744-6.919S3.267,61,2.2,58.906c-.368-2.318.844-4.8.477-7.121S.368,47.317,0,45c.368-2.317,2.286-4.306,2.654-6.624s-.818-4.964-.451-7.282C3.267,29,5.709,27.7,6.774,25.614s.754-4.974,1.819-7.065c1.66-1.66,4.382-2.14,6.041-3.8s2.255-4.5,3.915-6.158c2.091-1.065,4.829-.68,6.92-1.745S29,3.267,31.093,2.2c2.318-.368,4.8.844,7.12.477S42.682.367,45,0" transform="translate(0 0)" fill="#ffac47" fill-rule="evenodd"/>
            <path id="Trazado_611091" data-name="Trazado 611091" d="M46.344,88.074A41.73,41.73,0,1,0,4.614,46.344a41.811,41.811,0,0,0,41.73,41.731" transform="translate(-1.345 -1.345)" fill="#fef0d7" fill-rule="evenodd"/>
          </g>
        </g>
      </g>
    </g>
    <g id="Grupo_1099631" data-name="Grupo 1099631" transform="translate(358.535 7272.532)">
      <g id="Grupo_1099630" data-name="Grupo 1099630" clip-path="url(#clip-path-2)">
        <path id="Trazado_874198" data-name="Trazado 874198" d="M14.633,9.177a5.7,5.7,0,0,1-1.36-4.227,5.488,5.488,0,0,1,9.949-2.628,5.392,5.392,0,0,1,.051,6.241c-.344.475-.384.647.184.992a9.8,9.8,0,0,1,4.925,8.4c.039.878.025,1.759.007,2.639A1.4,1.4,0,0,1,26.8,22.16q-8.064.005-16.128,0c-.906,0-1.5-.4-1.541-1.216-.129-2.619-.15-5.231,1.2-7.628a10.676,10.676,0,0,1,4.3-4.139m4.109,10.256c2.077,0,4.155-.013,6.231.01.491.005.693-.108.673-.643a18.366,18.366,0,0,0-.165-2.04A6.89,6.89,0,0,0,16.871,11.3c-3.183.974-5.073,3.815-5.032,7.5.006.531.181.648.672.642,2.077-.023,4.154-.01,6.231-.01M18.719,8.22a2.752,2.752,0,0,0,2.789-2.71,2.766,2.766,0,0,0-5.53-.046A2.751,2.751,0,0,0,18.719,8.22" transform="translate(-7.743 0)" fill="#12263f"/>
        <path id="Trazado_874199" data-name="Trazado 874199" d="M188.827,22.253q-4,0-7.99,0c-1.145,0-1.658-.5-1.66-1.645a18.438,18.438,0,0,1,.371-5.02,9.864,9.864,0,0,1,4.682-6.025c.376-.224.472-.335.19-.731a5.333,5.333,0,0,1-.232-6.171,5.245,5.245,0,0,1,5.4-2.488,5.335,5.335,0,0,1,4.619,4.3,5.047,5.047,0,0,1-.886,4.239c-.362.485-.273.633.215.932a9.853,9.853,0,0,1,4.937,8.542c.028.805.015,1.613,0,2.419-.016,1.154-.515,1.651-1.655,1.653q-4,.006-7.99,0m-.028-2.729c2.1,0,4.2-.012,6.3.009.475,0,.637-.132.622-.618a17.7,17.7,0,0,0-.16-2.041,6.888,6.888,0,0,0-8.59-5.487c-3.174.967-5.054,3.746-5.056,7.406,0,.562.13.754.721.744,2.052-.035,4.105-.014,6.158-.014m.061-11.212a2.753,2.753,0,0,0,2.729-2.7,2.765,2.765,0,0,0-5.531,0,2.752,2.752,0,0,0,2.8,2.7" transform="translate(-152.893 -0.092)" fill="#12263f"/>
        <path id="Trazado_874200" data-name="Trazado 874200" d="M22,181.063a11,11,0,1,1-10.973-11.025A11.034,11.034,0,0,1,22,181.063m-19.215-.051a8.159,8.159,0,0,0,8.21,8.242,8.217,8.217,0,0,0,.051-16.434,8.16,8.16,0,0,0-8.26,8.191" transform="translate(0 -145.101)" fill="#12263f"/>
        <path id="Trazado_874201" data-name="Trazado 874201" d="M180.982,192.036A11,11,0,1,1,192,181.054a11.035,11.035,0,0,1-11.015,10.982m.046-19.215a8.217,8.217,0,1,0,8.187,8.264,8.159,8.159,0,0,0-8.187-8.264" transform="translate(-145.068 -145.101)" fill="#12263f"/>
        <path id="Trazado_874202" data-name="Trazado 874202" d="M53.75,225.211a1.367,1.367,0,0,1-1.02-.5c-.434-.429-.882-.845-1.289-1.3-.288-.321-.491-.289-.762.015-.34.382-.719.729-1.083,1.09-.807.8-1.616.912-2.233.31s-.526-1.439.259-2.234c.377-.382.746-.773,1.142-1.135.277-.252.3-.442.013-.71-.466-.429-.913-.881-1.346-1.344a1.378,1.378,0,1,1,1.943-1.941c.445.416.889.839,1.292,1.295.309.35.525.318.814-.015.319-.367.685-.694,1.032-1.038.84-.834,1.666-.946,2.284-.31.6.617.489,1.426-.311,2.233-.361.364-.708.743-1.09,1.083-.3.271-.329.47-.014.762.518.48,1.014.987,1.487,1.513a1.261,1.261,0,0,1,.182,1.44,1.3,1.3,0,0,1-1.3.779" transform="translate(-40.068 -185.167)" fill="#12263f"/>
        <path id="Trazado_874203" data-name="Trazado 874203" d="M208.873,219.781a1.545,1.545,0,0,1,1.177.589c.535.482.963,1.416,1.583,1.367.543-.043,1.029-.879,1.531-1.375.936-.926,1.86-1.864,2.8-2.787a1.421,1.421,0,0,1,2.124-.142,1.4,1.4,0,0,1-.172,2.071q-2.6,2.62-5.225,5.222a1.381,1.381,0,0,1-2.18.006c-.874-.85-1.729-1.719-2.587-2.584a1.342,1.342,0,0,1-.333-1.546,1.248,1.248,0,0,1,1.283-.821" transform="translate(-177.045 -185.192)" fill="#12263f"/>
      </g>
    </g>
  </g>
</svg>
