<svg xmlns="http://www.w3.org/2000/svg" xmlns:xlink="http://www.w3.org/1999/xlink" width="116" height="116" viewBox="0 0 116 116">
  <defs>
    <clipPath id="clip-path">
      <rect id="Rect치ngulo_378477" data-name="Rect치ngulo 378477" width="90" height="89.999" fill="none"/>
    </clipPath>
    <clipPath id="clip-path-2">
      <rect id="Rect치ngulo_401442" data-name="Rect치ngulo 401442" width="51.487" height="51.626" fill="#12263f"/>
    </clipPath>
  </defs>
  <g id="Grupo_1099956" data-name="Grupo 1099956" transform="translate(-1164 -7238)">
    <circle id="Elipse_11493" data-name="Elipse 11493" cx="58" cy="58" r="58" transform="translate(1164 7238)" fill="#851717"/>
    <g id="Grupo_1099443" data-name="Grupo 1099443" transform="translate(840 1549)">
      <g id="Grupo_1074114" data-name="Grupo 1074114" transform="translate(257 -26)">
        <g id="Grupo_1074112" data-name="Grupo 1074112" transform="translate(80 5728)">
          <g id="Grupo_1074103" data-name="Grupo 1074103" clip-path="url(#clip-path)">
            <path id="Trazado_611090" data-name="Trazado 611090" d="M45,0c2.318.367,4.306,2.287,6.625,2.654S56.587,1.835,58.9,2.2C61,3.267,62.293,5.709,64.385,6.773s4.974.756,7.065,1.82c1.66,1.66,2.139,4.382,3.8,6.041s4.5,2.255,6.157,3.916c1.066,2.09.681,4.828,1.746,6.918S86.733,29,87.8,31.093c.368,2.318-.844,4.8-.477,7.12S89.632,42.682,90,45c-.367,2.318-2.286,4.306-2.654,6.625s.819,4.964.452,7.282c-1.064,2.09-3.506,3.388-4.571,5.479s-.755,4.974-1.821,7.065c-1.659,1.659-4.382,2.14-6.041,3.8s-2.255,4.5-3.915,6.158c-2.09,1.065-4.828.68-6.918,1.745S61,86.732,58.907,87.8c-2.319.368-4.8-.844-7.121-.477S47.317,89.632,45,90c-2.317-.367-4.305-2.287-6.624-2.654s-4.964.819-7.282.452C29,86.732,27.7,84.29,25.615,83.226s-4.975-.755-7.066-1.82c-1.66-1.66-2.14-4.382-3.8-6.041s-4.5-2.256-6.158-3.915c-1.066-2.091-.679-4.829-1.744-6.919S3.267,61,2.2,58.906c-.368-2.318.844-4.8.477-7.121S.368,47.317,0,45c.368-2.317,2.286-4.306,2.654-6.624s-.818-4.964-.451-7.282C3.267,29,5.709,27.7,6.774,25.614s.754-4.974,1.819-7.065c1.66-1.66,4.382-2.14,6.041-3.8s2.255-4.5,3.915-6.158c2.091-1.065,4.829-.68,6.92-1.745S29,3.267,31.093,2.2c2.318-.368,4.8.844,7.12.477S42.682.367,45,0" transform="translate(0 0)" fill="#ffac47" fill-rule="evenodd"/>
            <path id="Trazado_611091" data-name="Trazado 611091" d="M46.344,88.074A41.73,41.73,0,1,0,4.614,46.344a41.811,41.811,0,0,0,41.73,41.731" transform="translate(-1.345 -1.345)" fill="#fef0d7" fill-rule="evenodd"/>
          </g>
        </g>
      </g>
    </g>
    <g id="Grupo_1099638" data-name="Grupo 1099638" transform="translate(1197.257 7270.187)">
      <g id="Grupo_1099636" data-name="Grupo 1099636" clip-path="url(#clip-path-2)">
        <path id="Trazado_874209" data-name="Trazado 874209" d="M6.055,87.764V80.975c0-.914-.009-1.829,0-2.743A2.387,2.387,0,0,1,8.793,75.7c.379.029.548,0,.679-.417a2.207,2.207,0,0,1,2.458-1.639c.622.078.671-.153.643-.628a9.023,9.023,0,0,1,.008-1.129c.033-.476.246-.869.773-.853.507.016.745.379.748.876.006.941.018,1.883,0,2.823-.009.445.035.658.6.612a2.264,2.264,0,0,1,2.625,2.027c.075.38.191.38.515.345a2.321,2.321,0,0,1,2.767,2.461q.035,4.4-.005,8.793c-.006.615.138.858.8.83,1.208-.051,2.42-.031,3.63-.006.494.01.795-.1.695-.663a3.152,3.152,0,0,1,1.3-3.042A39.251,39.251,0,0,0,35.5,74.507a1.343,1.343,0,0,0-.2-1.82,1.291,1.291,0,0,0-1.82.114c-.918.745-1.857,1.464-2.773,2.212a1.425,1.425,0,0,1-1.571.275,1.317,1.317,0,0,1-.752-1.323c-.015-1.936-.011-3.872,0-5.808,0-.523.138-1.01.784-1s.769.465.767,1.009c-.006,1.771,0,3.542,0,5.493,1.03-.806,1.928-1.547,2.866-2.234a2.776,2.776,0,0,1,4.033.686c.115.17.211.352.369.615a2.529,2.529,0,0,1,2.4-1.317A2.3,2.3,0,0,1,41.73,73.1c.113.356.2.531.642.482a2.426,2.426,0,0,1,2.877,2.631c.01,2.931,0,5.862.008,8.793a1.577,1.577,0,0,0,.118.929c.623-.493,1.226-.969,1.828-1.447a2.525,2.525,0,0,1,3.926,3.125,38.313,38.313,0,0,1-3.507,5.777c-.345.467-.74.9-1.318.436-.528-.419-.244-.9.083-1.338A36.145,36.145,0,0,0,49.7,87.058c.272-.539.465-1.069-.074-1.531-.584-.5-1.087-.177-1.575.222-.707.579-1.432,1.136-2.142,1.71a1.282,1.282,0,0,1-1.476.313,1.407,1.407,0,0,1-.76-1.4q0-4.841,0-9.681c0-.242,0-.484-.006-.726a.832.832,0,0,0-.9-.918c-.581,0-.859.374-.9.932-.014.214-.006.43-.006.645,0,2.259,0,4.518,0,6.777,0,.559-.094,1.092-.765,1.1-.688.01-.766-.538-.765-1.089q0-4.437,0-8.874a5.075,5.075,0,0,0-.031-.8.842.842,0,0,0-.935-.8.857.857,0,0,0-.866.881c-.016.214-.007.43-.007.645,0,2.824-.008,5.647.006,8.471,0,.577-.129,1.092-.762,1.109-.656.018-.788-.517-.786-1.083.005-2.205,0-4.41,0-6.615v-.876l-.222-.066c-.465,1.368-1.727,2.357-1.644,4,.061,1.207,0,2.42.017,3.63.008.555-.151,1.02-.756,1.017s-.745-.488-.727-1.034A13.2,13.2,0,0,0,33.556,81c-.845,1.151-1.982,2.038-1.843,3.776.212,2.648-.061,5.321.131,7.979a8.913,8.913,0,0,0,.669,2.889,7.092,7.092,0,0,1,.518,2.979c-.038,2.635-.013,5.27-.013,7.906,0,.188,0,.376,0,.565-.008.5-.234.855-.757.852s-.74-.347-.737-.859c.007-1.183,0-2.366,0-3.55,0-.914-.014-1.829,0-2.743a13.307,13.307,0,0,0-.727-5.527,10.234,10.234,0,0,1-.563-4.046c.022-1.983.006-3.966.006-6.183-1.06,1.063-2.009,1.952-2.879,2.912-.449.5-.079,1.9.493,2.284a2.633,2.633,0,0,1,1.293,2.28q0,7.22.007,14.441c0,.553-.128,1.008-.764.99s-.716-.514-.715-1.044c.007-3.415-.01-6.83.016-10.246,0-.6-.109-.837-.78-.821-1.989.048-3.98.029-5.969.008-.453,0-.607.129-.745.587a10.658,10.658,0,0,0-.778,4.309.91.91,0,0,0,.474.822,2.311,2.311,0,0,1,1.169,2.154c-.01,1.049-.013,2.1,0,3.146.008.57-.107,1.083-.778,1.079-.689,0-.759-.563-.761-1.1,0-.995.012-1.99-.007-2.985-.017-.888-.231-1.107-1.111-1.11q-4.558-.016-9.116,0c-.881,0-1.124.274-1.13,1.181-.007,1.022-.012,2.044,0,3.066.007.528-.165.936-.733.958-.585.022-.768-.4-.767-.917,0-1.183-.005-2.366.011-3.549a2.217,2.217,0,0,1,1.064-1.883,1.235,1.235,0,0,0,.129-2.039A34.191,34.191,0,0,1,1.3,91.134c-.363-.657-.717-1.322-1.041-2A2.443,2.443,0,0,1,3.937,86.1c.668.49,1.3,1.024,2.117,1.668m13.076-.7q0-3.307,0-6.613c0-.846-.312-1.27-.917-1.223-.753.059-.856.6-.854,1.215.006,1.532,0,3.065,0,4.6,0,.51-.214.846-.749.844s-.729-.353-.726-.859c.008-1.263,0-2.527,0-3.79,0-1.075,0-2.151,0-3.226,0-.626-.182-1.17-.921-1.156-.687.013-.873.513-.85,1.124.01.269,0,.538,0,.806q0,3.065,0,6.129c0,.508-.117.941-.715.97-.658.032-.79-.43-.8-.965,0-.188,0-.376,0-.564q0-3.669,0-7.339a8.77,8.77,0,0,0-.045-1.125.772.772,0,0,0-.9-.721.772.772,0,0,0-.776.774c-.018.241-.014.483-.015.725q0,4.153,0,8.306a5.428,5.428,0,0,1-.014.645.714.714,0,0,1-.71.73c-.508.028-.732-.28-.809-.718a4.227,4.227,0,0,1-.019-.724q0-3.347,0-6.693c0-.6-.248-1.029-.875-1.016-.574.012-.832.424-.839.985,0,.215,0,.43,0,.645q0,4.556,0,9.113c0,.61-.006,1.228-.637,1.538A1.453,1.453,0,0,1,5.268,89.1c-.629-.544-1.308-1.031-1.949-1.562-.447-.37-.909-.633-1.439-.213s-.365.933-.108,1.45a32.537,32.537,0,0,0,7.093,9.6,2.232,2.232,0,0,1,.916,2.149c-.091.532.143.678.666.672,2.258-.026,4.516-.03,6.774,0,.558.008.7-.2.651-.7a7.657,7.657,0,0,1,.592-3.607,10.326,10.326,0,0,0,.667-3.866q0-2.984,0-5.968M24.1,94.339h2.1c1.562,0,1.562,0,1.476-1.557a1.331,1.331,0,0,0-1.467-1.439c-1.183-.014-2.366-.01-3.549,0-.642,0-1.458-.2-1.88.114-.463.345-.092,1.208-.169,1.84-.019.16,0,.325-.021.483-.064.421.1.575.529.566.994-.02,1.989-.006,2.984-.005" transform="translate(0 -56.318)" fill="#12263f"/>
        <path id="Trazado_874210" data-name="Trazado 874210" d="M81.731,5.11a2.869,2.869,0,0,1,1.887-2.888c.05-.018.1-.046.147-.065.66-.246,1.476.278,1.92-.028.467-.322.58-1.157,1.145-1.58a2.714,2.714,0,0,1,4.31,1.7c.072.4.13.435.529.358a2.747,2.747,0,0,1,3.509,2.951c0,.834,0,1.667,0,2.5,0,.539-.121.989-.777.987s-.763-.492-.772-1c-.014-.86.006-1.721-.009-2.582C93.6,4.526,93.2,4.043,92.453,4.03s-1.258.526-1.263,1.455c-.015,2.823,0,5.647-.008,8.471a2.731,2.731,0,0,1-.051.72.658.658,0,0,1-.661.493.7.7,0,0,1-.719-.535,2.618,2.618,0,0,1-.043-.721q0-5.405,0-10.81a1.43,1.43,0,0,0-.693-1.434A1.169,1.169,0,0,0,87.291,2.78c-.03,1.559-.01,3.119-.011,4.679q0,3.025,0,6.051c0,.456-.063.873-.559,1.047-.564.2-.984-.2-.988-.987-.012-2.2,0-4.41-.005-6.615,0-.672.012-1.345-.006-2.017a1.219,1.219,0,1,0-2.419.03c-.015,2.743,0,5.486-.009,8.229,0,.607.133,1.4-.781,1.381-.835-.015-.737-.759-.737-1.351,0-1.748,0-3.5,0-5.244,0-.959-.431-1.5-1.173-1.524-.77-.023-1.244.55-1.248,1.53q-.009,1.976,0,3.953c0,.539-.122,1.014-.748,1.03s-.786-.463-.788-1c0-1.4-.041-2.8.009-4.195.076-2.152,1.567-3.165,3.9-2.673" transform="translate(-65.246 0)" fill="#12263f"/>
        <path id="Trazado_874211" data-name="Trazado 874211" d="M256.654,247.314c0-1.37.016-2.741-.008-4.111a1.528,1.528,0,0,1,.546-1.267c.7-.629,1.351-1.307,2.01-1.976.357-.363.743-.589,1.191-.206.493.421.3.854-.074,1.249a5.182,5.182,0,0,1-.788.8,3.348,3.348,0,0,0-1.368,3.334c.1,1.956.025,3.921.025,5.883,0,.188.005.376,0,.564-.026.5-.18.943-.769.935-.571-.008-.762-.413-.76-.937,0-1.021,0-2.042,0-3.063q0-.6,0-1.209" transform="translate(-215.229 -200.897)" fill="#12263f"/>
      </g>
    </g>
  </g>
</svg>
